ISO-10303-21;
HEADER;
/* Generated by software containing ST-Developer
 * from STEP Tools, Inc. (www.steptools.com) 
 */

FILE_DESCRIPTION(
/* description */ (''),
/* implementation_level */ '2;1');

FILE_NAME(
/* name */ 'Buttons.step',
/* time_stamp */ '2026-05-06T21:09:17-07:00',
/* author */ (''),
/* organization */ (''),
/* preprocessor_version */ 'ST-DEVELOPER v20.1',
/* originating_system */ 'Autodesk Translation Framework v15.8.0.0',
/* authorisation */ '');

FILE_SCHEMA (('AUTOMOTIVE_DESIGN { 1 0 10303 214 3 1 1 }'));
ENDSEC;

DATA;
#10=MECHANICAL_DESIGN_GEOMETRIC_PRESENTATION_REPRESENTATION('',(#13,#14),
#320);
#11=SHAPE_REPRESENTATION_RELATIONSHIP('SRR','None',#327,#12);
#12=ADVANCED_BREP_SHAPE_REPRESENTATION('',(#15,#16),#319);
#13=STYLED_ITEM('',(#336),#15);
#14=STYLED_ITEM('',(#336),#16);
#15=MANIFOLD_SOLID_BREP('Body2',#171);
#16=MANIFOLD_SOLID_BREP('Body3',#172);
#17=FACE_BOUND('',#45,.T.);
#18=FACE_BOUND('',#48,.T.);
#19=FACE_BOUND('',#54,.T.);
#20=FACE_BOUND('',#57,.T.);
#21=PLANE('',#189);
#22=PLANE('',#194);
#23=PLANE('',#197);
#24=PLANE('',#198);
#25=PLANE('',#202);
#26=PLANE('',#207);
#27=PLANE('',#210);
#28=PLANE('',#211);
#29=FACE_OUTER_BOUND('',#43,.T.);
#30=FACE_OUTER_BOUND('',#44,.T.);
#31=FACE_OUTER_BOUND('',#46,.T.);
#32=FACE_OUTER_BOUND('',#47,.T.);
#33=FACE_OUTER_BOUND('',#49,.T.);
#34=FACE_OUTER_BOUND('',#50,.T.);
#35=FACE_OUTER_BOUND('',#51,.T.);
#36=FACE_OUTER_BOUND('',#52,.T.);
#37=FACE_OUTER_BOUND('',#53,.T.);
#38=FACE_OUTER_BOUND('',#55,.T.);
#39=FACE_OUTER_BOUND('',#56,.T.);
#40=FACE_OUTER_BOUND('',#58,.T.);
#41=FACE_OUTER_BOUND('',#59,.T.);
#42=FACE_OUTER_BOUND('',#60,.T.);
#43=EDGE_LOOP('',(#115,#116,#117,#118));
#44=EDGE_LOOP('',(#119));
#45=EDGE_LOOP('',(#120));
#46=EDGE_LOOP('',(#121,#122,#123,#124));
#47=EDGE_LOOP('',(#125));
#48=EDGE_LOOP('',(#126));
#49=EDGE_LOOP('',(#127,#128,#129,#130));
#50=EDGE_LOOP('',(#131));
#51=EDGE_LOOP('',(#132));
#52=EDGE_LOOP('',(#133,#134,#135,#136));
#53=EDGE_LOOP('',(#137));
#54=EDGE_LOOP('',(#138));
#55=EDGE_LOOP('',(#139,#140,#141,#142));
#56=EDGE_LOOP('',(#143));
#57=EDGE_LOOP('',(#144));
#58=EDGE_LOOP('',(#145,#146,#147,#148));
#59=EDGE_LOOP('',(#149));
#60=EDGE_LOOP('',(#150));
#61=LINE('',#277,#67);
#62=LINE('',#286,#68);
#63=LINE('',#292,#69);
#64=LINE('',#299,#70);
#65=LINE('',#308,#71);
#66=LINE('',#314,#72);
#67=VECTOR('',#218,1.725);
#68=VECTOR('',#229,4.9);
#69=VECTOR('',#238,2.5);
#70=VECTOR('',#247,1.725);
#71=VECTOR('',#258,4.9);
#72=VECTOR('',#267,2.5);
#73=CIRCLE('',#187,1.725);
#74=CIRCLE('',#188,1.725);
#75=CIRCLE('',#190,2.5);
#76=CIRCLE('',#192,4.9);
#77=CIRCLE('',#193,4.9);
#78=CIRCLE('',#195,2.5);
#79=CIRCLE('',#200,1.725);
#80=CIRCLE('',#201,1.725);
#81=CIRCLE('',#203,2.5);
#82=CIRCLE('',#205,4.9);
#83=CIRCLE('',#206,4.9);
#84=CIRCLE('',#208,2.5);
#85=VERTEX_POINT('',#274);
#86=VERTEX_POINT('',#276);
#87=VERTEX_POINT('',#280);
#88=VERTEX_POINT('',#283);
#89=VERTEX_POINT('',#285);
#90=VERTEX_POINT('',#289);
#91=VERTEX_POINT('',#296);
#92=VERTEX_POINT('',#298);
#93=VERTEX_POINT('',#302);
#94=VERTEX_POINT('',#305);
#95=VERTEX_POINT('',#307);
#96=VERTEX_POINT('',#311);
#97=EDGE_CURVE('',#85,#85,#73,.F.);
#98=EDGE_CURVE('',#85,#86,#61,.T.);
#99=EDGE_CURVE('',#86,#86,#74,.T.);
#100=EDGE_CURVE('',#87,#87,#75,.F.);
#101=EDGE_CURVE('',#88,#88,#76,.T.);
#102=EDGE_CURVE('',#88,#89,#62,.T.);
#103=EDGE_CURVE('',#89,#89,#77,.T.);
#104=EDGE_CURVE('',#90,#90,#78,.T.);
#105=EDGE_CURVE('',#90,#87,#63,.T.);
#106=EDGE_CURVE('',#91,#91,#79,.F.);
#107=EDGE_CURVE('',#91,#92,#64,.T.);
#108=EDGE_CURVE('',#92,#92,#80,.T.);
#109=EDGE_CURVE('',#93,#93,#81,.F.);
#110=EDGE_CURVE('',#94,#94,#82,.T.);
#111=EDGE_CURVE('',#94,#95,#65,.T.);
#112=EDGE_CURVE('',#95,#95,#83,.T.);
#113=EDGE_CURVE('',#96,#96,#84,.T.);
#114=EDGE_CURVE('',#96,#93,#66,.T.);
#115=ORIENTED_EDGE('',*,*,#97,.F.);
#116=ORIENTED_EDGE('',*,*,#98,.T.);
#117=ORIENTED_EDGE('',*,*,#99,.F.);
#118=ORIENTED_EDGE('',*,*,#98,.F.);
#119=ORIENTED_EDGE('',*,*,#100,.T.);
#120=ORIENTED_EDGE('',*,*,#97,.T.);
#121=ORIENTED_EDGE('',*,*,#101,.F.);
#122=ORIENTED_EDGE('',*,*,#102,.T.);
#123=ORIENTED_EDGE('',*,*,#103,.T.);
#124=ORIENTED_EDGE('',*,*,#102,.F.);
#125=ORIENTED_EDGE('',*,*,#101,.T.);
#126=ORIENTED_EDGE('',*,*,#104,.F.);
#127=ORIENTED_EDGE('',*,*,#104,.T.);
#128=ORIENTED_EDGE('',*,*,#105,.T.);
#129=ORIENTED_EDGE('',*,*,#100,.F.);
#130=ORIENTED_EDGE('',*,*,#105,.F.);
#131=ORIENTED_EDGE('',*,*,#99,.T.);
#132=ORIENTED_EDGE('',*,*,#103,.F.);
#133=ORIENTED_EDGE('',*,*,#106,.F.);
#134=ORIENTED_EDGE('',*,*,#107,.T.);
#135=ORIENTED_EDGE('',*,*,#108,.F.);
#136=ORIENTED_EDGE('',*,*,#107,.F.);
#137=ORIENTED_EDGE('',*,*,#109,.T.);
#138=ORIENTED_EDGE('',*,*,#106,.T.);
#139=ORIENTED_EDGE('',*,*,#110,.F.);
#140=ORIENTED_EDGE('',*,*,#111,.T.);
#141=ORIENTED_EDGE('',*,*,#112,.T.);
#142=ORIENTED_EDGE('',*,*,#111,.F.);
#143=ORIENTED_EDGE('',*,*,#110,.T.);
#144=ORIENTED_EDGE('',*,*,#113,.F.);
#145=ORIENTED_EDGE('',*,*,#113,.T.);
#146=ORIENTED_EDGE('',*,*,#114,.T.);
#147=ORIENTED_EDGE('',*,*,#109,.F.);
#148=ORIENTED_EDGE('',*,*,#114,.F.);
#149=ORIENTED_EDGE('',*,*,#108,.T.);
#150=ORIENTED_EDGE('',*,*,#112,.F.);
#151=CYLINDRICAL_SURFACE('',#186,1.725);
#152=CYLINDRICAL_SURFACE('',#191,4.9);
#153=CYLINDRICAL_SURFACE('',#196,2.5);
#154=CYLINDRICAL_SURFACE('',#199,1.725);
#155=CYLINDRICAL_SURFACE('',#204,4.9);
#156=CYLINDRICAL_SURFACE('',#209,2.5);
#157=ADVANCED_FACE('',(#29),#151,.F.);
#158=ADVANCED_FACE('',(#30,#17),#21,.F.);
#159=ADVANCED_FACE('',(#31),#152,.T.);
#160=ADVANCED_FACE('',(#32,#18),#22,.F.);
#161=ADVANCED_FACE('',(#33),#153,.T.);
#162=ADVANCED_FACE('',(#34),#23,.F.);
#163=ADVANCED_FACE('',(#35),#24,.T.);
#164=ADVANCED_FACE('',(#36),#154,.F.);
#165=ADVANCED_FACE('',(#37,#19),#25,.F.);
#166=ADVANCED_FACE('',(#38),#155,.T.);
#167=ADVANCED_FACE('',(#39,#20),#26,.F.);
#168=ADVANCED_FACE('',(#40),#156,.T.);
#169=ADVANCED_FACE('',(#41),#27,.F.);
#170=ADVANCED_FACE('',(#42),#28,.T.);
#171=CLOSED_SHELL('',(#157,#158,#159,#160,#161,#162,#163));
#172=CLOSED_SHELL('',(#164,#165,#166,#167,#168,#169,#170));
#173=DERIVED_UNIT_ELEMENT(#175,1.);
#174=DERIVED_UNIT_ELEMENT(#322,-3.);
#175=(
MASS_UNIT()
NAMED_UNIT(*)
SI_UNIT(.KILO.,.GRAM.)
);
#176=DERIVED_UNIT((#173,#174));
#177=MEASURE_REPRESENTATION_ITEM('density measure',
POSITIVE_RATIO_MEASURE(7850.),#176);
#178=PROPERTY_DEFINITION_REPRESENTATION(#183,#180);
#179=PROPERTY_DEFINITION_REPRESENTATION(#184,#181);
#180=REPRESENTATION('material name',(#182),#319);
#181=REPRESENTATION('density',(#177),#319);
#182=DESCRIPTIVE_REPRESENTATION_ITEM('Steel','Steel');
#183=PROPERTY_DEFINITION('material property','material name',#329);
#184=PROPERTY_DEFINITION('material property','density of part',#329);
#185=AXIS2_PLACEMENT_3D('',#272,#212,#213);
#186=AXIS2_PLACEMENT_3D('',#273,#214,#215);
#187=AXIS2_PLACEMENT_3D('',#275,#216,#217);
#188=AXIS2_PLACEMENT_3D('',#278,#219,#220);
#189=AXIS2_PLACEMENT_3D('',#279,#221,#222);
#190=AXIS2_PLACEMENT_3D('',#281,#223,#224);
#191=AXIS2_PLACEMENT_3D('',#282,#225,#226);
#192=AXIS2_PLACEMENT_3D('',#284,#227,#228);
#193=AXIS2_PLACEMENT_3D('',#287,#230,#231);
#194=AXIS2_PLACEMENT_3D('',#288,#232,#233);
#195=AXIS2_PLACEMENT_3D('',#290,#234,#235);
#196=AXIS2_PLACEMENT_3D('',#291,#236,#237);
#197=AXIS2_PLACEMENT_3D('',#293,#239,#240);
#198=AXIS2_PLACEMENT_3D('',#294,#241,#242);
#199=AXIS2_PLACEMENT_3D('',#295,#243,#244);
#200=AXIS2_PLACEMENT_3D('',#297,#245,#246);
#201=AXIS2_PLACEMENT_3D('',#300,#248,#249);
#202=AXIS2_PLACEMENT_3D('',#301,#250,#251);
#203=AXIS2_PLACEMENT_3D('',#303,#252,#253);
#204=AXIS2_PLACEMENT_3D('',#304,#254,#255);
#205=AXIS2_PLACEMENT_3D('',#306,#256,#257);
#206=AXIS2_PLACEMENT_3D('',#309,#259,#260);
#207=AXIS2_PLACEMENT_3D('',#310,#261,#262);
#208=AXIS2_PLACEMENT_3D('',#312,#263,#264);
#209=AXIS2_PLACEMENT_3D('',#313,#265,#266);
#210=AXIS2_PLACEMENT_3D('',#315,#268,#269);
#211=AXIS2_PLACEMENT_3D('',#316,#270,#271);
#212=DIRECTION('axis',(0.,0.,1.));
#213=DIRECTION('refdir',(1.,0.,0.));
#214=DIRECTION('center_axis',(0.,0.,-1.));
#215=DIRECTION('ref_axis',(-1.,2.46519032881566E-32,0.));
#216=DIRECTION('center_axis',(-3.491481338843E-15,3.46944695195245E-18,
-1.));
#217=DIRECTION('ref_axis',(-1.,2.46519032881566E-32,0.));
#218=DIRECTION('',(0.,0.,1.));
#219=DIRECTION('center_axis',(-3.491481338843E-15,3.46944695195245E-18,
-1.));
#220=DIRECTION('ref_axis',(-1.,2.46519032881566E-32,0.));
#221=DIRECTION('center_axis',(3.491481338843E-15,-3.46944695195245E-18,
1.));
#222=DIRECTION('ref_axis',(1.,0.,-3.491481338843E-15));
#223=DIRECTION('center_axis',(3.491481338843E-15,-3.46944695195245E-18,
1.));
#224=DIRECTION('ref_axis',(-1.,2.46519032881566E-32,0.));
#225=DIRECTION('center_axis',(0.,0.,-1.));
#226=DIRECTION('ref_axis',(-1.,2.46519032881566E-32,0.));
#227=DIRECTION('center_axis',(0.,3.46944695195361E-18,-1.));
#228=DIRECTION('ref_axis',(-1.,2.46519032881566E-32,0.));
#229=DIRECTION('',(0.,0.,1.));
#230=DIRECTION('center_axis',(0.,3.46944695195361E-18,-1.));
#231=DIRECTION('ref_axis',(-1.,2.46519032881566E-32,0.));
#232=DIRECTION('center_axis',(0.,-3.46944695195361E-18,1.));
#233=DIRECTION('ref_axis',(1.,0.,0.));
#234=DIRECTION('center_axis',(0.,3.46944695195361E-18,-1.));
#235=DIRECTION('ref_axis',(-1.,2.46519032881566E-32,0.));
#236=DIRECTION('center_axis',(0.,0.,1.));
#237=DIRECTION('ref_axis',(-1.,2.46519032881566E-32,0.));
#238=DIRECTION('',(0.,0.,-1.));
#239=DIRECTION('center_axis',(3.491481338843E-15,-3.46944695195245E-18,
1.));
#240=DIRECTION('ref_axis',(1.,0.,-3.491481338843E-15));
#241=DIRECTION('center_axis',(0.,-3.46944695195361E-18,1.));
#242=DIRECTION('ref_axis',(1.,0.,0.));
#243=DIRECTION('center_axis',(0.,0.,-1.));
#244=DIRECTION('ref_axis',(-1.,2.46519032881566E-32,0.));
#245=DIRECTION('center_axis',(-3.491481338843E-15,3.46944695195245E-18,
-1.));
#246=DIRECTION('ref_axis',(-1.,2.46519032881566E-32,0.));
#247=DIRECTION('',(0.,0.,1.));
#248=DIRECTION('center_axis',(-3.491481338843E-15,3.46944695195245E-18,
-1.));
#249=DIRECTION('ref_axis',(-1.,2.46519032881566E-32,0.));
#250=DIRECTION('center_axis',(3.491481338843E-15,-3.46944695195245E-18,
1.));
#251=DIRECTION('ref_axis',(1.,0.,-3.491481338843E-15));
#252=DIRECTION('center_axis',(3.491481338843E-15,-3.46944695195245E-18,
1.));
#253=DIRECTION('ref_axis',(-1.,2.46519032881566E-32,0.));
#254=DIRECTION('center_axis',(0.,0.,-1.));
#255=DIRECTION('ref_axis',(-1.,2.46519032881566E-32,0.));
#256=DIRECTION('center_axis',(0.,3.46944695195361E-18,-1.));
#257=DIRECTION('ref_axis',(-1.,2.46519032881566E-32,0.));
#258=DIRECTION('',(0.,0.,1.));
#259=DIRECTION('center_axis',(0.,3.46944695195361E-18,-1.));
#260=DIRECTION('ref_axis',(-1.,2.46519032881566E-32,0.));
#261=DIRECTION('center_axis',(0.,-3.46944695195361E-18,1.));
#262=DIRECTION('ref_axis',(1.,0.,0.));
#263=DIRECTION('center_axis',(0.,3.46944695195361E-18,-1.));
#264=DIRECTION('ref_axis',(-1.,2.46519032881566E-32,0.));
#265=DIRECTION('center_axis',(0.,0.,1.));
#266=DIRECTION('ref_axis',(-1.,2.46519032881566E-32,0.));
#267=DIRECTION('',(0.,0.,-1.));
#268=DIRECTION('center_axis',(3.491481338843E-15,-3.46944695195245E-18,
1.));
#269=DIRECTION('ref_axis',(1.,0.,-3.491481338843E-15));
#270=DIRECTION('center_axis',(0.,-3.46944695195361E-18,1.));
#271=DIRECTION('ref_axis',(1.,0.,0.));
#272=CARTESIAN_POINT('',(0.,0.,0.));
#273=CARTESIAN_POINT('Origin',(26.4198,-4.06399999999994,18.77));
#274=CARTESIAN_POINT('',(28.1448,-4.06399999999994,17.77));
#275=CARTESIAN_POINT('Origin',(26.4198,-4.06399999999994,17.77));
#276=CARTESIAN_POINT('',(28.1448,-4.06399999999994,18.77));
#277=CARTESIAN_POINT('',(28.1448,-4.06399999999994,18.77));
#278=CARTESIAN_POINT('Origin',(26.4198,-4.06399999999994,18.77));
#279=CARTESIAN_POINT('Origin',(26.4198,-4.06399999999994,17.77));
#280=CARTESIAN_POINT('',(28.9198,-4.06399999999994,17.77));
#281=CARTESIAN_POINT('Origin',(26.4198,-4.06399999999994,17.77));
#282=CARTESIAN_POINT('Origin',(26.4198,-4.06399999999994,23.87));
#283=CARTESIAN_POINT('',(31.3198,-4.06399999999994,21.37));
#284=CARTESIAN_POINT('Origin',(26.4198,-4.06399999999994,21.37));
#285=CARTESIAN_POINT('',(31.3198,-4.06399999999994,23.87));
#286=CARTESIAN_POINT('',(31.3198,-4.06399999999994,23.87));
#287=CARTESIAN_POINT('Origin',(26.4198,-4.06399999999994,23.87));
#288=CARTESIAN_POINT('Origin',(26.4198,-4.06399999999994,21.37));
#289=CARTESIAN_POINT('',(28.9198,-4.06399999999994,21.37));
#290=CARTESIAN_POINT('Origin',(26.4198,-4.06399999999994,21.37));
#291=CARTESIAN_POINT('Origin',(26.4198,-4.06399999999994,18.77));
#292=CARTESIAN_POINT('',(28.9198,-4.06399999999994,18.77));
#293=CARTESIAN_POINT('Origin',(26.4198,-4.06399999999994,18.77));
#294=CARTESIAN_POINT('Origin',(26.4198,-4.06399999999994,23.87));
#295=CARTESIAN_POINT('Origin',(51.8198,-4.06399999999994,18.77));
#296=CARTESIAN_POINT('',(53.5448,-4.06399999999994,17.77));
#297=CARTESIAN_POINT('Origin',(51.8198,-4.06399999999994,17.77));
#298=CARTESIAN_POINT('',(53.5448,-4.06399999999994,18.77));
#299=CARTESIAN_POINT('',(53.5448,-4.06399999999994,18.77));
#300=CARTESIAN_POINT('Origin',(51.8198,-4.06399999999994,18.77));
#301=CARTESIAN_POINT('Origin',(51.8198,-4.06399999999994,17.77));
#302=CARTESIAN_POINT('',(54.3198,-4.06399999999994,17.77));
#303=CARTESIAN_POINT('Origin',(51.8198,-4.06399999999994,17.77));
#304=CARTESIAN_POINT('Origin',(51.8198,-4.06399999999994,23.87));
#305=CARTESIAN_POINT('',(56.7198,-4.06399999999994,21.37));
#306=CARTESIAN_POINT('Origin',(51.8198,-4.06399999999994,21.37));
#307=CARTESIAN_POINT('',(56.7198,-4.06399999999994,23.87));
#308=CARTESIAN_POINT('',(56.7198,-4.06399999999994,23.87));
#309=CARTESIAN_POINT('Origin',(51.8198,-4.06399999999994,23.87));
#310=CARTESIAN_POINT('Origin',(51.8198,-4.06399999999994,21.37));
#311=CARTESIAN_POINT('',(54.3198,-4.06399999999994,21.37));
#312=CARTESIAN_POINT('Origin',(51.8198,-4.06399999999994,21.37));
#313=CARTESIAN_POINT('Origin',(51.8198,-4.06399999999994,18.77));
#314=CARTESIAN_POINT('',(54.3198,-4.06399999999994,18.77));
#315=CARTESIAN_POINT('Origin',(51.8198,-4.06399999999994,18.77));
#316=CARTESIAN_POINT('Origin',(51.8198,-4.06399999999994,23.87));
#317=UNCERTAINTY_MEASURE_WITH_UNIT(LENGTH_MEASURE(0.01),#321,
'DISTANCE_ACCURACY_VALUE',
'Maximum model space distance between geometric entities at asserted c
onnectivities');
#318=UNCERTAINTY_MEASURE_WITH_UNIT(LENGTH_MEASURE(0.01),#321,
'DISTANCE_ACCURACY_VALUE',
'Maximum model space distance between geometric entities at asserted c
onnectivities');
#319=(
GEOMETRIC_REPRESENTATION_CONTEXT(3)
GLOBAL_UNCERTAINTY_ASSIGNED_CONTEXT((#317))
GLOBAL_UNIT_ASSIGNED_CONTEXT((#321,#323,#324))
REPRESENTATION_CONTEXT('','3D')
);
#320=(
GEOMETRIC_REPRESENTATION_CONTEXT(3)
GLOBAL_UNCERTAINTY_ASSIGNED_CONTEXT((#318))
GLOBAL_UNIT_ASSIGNED_CONTEXT((#321,#323,#324))
REPRESENTATION_CONTEXT('','3D')
);
#321=(
LENGTH_UNIT()
NAMED_UNIT(*)
SI_UNIT(.MILLI.,.METRE.)
);
#322=(
LENGTH_UNIT()
NAMED_UNIT(*)
SI_UNIT($,.METRE.)
);
#323=(
NAMED_UNIT(*)
PLANE_ANGLE_UNIT()
SI_UNIT($,.RADIAN.)
);
#324=(
NAMED_UNIT(*)
SI_UNIT($,.STERADIAN.)
SOLID_ANGLE_UNIT()
);
#325=SHAPE_DEFINITION_REPRESENTATION(#326,#327);
#326=PRODUCT_DEFINITION_SHAPE('',$,#329);
#327=SHAPE_REPRESENTATION('',(#185),#319);
#328=PRODUCT_DEFINITION_CONTEXT('part definition',#333,'design');
#329=PRODUCT_DEFINITION('Buttons','Buttons',#330,#328);
#330=PRODUCT_DEFINITION_FORMATION('',$,#335);
#331=PRODUCT_RELATED_PRODUCT_CATEGORY('Buttons','Buttons',(#335));
#332=APPLICATION_PROTOCOL_DEFINITION('international standard',
'automotive_design',2009,#333);
#333=APPLICATION_CONTEXT(
'Core Data for Automotive Mechanical Design Process');
#334=PRODUCT_CONTEXT('part definition',#333,'mechanical');
#335=PRODUCT('Buttons','Buttons',$,(#334));
#336=PRESENTATION_STYLE_ASSIGNMENT((#337));
#337=SURFACE_STYLE_USAGE(.BOTH.,#338);
#338=SURFACE_SIDE_STYLE('',(#339));
#339=SURFACE_STYLE_FILL_AREA(#340);
#340=FILL_AREA_STYLE('Opaque(25,25,25)',(#341));
#341=FILL_AREA_STYLE_COLOUR('Opaque(25,25,25)',#342);
#342=COLOUR_RGB('Opaque(25,25,25)',0.0980392156862745,0.0980392156862745,
0.0980392156862745);
ENDSEC;
END-ISO-10303-21;
