ISO-10303-21;
HEADER;
/* Generated by software containing ST-Developer
 * from STEP Tools, Inc. (www.steptools.com) 
 */

FILE_DESCRIPTION(
/* description */ (''),
/* implementation_level */ '2;1');

FILE_NAME(
/* name */ 'Laser Mount v7.step',
/* time_stamp */ '2026-05-10T15:11:20-07:00',
/* author */ (''),
/* organization */ (''),
/* preprocessor_version */ 'ST-DEVELOPER v20.1',
/* originating_system */ 'Autodesk Translation Framework v15.8.0.0',
/* authorisation */ '');

FILE_SCHEMA (('AUTOMOTIVE_DESIGN { 1 0 10303 214 3 1 1 }'));
ENDSEC;

DATA;
#10=MECHANICAL_DESIGN_GEOMETRIC_PRESENTATION_REPRESENTATION('',(#13),#1038);
#11=SHAPE_REPRESENTATION_RELATIONSHIP('SRR','None',#1045,#12);
#12=ADVANCED_BREP_SHAPE_REPRESENTATION('',(#14),#1037);
#13=STYLED_ITEM('',(#1054),#14);
#14=MANIFOLD_SOLID_BREP('Body1',#621);
#15=FACE_BOUND('',#94,.T.);
#16=FACE_BOUND('',#96,.T.);
#17=FACE_BOUND('',#98,.T.);
#18=FACE_BOUND('',#102,.T.);
#19=FACE_BOUND('',#105,.T.);
#20=B_SPLINE_CURVE_WITH_KNOTS('',3,(#864,#865,#866,#867,#868,#869,#870,
#871,#872,#873,#874,#875,#876,#877,#878,#879,#880,#881),.UNSPECIFIED.,.F.,
 .F.,(4,2,2,2,2,2,2,2,4),(0.221814158912913,0.277225354370685,0.332636549828456,
0.388132433827141,0.443628317825826,0.499124201824511,0.554620085823196,
0.610031281280968,0.665442476738739),.UNSPECIFIED.);
#21=B_SPLINE_CURVE_WITH_KNOTS('',3,(#883,#884,#885,#886,#887,#888,#889,
#890,#891,#892),.UNSPECIFIED.,.F.,.F.,(4,2,2,2,4),(0.,0.0554958839986852,
0.11099176799737,0.166402963455142,0.221814158912913),.UNSPECIFIED.);
#22=B_SPLINE_CURVE_WITH_KNOTS('',3,(#893,#894,#895,#896,#897,#898,#899,
#900,#901,#902),.UNSPECIFIED.,.F.,.F.,(4,2,2,2,4),(0.665442476738739,0.72085367219651,
0.776264867654282,0.831760751652967,0.887256635651652),.UNSPECIFIED.);
#23=PLANE('',#638);
#24=PLANE('',#639);
#25=PLANE('',#640);
#26=PLANE('',#641);
#27=PLANE('',#651);
#28=PLANE('',#652);
#29=PLANE('',#653);
#30=PLANE('',#654);
#31=PLANE('',#655);
#32=PLANE('',#656);
#33=PLANE('',#657);
#34=PLANE('',#658);
#35=PLANE('',#659);
#36=PLANE('',#660);
#37=PLANE('',#661);
#38=PLANE('',#662);
#39=PLANE('',#663);
#40=PLANE('',#664);
#41=PLANE('',#665);
#42=PLANE('',#666);
#43=PLANE('',#667);
#44=PLANE('',#668);
#45=PLANE('',#669);
#46=PLANE('',#670);
#47=PLANE('',#671);
#48=PLANE('',#672);
#49=FACE_OUTER_BOUND('',#79,.T.);
#50=FACE_OUTER_BOUND('',#80,.T.);
#51=FACE_OUTER_BOUND('',#81,.T.);
#52=FACE_OUTER_BOUND('',#82,.T.);
#53=FACE_OUTER_BOUND('',#83,.T.);
#54=FACE_OUTER_BOUND('',#84,.T.);
#55=FACE_OUTER_BOUND('',#85,.T.);
#56=FACE_OUTER_BOUND('',#86,.T.);
#57=FACE_OUTER_BOUND('',#87,.T.);
#58=FACE_OUTER_BOUND('',#88,.T.);
#59=FACE_OUTER_BOUND('',#89,.T.);
#60=FACE_OUTER_BOUND('',#90,.T.);
#61=FACE_OUTER_BOUND('',#91,.T.);
#62=FACE_OUTER_BOUND('',#92,.T.);
#63=FACE_OUTER_BOUND('',#93,.T.);
#64=FACE_OUTER_BOUND('',#95,.T.);
#65=FACE_OUTER_BOUND('',#97,.T.);
#66=FACE_OUTER_BOUND('',#99,.T.);
#67=FACE_OUTER_BOUND('',#100,.T.);
#68=FACE_OUTER_BOUND('',#101,.T.);
#69=FACE_OUTER_BOUND('',#103,.T.);
#70=FACE_OUTER_BOUND('',#104,.T.);
#71=FACE_OUTER_BOUND('',#106,.T.);
#72=FACE_OUTER_BOUND('',#107,.T.);
#73=FACE_OUTER_BOUND('',#108,.T.);
#74=FACE_OUTER_BOUND('',#109,.T.);
#75=FACE_OUTER_BOUND('',#110,.T.);
#76=FACE_OUTER_BOUND('',#111,.T.);
#77=FACE_OUTER_BOUND('',#112,.T.);
#78=FACE_OUTER_BOUND('',#113,.T.);
#79=EDGE_LOOP('',(#415,#416,#417,#418));
#80=EDGE_LOOP('',(#419,#420,#421,#422));
#81=EDGE_LOOP('',(#423,#424,#425,#426,#427));
#82=EDGE_LOOP('',(#428,#429,#430,#431,#432));
#83=EDGE_LOOP('',(#433,#434,#435,#436,#437));
#84=EDGE_LOOP('',(#438,#439,#440,#441,#442,#443));
#85=EDGE_LOOP('',(#444,#445,#446,#447,#448,#449,#450,#451,#452,#453));
#86=EDGE_LOOP('',(#454,#455,#456,#457));
#87=EDGE_LOOP('',(#458,#459,#460,#461));
#88=EDGE_LOOP('',(#462,#463,#464,#465));
#89=EDGE_LOOP('',(#466,#467,#468,#469));
#90=EDGE_LOOP('',(#470,#471,#472,#473));
#91=EDGE_LOOP('',(#474,#475,#476,#477));
#92=EDGE_LOOP('',(#478,#479,#480,#481));
#93=EDGE_LOOP('',(#482,#483,#484,#485,#486,#487));
#94=EDGE_LOOP('',(#488));
#95=EDGE_LOOP('',(#489,#490,#491,#492));
#96=EDGE_LOOP('',(#493));
#97=EDGE_LOOP('',(#494,#495,#496,#497));
#98=EDGE_LOOP('',(#498));
#99=EDGE_LOOP('',(#499,#500,#501,#502));
#100=EDGE_LOOP('',(#503,#504,#505,#506));
#101=EDGE_LOOP('',(#507,#508,#509,#510));
#102=EDGE_LOOP('',(#511));
#103=EDGE_LOOP('',(#512,#513,#514,#515));
#104=EDGE_LOOP('',(#516,#517,#518,#519));
#105=EDGE_LOOP('',(#520,#521,#522,#523,#524,#525));
#106=EDGE_LOOP('',(#526,#527,#528,#529));
#107=EDGE_LOOP('',(#530,#531,#532,#533));
#108=EDGE_LOOP('',(#534,#535,#536,#537));
#109=EDGE_LOOP('',(#538,#539,#540,#541));
#110=EDGE_LOOP('',(#542,#543,#544,#545));
#111=EDGE_LOOP('',(#546,#547,#548,#549,#550,#551,#552,#553,#554,#555,#556));
#112=EDGE_LOOP('',(#557,#558,#559,#560,#561,#562,#563,#564,#565,#566,#567,
#568,#569));
#113=EDGE_LOOP('',(#570,#571,#572,#573,#574,#575,#576,#577,#578,#579,#580,
#581,#582,#583,#584,#585,#586));
#114=LINE('',#832,#189);
#115=LINE('',#835,#190);
#116=LINE('',#838,#191);
#117=LINE('',#840,#192);
#118=LINE('',#841,#193);
#119=LINE('',#844,#194);
#120=LINE('',#846,#195);
#121=LINE('',#847,#196);
#122=LINE('',#850,#197);
#123=LINE('',#852,#198);
#124=LINE('',#853,#199);
#125=LINE('',#856,#200);
#126=LINE('',#857,#201);
#127=LINE('',#862,#202);
#128=LINE('',#907,#203);
#129=LINE('',#909,#204);
#130=LINE('',#915,#205);
#131=LINE('',#920,#206);
#132=LINE('',#922,#207);
#133=LINE('',#924,#208);
#134=LINE('',#925,#209);
#135=LINE('',#928,#210);
#136=LINE('',#930,#211);
#137=LINE('',#931,#212);
#138=LINE('',#934,#213);
#139=LINE('',#936,#214);
#140=LINE('',#937,#215);
#141=LINE('',#940,#216);
#142=LINE('',#942,#217);
#143=LINE('',#943,#218);
#144=LINE('',#946,#219);
#145=LINE('',#948,#220);
#146=LINE('',#949,#221);
#147=LINE('',#951,#222);
#148=LINE('',#952,#223);
#149=LINE('',#957,#224);
#150=LINE('',#959,#225);
#151=LINE('',#961,#226);
#152=LINE('',#962,#227);
#153=LINE('',#965,#228);
#154=LINE('',#967,#229);
#155=LINE('',#968,#230);
#156=LINE('',#971,#231);
#157=LINE('',#973,#232);
#158=LINE('',#974,#233);
#159=LINE('',#977,#234);
#160=LINE('',#979,#235);
#161=LINE('',#980,#236);
#162=LINE('',#983,#237);
#163=LINE('',#985,#238);
#164=LINE('',#986,#239);
#165=LINE('',#989,#240);
#166=LINE('',#991,#241);
#167=LINE('',#992,#242);
#168=LINE('',#995,#243);
#169=LINE('',#997,#244);
#170=LINE('',#998,#245);
#171=LINE('',#1001,#246);
#172=LINE('',#1003,#247);
#173=LINE('',#1004,#248);
#174=LINE('',#1007,#249);
#175=LINE('',#1009,#250);
#176=LINE('',#1010,#251);
#177=LINE('',#1013,#252);
#178=LINE('',#1015,#253);
#179=LINE('',#1016,#254);
#180=LINE('',#1019,#255);
#181=LINE('',#1021,#256);
#182=LINE('',#1022,#257);
#183=LINE('',#1025,#258);
#184=LINE('',#1027,#259);
#185=LINE('',#1028,#260);
#186=LINE('',#1030,#261);
#187=LINE('',#1031,#262);
#188=LINE('',#1032,#263);
#189=VECTOR('',#679,10.);
#190=VECTOR('',#682,10.);
#191=VECTOR('',#685,10.);
#192=VECTOR('',#686,10.);
#193=VECTOR('',#687,10.);
#194=VECTOR('',#690,10.);
#195=VECTOR('',#691,10.);
#196=VECTOR('',#692,10.);
#197=VECTOR('',#695,10.);
#198=VECTOR('',#696,10.);
#199=VECTOR('',#697,10.);
#200=VECTOR('',#700,10.);
#201=VECTOR('',#701,10.);
#202=VECTOR('',#706,1.45);
#203=VECTOR('',#713,3.3);
#204=VECTOR('',#714,3.3);
#205=VECTOR('',#721,3.429);
#206=VECTOR('',#726,10.);
#207=VECTOR('',#727,10.);
#208=VECTOR('',#728,10.);
#209=VECTOR('',#729,10.);
#210=VECTOR('',#732,10.);
#211=VECTOR('',#733,10.);
#212=VECTOR('',#734,10.);
#213=VECTOR('',#737,10.);
#214=VECTOR('',#738,10.);
#215=VECTOR('',#739,10.);
#216=VECTOR('',#742,10.);
#217=VECTOR('',#743,10.);
#218=VECTOR('',#744,10.);
#219=VECTOR('',#747,10.);
#220=VECTOR('',#748,10.);
#221=VECTOR('',#749,10.);
#222=VECTOR('',#752,10.);
#223=VECTOR('',#753,10.);
#224=VECTOR('',#758,10.);
#225=VECTOR('',#759,10.);
#226=VECTOR('',#760,10.);
#227=VECTOR('',#761,10.);
#228=VECTOR('',#764,10.);
#229=VECTOR('',#765,10.);
#230=VECTOR('',#766,10.);
#231=VECTOR('',#769,10.);
#232=VECTOR('',#770,10.);
#233=VECTOR('',#771,10.);
#234=VECTOR('',#774,10.);
#235=VECTOR('',#775,10.);
#236=VECTOR('',#776,10.);
#237=VECTOR('',#779,10.);
#238=VECTOR('',#780,10.);
#239=VECTOR('',#781,10.);
#240=VECTOR('',#784,10.);
#241=VECTOR('',#785,10.);
#242=VECTOR('',#786,10.);
#243=VECTOR('',#789,10.);
#244=VECTOR('',#790,10.);
#245=VECTOR('',#791,10.);
#246=VECTOR('',#794,10.);
#247=VECTOR('',#795,10.);
#248=VECTOR('',#796,10.);
#249=VECTOR('',#799,10.);
#250=VECTOR('',#800,10.);
#251=VECTOR('',#801,10.);
#252=VECTOR('',#804,10.);
#253=VECTOR('',#805,10.);
#254=VECTOR('',#806,10.);
#255=VECTOR('',#809,10.);
#256=VECTOR('',#810,10.);
#257=VECTOR('',#811,10.);
#258=VECTOR('',#814,10.);
#259=VECTOR('',#815,10.);
#260=VECTOR('',#816,10.);
#261=VECTOR('',#819,10.);
#262=VECTOR('',#820,10.);
#263=VECTOR('',#821,10.);
#264=CIRCLE('',#636,5.00000000000001);
#265=CIRCLE('',#637,5.00000000000001);
#266=CIRCLE('',#643,1.45);
#267=CIRCLE('',#645,3.3);
#268=CIRCLE('',#646,3.3);
#269=CIRCLE('',#647,3.3);
#270=CIRCLE('',#649,3.429);
#271=CIRCLE('',#650,3.429);
#272=VERTEX_POINT('',#828);
#273=VERTEX_POINT('',#829);
#274=VERTEX_POINT('',#831);
#275=VERTEX_POINT('',#833);
#276=VERTEX_POINT('',#837);
#277=VERTEX_POINT('',#839);
#278=VERTEX_POINT('',#843);
#279=VERTEX_POINT('',#845);
#280=VERTEX_POINT('',#849);
#281=VERTEX_POINT('',#851);
#282=VERTEX_POINT('',#855);
#283=VERTEX_POINT('',#859);
#284=VERTEX_POINT('',#861);
#285=VERTEX_POINT('',#863);
#286=VERTEX_POINT('',#882);
#287=VERTEX_POINT('',#904);
#288=VERTEX_POINT('',#908);
#289=VERTEX_POINT('',#912);
#290=VERTEX_POINT('',#914);
#291=VERTEX_POINT('',#918);
#292=VERTEX_POINT('',#919);
#293=VERTEX_POINT('',#921);
#294=VERTEX_POINT('',#923);
#295=VERTEX_POINT('',#927);
#296=VERTEX_POINT('',#929);
#297=VERTEX_POINT('',#933);
#298=VERTEX_POINT('',#935);
#299=VERTEX_POINT('',#939);
#300=VERTEX_POINT('',#941);
#301=VERTEX_POINT('',#945);
#302=VERTEX_POINT('',#947);
#303=VERTEX_POINT('',#955);
#304=VERTEX_POINT('',#956);
#305=VERTEX_POINT('',#958);
#306=VERTEX_POINT('',#960);
#307=VERTEX_POINT('',#964);
#308=VERTEX_POINT('',#966);
#309=VERTEX_POINT('',#970);
#310=VERTEX_POINT('',#972);
#311=VERTEX_POINT('',#976);
#312=VERTEX_POINT('',#978);
#313=VERTEX_POINT('',#982);
#314=VERTEX_POINT('',#984);
#315=VERTEX_POINT('',#988);
#316=VERTEX_POINT('',#990);
#317=VERTEX_POINT('',#994);
#318=VERTEX_POINT('',#996);
#319=VERTEX_POINT('',#1000);
#320=VERTEX_POINT('',#1002);
#321=VERTEX_POINT('',#1006);
#322=VERTEX_POINT('',#1008);
#323=VERTEX_POINT('',#1012);
#324=VERTEX_POINT('',#1014);
#325=VERTEX_POINT('',#1018);
#326=VERTEX_POINT('',#1020);
#327=VERTEX_POINT('',#1024);
#328=VERTEX_POINT('',#1026);
#329=EDGE_CURVE('',#272,#273,#264,.T.);
#330=EDGE_CURVE('',#272,#274,#114,.T.);
#331=EDGE_CURVE('',#275,#274,#265,.T.);
#332=EDGE_CURVE('',#273,#275,#115,.T.);
#333=EDGE_CURVE('',#275,#276,#116,.T.);
#334=EDGE_CURVE('',#276,#277,#117,.T.);
#335=EDGE_CURVE('',#277,#273,#118,.T.);
#336=EDGE_CURVE('',#278,#274,#119,.T.);
#337=EDGE_CURVE('',#279,#278,#120,.T.);
#338=EDGE_CURVE('',#279,#276,#121,.T.);
#339=EDGE_CURVE('',#280,#272,#122,.T.);
#340=EDGE_CURVE('',#281,#280,#123,.T.);
#341=EDGE_CURVE('',#278,#281,#124,.T.);
#342=EDGE_CURVE('',#282,#277,#125,.T.);
#343=EDGE_CURVE('',#280,#282,#126,.T.);
#344=EDGE_CURVE('',#283,#283,#266,.T.);
#345=EDGE_CURVE('',#283,#284,#127,.T.);
#346=EDGE_CURVE('',#285,#284,#20,.T.);
#347=EDGE_CURVE('',#286,#285,#21,.T.);
#348=EDGE_CURVE('',#284,#286,#22,.T.);
#349=EDGE_CURVE('',#281,#287,#267,.T.);
#350=EDGE_CURVE('',#287,#281,#268,.T.);
#351=EDGE_CURVE('',#287,#285,#128,.T.);
#352=EDGE_CURVE('',#284,#288,#129,.T.);
#353=EDGE_CURVE('',#288,#288,#269,.T.);
#354=EDGE_CURVE('',#289,#289,#270,.T.);
#355=EDGE_CURVE('',#289,#290,#130,.T.);
#356=EDGE_CURVE('',#290,#290,#271,.T.);
#357=EDGE_CURVE('',#291,#292,#131,.T.);
#358=EDGE_CURVE('',#291,#293,#132,.T.);
#359=EDGE_CURVE('',#293,#294,#133,.T.);
#360=EDGE_CURVE('',#292,#294,#134,.T.);
#361=EDGE_CURVE('',#295,#291,#135,.T.);
#362=EDGE_CURVE('',#295,#296,#136,.T.);
#363=EDGE_CURVE('',#296,#293,#137,.T.);
#364=EDGE_CURVE('',#297,#295,#138,.T.);
#365=EDGE_CURVE('',#297,#298,#139,.T.);
#366=EDGE_CURVE('',#298,#296,#140,.T.);
#367=EDGE_CURVE('',#299,#297,#141,.T.);
#368=EDGE_CURVE('',#299,#300,#142,.T.);
#369=EDGE_CURVE('',#300,#298,#143,.T.);
#370=EDGE_CURVE('',#301,#299,#144,.T.);
#371=EDGE_CURVE('',#301,#302,#145,.T.);
#372=EDGE_CURVE('',#302,#300,#146,.T.);
#373=EDGE_CURVE('',#292,#301,#147,.T.);
#374=EDGE_CURVE('',#294,#302,#148,.T.);
#375=EDGE_CURVE('',#303,#304,#149,.T.);
#376=EDGE_CURVE('',#303,#305,#150,.T.);
#377=EDGE_CURVE('',#306,#305,#151,.T.);
#378=EDGE_CURVE('',#304,#306,#152,.T.);
#379=EDGE_CURVE('',#304,#307,#153,.T.);
#380=EDGE_CURVE('',#308,#306,#154,.T.);
#381=EDGE_CURVE('',#307,#308,#155,.T.);
#382=EDGE_CURVE('',#309,#307,#156,.T.);
#383=EDGE_CURVE('',#310,#308,#157,.T.);
#384=EDGE_CURVE('',#309,#310,#158,.T.);
#385=EDGE_CURVE('',#311,#309,#159,.T.);
#386=EDGE_CURVE('',#312,#310,#160,.T.);
#387=EDGE_CURVE('',#311,#312,#161,.T.);
#388=EDGE_CURVE('',#313,#311,#162,.T.);
#389=EDGE_CURVE('',#314,#312,#163,.T.);
#390=EDGE_CURVE('',#313,#314,#164,.T.);
#391=EDGE_CURVE('',#315,#313,#165,.T.);
#392=EDGE_CURVE('',#316,#314,#166,.T.);
#393=EDGE_CURVE('',#315,#316,#167,.T.);
#394=EDGE_CURVE('',#317,#315,#168,.T.);
#395=EDGE_CURVE('',#318,#316,#169,.T.);
#396=EDGE_CURVE('',#317,#318,#170,.T.);
#397=EDGE_CURVE('',#319,#317,#171,.T.);
#398=EDGE_CURVE('',#320,#318,#172,.T.);
#399=EDGE_CURVE('',#319,#320,#173,.T.);
#400=EDGE_CURVE('',#321,#319,#174,.T.);
#401=EDGE_CURVE('',#322,#320,#175,.T.);
#402=EDGE_CURVE('',#321,#322,#176,.T.);
#403=EDGE_CURVE('',#323,#321,#177,.T.);
#404=EDGE_CURVE('',#324,#322,#178,.T.);
#405=EDGE_CURVE('',#323,#324,#179,.T.);
#406=EDGE_CURVE('',#325,#323,#180,.T.);
#407=EDGE_CURVE('',#326,#324,#181,.T.);
#408=EDGE_CURVE('',#325,#326,#182,.T.);
#409=EDGE_CURVE('',#327,#325,#183,.T.);
#410=EDGE_CURVE('',#328,#326,#184,.T.);
#411=EDGE_CURVE('',#327,#328,#185,.T.);
#412=EDGE_CURVE('',#327,#282,#186,.T.);
#413=EDGE_CURVE('',#305,#328,#187,.T.);
#414=EDGE_CURVE('',#279,#303,#188,.T.);
#415=ORIENTED_EDGE('',*,*,#329,.F.);
#416=ORIENTED_EDGE('',*,*,#330,.T.);
#417=ORIENTED_EDGE('',*,*,#331,.F.);
#418=ORIENTED_EDGE('',*,*,#332,.F.);
#419=ORIENTED_EDGE('',*,*,#332,.T.);
#420=ORIENTED_EDGE('',*,*,#333,.T.);
#421=ORIENTED_EDGE('',*,*,#334,.T.);
#422=ORIENTED_EDGE('',*,*,#335,.T.);
#423=ORIENTED_EDGE('',*,*,#331,.T.);
#424=ORIENTED_EDGE('',*,*,#336,.F.);
#425=ORIENTED_EDGE('',*,*,#337,.F.);
#426=ORIENTED_EDGE('',*,*,#338,.T.);
#427=ORIENTED_EDGE('',*,*,#333,.F.);
#428=ORIENTED_EDGE('',*,*,#330,.F.);
#429=ORIENTED_EDGE('',*,*,#339,.F.);
#430=ORIENTED_EDGE('',*,*,#340,.F.);
#431=ORIENTED_EDGE('',*,*,#341,.F.);
#432=ORIENTED_EDGE('',*,*,#336,.T.);
#433=ORIENTED_EDGE('',*,*,#329,.T.);
#434=ORIENTED_EDGE('',*,*,#335,.F.);
#435=ORIENTED_EDGE('',*,*,#342,.F.);
#436=ORIENTED_EDGE('',*,*,#343,.F.);
#437=ORIENTED_EDGE('',*,*,#339,.T.);
#438=ORIENTED_EDGE('',*,*,#344,.F.);
#439=ORIENTED_EDGE('',*,*,#345,.T.);
#440=ORIENTED_EDGE('',*,*,#346,.F.);
#441=ORIENTED_EDGE('',*,*,#347,.F.);
#442=ORIENTED_EDGE('',*,*,#348,.F.);
#443=ORIENTED_EDGE('',*,*,#345,.F.);
#444=ORIENTED_EDGE('',*,*,#349,.F.);
#445=ORIENTED_EDGE('',*,*,#350,.F.);
#446=ORIENTED_EDGE('',*,*,#351,.T.);
#447=ORIENTED_EDGE('',*,*,#346,.T.);
#448=ORIENTED_EDGE('',*,*,#352,.T.);
#449=ORIENTED_EDGE('',*,*,#353,.F.);
#450=ORIENTED_EDGE('',*,*,#352,.F.);
#451=ORIENTED_EDGE('',*,*,#348,.T.);
#452=ORIENTED_EDGE('',*,*,#347,.T.);
#453=ORIENTED_EDGE('',*,*,#351,.F.);
#454=ORIENTED_EDGE('',*,*,#354,.F.);
#455=ORIENTED_EDGE('',*,*,#355,.T.);
#456=ORIENTED_EDGE('',*,*,#356,.F.);
#457=ORIENTED_EDGE('',*,*,#355,.F.);
#458=ORIENTED_EDGE('',*,*,#357,.F.);
#459=ORIENTED_EDGE('',*,*,#358,.T.);
#460=ORIENTED_EDGE('',*,*,#359,.T.);
#461=ORIENTED_EDGE('',*,*,#360,.F.);
#462=ORIENTED_EDGE('',*,*,#361,.F.);
#463=ORIENTED_EDGE('',*,*,#362,.T.);
#464=ORIENTED_EDGE('',*,*,#363,.T.);
#465=ORIENTED_EDGE('',*,*,#358,.F.);
#466=ORIENTED_EDGE('',*,*,#364,.F.);
#467=ORIENTED_EDGE('',*,*,#365,.T.);
#468=ORIENTED_EDGE('',*,*,#366,.T.);
#469=ORIENTED_EDGE('',*,*,#362,.F.);
#470=ORIENTED_EDGE('',*,*,#367,.F.);
#471=ORIENTED_EDGE('',*,*,#368,.T.);
#472=ORIENTED_EDGE('',*,*,#369,.T.);
#473=ORIENTED_EDGE('',*,*,#365,.F.);
#474=ORIENTED_EDGE('',*,*,#370,.F.);
#475=ORIENTED_EDGE('',*,*,#371,.T.);
#476=ORIENTED_EDGE('',*,*,#372,.T.);
#477=ORIENTED_EDGE('',*,*,#368,.F.);
#478=ORIENTED_EDGE('',*,*,#373,.F.);
#479=ORIENTED_EDGE('',*,*,#360,.T.);
#480=ORIENTED_EDGE('',*,*,#374,.T.);
#481=ORIENTED_EDGE('',*,*,#371,.F.);
#482=ORIENTED_EDGE('',*,*,#374,.F.);
#483=ORIENTED_EDGE('',*,*,#359,.F.);
#484=ORIENTED_EDGE('',*,*,#363,.F.);
#485=ORIENTED_EDGE('',*,*,#366,.F.);
#486=ORIENTED_EDGE('',*,*,#369,.F.);
#487=ORIENTED_EDGE('',*,*,#372,.F.);
#488=ORIENTED_EDGE('',*,*,#356,.T.);
#489=ORIENTED_EDGE('',*,*,#375,.F.);
#490=ORIENTED_EDGE('',*,*,#376,.T.);
#491=ORIENTED_EDGE('',*,*,#377,.F.);
#492=ORIENTED_EDGE('',*,*,#378,.F.);
#493=ORIENTED_EDGE('',*,*,#344,.T.);
#494=ORIENTED_EDGE('',*,*,#379,.F.);
#495=ORIENTED_EDGE('',*,*,#378,.T.);
#496=ORIENTED_EDGE('',*,*,#380,.F.);
#497=ORIENTED_EDGE('',*,*,#381,.F.);
#498=ORIENTED_EDGE('',*,*,#353,.T.);
#499=ORIENTED_EDGE('',*,*,#382,.T.);
#500=ORIENTED_EDGE('',*,*,#381,.T.);
#501=ORIENTED_EDGE('',*,*,#383,.F.);
#502=ORIENTED_EDGE('',*,*,#384,.F.);
#503=ORIENTED_EDGE('',*,*,#385,.T.);
#504=ORIENTED_EDGE('',*,*,#384,.T.);
#505=ORIENTED_EDGE('',*,*,#386,.F.);
#506=ORIENTED_EDGE('',*,*,#387,.F.);
#507=ORIENTED_EDGE('',*,*,#388,.T.);
#508=ORIENTED_EDGE('',*,*,#387,.T.);
#509=ORIENTED_EDGE('',*,*,#389,.F.);
#510=ORIENTED_EDGE('',*,*,#390,.F.);
#511=ORIENTED_EDGE('',*,*,#354,.T.);
#512=ORIENTED_EDGE('',*,*,#391,.T.);
#513=ORIENTED_EDGE('',*,*,#390,.T.);
#514=ORIENTED_EDGE('',*,*,#392,.F.);
#515=ORIENTED_EDGE('',*,*,#393,.F.);
#516=ORIENTED_EDGE('',*,*,#394,.T.);
#517=ORIENTED_EDGE('',*,*,#393,.T.);
#518=ORIENTED_EDGE('',*,*,#395,.F.);
#519=ORIENTED_EDGE('',*,*,#396,.F.);
#520=ORIENTED_EDGE('',*,*,#357,.T.);
#521=ORIENTED_EDGE('',*,*,#373,.T.);
#522=ORIENTED_EDGE('',*,*,#370,.T.);
#523=ORIENTED_EDGE('',*,*,#367,.T.);
#524=ORIENTED_EDGE('',*,*,#364,.T.);
#525=ORIENTED_EDGE('',*,*,#361,.T.);
#526=ORIENTED_EDGE('',*,*,#397,.T.);
#527=ORIENTED_EDGE('',*,*,#396,.T.);
#528=ORIENTED_EDGE('',*,*,#398,.F.);
#529=ORIENTED_EDGE('',*,*,#399,.F.);
#530=ORIENTED_EDGE('',*,*,#400,.T.);
#531=ORIENTED_EDGE('',*,*,#399,.T.);
#532=ORIENTED_EDGE('',*,*,#401,.F.);
#533=ORIENTED_EDGE('',*,*,#402,.F.);
#534=ORIENTED_EDGE('',*,*,#403,.T.);
#535=ORIENTED_EDGE('',*,*,#402,.T.);
#536=ORIENTED_EDGE('',*,*,#404,.F.);
#537=ORIENTED_EDGE('',*,*,#405,.F.);
#538=ORIENTED_EDGE('',*,*,#406,.T.);
#539=ORIENTED_EDGE('',*,*,#405,.T.);
#540=ORIENTED_EDGE('',*,*,#407,.F.);
#541=ORIENTED_EDGE('',*,*,#408,.F.);
#542=ORIENTED_EDGE('',*,*,#409,.T.);
#543=ORIENTED_EDGE('',*,*,#408,.T.);
#544=ORIENTED_EDGE('',*,*,#410,.F.);
#545=ORIENTED_EDGE('',*,*,#411,.F.);
#546=ORIENTED_EDGE('',*,*,#343,.T.);
#547=ORIENTED_EDGE('',*,*,#412,.F.);
#548=ORIENTED_EDGE('',*,*,#411,.T.);
#549=ORIENTED_EDGE('',*,*,#413,.F.);
#550=ORIENTED_EDGE('',*,*,#376,.F.);
#551=ORIENTED_EDGE('',*,*,#414,.F.);
#552=ORIENTED_EDGE('',*,*,#337,.T.);
#553=ORIENTED_EDGE('',*,*,#341,.T.);
#554=ORIENTED_EDGE('',*,*,#349,.T.);
#555=ORIENTED_EDGE('',*,*,#350,.T.);
#556=ORIENTED_EDGE('',*,*,#340,.T.);
#557=ORIENTED_EDGE('',*,*,#413,.T.);
#558=ORIENTED_EDGE('',*,*,#410,.T.);
#559=ORIENTED_EDGE('',*,*,#407,.T.);
#560=ORIENTED_EDGE('',*,*,#404,.T.);
#561=ORIENTED_EDGE('',*,*,#401,.T.);
#562=ORIENTED_EDGE('',*,*,#398,.T.);
#563=ORIENTED_EDGE('',*,*,#395,.T.);
#564=ORIENTED_EDGE('',*,*,#392,.T.);
#565=ORIENTED_EDGE('',*,*,#389,.T.);
#566=ORIENTED_EDGE('',*,*,#386,.T.);
#567=ORIENTED_EDGE('',*,*,#383,.T.);
#568=ORIENTED_EDGE('',*,*,#380,.T.);
#569=ORIENTED_EDGE('',*,*,#377,.T.);
#570=ORIENTED_EDGE('',*,*,#412,.T.);
#571=ORIENTED_EDGE('',*,*,#342,.T.);
#572=ORIENTED_EDGE('',*,*,#334,.F.);
#573=ORIENTED_EDGE('',*,*,#338,.F.);
#574=ORIENTED_EDGE('',*,*,#414,.T.);
#575=ORIENTED_EDGE('',*,*,#375,.T.);
#576=ORIENTED_EDGE('',*,*,#379,.T.);
#577=ORIENTED_EDGE('',*,*,#382,.F.);
#578=ORIENTED_EDGE('',*,*,#385,.F.);
#579=ORIENTED_EDGE('',*,*,#388,.F.);
#580=ORIENTED_EDGE('',*,*,#391,.F.);
#581=ORIENTED_EDGE('',*,*,#394,.F.);
#582=ORIENTED_EDGE('',*,*,#397,.F.);
#583=ORIENTED_EDGE('',*,*,#400,.F.);
#584=ORIENTED_EDGE('',*,*,#403,.F.);
#585=ORIENTED_EDGE('',*,*,#406,.F.);
#586=ORIENTED_EDGE('',*,*,#409,.F.);
#587=CYLINDRICAL_SURFACE('',#635,5.00000000000001);
#588=CYLINDRICAL_SURFACE('',#642,1.45);
#589=CYLINDRICAL_SURFACE('',#644,3.3);
#590=CYLINDRICAL_SURFACE('',#648,3.429);
#591=ADVANCED_FACE('',(#49),#587,.T.);
#592=ADVANCED_FACE('',(#50),#23,.T.);
#593=ADVANCED_FACE('',(#51),#24,.T.);
#594=ADVANCED_FACE('',(#52),#25,.T.);
#595=ADVANCED_FACE('',(#53),#26,.T.);
#596=ADVANCED_FACE('',(#54),#588,.F.);
#597=ADVANCED_FACE('',(#55),#589,.F.);
#598=ADVANCED_FACE('',(#56),#590,.F.);
#599=ADVANCED_FACE('',(#57),#27,.F.);
#600=ADVANCED_FACE('',(#58),#28,.F.);
#601=ADVANCED_FACE('',(#59),#29,.F.);
#602=ADVANCED_FACE('',(#60),#30,.F.);
#603=ADVANCED_FACE('',(#61),#31,.F.);
#604=ADVANCED_FACE('',(#62),#32,.F.);
#605=ADVANCED_FACE('',(#63,#15),#33,.F.);
#606=ADVANCED_FACE('',(#64,#16),#34,.T.);
#607=ADVANCED_FACE('',(#65,#17),#35,.T.);
#608=ADVANCED_FACE('',(#66),#36,.T.);
#609=ADVANCED_FACE('',(#67),#37,.T.);
#610=ADVANCED_FACE('',(#68,#18),#38,.T.);
#611=ADVANCED_FACE('',(#69),#39,.T.);
#612=ADVANCED_FACE('',(#70,#19),#40,.T.);
#613=ADVANCED_FACE('',(#71),#41,.T.);
#614=ADVANCED_FACE('',(#72),#42,.T.);
#615=ADVANCED_FACE('',(#73),#43,.T.);
#616=ADVANCED_FACE('',(#74),#44,.T.);
#617=ADVANCED_FACE('',(#75),#45,.T.);
#618=ADVANCED_FACE('',(#76),#46,.T.);
#619=ADVANCED_FACE('',(#77),#47,.T.);
#620=ADVANCED_FACE('',(#78),#48,.F.);
#621=CLOSED_SHELL('',(#591,#592,#593,#594,#595,#596,#597,#598,#599,#600,
#601,#602,#603,#604,#605,#606,#607,#608,#609,#610,#611,#612,#613,#614,#615,
#616,#617,#618,#619,#620));
#622=DERIVED_UNIT_ELEMENT(#624,1.);
#623=DERIVED_UNIT_ELEMENT(#1040,-3.);
#624=(
MASS_UNIT()
NAMED_UNIT(*)
SI_UNIT(.KILO.,.GRAM.)
);
#625=DERIVED_UNIT((#622,#623));
#626=MEASURE_REPRESENTATION_ITEM('density measure',
POSITIVE_RATIO_MEASURE(7850.),#625);
#627=PROPERTY_DEFINITION_REPRESENTATION(#632,#629);
#628=PROPERTY_DEFINITION_REPRESENTATION(#633,#630);
#629=REPRESENTATION('material name',(#631),#1037);
#630=REPRESENTATION('density',(#626),#1037);
#631=DESCRIPTIVE_REPRESENTATION_ITEM('Steel','Steel');
#632=PROPERTY_DEFINITION('material property','material name',#1047);
#633=PROPERTY_DEFINITION('material property','density of part',#1047);
#634=AXIS2_PLACEMENT_3D('',#826,#673,#674);
#635=AXIS2_PLACEMENT_3D('',#827,#675,#676);
#636=AXIS2_PLACEMENT_3D('',#830,#677,#678);
#637=AXIS2_PLACEMENT_3D('',#834,#680,#681);
#638=AXIS2_PLACEMENT_3D('',#836,#683,#684);
#639=AXIS2_PLACEMENT_3D('',#842,#688,#689);
#640=AXIS2_PLACEMENT_3D('',#848,#693,#694);
#641=AXIS2_PLACEMENT_3D('',#854,#698,#699);
#642=AXIS2_PLACEMENT_3D('',#858,#702,#703);
#643=AXIS2_PLACEMENT_3D('',#860,#704,#705);
#644=AXIS2_PLACEMENT_3D('',#903,#707,#708);
#645=AXIS2_PLACEMENT_3D('',#905,#709,#710);
#646=AXIS2_PLACEMENT_3D('',#906,#711,#712);
#647=AXIS2_PLACEMENT_3D('',#910,#715,#716);
#648=AXIS2_PLACEMENT_3D('',#911,#717,#718);
#649=AXIS2_PLACEMENT_3D('',#913,#719,#720);
#650=AXIS2_PLACEMENT_3D('',#916,#722,#723);
#651=AXIS2_PLACEMENT_3D('',#917,#724,#725);
#652=AXIS2_PLACEMENT_3D('',#926,#730,#731);
#653=AXIS2_PLACEMENT_3D('',#932,#735,#736);
#654=AXIS2_PLACEMENT_3D('',#938,#740,#741);
#655=AXIS2_PLACEMENT_3D('',#944,#745,#746);
#656=AXIS2_PLACEMENT_3D('',#950,#750,#751);
#657=AXIS2_PLACEMENT_3D('',#953,#754,#755);
#658=AXIS2_PLACEMENT_3D('',#954,#756,#757);
#659=AXIS2_PLACEMENT_3D('',#963,#762,#763);
#660=AXIS2_PLACEMENT_3D('',#969,#767,#768);
#661=AXIS2_PLACEMENT_3D('',#975,#772,#773);
#662=AXIS2_PLACEMENT_3D('',#981,#777,#778);
#663=AXIS2_PLACEMENT_3D('',#987,#782,#783);
#664=AXIS2_PLACEMENT_3D('',#993,#787,#788);
#665=AXIS2_PLACEMENT_3D('',#999,#792,#793);
#666=AXIS2_PLACEMENT_3D('',#1005,#797,#798);
#667=AXIS2_PLACEMENT_3D('',#1011,#802,#803);
#668=AXIS2_PLACEMENT_3D('',#1017,#807,#808);
#669=AXIS2_PLACEMENT_3D('',#1023,#812,#813);
#670=AXIS2_PLACEMENT_3D('',#1029,#817,#818);
#671=AXIS2_PLACEMENT_3D('',#1033,#822,#823);
#672=AXIS2_PLACEMENT_3D('',#1034,#824,#825);
#673=DIRECTION('axis',(0.,0.,1.));
#674=DIRECTION('refdir',(1.,0.,0.));
#675=DIRECTION('center_axis',(0.,1.,0.));
#676=DIRECTION('ref_axis',(1.,0.,9.99200722162639E-16));
#677=DIRECTION('center_axis',(0.,1.,0.));
#678=DIRECTION('ref_axis',(1.,0.,9.99200722162639E-16));
#679=DIRECTION('',(0.,-1.,0.));
#680=DIRECTION('center_axis',(0.,-1.,0.));
#681=DIRECTION('ref_axis',(1.,0.,9.99200722162639E-16));
#682=DIRECTION('',(0.,-1.,0.));
#683=DIRECTION('center_axis',(1.,0.,0.));
#684=DIRECTION('ref_axis',(0.,0.,-1.));
#685=DIRECTION('',(0.,0.,-1.));
#686=DIRECTION('',(0.,1.,0.));
#687=DIRECTION('',(0.,0.,1.));
#688=DIRECTION('center_axis',(0.,-1.,0.));
#689=DIRECTION('ref_axis',(0.,0.,-1.));
#690=DIRECTION('',(1.,0.,0.));
#691=DIRECTION('',(0.,0.,1.));
#692=DIRECTION('',(1.,0.,0.));
#693=DIRECTION('center_axis',(0.,0.,1.));
#694=DIRECTION('ref_axis',(0.,-1.,0.));
#695=DIRECTION('',(1.,0.,0.));
#696=DIRECTION('',(0.,1.,0.));
#697=DIRECTION('',(0.,1.,0.));
#698=DIRECTION('center_axis',(0.,1.,0.));
#699=DIRECTION('ref_axis',(0.,0.,1.));
#700=DIRECTION('',(1.,0.,0.));
#701=DIRECTION('',(0.,0.,-1.));
#702=DIRECTION('center_axis',(0.,1.,0.));
#703=DIRECTION('ref_axis',(1.,0.,0.));
#704=DIRECTION('center_axis',(0.,1.,0.));
#705=DIRECTION('ref_axis',(1.,0.,0.));
#706=DIRECTION('',(0.,1.,0.));
#707=DIRECTION('center_axis',(-1.,0.,0.));
#708=DIRECTION('ref_axis',(0.,1.,0.));
#709=DIRECTION('center_axis',(-1.,0.,0.));
#710=DIRECTION('ref_axis',(0.,1.,0.));
#711=DIRECTION('center_axis',(-1.,0.,0.));
#712=DIRECTION('ref_axis',(0.,1.,0.));
#713=DIRECTION('',(-1.,0.,0.));
#714=DIRECTION('',(-1.,0.,0.));
#715=DIRECTION('center_axis',(1.,0.,0.));
#716=DIRECTION('ref_axis',(0.,1.,0.));
#717=DIRECTION('center_axis',(-0.707106781186538,-0.707106781186557,0.));
#718=DIRECTION('ref_axis',(-0.707106781186557,0.707106781186538,0.));
#719=DIRECTION('center_axis',(-0.707106781186526,-0.707106781186569,0.));
#720=DIRECTION('ref_axis',(-0.707106781186557,0.707106781186538,0.));
#721=DIRECTION('',(-0.707106781186538,-0.707106781186557,0.));
#722=DIRECTION('center_axis',(0.707106781186538,0.707106781186557,0.));
#723=DIRECTION('ref_axis',(-0.707106781186557,0.707106781186538,0.));
#724=DIRECTION('center_axis',(-2.41552685951353E-16,2.41552685951347E-16,
1.));
#725=DIRECTION('ref_axis',(0.707106781186551,-0.707106781186544,3.41607084500048E-16));
#726=DIRECTION('',(0.707106781186551,-0.707106781186544,3.41607084500048E-16));
#727=DIRECTION('',(0.707106781186538,0.707106781186557,0.));
#728=DIRECTION('',(0.707106781186552,-0.707106781186544,3.41607084500048E-16));
#729=DIRECTION('',(0.707106781186538,0.707106781186557,0.));
#730=DIRECTION('center_axis',(-0.612372435695802,0.612372435695787,0.5));
#731=DIRECTION('ref_axis',(0.353553390593276,-0.353553390593272,0.866025403784439));
#732=DIRECTION('',(0.353553390593276,-0.353553390593272,0.866025403784439));
#733=DIRECTION('',(0.707106781186538,0.707106781186557,0.));
#734=DIRECTION('',(0.353553390593276,-0.353553390593272,0.866025403784439));
#735=DIRECTION('center_axis',(-0.612372435695803,0.612372435695787,-0.5));
#736=DIRECTION('ref_axis',(-0.353553390593275,0.353553390593271,0.866025403784439));
#737=DIRECTION('',(-0.353553390593275,0.353553390593271,0.866025403784439));
#738=DIRECTION('',(0.707106781186538,0.707106781186557,0.));
#739=DIRECTION('',(-0.353553390593275,0.353553390593271,0.866025403784439));
#740=DIRECTION('center_axis',(-2.41552685951353E-16,2.41552685951347E-16,
-1.));
#741=DIRECTION('ref_axis',(-0.707106781186551,0.707106781186544,3.41607084500048E-16));
#742=DIRECTION('',(-0.707106781186551,0.707106781186544,3.41607084500048E-16));
#743=DIRECTION('',(0.707106781186538,0.707106781186557,0.));
#744=DIRECTION('',(-0.707106781186552,0.707106781186544,3.41607084500048E-16));
#745=DIRECTION('center_axis',(0.612372435695802,-0.612372435695786,-0.5));
#746=DIRECTION('ref_axis',(-0.353553390593276,0.353553390593272,-0.866025403784438));
#747=DIRECTION('',(-0.353553390593276,0.353553390593272,-0.866025403784439));
#748=DIRECTION('',(0.707106781186538,0.707106781186557,0.));
#749=DIRECTION('',(-0.353553390593276,0.353553390593272,-0.866025403784438));
#750=DIRECTION('center_axis',(0.612372435695803,-0.612372435695787,0.499999999999999));
#751=DIRECTION('ref_axis',(0.353553390593275,-0.353553390593271,-0.866025403784439));
#752=DIRECTION('',(0.353553390593275,-0.353553390593271,-0.866025403784439));
#753=DIRECTION('',(0.353553390593275,-0.353553390593271,-0.866025403784439));
#754=DIRECTION('center_axis',(0.707106781186538,0.707106781186557,0.));
#755=DIRECTION('ref_axis',(0.,0.,-1.));
#756=DIRECTION('center_axis',(0.,-1.,0.));
#757=DIRECTION('ref_axis',(1.,0.,0.));
#758=DIRECTION('',(-1.,0.,0.));
#759=DIRECTION('',(0.,0.,1.));
#760=DIRECTION('',(1.,0.,0.));
#761=DIRECTION('',(0.,0.,1.));
#762=DIRECTION('center_axis',(-1.,0.,0.));
#763=DIRECTION('ref_axis',(0.,-1.,0.));
#764=DIRECTION('',(0.,1.,0.));
#765=DIRECTION('',(0.,-1.,0.));
#766=DIRECTION('',(0.,0.,1.));
#767=DIRECTION('center_axis',(-0.707106781186546,0.707106781186549,0.));
#768=DIRECTION('ref_axis',(-0.707106781186549,-0.707106781186546,0.));
#769=DIRECTION('',(-0.707106781186549,-0.707106781186546,0.));
#770=DIRECTION('',(-0.707106781186549,-0.707106781186546,0.));
#771=DIRECTION('',(0.,0.,1.));
#772=DIRECTION('center_axis',(-9.9475983006391E-14,1.,0.));
#773=DIRECTION('ref_axis',(-1.,-9.9475983006391E-14,0.));
#774=DIRECTION('',(-1.,-9.9475983006391E-14,0.));
#775=DIRECTION('',(-1.,-9.9475983006391E-14,0.));
#776=DIRECTION('',(0.,0.,1.));
#777=DIRECTION('center_axis',(0.707106781186526,0.707106781186569,0.));
#778=DIRECTION('ref_axis',(-0.707106781186569,0.707106781186526,0.));
#779=DIRECTION('',(-0.707106781186569,0.707106781186526,0.));
#780=DIRECTION('',(-0.707106781186569,0.707106781186526,0.));
#781=DIRECTION('',(0.,0.,1.));
#782=DIRECTION('center_axis',(0.707106781186565,-0.70710678118653,0.));
#783=DIRECTION('ref_axis',(0.70710678118653,0.707106781186565,0.));
#784=DIRECTION('',(0.70710678118653,0.707106781186565,0.));
#785=DIRECTION('',(0.70710678118653,0.707106781186565,0.));
#786=DIRECTION('',(0.,0.,1.));
#787=DIRECTION('center_axis',(-0.707106781186544,-0.707106781186551,0.));
#788=DIRECTION('ref_axis',(0.707106781186551,-0.707106781186544,0.));
#789=DIRECTION('',(0.707106781186551,-0.707106781186544,0.));
#790=DIRECTION('',(0.707106781186551,-0.707106781186544,0.));
#791=DIRECTION('',(0.,0.,1.));
#792=DIRECTION('center_axis',(0.707106781186547,-0.707106781186548,0.));
#793=DIRECTION('ref_axis',(0.707106781186548,0.707106781186547,0.));
#794=DIRECTION('',(0.707106781186548,0.707106781186547,0.));
#795=DIRECTION('',(0.707106781186548,0.707106781186547,0.));
#796=DIRECTION('',(0.,0.,1.));
#797=DIRECTION('center_axis',(1.,3.5527136788005E-16,0.));
#798=DIRECTION('ref_axis',(-3.5527136788005E-16,1.,0.));
#799=DIRECTION('',(-3.5527136788005E-16,1.,0.));
#800=DIRECTION('',(-3.5527136788005E-16,1.,0.));
#801=DIRECTION('',(0.,0.,1.));
#802=DIRECTION('center_axis',(-8.88178419700125E-16,1.,0.));
#803=DIRECTION('ref_axis',(-1.,-8.88178419700125E-16,0.));
#804=DIRECTION('',(-1.,-8.88178419700125E-16,0.));
#805=DIRECTION('',(-1.,-8.88178419700125E-16,0.));
#806=DIRECTION('',(0.,0.,1.));
#807=DIRECTION('center_axis',(1.,0.,0.));
#808=DIRECTION('ref_axis',(0.,1.,0.));
#809=DIRECTION('',(0.,1.,0.));
#810=DIRECTION('',(0.,1.,0.));
#811=DIRECTION('',(0.,0.,1.));
#812=DIRECTION('center_axis',(-6.12323399573676E-17,-1.,0.));
#813=DIRECTION('ref_axis',(1.,-6.12323399573676E-17,0.));
#814=DIRECTION('',(1.,-6.12323399573676E-17,0.));
#815=DIRECTION('',(1.,-6.12323399573676E-17,0.));
#816=DIRECTION('',(0.,0.,1.));
#817=DIRECTION('center_axis',(1.,0.,0.));
#818=DIRECTION('ref_axis',(0.,1.,0.));
#819=DIRECTION('',(0.,-1.,0.));
#820=DIRECTION('',(0.,1.,0.));
#821=DIRECTION('',(0.,-1.,0.));
#822=DIRECTION('center_axis',(0.,0.,1.));
#823=DIRECTION('ref_axis',(1.,0.,0.));
#824=DIRECTION('center_axis',(0.,0.,1.));
#825=DIRECTION('ref_axis',(1.,0.,0.));
#826=CARTESIAN_POINT('',(0.,0.,0.));
#827=CARTESIAN_POINT('Origin',(20.,-12.5,1.7));
#828=CARTESIAN_POINT('',(20.,-7.50000000000003,6.70000000000002));
#829=CARTESIAN_POINT('',(25.,-7.50000000000003,1.70000000000001));
#830=CARTESIAN_POINT('Origin',(20.,-7.50000000000003,1.7));
#831=CARTESIAN_POINT('',(20.,-12.5,6.70000000000002));
#832=CARTESIAN_POINT('',(20.,-12.5,6.70000000000002));
#833=CARTESIAN_POINT('',(25.,-12.5,1.70000000000001));
#834=CARTESIAN_POINT('Origin',(20.,-12.5,1.7));
#835=CARTESIAN_POINT('',(25.,-12.5,1.7));
#836=CARTESIAN_POINT('Origin',(25.,-10.,3.35000000000001));
#837=CARTESIAN_POINT('',(25.,-12.5,0.));
#838=CARTESIAN_POINT('',(25.,-12.5,6.70000000000002));
#839=CARTESIAN_POINT('',(25.,-7.50000000000003,0.));
#840=CARTESIAN_POINT('',(25.,-12.5,0.));
#841=CARTESIAN_POINT('',(25.,-7.50000000000003,0.));
#842=CARTESIAN_POINT('Origin',(10.,-12.5,6.70000000000002));
#843=CARTESIAN_POINT('',(10.,-12.5,6.70000000000002));
#844=CARTESIAN_POINT('',(10.,-12.5,6.70000000000002));
#845=CARTESIAN_POINT('',(10.,-12.5,0.));
#846=CARTESIAN_POINT('',(10.,-12.5,3.35000000000001));
#847=CARTESIAN_POINT('',(10.,-12.5,0.));
#848=CARTESIAN_POINT('Origin',(10.,-7.50000000000003,6.70000000000002));
#849=CARTESIAN_POINT('',(10.,-7.50000000000003,6.70000000000002));
#850=CARTESIAN_POINT('',(10.,-7.50000000000003,6.70000000000002));
#851=CARTESIAN_POINT('',(10.,-9.99999999999999,6.70000000000002));
#852=CARTESIAN_POINT('',(10.,-13.75,6.70000000000002));
#853=CARTESIAN_POINT('',(10.,-13.75,6.70000000000002));
#854=CARTESIAN_POINT('Origin',(10.,-7.50000000000003,0.));
#855=CARTESIAN_POINT('',(10.,-7.50000000000003,0.));
#856=CARTESIAN_POINT('',(10.,-7.50000000000003,0.));
#857=CARTESIAN_POINT('',(10.,-7.50000000000003,0.));
#858=CARTESIAN_POINT('Origin',(5.,-20.,10.));
#859=CARTESIAN_POINT('',(3.55,-20.,10.));
#860=CARTESIAN_POINT('Origin',(5.,-20.,10.));
#861=CARTESIAN_POINT('',(3.55,-13.3,10.));
#862=CARTESIAN_POINT('',(3.55,-20.,10.));
#863=CARTESIAN_POINT('',(6.45,-13.3,10.));
#864=CARTESIAN_POINT('Ctrl Pts',(6.45,-13.3,10.));
#865=CARTESIAN_POINT('Ctrl Pts',(6.45,-13.3,10.1847039848592));
#866=CARTESIAN_POINT('Ctrl Pts',(6.41257691650767,-13.2830284827792,10.3800652142633));
#867=CARTESIAN_POINT('Ctrl Pts',(6.26379014193652,-13.2218113024518,10.7366529097388));
#868=CARTESIAN_POINT('Ctrl Pts',(6.15255538355789,-13.1782733309339,10.8980542818831));
#869=CARTESIAN_POINT('Ctrl Pts',(5.89785979657391,-13.0950194549268,11.1527498688671));
#870=CARTESIAN_POINT('Ctrl Pts',(5.73652923476234,-13.0494794031203,11.2638387896243));
#871=CARTESIAN_POINT('Ctrl Pts',(5.38022850442679,-12.9835254740572,11.4125117389807));
#872=CARTESIAN_POINT('Ctrl Pts',(5.18498627999562,-12.9643717715563,11.45));
#873=CARTESIAN_POINT('Ctrl Pts',(4.81501372000438,-12.9643717715563,11.45));
#874=CARTESIAN_POINT('Ctrl Pts',(4.61977149557321,-12.9835254740572,11.4125117389807));
#875=CARTESIAN_POINT('Ctrl Pts',(4.26347076523766,-13.0494794031203,11.2638387896243));
#876=CARTESIAN_POINT('Ctrl Pts',(4.10214020342609,-13.0950194549268,11.1527498688671));
#877=CARTESIAN_POINT('Ctrl Pts',(3.8474446164421,-13.1782733309339,10.8980542818831));
#878=CARTESIAN_POINT('Ctrl Pts',(3.73620985806348,-13.2218113024518,10.7366529097388));
#879=CARTESIAN_POINT('Ctrl Pts',(3.58742308349233,-13.2830284827792,10.3800652142633));
#880=CARTESIAN_POINT('Ctrl Pts',(3.55,-13.3,10.1847039848592));
#881=CARTESIAN_POINT('Ctrl Pts',(3.55,-13.3,10.));
#882=CARTESIAN_POINT('',(5.,-12.9643717715563,8.55));
#883=CARTESIAN_POINT('Ctrl Pts',(5.,-12.9643717715563,8.55));
#884=CARTESIAN_POINT('Ctrl Pts',(5.18498627999562,-12.9643717715563,8.55));
#885=CARTESIAN_POINT('Ctrl Pts',(5.38022850442679,-12.9835254740572,8.58748826101931));
#886=CARTESIAN_POINT('Ctrl Pts',(5.73652923476234,-13.0494794031202,8.73616121037569));
#887=CARTESIAN_POINT('Ctrl Pts',(5.89785979657391,-13.0950194549267,8.84725013113292));
#888=CARTESIAN_POINT('Ctrl Pts',(6.1525553835579,-13.1782733309339,9.10194571811691));
#889=CARTESIAN_POINT('Ctrl Pts',(6.26379014193652,-13.2218113024518,9.26334709026117));
#890=CARTESIAN_POINT('Ctrl Pts',(6.41257691650767,-13.2830284827792,9.61993478573671));
#891=CARTESIAN_POINT('Ctrl Pts',(6.45,-13.3,9.81529601514076));
#892=CARTESIAN_POINT('Ctrl Pts',(6.45,-13.3,10.));
#893=CARTESIAN_POINT('Ctrl Pts',(3.55,-13.3,10.));
#894=CARTESIAN_POINT('Ctrl Pts',(3.55,-13.3,9.81529601514076));
#895=CARTESIAN_POINT('Ctrl Pts',(3.58742308349233,-13.2830284827792,9.61993478573672));
#896=CARTESIAN_POINT('Ctrl Pts',(3.73620985806348,-13.2218113024518,9.26334709026117));
#897=CARTESIAN_POINT('Ctrl Pts',(3.8474446164421,-13.1782733309339,9.10194571811691));
#898=CARTESIAN_POINT('Ctrl Pts',(4.10214020342609,-13.0950194549267,8.84725013113292));
#899=CARTESIAN_POINT('Ctrl Pts',(4.26347076523766,-13.0494794031202,8.73616121037569));
#900=CARTESIAN_POINT('Ctrl Pts',(4.61977149557321,-12.9835254740572,8.58748826101932));
#901=CARTESIAN_POINT('Ctrl Pts',(4.81501372000438,-12.9643717715563,8.55));
#902=CARTESIAN_POINT('Ctrl Pts',(5.,-12.9643717715563,8.55));
#903=CARTESIAN_POINT('Origin',(10.,-9.99999999999999,10.));
#904=CARTESIAN_POINT('',(10.,-13.3,10.));
#905=CARTESIAN_POINT('Origin',(10.,-9.99999999999999,10.));
#906=CARTESIAN_POINT('Origin',(10.,-9.99999999999999,10.));
#907=CARTESIAN_POINT('',(10.,-13.3,10.));
#908=CARTESIAN_POINT('',(0.,-13.3,10.));
#909=CARTESIAN_POINT('',(10.,-13.3,10.));
#910=CARTESIAN_POINT('Origin',(0.,-9.99999999999999,10.));
#911=CARTESIAN_POINT('Origin',(32.1599025766973,32.1599025766969,10.));
#912=CARTESIAN_POINT('',(34.584571729386,29.7352334240083,10.));
#913=CARTESIAN_POINT('Origin',(32.1599025766974,32.159902576697,10.));
#914=CARTESIAN_POINT('',(30.7661951109789,25.916856805601,10.));
#915=CARTESIAN_POINT('',(34.584571729386,29.7352334240083,10.));
#916=CARTESIAN_POINT('Origin',(28.3415259582902,28.3415259582896,10.));
#917=CARTESIAN_POINT('Origin',(22.7907377259758,27.3869318036878,15.6291651245988));
#918=CARTESIAN_POINT('',(22.7907377259758,27.3869318036878,15.6291651245988));
#919=CARTESIAN_POINT('',(27.3869318036884,22.7907377259752,15.6291651245988));
#920=CARTESIAN_POINT('',(20.8147862454038,29.3628832842598,15.6291651245988));
#921=CARTESIAN_POINT('',(26.0434289194339,30.6396229971459,15.6291651245988));
#922=CARTESIAN_POINT('',(22.7907377259758,27.3869318036878,15.6291651245988));
#923=CARTESIAN_POINT('',(30.6396229971465,26.0434289194334,15.6291651245988));
#924=CARTESIAN_POINT('',(29.4905744777183,27.1924774388615,15.6291651245988));
#925=CARTESIAN_POINT('',(27.3869318036884,22.7907377259752,15.6291651245988));
#926=CARTESIAN_POINT('Origin',(20.4926406871195,29.685028842544,10.));
#927=CARTESIAN_POINT('',(20.4926406871195,29.685028842544,10.));
#928=CARTESIAN_POINT('',(18.7549838575941,31.4226856720695,5.74362741960027));
#929=CARTESIAN_POINT('',(23.7453318805776,32.9377200360022,10.));
#930=CARTESIAN_POINT('',(20.4926406871195,29.685028842544,10.));
#931=CARTESIAN_POINT('',(25.4689046597198,31.21414725686,14.2218738434491));
#932=CARTESIAN_POINT('Origin',(22.7907377259758,27.3869318036878,4.37083487540115));
#933=CARTESIAN_POINT('',(22.7907377259758,27.3869318036878,4.37083487540115));
#934=CARTESIAN_POINT('',(22.9658945555012,27.2117749741624,3.94179001810031));
#935=CARTESIAN_POINT('',(26.0434289194339,30.6396229971459,4.37083487540115));
#936=CARTESIAN_POINT('',(22.7907377259758,27.3869318036878,4.37083487540115));
#937=CARTESIAN_POINT('',(24.3198561402917,32.3631957762881,8.5927087188503));
#938=CARTESIAN_POINT('Origin',(27.3869318036884,22.7907377259752,4.37083487540115));
#939=CARTESIAN_POINT('',(27.3869318036884,22.7907377259752,4.37083487540115));
#940=CARTESIAN_POINT('',(23.1128832842601,27.0647862454035,4.37083487540115));
#941=CARTESIAN_POINT('',(30.6396229971465,26.0434289194334,4.37083487540115));
#942=CARTESIAN_POINT('',(27.3869318036884,22.7907377259752,4.37083487540115));
#943=CARTESIAN_POINT('',(27.192477438862,29.4905744777178,4.37083487540115));
#944=CARTESIAN_POINT('Origin',(29.6850288425447,20.492640687119,10.));
#945=CARTESIAN_POINT('',(29.6850288425447,20.492640687119,10.));
#946=CARTESIAN_POINT('',(26.7983234935911,23.3793460360725,2.92904485730084));
#947=CARTESIAN_POINT('',(32.9377200360028,23.7453318805771,9.99999999999999));
#948=CARTESIAN_POINT('',(29.6850288425447,20.492640687119,10.));
#949=CARTESIAN_POINT('',(31.2141472568605,25.4689046597193,5.77812615655085));
#950=CARTESIAN_POINT('Origin',(27.3869318036884,22.7907377259752,15.6291651245988));
#951=CARTESIAN_POINT('',(28.7111371526419,21.4665323770217,12.3855377049986));
#952=CARTESIAN_POINT('',(32.3631957762887,24.3198561402912,11.4072912811497));
#953=CARTESIAN_POINT('Origin',(28.3415259582902,28.3415259582896,10.));
#954=CARTESIAN_POINT('Origin',(0.,-20.,0.));
#955=CARTESIAN_POINT('',(10.,-20.,0.));
#956=CARTESIAN_POINT('',(0.,-20.,0.));
#957=CARTESIAN_POINT('',(10.,-20.,0.));
#958=CARTESIAN_POINT('',(10.,-20.,20.));
#959=CARTESIAN_POINT('',(10.,-20.,0.));
#960=CARTESIAN_POINT('',(0.,-20.,20.));
#961=CARTESIAN_POINT('',(10.,-20.,20.));
#962=CARTESIAN_POINT('',(0.,-20.,0.));
#963=CARTESIAN_POINT('Origin',(0.,26.64213562373,0.));
#964=CARTESIAN_POINT('',(-2.66453525910038E-14,26.64213562373,0.));
#965=CARTESIAN_POINT('',(0.,-20.,0.));
#966=CARTESIAN_POINT('',(-2.66453525910038E-14,26.64213562373,20.));
#967=CARTESIAN_POINT('',(0.,-20.,20.));
#968=CARTESIAN_POINT('',(-2.66453525910038E-14,26.64213562373,0.));
#969=CARTESIAN_POINT('Origin',(16.338834764831,42.9809703885609,0.));
#970=CARTESIAN_POINT('',(16.338834764831,42.9809703885609,0.));
#971=CARTESIAN_POINT('',(18.8388347648318,45.4809703885617,0.));
#972=CARTESIAN_POINT('',(16.338834764831,42.9809703885609,20.));
#973=CARTESIAN_POINT('',(18.8388347648318,45.4809703885617,20.));
#974=CARTESIAN_POINT('',(16.338834764831,42.9809703885609,0.));
#975=CARTESIAN_POINT('Origin',(21.3388347648322,42.9809703885614,0.));
#976=CARTESIAN_POINT('',(21.3388347648322,42.9809703885614,0.));
#977=CARTESIAN_POINT('',(21.3388347648322,42.9809703885614,0.));
#978=CARTESIAN_POINT('',(21.3388347648322,42.9809703885614,20.));
#979=CARTESIAN_POINT('',(21.3388347648322,42.9809703885614,20.));
#980=CARTESIAN_POINT('',(21.3388347648322,42.9809703885614,0.));
#981=CARTESIAN_POINT('Origin',(38.4099025766971,25.9099025766975,0.));
#982=CARTESIAN_POINT('',(38.4099025766971,25.9099025766975,0.));
#983=CARTESIAN_POINT('',(38.4099025766971,25.9099025766975,0.));
#984=CARTESIAN_POINT('',(38.4099025766971,25.9099025766975,20.));
#985=CARTESIAN_POINT('',(38.4099025766971,25.9099025766975,20.));
#986=CARTESIAN_POINT('',(38.4099025766971,25.9099025766975,0.));
#987=CARTESIAN_POINT('Origin',(31.3388347648318,18.8388347648319,0.));
#988=CARTESIAN_POINT('',(31.3388347648318,18.8388347648319,0.));
#989=CARTESIAN_POINT('',(31.3388347648318,18.8388347648319,0.));
#990=CARTESIAN_POINT('',(31.3388347648318,18.8388347648319,20.));
#991=CARTESIAN_POINT('',(31.3388347648318,18.8388347648319,20.));
#992=CARTESIAN_POINT('',(31.3388347648318,18.8388347648319,0.));
#993=CARTESIAN_POINT('Origin',(18.8388347648318,31.3388347648318,0.));
#994=CARTESIAN_POINT('',(18.8388347648318,31.3388347648318,0.));
#995=CARTESIAN_POINT('',(18.8388347648318,31.3388347648318,0.));
#996=CARTESIAN_POINT('',(18.8388347648318,31.3388347648318,20.));
#997=CARTESIAN_POINT('',(18.8388347648318,31.3388347648318,20.));
#998=CARTESIAN_POINT('',(18.8388347648318,31.3388347648318,0.));
#999=CARTESIAN_POINT('Origin',(10.,22.5,0.));
#1000=CARTESIAN_POINT('',(10.,22.5,0.));
#1001=CARTESIAN_POINT('',(10.,22.5,0.));
#1002=CARTESIAN_POINT('',(10.,22.5,20.));
#1003=CARTESIAN_POINT('',(10.,22.5,20.));
#1004=CARTESIAN_POINT('',(10.,22.5,0.));
#1005=CARTESIAN_POINT('Origin',(10.,9.99999999999999,0.));
#1006=CARTESIAN_POINT('',(10.,9.99999999999999,0.));
#1007=CARTESIAN_POINT('',(10.,9.99999999999999,0.));
#1008=CARTESIAN_POINT('',(10.,9.99999999999999,20.));
#1009=CARTESIAN_POINT('',(10.,9.99999999999999,20.));
#1010=CARTESIAN_POINT('',(10.,9.99999999999999,0.));
#1011=CARTESIAN_POINT('Origin',(22.5,10.,0.));
#1012=CARTESIAN_POINT('',(22.5,10.,0.));
#1013=CARTESIAN_POINT('',(22.5,10.,0.));
#1014=CARTESIAN_POINT('',(22.5,10.,20.));
#1015=CARTESIAN_POINT('',(22.5,10.,20.));
#1016=CARTESIAN_POINT('',(22.5,10.,0.));
#1017=CARTESIAN_POINT('Origin',(22.5,-1.37772764904077E-15,0.));
#1018=CARTESIAN_POINT('',(22.5,-1.37772764904077E-15,0.));
#1019=CARTESIAN_POINT('',(22.5,-1.37772764904077E-15,0.));
#1020=CARTESIAN_POINT('',(22.5,-1.37772764904077E-15,20.));
#1021=CARTESIAN_POINT('',(22.5,-1.37772764904077E-15,20.));
#1022=CARTESIAN_POINT('',(22.5,-1.37772764904077E-15,0.));
#1023=CARTESIAN_POINT('Origin',(10.,-6.12323399573676E-16,0.));
#1024=CARTESIAN_POINT('',(10.,0.,0.));
#1025=CARTESIAN_POINT('',(0.,0.,0.));
#1026=CARTESIAN_POINT('',(10.,0.,20.));
#1027=CARTESIAN_POINT('',(0.,0.,20.));
#1028=CARTESIAN_POINT('',(10.,0.,0.));
#1029=CARTESIAN_POINT('Origin',(10.,-20.,0.));
#1030=CARTESIAN_POINT('',(10.,0.,0.));
#1031=CARTESIAN_POINT('',(10.,0.,20.));
#1032=CARTESIAN_POINT('',(10.,0.,0.));
#1033=CARTESIAN_POINT('Origin',(5.,-10.,20.));
#1034=CARTESIAN_POINT('Origin',(5.,-10.,0.));
#1035=UNCERTAINTY_MEASURE_WITH_UNIT(LENGTH_MEASURE(0.01),#1039,
'DISTANCE_ACCURACY_VALUE',
'Maximum model space distance between geometric entities at asserted c
onnectivities');
#1036=UNCERTAINTY_MEASURE_WITH_UNIT(LENGTH_MEASURE(0.01),#1039,
'DISTANCE_ACCURACY_VALUE',
'Maximum model space distance between geometric entities at asserted c
onnectivities');
#1037=(
GEOMETRIC_REPRESENTATION_CONTEXT(3)
GLOBAL_UNCERTAINTY_ASSIGNED_CONTEXT((#1035))
GLOBAL_UNIT_ASSIGNED_CONTEXT((#1039,#1041,#1042))
REPRESENTATION_CONTEXT('','3D')
);
#1038=(
GEOMETRIC_REPRESENTATION_CONTEXT(3)
GLOBAL_UNCERTAINTY_ASSIGNED_CONTEXT((#1036))
GLOBAL_UNIT_ASSIGNED_CONTEXT((#1039,#1041,#1042))
REPRESENTATION_CONTEXT('','3D')
);
#1039=(
LENGTH_UNIT()
NAMED_UNIT(*)
SI_UNIT(.MILLI.,.METRE.)
);
#1040=(
LENGTH_UNIT()
NAMED_UNIT(*)
SI_UNIT($,.METRE.)
);
#1041=(
NAMED_UNIT(*)
PLANE_ANGLE_UNIT()
SI_UNIT($,.RADIAN.)
);
#1042=(
NAMED_UNIT(*)
SI_UNIT($,.STERADIAN.)
SOLID_ANGLE_UNIT()
);
#1043=SHAPE_DEFINITION_REPRESENTATION(#1044,#1045);
#1044=PRODUCT_DEFINITION_SHAPE('',$,#1047);
#1045=SHAPE_REPRESENTATION('',(#634),#1037);
#1046=PRODUCT_DEFINITION_CONTEXT('part definition',#1051,'design');
#1047=PRODUCT_DEFINITION('Laser Mount','Laser Mount v7',#1048,#1046);
#1048=PRODUCT_DEFINITION_FORMATION('',$,#1053);
#1049=PRODUCT_RELATED_PRODUCT_CATEGORY('Laser Mount v7',
'Laser Mount v7',(#1053));
#1050=APPLICATION_PROTOCOL_DEFINITION('international standard',
'automotive_design',2009,#1051);
#1051=APPLICATION_CONTEXT(
'Core Data for Automotive Mechanical Design Process');
#1052=PRODUCT_CONTEXT('part definition',#1051,'mechanical');
#1053=PRODUCT('Laser Mount','Laser Mount v7',$,(#1052));
#1054=PRESENTATION_STYLE_ASSIGNMENT((#1055));
#1055=SURFACE_STYLE_USAGE(.BOTH.,#1056);
#1056=SURFACE_SIDE_STYLE('',(#1057));
#1057=SURFACE_STYLE_FILL_AREA(#1058);
#1058=FILL_AREA_STYLE('Opaque(25,25,25)',(#1059));
#1059=FILL_AREA_STYLE_COLOUR('Opaque(25,25,25)',#1060);
#1060=COLOUR_RGB('Opaque(25,25,25)',0.0980392156862745,0.0980392156862745,
0.0980392156862745);
ENDSEC;
END-ISO-10303-21;
