ISO-10303-21;
HEADER;
/* Generated by software containing ST-Developer
 * from STEP Tools, Inc. (www.steptools.com) 
 */

FILE_DESCRIPTION(
/* description */ (''),
/* implementation_level */ '2;1');

FILE_NAME(
/* name */ 'Phototransistor Mount v3.step',
/* time_stamp */ '2026-05-01T23:03:03-07:00',
/* author */ (''),
/* organization */ (''),
/* preprocessor_version */ 'ST-DEVELOPER v20.1',
/* originating_system */ 'Autodesk Translation Framework v15.8.0.0',
/* authorisation */ '');

FILE_SCHEMA (('AUTOMOTIVE_DESIGN { 1 0 10303 214 3 1 1 }'));
ENDSEC;

DATA;
#10=MECHANICAL_DESIGN_GEOMETRIC_PRESENTATION_REPRESENTATION('',(#13,#14),
#1407);
#11=SHAPE_REPRESENTATION_RELATIONSHIP('SRR','None',#1414,#12);
#12=ADVANCED_BREP_SHAPE_REPRESENTATION('',(#15,#16),#1406);
#13=STYLED_ITEM('',(#1423),#15);
#14=STYLED_ITEM('',(#1423),#16);
#15=MANIFOLD_SOLID_BREP('Body1',#860);
#16=MANIFOLD_SOLID_BREP('Body2',#861);
#17=CONICAL_SURFACE('',#885,4.,0.349065850398866);
#18=CONICAL_SURFACE('',#888,5.6,0.349065850398866);
#19=FACE_BOUND('',#121,.T.);
#20=FACE_BOUND('',#122,.T.);
#21=FACE_BOUND('',#126,.T.);
#22=FACE_BOUND('',#128,.T.);
#23=FACE_BOUND('',#148,.T.);
#24=FACE_BOUND('',#151,.T.);
#25=FACE_BOUND('',#155,.T.);
#26=FACE_BOUND('',#158,.T.);
#27=FACE_BOUND('',#169,.T.);
#28=FACE_BOUND('',#171,.T.);
#29=PLANE('',#878);
#30=PLANE('',#879);
#31=PLANE('',#880);
#32=PLANE('',#881);
#33=PLANE('',#882);
#34=PLANE('',#891);
#35=PLANE('',#892);
#36=PLANE('',#893);
#37=PLANE('',#894);
#38=PLANE('',#895);
#39=PLANE('',#896);
#40=PLANE('',#899);
#41=PLANE('',#902);
#42=PLANE('',#903);
#43=PLANE('',#904);
#44=PLANE('',#905);
#45=PLANE('',#909);
#46=PLANE('',#910);
#47=PLANE('',#911);
#48=PLANE('',#912);
#49=PLANE('',#913);
#50=PLANE('',#914);
#51=PLANE('',#915);
#52=PLANE('',#916);
#53=PLANE('',#917);
#54=PLANE('',#918);
#55=PLANE('',#919);
#56=PLANE('',#920);
#57=PLANE('',#921);
#58=PLANE('',#922);
#59=PLANE('',#923);
#60=PLANE('',#924);
#61=PLANE('',#925);
#62=PLANE('',#926);
#63=PLANE('',#927);
#64=PLANE('',#928);
#65=PLANE('',#929);
#66=PLANE('',#936);
#67=PLANE('',#937);
#68=FACE_OUTER_BOUND('',#115,.T.);
#69=FACE_OUTER_BOUND('',#116,.T.);
#70=FACE_OUTER_BOUND('',#117,.T.);
#71=FACE_OUTER_BOUND('',#118,.T.);
#72=FACE_OUTER_BOUND('',#119,.T.);
#73=FACE_OUTER_BOUND('',#120,.T.);
#74=FACE_OUTER_BOUND('',#123,.T.);
#75=FACE_OUTER_BOUND('',#124,.T.);
#76=FACE_OUTER_BOUND('',#125,.T.);
#77=FACE_OUTER_BOUND('',#127,.T.);
#78=FACE_OUTER_BOUND('',#129,.T.);
#79=FACE_OUTER_BOUND('',#130,.T.);
#80=FACE_OUTER_BOUND('',#131,.T.);
#81=FACE_OUTER_BOUND('',#132,.T.);
#82=FACE_OUTER_BOUND('',#133,.T.);
#83=FACE_OUTER_BOUND('',#134,.T.);
#84=FACE_OUTER_BOUND('',#135,.T.);
#85=FACE_OUTER_BOUND('',#136,.T.);
#86=FACE_OUTER_BOUND('',#137,.T.);
#87=FACE_OUTER_BOUND('',#138,.T.);
#88=FACE_OUTER_BOUND('',#139,.T.);
#89=FACE_OUTER_BOUND('',#140,.T.);
#90=FACE_OUTER_BOUND('',#141,.T.);
#91=FACE_OUTER_BOUND('',#142,.T.);
#92=FACE_OUTER_BOUND('',#143,.T.);
#93=FACE_OUTER_BOUND('',#144,.T.);
#94=FACE_OUTER_BOUND('',#145,.T.);
#95=FACE_OUTER_BOUND('',#146,.T.);
#96=FACE_OUTER_BOUND('',#147,.T.);
#97=FACE_OUTER_BOUND('',#149,.T.);
#98=FACE_OUTER_BOUND('',#150,.T.);
#99=FACE_OUTER_BOUND('',#152,.T.);
#100=FACE_OUTER_BOUND('',#153,.T.);
#101=FACE_OUTER_BOUND('',#154,.T.);
#102=FACE_OUTER_BOUND('',#156,.T.);
#103=FACE_OUTER_BOUND('',#157,.T.);
#104=FACE_OUTER_BOUND('',#159,.T.);
#105=FACE_OUTER_BOUND('',#160,.T.);
#106=FACE_OUTER_BOUND('',#161,.T.);
#107=FACE_OUTER_BOUND('',#162,.T.);
#108=FACE_OUTER_BOUND('',#163,.T.);
#109=FACE_OUTER_BOUND('',#164,.T.);
#110=FACE_OUTER_BOUND('',#165,.T.);
#111=FACE_OUTER_BOUND('',#166,.T.);
#112=FACE_OUTER_BOUND('',#167,.T.);
#113=FACE_OUTER_BOUND('',#168,.T.);
#114=FACE_OUTER_BOUND('',#170,.T.);
#115=EDGE_LOOP('',(#577,#578,#579,#580));
#116=EDGE_LOOP('',(#581,#582,#583,#584,#585,#586));
#117=EDGE_LOOP('',(#587,#588,#589,#590,#591));
#118=EDGE_LOOP('',(#592,#593,#594,#595,#596));
#119=EDGE_LOOP('',(#597,#598,#599,#600));
#120=EDGE_LOOP('',(#601,#602,#603,#604,#605,#606,#607,#608,#609,#610,#611,
#612,#613,#614));
#121=EDGE_LOOP('',(#615));
#122=EDGE_LOOP('',(#616));
#123=EDGE_LOOP('',(#617,#618,#619,#620));
#124=EDGE_LOOP('',(#621,#622,#623,#624));
#125=EDGE_LOOP('',(#625));
#126=EDGE_LOOP('',(#626));
#127=EDGE_LOOP('',(#627,#628,#629,#630));
#128=EDGE_LOOP('',(#631));
#129=EDGE_LOOP('',(#632,#633,#634,#635));
#130=EDGE_LOOP('',(#636,#637,#638,#639));
#131=EDGE_LOOP('',(#640,#641,#642,#643));
#132=EDGE_LOOP('',(#644,#645,#646,#647));
#133=EDGE_LOOP('',(#648,#649,#650,#651));
#134=EDGE_LOOP('',(#652));
#135=EDGE_LOOP('',(#653,#654,#655,#656));
#136=EDGE_LOOP('',(#657));
#137=EDGE_LOOP('',(#658,#659,#660,#661,#662,#663,#664,#665));
#138=EDGE_LOOP('',(#666,#667,#668,#669));
#139=EDGE_LOOP('',(#670,#671,#672,#673));
#140=EDGE_LOOP('',(#674,#675,#676,#677));
#141=EDGE_LOOP('',(#678,#679,#680,#681));
#142=EDGE_LOOP('',(#682,#683,#684,#685));
#143=EDGE_LOOP('',(#686,#687,#688,#689));
#144=EDGE_LOOP('',(#690,#691,#692,#693));
#145=EDGE_LOOP('',(#694,#695,#696,#697));
#146=EDGE_LOOP('',(#698,#699,#700,#701));
#147=EDGE_LOOP('',(#702,#703,#704,#705,#706,#707));
#148=EDGE_LOOP('',(#708));
#149=EDGE_LOOP('',(#709,#710,#711,#712));
#150=EDGE_LOOP('',(#713));
#151=EDGE_LOOP('',(#714,#715,#716,#717));
#152=EDGE_LOOP('',(#718,#719,#720,#721));
#153=EDGE_LOOP('',(#722,#723,#724,#725));
#154=EDGE_LOOP('',(#726,#727,#728,#729));
#155=EDGE_LOOP('',(#730));
#156=EDGE_LOOP('',(#731,#732,#733,#734));
#157=EDGE_LOOP('',(#735,#736,#737,#738));
#158=EDGE_LOOP('',(#739,#740,#741,#742,#743,#744));
#159=EDGE_LOOP('',(#745,#746,#747,#748));
#160=EDGE_LOOP('',(#749,#750,#751,#752));
#161=EDGE_LOOP('',(#753,#754,#755,#756));
#162=EDGE_LOOP('',(#757,#758,#759,#760));
#163=EDGE_LOOP('',(#761,#762,#763,#764));
#164=EDGE_LOOP('',(#765,#766,#767,#768,#769,#770,#771,#772,#773,#774,#775,
#776,#777));
#165=EDGE_LOOP('',(#778,#779,#780,#781,#782,#783,#784,#785,#786,#787,#788,
#789,#790,#791,#792,#793,#794));
#166=EDGE_LOOP('',(#795,#796,#797,#798));
#167=EDGE_LOOP('',(#799,#800,#801,#802));
#168=EDGE_LOOP('',(#803));
#169=EDGE_LOOP('',(#804));
#170=EDGE_LOOP('',(#805));
#171=EDGE_LOOP('',(#806));
#172=LINE('',#1171,#271);
#173=LINE('',#1174,#272);
#174=LINE('',#1177,#273);
#175=LINE('',#1179,#274);
#176=LINE('',#1181,#275);
#177=LINE('',#1183,#276);
#178=LINE('',#1184,#277);
#179=LINE('',#1187,#278);
#180=LINE('',#1189,#279);
#181=LINE('',#1190,#280);
#182=LINE('',#1193,#281);
#183=LINE('',#1195,#282);
#184=LINE('',#1196,#283);
#185=LINE('',#1198,#284);
#186=LINE('',#1201,#285);
#187=LINE('',#1203,#286);
#188=LINE('',#1205,#287);
#189=LINE('',#1207,#288);
#190=LINE('',#1208,#289);
#191=LINE('',#1210,#290);
#192=LINE('',#1212,#291);
#193=LINE('',#1214,#292);
#194=LINE('',#1216,#293);
#195=LINE('',#1218,#294);
#196=LINE('',#1220,#295);
#197=LINE('',#1221,#296);
#198=LINE('',#1230,#297);
#199=LINE('',#1236,#298);
#200=LINE('',#1242,#299);
#201=LINE('',#1244,#300);
#202=LINE('',#1246,#301);
#203=LINE('',#1247,#302);
#204=LINE('',#1250,#303);
#205=LINE('',#1252,#304);
#206=LINE('',#1253,#305);
#207=LINE('',#1256,#306);
#208=LINE('',#1257,#307);
#209=LINE('',#1260,#308);
#210=LINE('',#1261,#309);
#211=LINE('',#1263,#310);
#212=LINE('',#1266,#311);
#213=LINE('',#1271,#312);
#214=LINE('',#1276,#313);
#215=LINE('',#1278,#314);
#216=LINE('',#1279,#315);
#217=LINE('',#1281,#316);
#218=LINE('',#1283,#317);
#219=LINE('',#1288,#318);
#220=LINE('',#1293,#319);
#221=LINE('',#1295,#320);
#222=LINE('',#1297,#321);
#223=LINE('',#1298,#322);
#224=LINE('',#1301,#323);
#225=LINE('',#1303,#324);
#226=LINE('',#1304,#325);
#227=LINE('',#1307,#326);
#228=LINE('',#1309,#327);
#229=LINE('',#1310,#328);
#230=LINE('',#1313,#329);
#231=LINE('',#1315,#330);
#232=LINE('',#1316,#331);
#233=LINE('',#1319,#332);
#234=LINE('',#1321,#333);
#235=LINE('',#1322,#334);
#236=LINE('',#1324,#335);
#237=LINE('',#1325,#336);
#238=LINE('',#1328,#337);
#239=LINE('',#1329,#338);
#240=LINE('',#1333,#339);
#241=LINE('',#1335,#340);
#242=LINE('',#1336,#341);
#243=LINE('',#1339,#342);
#244=LINE('',#1341,#343);
#245=LINE('',#1342,#344);
#246=LINE('',#1345,#345);
#247=LINE('',#1347,#346);
#248=LINE('',#1348,#347);
#249=LINE('',#1351,#348);
#250=LINE('',#1353,#349);
#251=LINE('',#1354,#350);
#252=LINE('',#1357,#351);
#253=LINE('',#1359,#352);
#254=LINE('',#1360,#353);
#255=LINE('',#1363,#354);
#256=LINE('',#1365,#355);
#257=LINE('',#1366,#356);
#258=LINE('',#1369,#357);
#259=LINE('',#1371,#358);
#260=LINE('',#1372,#359);
#261=LINE('',#1375,#360);
#262=LINE('',#1377,#361);
#263=LINE('',#1378,#362);
#264=LINE('',#1381,#363);
#265=LINE('',#1383,#364);
#266=LINE('',#1384,#365);
#267=LINE('',#1386,#366);
#268=LINE('',#1387,#367);
#269=LINE('',#1394,#368);
#270=LINE('',#1400,#369);
#271=VECTOR('',#944,10.);
#272=VECTOR('',#947,10.);
#273=VECTOR('',#950,10.);
#274=VECTOR('',#951,10.);
#275=VECTOR('',#952,10.);
#276=VECTOR('',#953,10.);
#277=VECTOR('',#954,10.);
#278=VECTOR('',#957,10.);
#279=VECTOR('',#958,10.);
#280=VECTOR('',#959,10.);
#281=VECTOR('',#962,10.);
#282=VECTOR('',#963,10.);
#283=VECTOR('',#964,10.);
#284=VECTOR('',#967,10.);
#285=VECTOR('',#970,10.);
#286=VECTOR('',#971,10.);
#287=VECTOR('',#972,10.);
#288=VECTOR('',#973,10.);
#289=VECTOR('',#974,10.);
#290=VECTOR('',#975,10.);
#291=VECTOR('',#976,10.);
#292=VECTOR('',#977,10.);
#293=VECTOR('',#978,10.);
#294=VECTOR('',#979,10.);
#295=VECTOR('',#980,10.);
#296=VECTOR('',#981,10.);
#297=VECTOR('',#990,4.);
#298=VECTOR('',#997,5.6);
#299=VECTOR('',#1004,10.);
#300=VECTOR('',#1005,10.);
#301=VECTOR('',#1006,10.);
#302=VECTOR('',#1007,10.);
#303=VECTOR('',#1010,10.);
#304=VECTOR('',#1011,10.);
#305=VECTOR('',#1012,10.);
#306=VECTOR('',#1015,10.);
#307=VECTOR('',#1016,10.);
#308=VECTOR('',#1019,10.);
#309=VECTOR('',#1020,10.);
#310=VECTOR('',#1023,10.);
#311=VECTOR('',#1026,0.800000000000001);
#312=VECTOR('',#1033,0.800000000000001);
#313=VECTOR('',#1040,10.);
#314=VECTOR('',#1041,10.);
#315=VECTOR('',#1042,10.);
#316=VECTOR('',#1045,10.);
#317=VECTOR('',#1048,10.);
#318=VECTOR('',#1053,3.429);
#319=VECTOR('',#1058,10.);
#320=VECTOR('',#1059,10.);
#321=VECTOR('',#1060,10.);
#322=VECTOR('',#1061,10.);
#323=VECTOR('',#1064,10.);
#324=VECTOR('',#1065,10.);
#325=VECTOR('',#1066,10.);
#326=VECTOR('',#1069,10.);
#327=VECTOR('',#1070,10.);
#328=VECTOR('',#1071,10.);
#329=VECTOR('',#1074,10.);
#330=VECTOR('',#1075,10.);
#331=VECTOR('',#1076,10.);
#332=VECTOR('',#1079,10.);
#333=VECTOR('',#1080,10.);
#334=VECTOR('',#1081,10.);
#335=VECTOR('',#1084,10.);
#336=VECTOR('',#1085,10.);
#337=VECTOR('',#1090,10.);
#338=VECTOR('',#1091,10.);
#339=VECTOR('',#1096,10.);
#340=VECTOR('',#1097,10.);
#341=VECTOR('',#1098,10.);
#342=VECTOR('',#1101,10.);
#343=VECTOR('',#1102,10.);
#344=VECTOR('',#1103,10.);
#345=VECTOR('',#1106,10.);
#346=VECTOR('',#1107,10.);
#347=VECTOR('',#1108,10.);
#348=VECTOR('',#1111,10.);
#349=VECTOR('',#1112,10.);
#350=VECTOR('',#1113,10.);
#351=VECTOR('',#1116,10.);
#352=VECTOR('',#1117,10.);
#353=VECTOR('',#1118,10.);
#354=VECTOR('',#1121,10.);
#355=VECTOR('',#1122,10.);
#356=VECTOR('',#1123,10.);
#357=VECTOR('',#1126,10.);
#358=VECTOR('',#1127,10.);
#359=VECTOR('',#1128,10.);
#360=VECTOR('',#1131,10.);
#361=VECTOR('',#1132,10.);
#362=VECTOR('',#1133,10.);
#363=VECTOR('',#1136,10.);
#364=VECTOR('',#1137,10.);
#365=VECTOR('',#1138,10.);
#366=VECTOR('',#1141,10.);
#367=VECTOR('',#1142,10.);
#368=VECTOR('',#1151,4.);
#369=VECTOR('',#1158,5.6);
#370=CIRCLE('',#876,5.);
#371=CIRCLE('',#877,5.);
#372=CIRCLE('',#883,0.800000000000001);
#373=CIRCLE('',#884,0.800000000000001);
#374=CIRCLE('',#886,3.6360297657338);
#375=CIRCLE('',#887,4.);
#376=CIRCLE('',#889,5.6);
#377=CIRCLE('',#890,5.9639702342662);
#378=CIRCLE('',#898,0.800000000000001);
#379=CIRCLE('',#901,0.800000000000001);
#380=CIRCLE('',#907,3.429);
#381=CIRCLE('',#908,3.429);
#382=CIRCLE('',#931,4.);
#383=CIRCLE('',#932,4.);
#384=CIRCLE('',#934,5.6);
#385=CIRCLE('',#935,5.6);
#386=VERTEX_POINT('',#1167);
#387=VERTEX_POINT('',#1168);
#388=VERTEX_POINT('',#1170);
#389=VERTEX_POINT('',#1172);
#390=VERTEX_POINT('',#1176);
#391=VERTEX_POINT('',#1178);
#392=VERTEX_POINT('',#1180);
#393=VERTEX_POINT('',#1182);
#394=VERTEX_POINT('',#1186);
#395=VERTEX_POINT('',#1188);
#396=VERTEX_POINT('',#1192);
#397=VERTEX_POINT('',#1194);
#398=VERTEX_POINT('',#1200);
#399=VERTEX_POINT('',#1202);
#400=VERTEX_POINT('',#1204);
#401=VERTEX_POINT('',#1206);
#402=VERTEX_POINT('',#1209);
#403=VERTEX_POINT('',#1211);
#404=VERTEX_POINT('',#1213);
#405=VERTEX_POINT('',#1215);
#406=VERTEX_POINT('',#1217);
#407=VERTEX_POINT('',#1219);
#408=VERTEX_POINT('',#1222);
#409=VERTEX_POINT('',#1224);
#410=VERTEX_POINT('',#1227);
#411=VERTEX_POINT('',#1229);
#412=VERTEX_POINT('',#1233);
#413=VERTEX_POINT('',#1235);
#414=VERTEX_POINT('',#1240);
#415=VERTEX_POINT('',#1241);
#416=VERTEX_POINT('',#1243);
#417=VERTEX_POINT('',#1245);
#418=VERTEX_POINT('',#1249);
#419=VERTEX_POINT('',#1251);
#420=VERTEX_POINT('',#1255);
#421=VERTEX_POINT('',#1259);
#422=VERTEX_POINT('',#1265);
#423=VERTEX_POINT('',#1270);
#424=VERTEX_POINT('',#1275);
#425=VERTEX_POINT('',#1277);
#426=VERTEX_POINT('',#1285);
#427=VERTEX_POINT('',#1287);
#428=VERTEX_POINT('',#1291);
#429=VERTEX_POINT('',#1292);
#430=VERTEX_POINT('',#1294);
#431=VERTEX_POINT('',#1296);
#432=VERTEX_POINT('',#1300);
#433=VERTEX_POINT('',#1302);
#434=VERTEX_POINT('',#1306);
#435=VERTEX_POINT('',#1308);
#436=VERTEX_POINT('',#1312);
#437=VERTEX_POINT('',#1314);
#438=VERTEX_POINT('',#1318);
#439=VERTEX_POINT('',#1320);
#440=VERTEX_POINT('',#1332);
#441=VERTEX_POINT('',#1334);
#442=VERTEX_POINT('',#1338);
#443=VERTEX_POINT('',#1340);
#444=VERTEX_POINT('',#1344);
#445=VERTEX_POINT('',#1346);
#446=VERTEX_POINT('',#1350);
#447=VERTEX_POINT('',#1352);
#448=VERTEX_POINT('',#1356);
#449=VERTEX_POINT('',#1358);
#450=VERTEX_POINT('',#1362);
#451=VERTEX_POINT('',#1364);
#452=VERTEX_POINT('',#1368);
#453=VERTEX_POINT('',#1370);
#454=VERTEX_POINT('',#1374);
#455=VERTEX_POINT('',#1376);
#456=VERTEX_POINT('',#1380);
#457=VERTEX_POINT('',#1382);
#458=VERTEX_POINT('',#1391);
#459=VERTEX_POINT('',#1393);
#460=VERTEX_POINT('',#1397);
#461=VERTEX_POINT('',#1399);
#462=EDGE_CURVE('',#386,#387,#370,.T.);
#463=EDGE_CURVE('',#386,#388,#172,.T.);
#464=EDGE_CURVE('',#389,#388,#371,.T.);
#465=EDGE_CURVE('',#387,#389,#173,.T.);
#466=EDGE_CURVE('',#390,#386,#174,.T.);
#467=EDGE_CURVE('',#390,#391,#175,.T.);
#468=EDGE_CURVE('',#392,#391,#176,.T.);
#469=EDGE_CURVE('',#393,#392,#177,.T.);
#470=EDGE_CURVE('',#393,#388,#178,.T.);
#471=EDGE_CURVE('',#394,#387,#179,.T.);
#472=EDGE_CURVE('',#395,#394,#180,.T.);
#473=EDGE_CURVE('',#390,#395,#181,.T.);
#474=EDGE_CURVE('',#396,#393,#182,.T.);
#475=EDGE_CURVE('',#396,#397,#183,.T.);
#476=EDGE_CURVE('',#389,#397,#184,.T.);
#477=EDGE_CURVE('',#397,#394,#185,.T.);
#478=EDGE_CURVE('',#398,#395,#186,.T.);
#479=EDGE_CURVE('',#398,#399,#187,.T.);
#480=EDGE_CURVE('',#400,#399,#188,.T.);
#481=EDGE_CURVE('',#401,#400,#189,.T.);
#482=EDGE_CURVE('',#396,#401,#190,.T.);
#483=EDGE_CURVE('',#393,#402,#191,.T.);
#484=EDGE_CURVE('',#402,#403,#192,.T.);
#485=EDGE_CURVE('',#403,#404,#193,.T.);
#486=EDGE_CURVE('',#404,#405,#194,.T.);
#487=EDGE_CURVE('',#405,#406,#195,.T.);
#488=EDGE_CURVE('',#406,#407,#196,.T.);
#489=EDGE_CURVE('',#407,#390,#197,.T.);
#490=EDGE_CURVE('',#408,#408,#372,.T.);
#491=EDGE_CURVE('',#409,#409,#373,.T.);
#492=EDGE_CURVE('',#410,#410,#374,.T.);
#493=EDGE_CURVE('',#410,#411,#198,.T.);
#494=EDGE_CURVE('',#411,#411,#375,.T.);
#495=EDGE_CURVE('',#412,#412,#376,.T.);
#496=EDGE_CURVE('',#412,#413,#199,.T.);
#497=EDGE_CURVE('',#413,#413,#377,.T.);
#498=EDGE_CURVE('',#414,#415,#200,.T.);
#499=EDGE_CURVE('',#414,#416,#201,.T.);
#500=EDGE_CURVE('',#417,#416,#202,.T.);
#501=EDGE_CURVE('',#415,#417,#203,.T.);
#502=EDGE_CURVE('',#405,#418,#204,.T.);
#503=EDGE_CURVE('',#418,#419,#205,.T.);
#504=EDGE_CURVE('',#406,#419,#206,.T.);
#505=EDGE_CURVE('',#404,#420,#207,.T.);
#506=EDGE_CURVE('',#420,#418,#208,.T.);
#507=EDGE_CURVE('',#421,#403,#209,.T.);
#508=EDGE_CURVE('',#421,#420,#210,.T.);
#509=EDGE_CURVE('',#419,#421,#211,.T.);
#510=EDGE_CURVE('',#408,#422,#212,.T.);
#511=EDGE_CURVE('',#422,#422,#378,.T.);
#512=EDGE_CURVE('',#409,#423,#213,.T.);
#513=EDGE_CURVE('',#423,#423,#379,.T.);
#514=EDGE_CURVE('',#402,#424,#214,.T.);
#515=EDGE_CURVE('',#425,#424,#215,.T.);
#516=EDGE_CURVE('',#407,#425,#216,.T.);
#517=EDGE_CURVE('',#424,#392,#217,.T.);
#518=EDGE_CURVE('',#391,#425,#218,.T.);
#519=EDGE_CURVE('',#426,#426,#380,.T.);
#520=EDGE_CURVE('',#426,#427,#219,.T.);
#521=EDGE_CURVE('',#427,#427,#381,.T.);
#522=EDGE_CURVE('',#428,#429,#220,.T.);
#523=EDGE_CURVE('',#428,#430,#221,.T.);
#524=EDGE_CURVE('',#430,#431,#222,.T.);
#525=EDGE_CURVE('',#429,#431,#223,.T.);
#526=EDGE_CURVE('',#432,#428,#224,.T.);
#527=EDGE_CURVE('',#432,#433,#225,.T.);
#528=EDGE_CURVE('',#433,#430,#226,.T.);
#529=EDGE_CURVE('',#434,#432,#227,.T.);
#530=EDGE_CURVE('',#434,#435,#228,.T.);
#531=EDGE_CURVE('',#435,#433,#229,.T.);
#532=EDGE_CURVE('',#436,#434,#230,.T.);
#533=EDGE_CURVE('',#436,#437,#231,.T.);
#534=EDGE_CURVE('',#437,#435,#232,.T.);
#535=EDGE_CURVE('',#438,#436,#233,.T.);
#536=EDGE_CURVE('',#438,#439,#234,.T.);
#537=EDGE_CURVE('',#439,#437,#235,.T.);
#538=EDGE_CURVE('',#429,#438,#236,.T.);
#539=EDGE_CURVE('',#431,#439,#237,.T.);
#540=EDGE_CURVE('',#401,#414,#238,.T.);
#541=EDGE_CURVE('',#416,#400,#239,.T.);
#542=EDGE_CURVE('',#440,#415,#240,.T.);
#543=EDGE_CURVE('',#441,#417,#241,.T.);
#544=EDGE_CURVE('',#440,#441,#242,.T.);
#545=EDGE_CURVE('',#442,#440,#243,.T.);
#546=EDGE_CURVE('',#443,#441,#244,.T.);
#547=EDGE_CURVE('',#442,#443,#245,.T.);
#548=EDGE_CURVE('',#444,#442,#246,.T.);
#549=EDGE_CURVE('',#445,#443,#247,.T.);
#550=EDGE_CURVE('',#444,#445,#248,.T.);
#551=EDGE_CURVE('',#446,#444,#249,.T.);
#552=EDGE_CURVE('',#447,#445,#250,.T.);
#553=EDGE_CURVE('',#446,#447,#251,.T.);
#554=EDGE_CURVE('',#448,#446,#252,.T.);
#555=EDGE_CURVE('',#449,#447,#253,.T.);
#556=EDGE_CURVE('',#448,#449,#254,.T.);
#557=EDGE_CURVE('',#450,#448,#255,.T.);
#558=EDGE_CURVE('',#451,#449,#256,.T.);
#559=EDGE_CURVE('',#450,#451,#257,.T.);
#560=EDGE_CURVE('',#452,#450,#258,.T.);
#561=EDGE_CURVE('',#453,#451,#259,.T.);
#562=EDGE_CURVE('',#452,#453,#260,.T.);
#563=EDGE_CURVE('',#454,#452,#261,.T.);
#564=EDGE_CURVE('',#455,#453,#262,.T.);
#565=EDGE_CURVE('',#454,#455,#263,.T.);
#566=EDGE_CURVE('',#456,#454,#264,.T.);
#567=EDGE_CURVE('',#457,#455,#265,.T.);
#568=EDGE_CURVE('',#456,#457,#266,.T.);
#569=EDGE_CURVE('',#398,#456,#267,.T.);
#570=EDGE_CURVE('',#399,#457,#268,.T.);
#571=EDGE_CURVE('',#458,#458,#382,.T.);
#572=EDGE_CURVE('',#458,#459,#269,.T.);
#573=EDGE_CURVE('',#459,#459,#383,.T.);
#574=EDGE_CURVE('',#460,#460,#384,.T.);
#575=EDGE_CURVE('',#460,#461,#270,.T.);
#576=EDGE_CURVE('',#461,#461,#385,.T.);
#577=ORIENTED_EDGE('',*,*,#462,.F.);
#578=ORIENTED_EDGE('',*,*,#463,.T.);
#579=ORIENTED_EDGE('',*,*,#464,.F.);
#580=ORIENTED_EDGE('',*,*,#465,.F.);
#581=ORIENTED_EDGE('',*,*,#463,.F.);
#582=ORIENTED_EDGE('',*,*,#466,.F.);
#583=ORIENTED_EDGE('',*,*,#467,.T.);
#584=ORIENTED_EDGE('',*,*,#468,.F.);
#585=ORIENTED_EDGE('',*,*,#469,.F.);
#586=ORIENTED_EDGE('',*,*,#470,.T.);
#587=ORIENTED_EDGE('',*,*,#462,.T.);
#588=ORIENTED_EDGE('',*,*,#471,.F.);
#589=ORIENTED_EDGE('',*,*,#472,.F.);
#590=ORIENTED_EDGE('',*,*,#473,.F.);
#591=ORIENTED_EDGE('',*,*,#466,.T.);
#592=ORIENTED_EDGE('',*,*,#464,.T.);
#593=ORIENTED_EDGE('',*,*,#470,.F.);
#594=ORIENTED_EDGE('',*,*,#474,.F.);
#595=ORIENTED_EDGE('',*,*,#475,.T.);
#596=ORIENTED_EDGE('',*,*,#476,.F.);
#597=ORIENTED_EDGE('',*,*,#465,.T.);
#598=ORIENTED_EDGE('',*,*,#476,.T.);
#599=ORIENTED_EDGE('',*,*,#477,.T.);
#600=ORIENTED_EDGE('',*,*,#471,.T.);
#601=ORIENTED_EDGE('',*,*,#473,.T.);
#602=ORIENTED_EDGE('',*,*,#478,.F.);
#603=ORIENTED_EDGE('',*,*,#479,.T.);
#604=ORIENTED_EDGE('',*,*,#480,.F.);
#605=ORIENTED_EDGE('',*,*,#481,.F.);
#606=ORIENTED_EDGE('',*,*,#482,.F.);
#607=ORIENTED_EDGE('',*,*,#474,.T.);
#608=ORIENTED_EDGE('',*,*,#483,.T.);
#609=ORIENTED_EDGE('',*,*,#484,.T.);
#610=ORIENTED_EDGE('',*,*,#485,.T.);
#611=ORIENTED_EDGE('',*,*,#486,.T.);
#612=ORIENTED_EDGE('',*,*,#487,.T.);
#613=ORIENTED_EDGE('',*,*,#488,.T.);
#614=ORIENTED_EDGE('',*,*,#489,.T.);
#615=ORIENTED_EDGE('',*,*,#490,.T.);
#616=ORIENTED_EDGE('',*,*,#491,.T.);
#617=ORIENTED_EDGE('',*,*,#492,.F.);
#618=ORIENTED_EDGE('',*,*,#493,.T.);
#619=ORIENTED_EDGE('',*,*,#494,.T.);
#620=ORIENTED_EDGE('',*,*,#493,.F.);
#621=ORIENTED_EDGE('',*,*,#495,.T.);
#622=ORIENTED_EDGE('',*,*,#496,.T.);
#623=ORIENTED_EDGE('',*,*,#497,.F.);
#624=ORIENTED_EDGE('',*,*,#496,.F.);
#625=ORIENTED_EDGE('',*,*,#495,.F.);
#626=ORIENTED_EDGE('',*,*,#494,.F.);
#627=ORIENTED_EDGE('',*,*,#498,.F.);
#628=ORIENTED_EDGE('',*,*,#499,.T.);
#629=ORIENTED_EDGE('',*,*,#500,.F.);
#630=ORIENTED_EDGE('',*,*,#501,.F.);
#631=ORIENTED_EDGE('',*,*,#497,.T.);
#632=ORIENTED_EDGE('',*,*,#487,.F.);
#633=ORIENTED_EDGE('',*,*,#502,.T.);
#634=ORIENTED_EDGE('',*,*,#503,.T.);
#635=ORIENTED_EDGE('',*,*,#504,.F.);
#636=ORIENTED_EDGE('',*,*,#486,.F.);
#637=ORIENTED_EDGE('',*,*,#505,.T.);
#638=ORIENTED_EDGE('',*,*,#506,.T.);
#639=ORIENTED_EDGE('',*,*,#502,.F.);
#640=ORIENTED_EDGE('',*,*,#485,.F.);
#641=ORIENTED_EDGE('',*,*,#507,.F.);
#642=ORIENTED_EDGE('',*,*,#508,.T.);
#643=ORIENTED_EDGE('',*,*,#505,.F.);
#644=ORIENTED_EDGE('',*,*,#508,.F.);
#645=ORIENTED_EDGE('',*,*,#509,.F.);
#646=ORIENTED_EDGE('',*,*,#503,.F.);
#647=ORIENTED_EDGE('',*,*,#506,.F.);
#648=ORIENTED_EDGE('',*,*,#490,.F.);
#649=ORIENTED_EDGE('',*,*,#510,.T.);
#650=ORIENTED_EDGE('',*,*,#511,.T.);
#651=ORIENTED_EDGE('',*,*,#510,.F.);
#652=ORIENTED_EDGE('',*,*,#511,.F.);
#653=ORIENTED_EDGE('',*,*,#491,.F.);
#654=ORIENTED_EDGE('',*,*,#512,.T.);
#655=ORIENTED_EDGE('',*,*,#513,.T.);
#656=ORIENTED_EDGE('',*,*,#512,.F.);
#657=ORIENTED_EDGE('',*,*,#513,.F.);
#658=ORIENTED_EDGE('',*,*,#507,.T.);
#659=ORIENTED_EDGE('',*,*,#484,.F.);
#660=ORIENTED_EDGE('',*,*,#514,.T.);
#661=ORIENTED_EDGE('',*,*,#515,.F.);
#662=ORIENTED_EDGE('',*,*,#516,.F.);
#663=ORIENTED_EDGE('',*,*,#488,.F.);
#664=ORIENTED_EDGE('',*,*,#504,.T.);
#665=ORIENTED_EDGE('',*,*,#509,.T.);
#666=ORIENTED_EDGE('',*,*,#517,.F.);
#667=ORIENTED_EDGE('',*,*,#514,.F.);
#668=ORIENTED_EDGE('',*,*,#483,.F.);
#669=ORIENTED_EDGE('',*,*,#469,.T.);
#670=ORIENTED_EDGE('',*,*,#518,.F.);
#671=ORIENTED_EDGE('',*,*,#467,.F.);
#672=ORIENTED_EDGE('',*,*,#489,.F.);
#673=ORIENTED_EDGE('',*,*,#516,.T.);
#674=ORIENTED_EDGE('',*,*,#519,.F.);
#675=ORIENTED_EDGE('',*,*,#520,.T.);
#676=ORIENTED_EDGE('',*,*,#521,.F.);
#677=ORIENTED_EDGE('',*,*,#520,.F.);
#678=ORIENTED_EDGE('',*,*,#522,.F.);
#679=ORIENTED_EDGE('',*,*,#523,.T.);
#680=ORIENTED_EDGE('',*,*,#524,.T.);
#681=ORIENTED_EDGE('',*,*,#525,.F.);
#682=ORIENTED_EDGE('',*,*,#526,.F.);
#683=ORIENTED_EDGE('',*,*,#527,.T.);
#684=ORIENTED_EDGE('',*,*,#528,.T.);
#685=ORIENTED_EDGE('',*,*,#523,.F.);
#686=ORIENTED_EDGE('',*,*,#529,.F.);
#687=ORIENTED_EDGE('',*,*,#530,.T.);
#688=ORIENTED_EDGE('',*,*,#531,.T.);
#689=ORIENTED_EDGE('',*,*,#527,.F.);
#690=ORIENTED_EDGE('',*,*,#532,.F.);
#691=ORIENTED_EDGE('',*,*,#533,.T.);
#692=ORIENTED_EDGE('',*,*,#534,.T.);
#693=ORIENTED_EDGE('',*,*,#530,.F.);
#694=ORIENTED_EDGE('',*,*,#535,.F.);
#695=ORIENTED_EDGE('',*,*,#536,.T.);
#696=ORIENTED_EDGE('',*,*,#537,.T.);
#697=ORIENTED_EDGE('',*,*,#533,.F.);
#698=ORIENTED_EDGE('',*,*,#538,.F.);
#699=ORIENTED_EDGE('',*,*,#525,.T.);
#700=ORIENTED_EDGE('',*,*,#539,.T.);
#701=ORIENTED_EDGE('',*,*,#536,.F.);
#702=ORIENTED_EDGE('',*,*,#539,.F.);
#703=ORIENTED_EDGE('',*,*,#524,.F.);
#704=ORIENTED_EDGE('',*,*,#528,.F.);
#705=ORIENTED_EDGE('',*,*,#531,.F.);
#706=ORIENTED_EDGE('',*,*,#534,.F.);
#707=ORIENTED_EDGE('',*,*,#537,.F.);
#708=ORIENTED_EDGE('',*,*,#521,.T.);
#709=ORIENTED_EDGE('',*,*,#540,.F.);
#710=ORIENTED_EDGE('',*,*,#481,.T.);
#711=ORIENTED_EDGE('',*,*,#541,.F.);
#712=ORIENTED_EDGE('',*,*,#499,.F.);
#713=ORIENTED_EDGE('',*,*,#492,.T.);
#714=ORIENTED_EDGE('',*,*,#515,.T.);
#715=ORIENTED_EDGE('',*,*,#517,.T.);
#716=ORIENTED_EDGE('',*,*,#468,.T.);
#717=ORIENTED_EDGE('',*,*,#518,.T.);
#718=ORIENTED_EDGE('',*,*,#542,.T.);
#719=ORIENTED_EDGE('',*,*,#501,.T.);
#720=ORIENTED_EDGE('',*,*,#543,.F.);
#721=ORIENTED_EDGE('',*,*,#544,.F.);
#722=ORIENTED_EDGE('',*,*,#545,.T.);
#723=ORIENTED_EDGE('',*,*,#544,.T.);
#724=ORIENTED_EDGE('',*,*,#546,.F.);
#725=ORIENTED_EDGE('',*,*,#547,.F.);
#726=ORIENTED_EDGE('',*,*,#548,.T.);
#727=ORIENTED_EDGE('',*,*,#547,.T.);
#728=ORIENTED_EDGE('',*,*,#549,.F.);
#729=ORIENTED_EDGE('',*,*,#550,.F.);
#730=ORIENTED_EDGE('',*,*,#519,.T.);
#731=ORIENTED_EDGE('',*,*,#551,.T.);
#732=ORIENTED_EDGE('',*,*,#550,.T.);
#733=ORIENTED_EDGE('',*,*,#552,.F.);
#734=ORIENTED_EDGE('',*,*,#553,.F.);
#735=ORIENTED_EDGE('',*,*,#554,.T.);
#736=ORIENTED_EDGE('',*,*,#553,.T.);
#737=ORIENTED_EDGE('',*,*,#555,.F.);
#738=ORIENTED_EDGE('',*,*,#556,.F.);
#739=ORIENTED_EDGE('',*,*,#522,.T.);
#740=ORIENTED_EDGE('',*,*,#538,.T.);
#741=ORIENTED_EDGE('',*,*,#535,.T.);
#742=ORIENTED_EDGE('',*,*,#532,.T.);
#743=ORIENTED_EDGE('',*,*,#529,.T.);
#744=ORIENTED_EDGE('',*,*,#526,.T.);
#745=ORIENTED_EDGE('',*,*,#557,.T.);
#746=ORIENTED_EDGE('',*,*,#556,.T.);
#747=ORIENTED_EDGE('',*,*,#558,.F.);
#748=ORIENTED_EDGE('',*,*,#559,.F.);
#749=ORIENTED_EDGE('',*,*,#560,.T.);
#750=ORIENTED_EDGE('',*,*,#559,.T.);
#751=ORIENTED_EDGE('',*,*,#561,.F.);
#752=ORIENTED_EDGE('',*,*,#562,.F.);
#753=ORIENTED_EDGE('',*,*,#563,.T.);
#754=ORIENTED_EDGE('',*,*,#562,.T.);
#755=ORIENTED_EDGE('',*,*,#564,.F.);
#756=ORIENTED_EDGE('',*,*,#565,.F.);
#757=ORIENTED_EDGE('',*,*,#566,.T.);
#758=ORIENTED_EDGE('',*,*,#565,.T.);
#759=ORIENTED_EDGE('',*,*,#567,.F.);
#760=ORIENTED_EDGE('',*,*,#568,.F.);
#761=ORIENTED_EDGE('',*,*,#569,.T.);
#762=ORIENTED_EDGE('',*,*,#568,.T.);
#763=ORIENTED_EDGE('',*,*,#570,.F.);
#764=ORIENTED_EDGE('',*,*,#479,.F.);
#765=ORIENTED_EDGE('',*,*,#480,.T.);
#766=ORIENTED_EDGE('',*,*,#570,.T.);
#767=ORIENTED_EDGE('',*,*,#567,.T.);
#768=ORIENTED_EDGE('',*,*,#564,.T.);
#769=ORIENTED_EDGE('',*,*,#561,.T.);
#770=ORIENTED_EDGE('',*,*,#558,.T.);
#771=ORIENTED_EDGE('',*,*,#555,.T.);
#772=ORIENTED_EDGE('',*,*,#552,.T.);
#773=ORIENTED_EDGE('',*,*,#549,.T.);
#774=ORIENTED_EDGE('',*,*,#546,.T.);
#775=ORIENTED_EDGE('',*,*,#543,.T.);
#776=ORIENTED_EDGE('',*,*,#500,.T.);
#777=ORIENTED_EDGE('',*,*,#541,.T.);
#778=ORIENTED_EDGE('',*,*,#478,.T.);
#779=ORIENTED_EDGE('',*,*,#472,.T.);
#780=ORIENTED_EDGE('',*,*,#477,.F.);
#781=ORIENTED_EDGE('',*,*,#475,.F.);
#782=ORIENTED_EDGE('',*,*,#482,.T.);
#783=ORIENTED_EDGE('',*,*,#540,.T.);
#784=ORIENTED_EDGE('',*,*,#498,.T.);
#785=ORIENTED_EDGE('',*,*,#542,.F.);
#786=ORIENTED_EDGE('',*,*,#545,.F.);
#787=ORIENTED_EDGE('',*,*,#548,.F.);
#788=ORIENTED_EDGE('',*,*,#551,.F.);
#789=ORIENTED_EDGE('',*,*,#554,.F.);
#790=ORIENTED_EDGE('',*,*,#557,.F.);
#791=ORIENTED_EDGE('',*,*,#560,.F.);
#792=ORIENTED_EDGE('',*,*,#563,.F.);
#793=ORIENTED_EDGE('',*,*,#566,.F.);
#794=ORIENTED_EDGE('',*,*,#569,.F.);
#795=ORIENTED_EDGE('',*,*,#571,.F.);
#796=ORIENTED_EDGE('',*,*,#572,.T.);
#797=ORIENTED_EDGE('',*,*,#573,.F.);
#798=ORIENTED_EDGE('',*,*,#572,.F.);
#799=ORIENTED_EDGE('',*,*,#574,.F.);
#800=ORIENTED_EDGE('',*,*,#575,.T.);
#801=ORIENTED_EDGE('',*,*,#576,.F.);
#802=ORIENTED_EDGE('',*,*,#575,.F.);
#803=ORIENTED_EDGE('',*,*,#576,.T.);
#804=ORIENTED_EDGE('',*,*,#573,.T.);
#805=ORIENTED_EDGE('',*,*,#574,.T.);
#806=ORIENTED_EDGE('',*,*,#571,.T.);
#807=CYLINDRICAL_SURFACE('',#875,5.);
#808=CYLINDRICAL_SURFACE('',#897,0.800000000000001);
#809=CYLINDRICAL_SURFACE('',#900,0.800000000000001);
#810=CYLINDRICAL_SURFACE('',#906,3.429);
#811=CYLINDRICAL_SURFACE('',#930,4.);
#812=CYLINDRICAL_SURFACE('',#933,5.6);
#813=ADVANCED_FACE('',(#68),#807,.T.);
#814=ADVANCED_FACE('',(#69),#29,.F.);
#815=ADVANCED_FACE('',(#70),#30,.T.);
#816=ADVANCED_FACE('',(#71),#31,.T.);
#817=ADVANCED_FACE('',(#72),#32,.T.);
#818=ADVANCED_FACE('',(#73,#19,#20),#33,.T.);
#819=ADVANCED_FACE('',(#74),#17,.T.);
#820=ADVANCED_FACE('',(#75),#18,.F.);
#821=ADVANCED_FACE('',(#76,#21),#34,.F.);
#822=ADVANCED_FACE('',(#77,#22),#35,.T.);
#823=ADVANCED_FACE('',(#78),#36,.F.);
#824=ADVANCED_FACE('',(#79),#37,.F.);
#825=ADVANCED_FACE('',(#80),#38,.F.);
#826=ADVANCED_FACE('',(#81),#39,.F.);
#827=ADVANCED_FACE('',(#82),#808,.F.);
#828=ADVANCED_FACE('',(#83),#40,.T.);
#829=ADVANCED_FACE('',(#84),#809,.F.);
#830=ADVANCED_FACE('',(#85),#41,.T.);
#831=ADVANCED_FACE('',(#86),#42,.F.);
#832=ADVANCED_FACE('',(#87),#43,.F.);
#833=ADVANCED_FACE('',(#88),#44,.F.);
#834=ADVANCED_FACE('',(#89),#810,.F.);
#835=ADVANCED_FACE('',(#90),#45,.F.);
#836=ADVANCED_FACE('',(#91),#46,.F.);
#837=ADVANCED_FACE('',(#92),#47,.F.);
#838=ADVANCED_FACE('',(#93),#48,.F.);
#839=ADVANCED_FACE('',(#94),#49,.F.);
#840=ADVANCED_FACE('',(#95),#50,.F.);
#841=ADVANCED_FACE('',(#96,#23),#51,.F.);
#842=ADVANCED_FACE('',(#97),#52,.T.);
#843=ADVANCED_FACE('',(#98,#24),#53,.T.);
#844=ADVANCED_FACE('',(#99),#54,.T.);
#845=ADVANCED_FACE('',(#100),#55,.T.);
#846=ADVANCED_FACE('',(#101,#25),#56,.T.);
#847=ADVANCED_FACE('',(#102),#57,.T.);
#848=ADVANCED_FACE('',(#103,#26),#58,.T.);
#849=ADVANCED_FACE('',(#104),#59,.T.);
#850=ADVANCED_FACE('',(#105),#60,.T.);
#851=ADVANCED_FACE('',(#106),#61,.T.);
#852=ADVANCED_FACE('',(#107),#62,.T.);
#853=ADVANCED_FACE('',(#108),#63,.T.);
#854=ADVANCED_FACE('',(#109),#64,.T.);
#855=ADVANCED_FACE('',(#110),#65,.F.);
#856=ADVANCED_FACE('',(#111),#811,.F.);
#857=ADVANCED_FACE('',(#112),#812,.T.);
#858=ADVANCED_FACE('',(#113,#27),#66,.F.);
#859=ADVANCED_FACE('',(#114,#28),#67,.T.);
#860=CLOSED_SHELL('',(#813,#814,#815,#816,#817,#818,#819,#820,#821,#822,
#823,#824,#825,#826,#827,#828,#829,#830,#831,#832,#833,#834,#835,#836,#837,
#838,#839,#840,#841,#842,#843,#844,#845,#846,#847,#848,#849,#850,#851,#852,
#853,#854,#855));
#861=CLOSED_SHELL('',(#856,#857,#858,#859));
#862=DERIVED_UNIT_ELEMENT(#864,1.);
#863=DERIVED_UNIT_ELEMENT(#1409,-3.);
#864=(
MASS_UNIT()
NAMED_UNIT(*)
SI_UNIT(.KILO.,.GRAM.)
);
#865=DERIVED_UNIT((#862,#863));
#866=MEASURE_REPRESENTATION_ITEM('density measure',
POSITIVE_RATIO_MEASURE(7850.),#865);
#867=PROPERTY_DEFINITION_REPRESENTATION(#872,#869);
#868=PROPERTY_DEFINITION_REPRESENTATION(#873,#870);
#869=REPRESENTATION('material name',(#871),#1406);
#870=REPRESENTATION('density',(#866),#1406);
#871=DESCRIPTIVE_REPRESENTATION_ITEM('Steel','Steel');
#872=PROPERTY_DEFINITION('material property','material name',#1416);
#873=PROPERTY_DEFINITION('material property','density of part',#1416);
#874=AXIS2_PLACEMENT_3D('',#1165,#938,#939);
#875=AXIS2_PLACEMENT_3D('',#1166,#940,#941);
#876=AXIS2_PLACEMENT_3D('',#1169,#942,#943);
#877=AXIS2_PLACEMENT_3D('',#1173,#945,#946);
#878=AXIS2_PLACEMENT_3D('',#1175,#948,#949);
#879=AXIS2_PLACEMENT_3D('',#1185,#955,#956);
#880=AXIS2_PLACEMENT_3D('',#1191,#960,#961);
#881=AXIS2_PLACEMENT_3D('',#1197,#965,#966);
#882=AXIS2_PLACEMENT_3D('',#1199,#968,#969);
#883=AXIS2_PLACEMENT_3D('',#1223,#982,#983);
#884=AXIS2_PLACEMENT_3D('',#1225,#984,#985);
#885=AXIS2_PLACEMENT_3D('',#1226,#986,#987);
#886=AXIS2_PLACEMENT_3D('',#1228,#988,#989);
#887=AXIS2_PLACEMENT_3D('',#1231,#991,#992);
#888=AXIS2_PLACEMENT_3D('',#1232,#993,#994);
#889=AXIS2_PLACEMENT_3D('',#1234,#995,#996);
#890=AXIS2_PLACEMENT_3D('',#1237,#998,#999);
#891=AXIS2_PLACEMENT_3D('',#1238,#1000,#1001);
#892=AXIS2_PLACEMENT_3D('',#1239,#1002,#1003);
#893=AXIS2_PLACEMENT_3D('',#1248,#1008,#1009);
#894=AXIS2_PLACEMENT_3D('',#1254,#1013,#1014);
#895=AXIS2_PLACEMENT_3D('',#1258,#1017,#1018);
#896=AXIS2_PLACEMENT_3D('',#1262,#1021,#1022);
#897=AXIS2_PLACEMENT_3D('',#1264,#1024,#1025);
#898=AXIS2_PLACEMENT_3D('',#1267,#1027,#1028);
#899=AXIS2_PLACEMENT_3D('',#1268,#1029,#1030);
#900=AXIS2_PLACEMENT_3D('',#1269,#1031,#1032);
#901=AXIS2_PLACEMENT_3D('',#1272,#1034,#1035);
#902=AXIS2_PLACEMENT_3D('',#1273,#1036,#1037);
#903=AXIS2_PLACEMENT_3D('',#1274,#1038,#1039);
#904=AXIS2_PLACEMENT_3D('',#1280,#1043,#1044);
#905=AXIS2_PLACEMENT_3D('',#1282,#1046,#1047);
#906=AXIS2_PLACEMENT_3D('',#1284,#1049,#1050);
#907=AXIS2_PLACEMENT_3D('',#1286,#1051,#1052);
#908=AXIS2_PLACEMENT_3D('',#1289,#1054,#1055);
#909=AXIS2_PLACEMENT_3D('',#1290,#1056,#1057);
#910=AXIS2_PLACEMENT_3D('',#1299,#1062,#1063);
#911=AXIS2_PLACEMENT_3D('',#1305,#1067,#1068);
#912=AXIS2_PLACEMENT_3D('',#1311,#1072,#1073);
#913=AXIS2_PLACEMENT_3D('',#1317,#1077,#1078);
#914=AXIS2_PLACEMENT_3D('',#1323,#1082,#1083);
#915=AXIS2_PLACEMENT_3D('',#1326,#1086,#1087);
#916=AXIS2_PLACEMENT_3D('',#1327,#1088,#1089);
#917=AXIS2_PLACEMENT_3D('',#1330,#1092,#1093);
#918=AXIS2_PLACEMENT_3D('',#1331,#1094,#1095);
#919=AXIS2_PLACEMENT_3D('',#1337,#1099,#1100);
#920=AXIS2_PLACEMENT_3D('',#1343,#1104,#1105);
#921=AXIS2_PLACEMENT_3D('',#1349,#1109,#1110);
#922=AXIS2_PLACEMENT_3D('',#1355,#1114,#1115);
#923=AXIS2_PLACEMENT_3D('',#1361,#1119,#1120);
#924=AXIS2_PLACEMENT_3D('',#1367,#1124,#1125);
#925=AXIS2_PLACEMENT_3D('',#1373,#1129,#1130);
#926=AXIS2_PLACEMENT_3D('',#1379,#1134,#1135);
#927=AXIS2_PLACEMENT_3D('',#1385,#1139,#1140);
#928=AXIS2_PLACEMENT_3D('',#1388,#1143,#1144);
#929=AXIS2_PLACEMENT_3D('',#1389,#1145,#1146);
#930=AXIS2_PLACEMENT_3D('',#1390,#1147,#1148);
#931=AXIS2_PLACEMENT_3D('',#1392,#1149,#1150);
#932=AXIS2_PLACEMENT_3D('',#1395,#1152,#1153);
#933=AXIS2_PLACEMENT_3D('',#1396,#1154,#1155);
#934=AXIS2_PLACEMENT_3D('',#1398,#1156,#1157);
#935=AXIS2_PLACEMENT_3D('',#1401,#1159,#1160);
#936=AXIS2_PLACEMENT_3D('',#1402,#1161,#1162);
#937=AXIS2_PLACEMENT_3D('',#1403,#1163,#1164);
#938=DIRECTION('axis',(0.,0.,1.));
#939=DIRECTION('refdir',(1.,0.,0.));
#940=DIRECTION('center_axis',(0.,1.,0.));
#941=DIRECTION('ref_axis',(1.,0.,0.));
#942=DIRECTION('center_axis',(0.,1.,0.));
#943=DIRECTION('ref_axis',(1.,0.,0.));
#944=DIRECTION('',(0.,-1.,0.));
#945=DIRECTION('center_axis',(0.,-1.,0.));
#946=DIRECTION('ref_axis',(1.,0.,0.));
#947=DIRECTION('',(0.,-1.,0.));
#948=DIRECTION('center_axis',(0.,2.22044604925031E-16,-1.));
#949=DIRECTION('ref_axis',(0.,-1.,-2.22044604925031E-16));
#950=DIRECTION('',(1.,0.,0.));
#951=DIRECTION('',(-1.,0.,0.));
#952=DIRECTION('',(0.,1.,2.22044604925031E-16));
#953=DIRECTION('',(-1.,0.,0.));
#954=DIRECTION('',(1.,0.,0.));
#955=DIRECTION('center_axis',(0.,1.,0.));
#956=DIRECTION('ref_axis',(0.,0.,1.));
#957=DIRECTION('',(0.,0.,1.));
#958=DIRECTION('',(1.,0.,0.));
#959=DIRECTION('',(0.,0.,-1.));
#960=DIRECTION('center_axis',(0.,-1.,0.));
#961=DIRECTION('ref_axis',(0.,0.,-1.));
#962=DIRECTION('',(0.,0.,1.));
#963=DIRECTION('',(1.,0.,0.));
#964=DIRECTION('',(0.,0.,-1.));
#965=DIRECTION('center_axis',(1.,0.,0.));
#966=DIRECTION('ref_axis',(0.,0.,-1.));
#967=DIRECTION('',(0.,1.,0.));
#968=DIRECTION('center_axis',(1.,0.,0.));
#969=DIRECTION('ref_axis',(0.,1.,0.));
#970=DIRECTION('',(0.,-1.,0.));
#971=DIRECTION('',(0.,0.,1.));
#972=DIRECTION('',(0.,1.,0.));
#973=DIRECTION('',(0.,0.,1.));
#974=DIRECTION('',(0.,-1.,0.));
#975=DIRECTION('',(0.,4.44089209850062E-16,1.));
#976=DIRECTION('',(0.,1.,8.88178419700125E-16));
#977=DIRECTION('',(0.,0.,1.));
#978=DIRECTION('',(0.,1.,0.));
#979=DIRECTION('',(0.,0.,-1.));
#980=DIRECTION('',(0.,1.,8.88178419700125E-16));
#981=DIRECTION('',(0.,0.,-1.));
#982=DIRECTION('center_axis',(-1.,0.,0.));
#983=DIRECTION('ref_axis',(0.,1.,0.));
#984=DIRECTION('center_axis',(-1.,0.,0.));
#985=DIRECTION('ref_axis',(0.,1.,0.));
#986=DIRECTION('center_axis',(1.,0.,0.));
#987=DIRECTION('ref_axis',(0.,1.,0.));
#988=DIRECTION('center_axis',(-1.,0.,0.));
#989=DIRECTION('ref_axis',(0.,1.,0.));
#990=DIRECTION('',(0.939692620785909,-0.342020143325669,4.18853873767699E-17));
#991=DIRECTION('center_axis',(-1.,0.,0.));
#992=DIRECTION('ref_axis',(0.,1.,0.));
#993=DIRECTION('center_axis',(-1.,0.,0.));
#994=DIRECTION('ref_axis',(0.,1.,0.));
#995=DIRECTION('center_axis',(1.,0.,0.));
#996=DIRECTION('ref_axis',(0.,1.,0.));
#997=DIRECTION('',(-0.939692620785908,-0.342020143325669,4.18853873767699E-17));
#998=DIRECTION('center_axis',(1.,0.,0.));
#999=DIRECTION('ref_axis',(0.,1.,0.));
#1000=DIRECTION('center_axis',(1.,0.,0.));
#1001=DIRECTION('ref_axis',(0.,1.,0.));
#1002=DIRECTION('center_axis',(-1.,0.,0.));
#1003=DIRECTION('ref_axis',(0.,-1.,0.));
#1004=DIRECTION('',(0.,1.,0.));
#1005=DIRECTION('',(0.,0.,1.));
#1006=DIRECTION('',(0.,-1.,0.));
#1007=DIRECTION('',(0.,0.,1.));
#1008=DIRECTION('center_axis',(0.,1.,0.));
#1009=DIRECTION('ref_axis',(0.,0.,-1.));
#1010=DIRECTION('',(-1.,0.,0.));
#1011=DIRECTION('',(0.,0.,-1.));
#1012=DIRECTION('',(-1.,0.,0.));
#1013=DIRECTION('center_axis',(0.,0.,1.));
#1014=DIRECTION('ref_axis',(0.,1.,0.));
#1015=DIRECTION('',(-1.,0.,0.));
#1016=DIRECTION('',(0.,1.,0.));
#1017=DIRECTION('center_axis',(0.,-1.,0.));
#1018=DIRECTION('ref_axis',(0.,0.,1.));
#1019=DIRECTION('',(1.,0.,0.));
#1020=DIRECTION('',(0.,0.,1.));
#1021=DIRECTION('center_axis',(-1.,0.,0.));
#1022=DIRECTION('ref_axis',(0.,0.,1.));
#1023=DIRECTION('',(0.,-1.,-8.88178419700125E-16));
#1024=DIRECTION('center_axis',(-1.,0.,0.));
#1025=DIRECTION('ref_axis',(0.,1.,0.));
#1026=DIRECTION('',(-1.,0.,0.));
#1027=DIRECTION('center_axis',(-1.,0.,0.));
#1028=DIRECTION('ref_axis',(0.,1.,0.));
#1029=DIRECTION('center_axis',(1.,0.,0.));
#1030=DIRECTION('ref_axis',(0.,1.,0.));
#1031=DIRECTION('center_axis',(-1.,0.,0.));
#1032=DIRECTION('ref_axis',(0.,1.,0.));
#1033=DIRECTION('',(-1.,0.,0.));
#1034=DIRECTION('center_axis',(-1.,0.,0.));
#1035=DIRECTION('ref_axis',(0.,1.,0.));
#1036=DIRECTION('center_axis',(1.,0.,0.));
#1037=DIRECTION('ref_axis',(0.,1.,0.));
#1038=DIRECTION('center_axis',(0.,-8.88178419700125E-16,1.));
#1039=DIRECTION('ref_axis',(0.,1.,8.88178419700125E-16));
#1040=DIRECTION('',(-1.,0.,0.));
#1041=DIRECTION('',(0.,-1.,-8.88178419700125E-16));
#1042=DIRECTION('',(-1.,0.,0.));
#1043=DIRECTION('center_axis',(0.,-1.,4.44089209850062E-16));
#1044=DIRECTION('ref_axis',(0.,4.44089209850062E-16,1.));
#1045=DIRECTION('',(0.,-4.44089209850062E-16,-1.));
#1046=DIRECTION('center_axis',(0.,1.,0.));
#1047=DIRECTION('ref_axis',(0.,0.,-1.));
#1048=DIRECTION('',(0.,0.,1.));
#1049=DIRECTION('center_axis',(-0.707106781186538,-0.707106781186557,0.));
#1050=DIRECTION('ref_axis',(-0.707106781186557,0.707106781186538,0.));
#1051=DIRECTION('center_axis',(-0.707106781186526,-0.707106781186569,0.));
#1052=DIRECTION('ref_axis',(-0.707106781186557,0.707106781186538,0.));
#1053=DIRECTION('',(-0.707106781186538,-0.707106781186557,0.));
#1054=DIRECTION('center_axis',(0.707106781186538,0.707106781186557,0.));
#1055=DIRECTION('ref_axis',(-0.707106781186557,0.707106781186538,0.));
#1056=DIRECTION('center_axis',(-2.41552685951353E-16,2.41552685951347E-16,
1.));
#1057=DIRECTION('ref_axis',(0.707106781186551,-0.707106781186544,3.41607084500048E-16));
#1058=DIRECTION('',(0.707106781186551,-0.707106781186544,3.41607084500048E-16));
#1059=DIRECTION('',(0.707106781186538,0.707106781186557,0.));
#1060=DIRECTION('',(0.707106781186552,-0.707106781186544,3.41607084500048E-16));
#1061=DIRECTION('',(0.707106781186538,0.707106781186557,0.));
#1062=DIRECTION('center_axis',(-0.612372435695802,0.612372435695787,0.5));
#1063=DIRECTION('ref_axis',(0.353553390593276,-0.353553390593272,0.866025403784439));
#1064=DIRECTION('',(0.353553390593276,-0.353553390593272,0.866025403784439));
#1065=DIRECTION('',(0.707106781186538,0.707106781186557,0.));
#1066=DIRECTION('',(0.353553390593276,-0.353553390593272,0.866025403784439));
#1067=DIRECTION('center_axis',(-0.612372435695803,0.612372435695787,-0.5));
#1068=DIRECTION('ref_axis',(-0.353553390593275,0.353553390593271,0.866025403784439));
#1069=DIRECTION('',(-0.353553390593275,0.353553390593271,0.866025403784439));
#1070=DIRECTION('',(0.707106781186538,0.707106781186557,0.));
#1071=DIRECTION('',(-0.353553390593275,0.353553390593271,0.866025403784439));
#1072=DIRECTION('center_axis',(-2.41552685951353E-16,2.41552685951347E-16,
-1.));
#1073=DIRECTION('ref_axis',(-0.707106781186551,0.707106781186544,3.41607084500048E-16));
#1074=DIRECTION('',(-0.707106781186551,0.707106781186544,3.41607084500048E-16));
#1075=DIRECTION('',(0.707106781186538,0.707106781186557,0.));
#1076=DIRECTION('',(-0.707106781186552,0.707106781186544,3.41607084500048E-16));
#1077=DIRECTION('center_axis',(0.612372435695802,-0.612372435695786,-0.5));
#1078=DIRECTION('ref_axis',(-0.353553390593276,0.353553390593272,-0.866025403784438));
#1079=DIRECTION('',(-0.353553390593276,0.353553390593272,-0.866025403784439));
#1080=DIRECTION('',(0.707106781186538,0.707106781186557,0.));
#1081=DIRECTION('',(-0.353553390593276,0.353553390593272,-0.866025403784438));
#1082=DIRECTION('center_axis',(0.612372435695803,-0.612372435695787,0.499999999999999));
#1083=DIRECTION('ref_axis',(0.353553390593275,-0.353553390593271,-0.866025403784439));
#1084=DIRECTION('',(0.353553390593275,-0.353553390593271,-0.866025403784439));
#1085=DIRECTION('',(0.353553390593275,-0.353553390593271,-0.866025403784439));
#1086=DIRECTION('center_axis',(0.707106781186538,0.707106781186557,0.));
#1087=DIRECTION('ref_axis',(0.,0.,-1.));
#1088=DIRECTION('center_axis',(0.,-1.,0.));
#1089=DIRECTION('ref_axis',(1.,0.,0.));
#1090=DIRECTION('',(-1.,0.,0.));
#1091=DIRECTION('',(1.,0.,0.));
#1092=DIRECTION('center_axis',(-1.,0.,0.));
#1093=DIRECTION('ref_axis',(0.,-1.,0.));
#1094=DIRECTION('center_axis',(-0.707106781186546,0.707106781186549,0.));
#1095=DIRECTION('ref_axis',(-0.707106781186549,-0.707106781186546,0.));
#1096=DIRECTION('',(-0.707106781186549,-0.707106781186546,0.));
#1097=DIRECTION('',(-0.707106781186549,-0.707106781186546,0.));
#1098=DIRECTION('',(0.,0.,1.));
#1099=DIRECTION('center_axis',(-9.9475983006391E-14,1.,0.));
#1100=DIRECTION('ref_axis',(-1.,-9.9475983006391E-14,0.));
#1101=DIRECTION('',(-1.,-9.9475983006391E-14,0.));
#1102=DIRECTION('',(-1.,-9.9475983006391E-14,0.));
#1103=DIRECTION('',(0.,0.,1.));
#1104=DIRECTION('center_axis',(0.707106781186526,0.707106781186569,0.));
#1105=DIRECTION('ref_axis',(-0.707106781186569,0.707106781186526,0.));
#1106=DIRECTION('',(-0.707106781186569,0.707106781186526,0.));
#1107=DIRECTION('',(-0.707106781186569,0.707106781186526,0.));
#1108=DIRECTION('',(0.,0.,1.));
#1109=DIRECTION('center_axis',(0.707106781186565,-0.70710678118653,0.));
#1110=DIRECTION('ref_axis',(0.70710678118653,0.707106781186565,0.));
#1111=DIRECTION('',(0.70710678118653,0.707106781186565,0.));
#1112=DIRECTION('',(0.70710678118653,0.707106781186565,0.));
#1113=DIRECTION('',(0.,0.,1.));
#1114=DIRECTION('center_axis',(-0.707106781186544,-0.707106781186551,0.));
#1115=DIRECTION('ref_axis',(0.707106781186551,-0.707106781186544,0.));
#1116=DIRECTION('',(0.707106781186551,-0.707106781186544,0.));
#1117=DIRECTION('',(0.707106781186551,-0.707106781186544,0.));
#1118=DIRECTION('',(0.,0.,1.));
#1119=DIRECTION('center_axis',(0.707106781186547,-0.707106781186548,0.));
#1120=DIRECTION('ref_axis',(0.707106781186548,0.707106781186547,0.));
#1121=DIRECTION('',(0.707106781186548,0.707106781186547,0.));
#1122=DIRECTION('',(0.707106781186548,0.707106781186547,0.));
#1123=DIRECTION('',(0.,0.,1.));
#1124=DIRECTION('center_axis',(1.,3.5527136788005E-16,0.));
#1125=DIRECTION('ref_axis',(-3.5527136788005E-16,1.,0.));
#1126=DIRECTION('',(-3.5527136788005E-16,1.,0.));
#1127=DIRECTION('',(-3.5527136788005E-16,1.,0.));
#1128=DIRECTION('',(0.,0.,1.));
#1129=DIRECTION('center_axis',(-8.88178419700125E-16,1.,0.));
#1130=DIRECTION('ref_axis',(-1.,-8.88178419700125E-16,0.));
#1131=DIRECTION('',(-1.,-8.88178419700125E-16,0.));
#1132=DIRECTION('',(-1.,-8.88178419700125E-16,0.));
#1133=DIRECTION('',(0.,0.,1.));
#1134=DIRECTION('center_axis',(1.,0.,0.));
#1135=DIRECTION('ref_axis',(0.,1.,0.));
#1136=DIRECTION('',(0.,1.,0.));
#1137=DIRECTION('',(0.,1.,0.));
#1138=DIRECTION('',(0.,0.,1.));
#1139=DIRECTION('center_axis',(-6.12323399573676E-17,-1.,0.));
#1140=DIRECTION('ref_axis',(1.,-6.12323399573676E-17,0.));
#1141=DIRECTION('',(1.,-6.12323399573676E-17,0.));
#1142=DIRECTION('',(1.,-6.12323399573676E-17,0.));
#1143=DIRECTION('center_axis',(0.,0.,1.));
#1144=DIRECTION('ref_axis',(1.,0.,0.));
#1145=DIRECTION('center_axis',(0.,0.,1.));
#1146=DIRECTION('ref_axis',(1.,0.,0.));
#1147=DIRECTION('center_axis',(-1.,0.,0.));
#1148=DIRECTION('ref_axis',(0.,1.,0.));
#1149=DIRECTION('center_axis',(1.,0.,0.));
#1150=DIRECTION('ref_axis',(0.,1.,0.));
#1151=DIRECTION('',(1.,0.,0.));
#1152=DIRECTION('center_axis',(-1.,0.,0.));
#1153=DIRECTION('ref_axis',(0.,1.,0.));
#1154=DIRECTION('center_axis',(-1.,0.,0.));
#1155=DIRECTION('ref_axis',(0.,1.,0.));
#1156=DIRECTION('center_axis',(-1.,0.,0.));
#1157=DIRECTION('ref_axis',(0.,1.,0.));
#1158=DIRECTION('',(1.,0.,0.));
#1159=DIRECTION('center_axis',(1.,0.,0.));
#1160=DIRECTION('ref_axis',(0.,1.,0.));
#1161=DIRECTION('center_axis',(-1.,0.,0.));
#1162=DIRECTION('ref_axis',(0.,0.,1.));
#1163=DIRECTION('center_axis',(-1.,0.,0.));
#1164=DIRECTION('ref_axis',(0.,0.,1.));
#1165=CARTESIAN_POINT('',(0.,0.,0.));
#1166=CARTESIAN_POINT('Origin',(20.,-12.5,2.5));
#1167=CARTESIAN_POINT('',(20.,-7.5,7.5));
#1168=CARTESIAN_POINT('',(25.,-7.5,2.5));
#1169=CARTESIAN_POINT('Origin',(20.,-7.5,2.5));
#1170=CARTESIAN_POINT('',(20.,-12.5,7.5));
#1171=CARTESIAN_POINT('',(20.,-12.5,7.5));
#1172=CARTESIAN_POINT('',(25.,-12.5,2.5));
#1173=CARTESIAN_POINT('Origin',(20.,-12.5,2.5));
#1174=CARTESIAN_POINT('',(25.,-12.5,2.5));
#1175=CARTESIAN_POINT('Origin',(10.,-7.5,7.5));
#1176=CARTESIAN_POINT('',(10.,-7.5,7.5));
#1177=CARTESIAN_POINT('',(10.,-7.5,7.5));
#1178=CARTESIAN_POINT('',(0.,-7.5,7.5));
#1179=CARTESIAN_POINT('',(10.,-7.5,7.5));
#1180=CARTESIAN_POINT('',(0.,-12.5,7.5));
#1181=CARTESIAN_POINT('',(0.,9.57106781186498,7.5));
#1182=CARTESIAN_POINT('',(10.,-12.5,7.5));
#1183=CARTESIAN_POINT('',(10.,-12.5,7.5));
#1184=CARTESIAN_POINT('',(10.,-12.5,7.5));
#1185=CARTESIAN_POINT('Origin',(10.,-7.5,0.));
#1186=CARTESIAN_POINT('',(25.,-7.5,0.));
#1187=CARTESIAN_POINT('',(25.,-7.5,7.5));
#1188=CARTESIAN_POINT('',(10.,-7.5,0.));
#1189=CARTESIAN_POINT('',(10.,-7.5,0.));
#1190=CARTESIAN_POINT('',(10.,-7.5,0.));
#1191=CARTESIAN_POINT('Origin',(10.,-12.5,7.5));
#1192=CARTESIAN_POINT('',(10.,-12.5,0.));
#1193=CARTESIAN_POINT('',(10.,-12.5,3.75));
#1194=CARTESIAN_POINT('',(25.,-12.5,0.));
#1195=CARTESIAN_POINT('',(10.,-12.5,0.));
#1196=CARTESIAN_POINT('',(25.,-12.5,0.));
#1197=CARTESIAN_POINT('Origin',(25.,-10.,3.75));
#1198=CARTESIAN_POINT('',(25.,-7.5,0.));
#1199=CARTESIAN_POINT('Origin',(10.,-20.,0.));
#1200=CARTESIAN_POINT('',(10.,0.,0.));
#1201=CARTESIAN_POINT('',(10.,0.,0.));
#1202=CARTESIAN_POINT('',(10.,0.,20.));
#1203=CARTESIAN_POINT('',(10.,0.,0.));
#1204=CARTESIAN_POINT('',(10.,-20.,20.));
#1205=CARTESIAN_POINT('',(10.,0.,20.));
#1206=CARTESIAN_POINT('',(10.,-20.,0.));
#1207=CARTESIAN_POINT('',(10.,-20.,0.));
#1208=CARTESIAN_POINT('',(10.,0.,0.));
#1209=CARTESIAN_POINT('',(10.,-12.5,12.5));
#1210=CARTESIAN_POINT('',(10.,-12.5,3.75));
#1211=CARTESIAN_POINT('',(10.,-11.75,12.5));
#1212=CARTESIAN_POINT('',(10.,-16.25,12.5));
#1213=CARTESIAN_POINT('',(10.,-11.75,15.));
#1214=CARTESIAN_POINT('',(10.,-11.75,6.25));
#1215=CARTESIAN_POINT('',(10.,-8.25,15.));
#1216=CARTESIAN_POINT('',(10.,-15.875,15.));
#1217=CARTESIAN_POINT('',(10.,-8.25,12.5));
#1218=CARTESIAN_POINT('',(10.,-8.25,7.5));
#1219=CARTESIAN_POINT('',(10.,-7.5,12.5));
#1220=CARTESIAN_POINT('',(10.,-16.25,12.5));
#1221=CARTESIAN_POINT('',(10.,-7.5,6.25));
#1222=CARTESIAN_POINT('',(10.,-4.45,14.5));
#1223=CARTESIAN_POINT('Origin',(10.,-3.65,14.5));
#1224=CARTESIAN_POINT('',(10.,-17.15,14.5));
#1225=CARTESIAN_POINT('Origin',(10.,-16.35,14.5));
#1226=CARTESIAN_POINT('Origin',(1.,-10.,10.));
#1227=CARTESIAN_POINT('',(-2.77555756156289E-16,-13.6360297657338,10.));
#1228=CARTESIAN_POINT('Origin',(0.,-10.,10.));
#1229=CARTESIAN_POINT('',(1.,-14.,10.));
#1230=CARTESIAN_POINT('',(1.,-14.,10.));
#1231=CARTESIAN_POINT('Origin',(1.,-10.,10.));
#1232=CARTESIAN_POINT('Origin',(1.,-10.,10.));
#1233=CARTESIAN_POINT('',(1.,-15.6,10.));
#1234=CARTESIAN_POINT('Origin',(1.,-10.,10.));
#1235=CARTESIAN_POINT('',(-2.77555756156289E-16,-15.9639702342662,10.));
#1236=CARTESIAN_POINT('',(1.,-15.6,10.));
#1237=CARTESIAN_POINT('Origin',(0.,-10.,10.));
#1238=CARTESIAN_POINT('Origin',(1.,-10.,10.));
#1239=CARTESIAN_POINT('Origin',(0.,26.64213562373,0.));
#1240=CARTESIAN_POINT('',(0.,-20.,0.));
#1241=CARTESIAN_POINT('',(-2.66453525910038E-14,26.64213562373,0.));
#1242=CARTESIAN_POINT('',(0.,-20.,0.));
#1243=CARTESIAN_POINT('',(0.,-20.,20.));
#1244=CARTESIAN_POINT('',(0.,-20.,0.));
#1245=CARTESIAN_POINT('',(-2.66453525910038E-14,26.64213562373,20.));
#1246=CARTESIAN_POINT('',(0.,-20.,20.));
#1247=CARTESIAN_POINT('',(-2.66453525910038E-14,26.64213562373,0.));
#1248=CARTESIAN_POINT('Origin',(10.,-8.25,15.));
#1249=CARTESIAN_POINT('',(7.,-8.25,15.));
#1250=CARTESIAN_POINT('',(10.,-8.25,15.));
#1251=CARTESIAN_POINT('',(7.,-8.25,12.5));
#1252=CARTESIAN_POINT('',(7.,-8.25,12.5));
#1253=CARTESIAN_POINT('',(10.,-8.25,12.5));
#1254=CARTESIAN_POINT('Origin',(10.,-11.75,15.));
#1255=CARTESIAN_POINT('',(7.,-11.75,15.));
#1256=CARTESIAN_POINT('',(10.,-11.75,15.));
#1257=CARTESIAN_POINT('',(7.,-8.25,15.));
#1258=CARTESIAN_POINT('Origin',(10.,-11.75,12.5));
#1259=CARTESIAN_POINT('',(7.,-11.75,12.5));
#1260=CARTESIAN_POINT('',(10.,-11.75,12.5));
#1261=CARTESIAN_POINT('',(7.,-11.75,15.));
#1262=CARTESIAN_POINT('Origin',(7.,-10.,13.75));
#1263=CARTESIAN_POINT('',(7.,-11.25,12.5));
#1264=CARTESIAN_POINT('Origin',(10.,-3.65,14.5));
#1265=CARTESIAN_POINT('',(7.,-4.45,14.5));
#1266=CARTESIAN_POINT('',(10.,-4.45,14.5));
#1267=CARTESIAN_POINT('Origin',(7.,-3.65,14.5));
#1268=CARTESIAN_POINT('Origin',(7.,-3.65,14.5));
#1269=CARTESIAN_POINT('Origin',(10.,-16.35,14.5));
#1270=CARTESIAN_POINT('',(7.,-17.15,14.5));
#1271=CARTESIAN_POINT('',(10.,-17.15,14.5));
#1272=CARTESIAN_POINT('Origin',(7.,-16.35,14.5));
#1273=CARTESIAN_POINT('Origin',(7.,-16.35,14.5));
#1274=CARTESIAN_POINT('Origin',(10.,-12.5,12.5));
#1275=CARTESIAN_POINT('',(0.,-12.5,12.5));
#1276=CARTESIAN_POINT('',(10.,-12.5,12.5));
#1277=CARTESIAN_POINT('',(0.,-7.5,12.5));
#1278=CARTESIAN_POINT('',(0.,7.07106781186497,12.5));
#1279=CARTESIAN_POINT('',(10.,-7.5,12.5));
#1280=CARTESIAN_POINT('Origin',(10.,-12.5,7.5));
#1281=CARTESIAN_POINT('',(0.,-12.5,3.75000000000001));
#1282=CARTESIAN_POINT('Origin',(10.,-7.5,12.5));
#1283=CARTESIAN_POINT('',(0.,-7.5,6.25));
#1284=CARTESIAN_POINT('Origin',(32.1599025766973,32.1599025766969,10.));
#1285=CARTESIAN_POINT('',(34.584571729386,29.7352334240083,10.));
#1286=CARTESIAN_POINT('Origin',(32.1599025766974,32.159902576697,10.));
#1287=CARTESIAN_POINT('',(30.7661951109789,25.916856805601,10.));
#1288=CARTESIAN_POINT('',(34.584571729386,29.7352334240083,10.));
#1289=CARTESIAN_POINT('Origin',(28.3415259582902,28.3415259582896,10.));
#1290=CARTESIAN_POINT('Origin',(22.7907377259758,27.3869318036878,15.6291651245988));
#1291=CARTESIAN_POINT('',(22.7907377259758,27.3869318036878,15.6291651245988));
#1292=CARTESIAN_POINT('',(27.3869318036884,22.7907377259752,15.6291651245988));
#1293=CARTESIAN_POINT('',(20.8147862454038,29.3628832842598,15.6291651245988));
#1294=CARTESIAN_POINT('',(26.0434289194339,30.6396229971459,15.6291651245988));
#1295=CARTESIAN_POINT('',(22.7907377259758,27.3869318036878,15.6291651245988));
#1296=CARTESIAN_POINT('',(30.6396229971465,26.0434289194334,15.6291651245988));
#1297=CARTESIAN_POINT('',(29.4905744777183,27.1924774388615,15.6291651245988));
#1298=CARTESIAN_POINT('',(27.3869318036884,22.7907377259752,15.6291651245988));
#1299=CARTESIAN_POINT('Origin',(20.4926406871195,29.685028842544,10.));
#1300=CARTESIAN_POINT('',(20.4926406871195,29.685028842544,10.));
#1301=CARTESIAN_POINT('',(18.7549838575941,31.4226856720695,5.74362741960027));
#1302=CARTESIAN_POINT('',(23.7453318805776,32.9377200360022,10.));
#1303=CARTESIAN_POINT('',(20.4926406871195,29.685028842544,10.));
#1304=CARTESIAN_POINT('',(25.4689046597198,31.21414725686,14.2218738434491));
#1305=CARTESIAN_POINT('Origin',(22.7907377259758,27.3869318036878,4.37083487540115));
#1306=CARTESIAN_POINT('',(22.7907377259758,27.3869318036878,4.37083487540115));
#1307=CARTESIAN_POINT('',(22.9658945555012,27.2117749741624,3.94179001810031));
#1308=CARTESIAN_POINT('',(26.0434289194339,30.6396229971459,4.37083487540115));
#1309=CARTESIAN_POINT('',(22.7907377259758,27.3869318036878,4.37083487540115));
#1310=CARTESIAN_POINT('',(24.3198561402917,32.3631957762881,8.5927087188503));
#1311=CARTESIAN_POINT('Origin',(27.3869318036884,22.7907377259752,4.37083487540115));
#1312=CARTESIAN_POINT('',(27.3869318036884,22.7907377259752,4.37083487540115));
#1313=CARTESIAN_POINT('',(23.1128832842601,27.0647862454035,4.37083487540115));
#1314=CARTESIAN_POINT('',(30.6396229971465,26.0434289194334,4.37083487540115));
#1315=CARTESIAN_POINT('',(27.3869318036884,22.7907377259752,4.37083487540115));
#1316=CARTESIAN_POINT('',(27.192477438862,29.4905744777178,4.37083487540115));
#1317=CARTESIAN_POINT('Origin',(29.6850288425447,20.492640687119,10.));
#1318=CARTESIAN_POINT('',(29.6850288425447,20.492640687119,10.));
#1319=CARTESIAN_POINT('',(26.7983234935911,23.3793460360725,2.92904485730084));
#1320=CARTESIAN_POINT('',(32.9377200360028,23.7453318805771,9.99999999999999));
#1321=CARTESIAN_POINT('',(29.6850288425447,20.492640687119,10.));
#1322=CARTESIAN_POINT('',(31.2141472568605,25.4689046597193,5.77812615655085));
#1323=CARTESIAN_POINT('Origin',(27.3869318036884,22.7907377259752,15.6291651245988));
#1324=CARTESIAN_POINT('',(28.7111371526419,21.4665323770217,12.3855377049986));
#1325=CARTESIAN_POINT('',(32.3631957762887,24.3198561402912,11.4072912811497));
#1326=CARTESIAN_POINT('Origin',(28.3415259582902,28.3415259582896,10.));
#1327=CARTESIAN_POINT('Origin',(0.,-20.,0.));
#1328=CARTESIAN_POINT('',(10.,-20.,0.));
#1329=CARTESIAN_POINT('',(10.,-20.,20.));
#1330=CARTESIAN_POINT('Origin',(0.,26.64213562373,0.));
#1331=CARTESIAN_POINT('Origin',(16.338834764831,42.9809703885609,0.));
#1332=CARTESIAN_POINT('',(16.338834764831,42.9809703885609,0.));
#1333=CARTESIAN_POINT('',(18.8388347648318,45.4809703885617,0.));
#1334=CARTESIAN_POINT('',(16.338834764831,42.9809703885609,20.));
#1335=CARTESIAN_POINT('',(18.8388347648318,45.4809703885617,20.));
#1336=CARTESIAN_POINT('',(16.338834764831,42.9809703885609,0.));
#1337=CARTESIAN_POINT('Origin',(21.3388347648322,42.9809703885614,0.));
#1338=CARTESIAN_POINT('',(21.3388347648322,42.9809703885614,0.));
#1339=CARTESIAN_POINT('',(21.3388347648322,42.9809703885614,0.));
#1340=CARTESIAN_POINT('',(21.3388347648322,42.9809703885614,20.));
#1341=CARTESIAN_POINT('',(21.3388347648322,42.9809703885614,20.));
#1342=CARTESIAN_POINT('',(21.3388347648322,42.9809703885614,0.));
#1343=CARTESIAN_POINT('Origin',(38.4099025766971,25.9099025766975,0.));
#1344=CARTESIAN_POINT('',(38.4099025766971,25.9099025766975,0.));
#1345=CARTESIAN_POINT('',(38.4099025766971,25.9099025766975,0.));
#1346=CARTESIAN_POINT('',(38.4099025766971,25.9099025766975,20.));
#1347=CARTESIAN_POINT('',(38.4099025766971,25.9099025766975,20.));
#1348=CARTESIAN_POINT('',(38.4099025766971,25.9099025766975,0.));
#1349=CARTESIAN_POINT('Origin',(31.3388347648318,18.8388347648319,0.));
#1350=CARTESIAN_POINT('',(31.3388347648318,18.8388347648319,0.));
#1351=CARTESIAN_POINT('',(31.3388347648318,18.8388347648319,0.));
#1352=CARTESIAN_POINT('',(31.3388347648318,18.8388347648319,20.));
#1353=CARTESIAN_POINT('',(31.3388347648318,18.8388347648319,20.));
#1354=CARTESIAN_POINT('',(31.3388347648318,18.8388347648319,0.));
#1355=CARTESIAN_POINT('Origin',(18.8388347648318,31.3388347648318,0.));
#1356=CARTESIAN_POINT('',(18.8388347648318,31.3388347648318,0.));
#1357=CARTESIAN_POINT('',(18.8388347648318,31.3388347648318,0.));
#1358=CARTESIAN_POINT('',(18.8388347648318,31.3388347648318,20.));
#1359=CARTESIAN_POINT('',(18.8388347648318,31.3388347648318,20.));
#1360=CARTESIAN_POINT('',(18.8388347648318,31.3388347648318,0.));
#1361=CARTESIAN_POINT('Origin',(10.,22.5,0.));
#1362=CARTESIAN_POINT('',(10.,22.5,0.));
#1363=CARTESIAN_POINT('',(10.,22.5,0.));
#1364=CARTESIAN_POINT('',(10.,22.5,20.));
#1365=CARTESIAN_POINT('',(10.,22.5,20.));
#1366=CARTESIAN_POINT('',(10.,22.5,0.));
#1367=CARTESIAN_POINT('Origin',(10.,9.99999999999999,0.));
#1368=CARTESIAN_POINT('',(10.,9.99999999999999,0.));
#1369=CARTESIAN_POINT('',(10.,9.99999999999999,0.));
#1370=CARTESIAN_POINT('',(10.,9.99999999999999,20.));
#1371=CARTESIAN_POINT('',(10.,9.99999999999999,20.));
#1372=CARTESIAN_POINT('',(10.,9.99999999999999,0.));
#1373=CARTESIAN_POINT('Origin',(22.5,10.,0.));
#1374=CARTESIAN_POINT('',(22.5,10.,0.));
#1375=CARTESIAN_POINT('',(22.5,10.,0.));
#1376=CARTESIAN_POINT('',(22.5,10.,20.));
#1377=CARTESIAN_POINT('',(22.5,10.,20.));
#1378=CARTESIAN_POINT('',(22.5,10.,0.));
#1379=CARTESIAN_POINT('Origin',(22.5,-1.37772764904077E-15,0.));
#1380=CARTESIAN_POINT('',(22.5,-1.37772764904077E-15,0.));
#1381=CARTESIAN_POINT('',(22.5,-1.37772764904077E-15,0.));
#1382=CARTESIAN_POINT('',(22.5,-1.37772764904077E-15,20.));
#1383=CARTESIAN_POINT('',(22.5,-1.37772764904077E-15,20.));
#1384=CARTESIAN_POINT('',(22.5,-1.37772764904077E-15,0.));
#1385=CARTESIAN_POINT('Origin',(10.,-6.12323399573676E-16,0.));
#1386=CARTESIAN_POINT('',(0.,0.,0.));
#1387=CARTESIAN_POINT('',(0.,0.,20.));
#1388=CARTESIAN_POINT('Origin',(5.,-10.,20.));
#1389=CARTESIAN_POINT('Origin',(5.,-10.,0.));
#1390=CARTESIAN_POINT('Origin',(-7.1961063391147,-10.,10.));
#1391=CARTESIAN_POINT('',(-27.1961063391147,-14.,10.));
#1392=CARTESIAN_POINT('Origin',(-27.1961063391147,-10.,10.));
#1393=CARTESIAN_POINT('',(-7.1961063391147,-14.,10.));
#1394=CARTESIAN_POINT('',(-7.1961063391147,-14.,10.));
#1395=CARTESIAN_POINT('Origin',(-7.1961063391147,-10.,10.));
#1396=CARTESIAN_POINT('Origin',(-7.1961063391147,-10.,10.));
#1397=CARTESIAN_POINT('',(-27.1961063391147,-15.6,10.));
#1398=CARTESIAN_POINT('Origin',(-27.1961063391147,-10.,10.));
#1399=CARTESIAN_POINT('',(-7.1961063391147,-15.6,10.));
#1400=CARTESIAN_POINT('',(-7.1961063391147,-15.6,10.));
#1401=CARTESIAN_POINT('Origin',(-7.1961063391147,-10.,10.));
#1402=CARTESIAN_POINT('Origin',(-7.1961063391147,-10.,10.));
#1403=CARTESIAN_POINT('Origin',(-27.1961063391147,-10.,10.));
#1404=UNCERTAINTY_MEASURE_WITH_UNIT(LENGTH_MEASURE(0.01),#1408,
'DISTANCE_ACCURACY_VALUE',
'Maximum model space distance between geometric entities at asserted c
onnectivities');
#1405=UNCERTAINTY_MEASURE_WITH_UNIT(LENGTH_MEASURE(0.01),#1408,
'DISTANCE_ACCURACY_VALUE',
'Maximum model space distance between geometric entities at asserted c
onnectivities');
#1406=(
GEOMETRIC_REPRESENTATION_CONTEXT(3)
GLOBAL_UNCERTAINTY_ASSIGNED_CONTEXT((#1404))
GLOBAL_UNIT_ASSIGNED_CONTEXT((#1408,#1410,#1411))
REPRESENTATION_CONTEXT('','3D')
);
#1407=(
GEOMETRIC_REPRESENTATION_CONTEXT(3)
GLOBAL_UNCERTAINTY_ASSIGNED_CONTEXT((#1405))
GLOBAL_UNIT_ASSIGNED_CONTEXT((#1408,#1410,#1411))
REPRESENTATION_CONTEXT('','3D')
);
#1408=(
LENGTH_UNIT()
NAMED_UNIT(*)
SI_UNIT(.MILLI.,.METRE.)
);
#1409=(
LENGTH_UNIT()
NAMED_UNIT(*)
SI_UNIT($,.METRE.)
);
#1410=(
NAMED_UNIT(*)
PLANE_ANGLE_UNIT()
SI_UNIT($,.RADIAN.)
);
#1411=(
NAMED_UNIT(*)
SI_UNIT($,.STERADIAN.)
SOLID_ANGLE_UNIT()
);
#1412=SHAPE_DEFINITION_REPRESENTATION(#1413,#1414);
#1413=PRODUCT_DEFINITION_SHAPE('',$,#1416);
#1414=SHAPE_REPRESENTATION('',(#874),#1406);
#1415=PRODUCT_DEFINITION_CONTEXT('part definition',#1420,'design');
#1416=PRODUCT_DEFINITION('Phototransistor Mount',
'Phototransistor Mount v3',#1417,#1415);
#1417=PRODUCT_DEFINITION_FORMATION('',$,#1422);
#1418=PRODUCT_RELATED_PRODUCT_CATEGORY('Phototransistor Mount v3',
'Phototransistor Mount v3',(#1422));
#1419=APPLICATION_PROTOCOL_DEFINITION('international standard',
'automotive_design',2009,#1420);
#1420=APPLICATION_CONTEXT(
'Core Data for Automotive Mechanical Design Process');
#1421=PRODUCT_CONTEXT('part definition',#1420,'mechanical');
#1422=PRODUCT('Phototransistor Mount','Phototransistor Mount v3',$,(#1421));
#1423=PRESENTATION_STYLE_ASSIGNMENT((#1424));
#1424=SURFACE_STYLE_USAGE(.BOTH.,#1425);
#1425=SURFACE_SIDE_STYLE('',(#1426));
#1426=SURFACE_STYLE_FILL_AREA(#1427);
#1427=FILL_AREA_STYLE('Steel - Satin',(#1428));
#1428=FILL_AREA_STYLE_COLOUR('Steel - Satin',#1429);
#1429=COLOUR_RGB('Steel - Satin',0.627450980392157,0.627450980392157,0.627450980392157);
ENDSEC;
END-ISO-10303-21;
