%TF.GenerationSoftware,KiCad,Pcbnew,10.0.1*%
%TF.CreationDate,2026-04-23T22:56:06-07:00*%
%TF.ProjectId,Photogate,50686f74-6f67-4617-9465-2e6b69636164,rev?*%
%TF.SameCoordinates,Original*%
%TF.FileFunction,Legend,Bot*%
%TF.FilePolarity,Positive*%
%FSLAX46Y46*%
G04 Gerber Fmt 4.6, Leading zero omitted, Abs format (unit mm)*
G04 Created by KiCad (PCBNEW 10.0.1) date 2026-04-23 22:56:06*
%MOMM*%
%LPD*%
G01*
G04 APERTURE LIST*
%ADD10C,0.150000*%
%ADD11C,0.120000*%
%ADD12C,1.800000*%
%ADD13C,1.600000*%
%ADD14C,3.600000*%
%ADD15R,1.050000X1.500000*%
%ADD16O,1.050000X1.500000*%
%ADD17R,1.700000X1.700000*%
%ADD18C,1.700000*%
%ADD19C,1.524000*%
%ADD20R,1.500000X1.050000*%
%ADD21O,1.500000X1.050000*%
%ADD22C,3.000000*%
%ADD23R,1.800000X2.600000*%
%ADD24O,1.800000X2.600000*%
G04 APERTURE END LIST*
D10*
X189192819Y-68754666D02*
X189907104Y-68754666D01*
X189907104Y-68754666D02*
X190049961Y-68707047D01*
X190049961Y-68707047D02*
X190145200Y-68611809D01*
X190145200Y-68611809D02*
X190192819Y-68468952D01*
X190192819Y-68468952D02*
X190192819Y-68373714D01*
X190192819Y-69754666D02*
X190192819Y-69183238D01*
X190192819Y-69468952D02*
X189192819Y-69468952D01*
X189192819Y-69468952D02*
X189335676Y-69373714D01*
X189335676Y-69373714D02*
X189430914Y-69278476D01*
X189430914Y-69278476D02*
X189478533Y-69183238D01*
X151252819Y-119046666D02*
X151967104Y-119046666D01*
X151967104Y-119046666D02*
X152109961Y-118999047D01*
X152109961Y-118999047D02*
X152205200Y-118903809D01*
X152205200Y-118903809D02*
X152252819Y-118760952D01*
X152252819Y-118760952D02*
X152252819Y-118665714D01*
X151252819Y-119427619D02*
X151252819Y-120046666D01*
X151252819Y-120046666D02*
X151633771Y-119713333D01*
X151633771Y-119713333D02*
X151633771Y-119856190D01*
X151633771Y-119856190D02*
X151681390Y-119951428D01*
X151681390Y-119951428D02*
X151729009Y-119999047D01*
X151729009Y-119999047D02*
X151824247Y-120046666D01*
X151824247Y-120046666D02*
X152062342Y-120046666D01*
X152062342Y-120046666D02*
X152157580Y-119999047D01*
X152157580Y-119999047D02*
X152205200Y-119951428D01*
X152205200Y-119951428D02*
X152252819Y-119856190D01*
X152252819Y-119856190D02*
X152252819Y-119570476D01*
X152252819Y-119570476D02*
X152205200Y-119475238D01*
X152205200Y-119475238D02*
X152157580Y-119427619D01*
X174112819Y-119046666D02*
X174827104Y-119046666D01*
X174827104Y-119046666D02*
X174969961Y-118999047D01*
X174969961Y-118999047D02*
X175065200Y-118903809D01*
X175065200Y-118903809D02*
X175112819Y-118760952D01*
X175112819Y-118760952D02*
X175112819Y-118665714D01*
X174446152Y-119951428D02*
X175112819Y-119951428D01*
X174065200Y-119713333D02*
X174779485Y-119475238D01*
X174779485Y-119475238D02*
X174779485Y-120094285D01*
X167348819Y-68754666D02*
X168063104Y-68754666D01*
X168063104Y-68754666D02*
X168205961Y-68707047D01*
X168205961Y-68707047D02*
X168301200Y-68611809D01*
X168301200Y-68611809D02*
X168348819Y-68468952D01*
X168348819Y-68468952D02*
X168348819Y-68373714D01*
X167444057Y-69183238D02*
X167396438Y-69230857D01*
X167396438Y-69230857D02*
X167348819Y-69326095D01*
X167348819Y-69326095D02*
X167348819Y-69564190D01*
X167348819Y-69564190D02*
X167396438Y-69659428D01*
X167396438Y-69659428D02*
X167444057Y-69707047D01*
X167444057Y-69707047D02*
X167539295Y-69754666D01*
X167539295Y-69754666D02*
X167634533Y-69754666D01*
X167634533Y-69754666D02*
X167777390Y-69707047D01*
X167777390Y-69707047D02*
X168348819Y-69135619D01*
X168348819Y-69135619D02*
X168348819Y-69754666D01*
%TO.C,J1*%
D11*
X170578000Y-72500000D02*
X170578000Y-69740000D01*
X188468000Y-69740000D02*
X170578000Y-69740000D01*
X188468000Y-72500000D02*
X170578000Y-72500000D01*
X188468000Y-72500000D02*
X188468000Y-69740000D01*
X189738000Y-72500000D02*
X191118000Y-72500000D01*
X191118000Y-72500000D02*
X191118000Y-71120000D01*
%TO.C,J3*%
X152798000Y-118000000D02*
X152798000Y-119380000D01*
X154178000Y-118000000D02*
X152798000Y-118000000D01*
X155448000Y-118000000D02*
X155448000Y-120760000D01*
X155448000Y-118000000D02*
X173338000Y-118000000D01*
X155448000Y-120760000D02*
X173338000Y-120760000D01*
X173338000Y-118000000D02*
X173338000Y-120760000D01*
%TO.C,J4*%
X175658000Y-118000000D02*
X175658000Y-119380000D01*
X177038000Y-118000000D02*
X175658000Y-118000000D01*
X178308000Y-118000000D02*
X178308000Y-120760000D01*
X178308000Y-118000000D02*
X191118000Y-118000000D01*
X178308000Y-120760000D02*
X191118000Y-120760000D01*
X191118000Y-118000000D02*
X191118000Y-120760000D01*
%TO.C,J2*%
X143654000Y-72500000D02*
X143654000Y-69740000D01*
X166624000Y-69740000D02*
X143654000Y-69740000D01*
X166624000Y-72500000D02*
X143654000Y-72500000D01*
X166624000Y-72500000D02*
X166624000Y-69740000D01*
X167894000Y-72500000D02*
X169274000Y-72500000D01*
X169274000Y-72500000D02*
X169274000Y-71120000D01*
%TD*%
%LPC*%
D12*
%TO.C,U1*%
X149407800Y-123734000D03*
X155907800Y-123734000D03*
X149407800Y-128234000D03*
X155907800Y-128234000D03*
%TD*%
D13*
%TO.C,C4*%
X164124000Y-114808000D03*
X169124000Y-114808000D03*
%TD*%
%TO.C,R1*%
X202692000Y-71069200D03*
X192532000Y-71069200D03*
%TD*%
%TO.C,R8*%
X204978000Y-120396000D03*
X194818000Y-120396000D03*
%TD*%
D14*
%TO.C,REF\u002A\u002A*%
X173228000Y-66548000D03*
%TD*%
D13*
%TO.C,R2*%
X149352000Y-111760000D03*
X139192000Y-111760000D03*
%TD*%
D15*
%TO.C,Q3*%
X185166000Y-112162000D03*
D16*
X183896000Y-112162000D03*
X182626000Y-112162000D03*
%TD*%
D13*
%TO.C,R7*%
X204978000Y-117094000D03*
X194818000Y-117094000D03*
%TD*%
%TO.C,R3*%
X149352000Y-118364000D03*
X139192000Y-118364000D03*
%TD*%
D17*
%TO.C,J5*%
X123444000Y-92964000D03*
D18*
X123444000Y-95504000D03*
%TD*%
D19*
%TO.C,RV1*%
X133604000Y-66040000D03*
X123444000Y-68580000D03*
X133604000Y-71120000D03*
%TD*%
D13*
%TO.C,C1*%
X136692000Y-71628000D03*
X141692000Y-71628000D03*
%TD*%
%TO.C,C5*%
X207772000Y-117094000D03*
X207772000Y-122094000D03*
%TD*%
D20*
%TO.C,Q4*%
X207518000Y-114046000D03*
D21*
X207518000Y-112776000D03*
X207518000Y-111506000D03*
%TD*%
D17*
%TO.C,J6*%
X123444000Y-103632000D03*
D18*
X123444000Y-106172000D03*
%TD*%
D14*
%TO.C,REF\u002A\u002A*%
X125222000Y-126238000D03*
%TD*%
D13*
%TO.C,R4*%
X155702000Y-111760000D03*
X165862000Y-111760000D03*
%TD*%
%TO.C,C2*%
X145542000Y-115062000D03*
X140542000Y-115062000D03*
%TD*%
%TO.C,C3*%
X145542000Y-121666000D03*
X140542000Y-121666000D03*
%TD*%
D17*
%TO.C,J8*%
X208280000Y-103632000D03*
D18*
X208280000Y-106172000D03*
%TD*%
D12*
%TO.C,U3*%
X162104000Y-123734000D03*
X168604000Y-123734000D03*
X162104000Y-128234000D03*
X168604000Y-128234000D03*
%TD*%
%TO.C,U2*%
X174807800Y-123734000D03*
X181307800Y-123734000D03*
X174807800Y-128234000D03*
X181307800Y-128234000D03*
%TD*%
D14*
%TO.C,REF\u002A\u002A*%
X187960000Y-126238000D03*
%TD*%
D13*
%TO.C,R5*%
X168402000Y-111760000D03*
X178562000Y-111760000D03*
%TD*%
D17*
%TO.C,J7*%
X208280000Y-92959000D03*
D18*
X208280000Y-95499000D03*
%TD*%
D22*
%TO.C,DS1*%
X128358900Y-76200000D03*
X128358900Y-107200700D03*
X203357480Y-107200700D03*
X203358000Y-76200000D03*
D23*
X133858000Y-76200000D03*
D24*
X136398000Y-76200000D03*
X138938000Y-76200000D03*
X141478000Y-76200000D03*
X144018000Y-76200000D03*
X146558000Y-76200000D03*
X149098000Y-76200000D03*
X151638000Y-76200000D03*
X154178000Y-76200000D03*
X156718000Y-76200000D03*
X159258000Y-76200000D03*
X161798000Y-76200000D03*
X164338000Y-76200000D03*
X166878000Y-76200000D03*
X169418000Y-76200000D03*
X171958000Y-76200000D03*
%TD*%
D13*
%TO.C,R9*%
X204978000Y-123698000D03*
X194818000Y-123698000D03*
%TD*%
%TO.C,R6*%
X189992000Y-111760000D03*
X200152000Y-111760000D03*
%TD*%
D17*
%TO.C,J1*%
X189738000Y-71120000D03*
D18*
X187198000Y-71120000D03*
X184658000Y-71120000D03*
X182118000Y-71120000D03*
X179578000Y-71120000D03*
X177038000Y-71120000D03*
X174498000Y-71120000D03*
X171958000Y-71120000D03*
%TD*%
D17*
%TO.C,J3*%
X154178000Y-119380000D03*
D18*
X156718000Y-119380000D03*
X159258000Y-119380000D03*
X161798000Y-119380000D03*
X164338000Y-119380000D03*
X166878000Y-119380000D03*
X169418000Y-119380000D03*
X171958000Y-119380000D03*
%TD*%
D17*
%TO.C,J4*%
X177038000Y-119380000D03*
D18*
X179578000Y-119380000D03*
X182118000Y-119380000D03*
X184658000Y-119380000D03*
X187198000Y-119380000D03*
X189738000Y-119380000D03*
%TD*%
D17*
%TO.C,J2*%
X167894000Y-71120000D03*
D18*
X165354000Y-71120000D03*
X162814000Y-71120000D03*
X160274000Y-71120000D03*
X157734000Y-71120000D03*
X155194000Y-71120000D03*
X152654000Y-71120000D03*
X150114000Y-71120000D03*
X147574000Y-71120000D03*
X145034000Y-71120000D03*
%TD*%
%LPD*%
M02*
