%TF.GenerationSoftware,KiCad,Pcbnew,10.0.1*%
%TF.CreationDate,2026-04-23T22:56:06-07:00*%
%TF.ProjectId,Photogate,50686f74-6f67-4617-9465-2e6b69636164,rev?*%
%TF.SameCoordinates,Original*%
%TF.FileFunction,Legend,Top*%
%TF.FilePolarity,Positive*%
%FSLAX46Y46*%
G04 Gerber Fmt 4.6, Leading zero omitted, Abs format (unit mm)*
G04 Created by KiCad (PCBNEW 10.0.1) date 2026-04-23 22:56:06*
%MOMM*%
%LPD*%
G01*
G04 APERTURE LIST*
%ADD10C,0.100000*%
%ADD11C,0.150000*%
%ADD12C,0.254000*%
%ADD13C,0.152400*%
%ADD14C,0.250000*%
%ADD15C,0.120000*%
%ADD16C,1.800000*%
%ADD17C,1.600000*%
%ADD18C,3.600000*%
%ADD19C,5.600000*%
%ADD20R,1.050000X1.500000*%
%ADD21O,1.050000X1.500000*%
%ADD22R,1.700000X1.700000*%
%ADD23C,1.700000*%
%ADD24C,1.524000*%
%ADD25R,1.500000X1.050000*%
%ADD26O,1.500000X1.050000*%
%ADD27C,3.000000*%
%ADD28R,1.800000X2.600000*%
%ADD29O,1.800000X2.600000*%
G04 APERTURE END LIST*
D10*
X121953398Y-110722519D02*
X135669398Y-110722519D01*
X135669398Y-122802519D01*
X121953398Y-122802519D01*
X121953398Y-110722519D01*
G36*
X121953398Y-110722519D02*
G01*
X135669398Y-110722519D01*
X135669398Y-122802519D01*
X121953398Y-122802519D01*
X121953398Y-110722519D01*
G37*
D11*
X129368779Y-124325987D02*
X129368779Y-123325987D01*
X129368779Y-123325987D02*
X129749731Y-123325987D01*
X129749731Y-123325987D02*
X129844969Y-123373606D01*
X129844969Y-123373606D02*
X129892588Y-123421225D01*
X129892588Y-123421225D02*
X129940207Y-123516463D01*
X129940207Y-123516463D02*
X129940207Y-123659320D01*
X129940207Y-123659320D02*
X129892588Y-123754558D01*
X129892588Y-123754558D02*
X129844969Y-123802177D01*
X129844969Y-123802177D02*
X129749731Y-123849796D01*
X129749731Y-123849796D02*
X129368779Y-123849796D01*
X130368779Y-124325987D02*
X130368779Y-123325987D01*
X130368779Y-123325987D02*
X130940207Y-124325987D01*
X130940207Y-124325987D02*
X130940207Y-123325987D01*
X131606874Y-123325987D02*
X131702112Y-123325987D01*
X131702112Y-123325987D02*
X131797350Y-123373606D01*
X131797350Y-123373606D02*
X131844969Y-123421225D01*
X131844969Y-123421225D02*
X131892588Y-123516463D01*
X131892588Y-123516463D02*
X131940207Y-123706939D01*
X131940207Y-123706939D02*
X131940207Y-123945034D01*
X131940207Y-123945034D02*
X131892588Y-124135510D01*
X131892588Y-124135510D02*
X131844969Y-124230748D01*
X131844969Y-124230748D02*
X131797350Y-124278368D01*
X131797350Y-124278368D02*
X131702112Y-124325987D01*
X131702112Y-124325987D02*
X131606874Y-124325987D01*
X131606874Y-124325987D02*
X131511636Y-124278368D01*
X131511636Y-124278368D02*
X131464017Y-124230748D01*
X131464017Y-124230748D02*
X131416398Y-124135510D01*
X131416398Y-124135510D02*
X131368779Y-123945034D01*
X131368779Y-123945034D02*
X131368779Y-123706939D01*
X131368779Y-123706939D02*
X131416398Y-123516463D01*
X131416398Y-123516463D02*
X131464017Y-123421225D01*
X131464017Y-123421225D02*
X131511636Y-123373606D01*
X131511636Y-123373606D02*
X131606874Y-123325987D01*
X132559255Y-123325987D02*
X132654493Y-123325987D01*
X132654493Y-123325987D02*
X132749731Y-123373606D01*
X132749731Y-123373606D02*
X132797350Y-123421225D01*
X132797350Y-123421225D02*
X132844969Y-123516463D01*
X132844969Y-123516463D02*
X132892588Y-123706939D01*
X132892588Y-123706939D02*
X132892588Y-123945034D01*
X132892588Y-123945034D02*
X132844969Y-124135510D01*
X132844969Y-124135510D02*
X132797350Y-124230748D01*
X132797350Y-124230748D02*
X132749731Y-124278368D01*
X132749731Y-124278368D02*
X132654493Y-124325987D01*
X132654493Y-124325987D02*
X132559255Y-124325987D01*
X132559255Y-124325987D02*
X132464017Y-124278368D01*
X132464017Y-124278368D02*
X132416398Y-124230748D01*
X132416398Y-124230748D02*
X132368779Y-124135510D01*
X132368779Y-124135510D02*
X132321160Y-123945034D01*
X132321160Y-123945034D02*
X132321160Y-123706939D01*
X132321160Y-123706939D02*
X132368779Y-123516463D01*
X132368779Y-123516463D02*
X132416398Y-123421225D01*
X132416398Y-123421225D02*
X132464017Y-123373606D01*
X132464017Y-123373606D02*
X132559255Y-123325987D01*
X133844969Y-124325987D02*
X133273541Y-124325987D01*
X133559255Y-124325987D02*
X133559255Y-123325987D01*
X133559255Y-123325987D02*
X133464017Y-123468844D01*
X133464017Y-123468844D02*
X133368779Y-123564082D01*
X133368779Y-123564082D02*
X133273541Y-123611701D01*
X134940208Y-123659320D02*
X135178303Y-124325987D01*
X135178303Y-124325987D02*
X135416398Y-123659320D01*
X135987827Y-123325987D02*
X136083065Y-123325987D01*
X136083065Y-123325987D02*
X136178303Y-123373606D01*
X136178303Y-123373606D02*
X136225922Y-123421225D01*
X136225922Y-123421225D02*
X136273541Y-123516463D01*
X136273541Y-123516463D02*
X136321160Y-123706939D01*
X136321160Y-123706939D02*
X136321160Y-123945034D01*
X136321160Y-123945034D02*
X136273541Y-124135510D01*
X136273541Y-124135510D02*
X136225922Y-124230748D01*
X136225922Y-124230748D02*
X136178303Y-124278368D01*
X136178303Y-124278368D02*
X136083065Y-124325987D01*
X136083065Y-124325987D02*
X135987827Y-124325987D01*
X135987827Y-124325987D02*
X135892589Y-124278368D01*
X135892589Y-124278368D02*
X135844970Y-124230748D01*
X135844970Y-124230748D02*
X135797351Y-124135510D01*
X135797351Y-124135510D02*
X135749732Y-123945034D01*
X135749732Y-123945034D02*
X135749732Y-123706939D01*
X135749732Y-123706939D02*
X135797351Y-123516463D01*
X135797351Y-123516463D02*
X135844970Y-123421225D01*
X135844970Y-123421225D02*
X135892589Y-123373606D01*
X135892589Y-123373606D02*
X135987827Y-123325987D01*
X136749732Y-124230748D02*
X136797351Y-124278368D01*
X136797351Y-124278368D02*
X136749732Y-124325987D01*
X136749732Y-124325987D02*
X136702113Y-124278368D01*
X136702113Y-124278368D02*
X136749732Y-124230748D01*
X136749732Y-124230748D02*
X136749732Y-124325987D01*
X137749731Y-124325987D02*
X137178303Y-124325987D01*
X137464017Y-124325987D02*
X137464017Y-123325987D01*
X137464017Y-123325987D02*
X137368779Y-123468844D01*
X137368779Y-123468844D02*
X137273541Y-123564082D01*
X137273541Y-123564082D02*
X137178303Y-123611701D01*
X129368779Y-125935931D02*
X129368779Y-124935931D01*
X129368779Y-124935931D02*
X129749731Y-124935931D01*
X129749731Y-124935931D02*
X129844969Y-124983550D01*
X129844969Y-124983550D02*
X129892588Y-125031169D01*
X129892588Y-125031169D02*
X129940207Y-125126407D01*
X129940207Y-125126407D02*
X129940207Y-125269264D01*
X129940207Y-125269264D02*
X129892588Y-125364502D01*
X129892588Y-125364502D02*
X129844969Y-125412121D01*
X129844969Y-125412121D02*
X129749731Y-125459740D01*
X129749731Y-125459740D02*
X129368779Y-125459740D01*
X130368779Y-125935931D02*
X130368779Y-124935931D01*
X130797350Y-125935931D02*
X130797350Y-125412121D01*
X130797350Y-125412121D02*
X130749731Y-125316883D01*
X130749731Y-125316883D02*
X130654493Y-125269264D01*
X130654493Y-125269264D02*
X130511636Y-125269264D01*
X130511636Y-125269264D02*
X130416398Y-125316883D01*
X130416398Y-125316883D02*
X130368779Y-125364502D01*
X131416398Y-125935931D02*
X131321160Y-125888312D01*
X131321160Y-125888312D02*
X131273541Y-125840692D01*
X131273541Y-125840692D02*
X131225922Y-125745454D01*
X131225922Y-125745454D02*
X131225922Y-125459740D01*
X131225922Y-125459740D02*
X131273541Y-125364502D01*
X131273541Y-125364502D02*
X131321160Y-125316883D01*
X131321160Y-125316883D02*
X131416398Y-125269264D01*
X131416398Y-125269264D02*
X131559255Y-125269264D01*
X131559255Y-125269264D02*
X131654493Y-125316883D01*
X131654493Y-125316883D02*
X131702112Y-125364502D01*
X131702112Y-125364502D02*
X131749731Y-125459740D01*
X131749731Y-125459740D02*
X131749731Y-125745454D01*
X131749731Y-125745454D02*
X131702112Y-125840692D01*
X131702112Y-125840692D02*
X131654493Y-125888312D01*
X131654493Y-125888312D02*
X131559255Y-125935931D01*
X131559255Y-125935931D02*
X131416398Y-125935931D01*
X132035446Y-125269264D02*
X132416398Y-125269264D01*
X132178303Y-124935931D02*
X132178303Y-125793073D01*
X132178303Y-125793073D02*
X132225922Y-125888312D01*
X132225922Y-125888312D02*
X132321160Y-125935931D01*
X132321160Y-125935931D02*
X132416398Y-125935931D01*
X132892589Y-125935931D02*
X132797351Y-125888312D01*
X132797351Y-125888312D02*
X132749732Y-125840692D01*
X132749732Y-125840692D02*
X132702113Y-125745454D01*
X132702113Y-125745454D02*
X132702113Y-125459740D01*
X132702113Y-125459740D02*
X132749732Y-125364502D01*
X132749732Y-125364502D02*
X132797351Y-125316883D01*
X132797351Y-125316883D02*
X132892589Y-125269264D01*
X132892589Y-125269264D02*
X133035446Y-125269264D01*
X133035446Y-125269264D02*
X133130684Y-125316883D01*
X133130684Y-125316883D02*
X133178303Y-125364502D01*
X133178303Y-125364502D02*
X133225922Y-125459740D01*
X133225922Y-125459740D02*
X133225922Y-125745454D01*
X133225922Y-125745454D02*
X133178303Y-125840692D01*
X133178303Y-125840692D02*
X133130684Y-125888312D01*
X133130684Y-125888312D02*
X133035446Y-125935931D01*
X133035446Y-125935931D02*
X132892589Y-125935931D01*
X134083065Y-125269264D02*
X134083065Y-126078788D01*
X134083065Y-126078788D02*
X134035446Y-126174026D01*
X134035446Y-126174026D02*
X133987827Y-126221645D01*
X133987827Y-126221645D02*
X133892589Y-126269264D01*
X133892589Y-126269264D02*
X133749732Y-126269264D01*
X133749732Y-126269264D02*
X133654494Y-126221645D01*
X134083065Y-125888312D02*
X133987827Y-125935931D01*
X133987827Y-125935931D02*
X133797351Y-125935931D01*
X133797351Y-125935931D02*
X133702113Y-125888312D01*
X133702113Y-125888312D02*
X133654494Y-125840692D01*
X133654494Y-125840692D02*
X133606875Y-125745454D01*
X133606875Y-125745454D02*
X133606875Y-125459740D01*
X133606875Y-125459740D02*
X133654494Y-125364502D01*
X133654494Y-125364502D02*
X133702113Y-125316883D01*
X133702113Y-125316883D02*
X133797351Y-125269264D01*
X133797351Y-125269264D02*
X133987827Y-125269264D01*
X133987827Y-125269264D02*
X134083065Y-125316883D01*
X134987827Y-125935931D02*
X134987827Y-125412121D01*
X134987827Y-125412121D02*
X134940208Y-125316883D01*
X134940208Y-125316883D02*
X134844970Y-125269264D01*
X134844970Y-125269264D02*
X134654494Y-125269264D01*
X134654494Y-125269264D02*
X134559256Y-125316883D01*
X134987827Y-125888312D02*
X134892589Y-125935931D01*
X134892589Y-125935931D02*
X134654494Y-125935931D01*
X134654494Y-125935931D02*
X134559256Y-125888312D01*
X134559256Y-125888312D02*
X134511637Y-125793073D01*
X134511637Y-125793073D02*
X134511637Y-125697835D01*
X134511637Y-125697835D02*
X134559256Y-125602597D01*
X134559256Y-125602597D02*
X134654494Y-125554978D01*
X134654494Y-125554978D02*
X134892589Y-125554978D01*
X134892589Y-125554978D02*
X134987827Y-125507359D01*
X135321161Y-125269264D02*
X135702113Y-125269264D01*
X135464018Y-124935931D02*
X135464018Y-125793073D01*
X135464018Y-125793073D02*
X135511637Y-125888312D01*
X135511637Y-125888312D02*
X135606875Y-125935931D01*
X135606875Y-125935931D02*
X135702113Y-125935931D01*
X136416399Y-125888312D02*
X136321161Y-125935931D01*
X136321161Y-125935931D02*
X136130685Y-125935931D01*
X136130685Y-125935931D02*
X136035447Y-125888312D01*
X136035447Y-125888312D02*
X135987828Y-125793073D01*
X135987828Y-125793073D02*
X135987828Y-125412121D01*
X135987828Y-125412121D02*
X136035447Y-125316883D01*
X136035447Y-125316883D02*
X136130685Y-125269264D01*
X136130685Y-125269264D02*
X136321161Y-125269264D01*
X136321161Y-125269264D02*
X136416399Y-125316883D01*
X136416399Y-125316883D02*
X136464018Y-125412121D01*
X136464018Y-125412121D02*
X136464018Y-125507359D01*
X136464018Y-125507359D02*
X135987828Y-125602597D01*
X137606876Y-125888312D02*
X137749733Y-125935931D01*
X137749733Y-125935931D02*
X137987828Y-125935931D01*
X137987828Y-125935931D02*
X138083066Y-125888312D01*
X138083066Y-125888312D02*
X138130685Y-125840692D01*
X138130685Y-125840692D02*
X138178304Y-125745454D01*
X138178304Y-125745454D02*
X138178304Y-125650216D01*
X138178304Y-125650216D02*
X138130685Y-125554978D01*
X138130685Y-125554978D02*
X138083066Y-125507359D01*
X138083066Y-125507359D02*
X137987828Y-125459740D01*
X137987828Y-125459740D02*
X137797352Y-125412121D01*
X137797352Y-125412121D02*
X137702114Y-125364502D01*
X137702114Y-125364502D02*
X137654495Y-125316883D01*
X137654495Y-125316883D02*
X137606876Y-125221645D01*
X137606876Y-125221645D02*
X137606876Y-125126407D01*
X137606876Y-125126407D02*
X137654495Y-125031169D01*
X137654495Y-125031169D02*
X137702114Y-124983550D01*
X137702114Y-124983550D02*
X137797352Y-124935931D01*
X137797352Y-124935931D02*
X138035447Y-124935931D01*
X138035447Y-124935931D02*
X138178304Y-124983550D01*
X138606876Y-125935931D02*
X138606876Y-124935931D01*
X139035447Y-125935931D02*
X139035447Y-125412121D01*
X139035447Y-125412121D02*
X138987828Y-125316883D01*
X138987828Y-125316883D02*
X138892590Y-125269264D01*
X138892590Y-125269264D02*
X138749733Y-125269264D01*
X138749733Y-125269264D02*
X138654495Y-125316883D01*
X138654495Y-125316883D02*
X138606876Y-125364502D01*
X139511638Y-125935931D02*
X139511638Y-125269264D01*
X139511638Y-124935931D02*
X139464019Y-124983550D01*
X139464019Y-124983550D02*
X139511638Y-125031169D01*
X139511638Y-125031169D02*
X139559257Y-124983550D01*
X139559257Y-124983550D02*
X139511638Y-124935931D01*
X139511638Y-124935931D02*
X139511638Y-125031169D01*
X140368780Y-125888312D02*
X140273542Y-125935931D01*
X140273542Y-125935931D02*
X140083066Y-125935931D01*
X140083066Y-125935931D02*
X139987828Y-125888312D01*
X139987828Y-125888312D02*
X139940209Y-125793073D01*
X139940209Y-125793073D02*
X139940209Y-125412121D01*
X139940209Y-125412121D02*
X139987828Y-125316883D01*
X139987828Y-125316883D02*
X140083066Y-125269264D01*
X140083066Y-125269264D02*
X140273542Y-125269264D01*
X140273542Y-125269264D02*
X140368780Y-125316883D01*
X140368780Y-125316883D02*
X140416399Y-125412121D01*
X140416399Y-125412121D02*
X140416399Y-125507359D01*
X140416399Y-125507359D02*
X139940209Y-125602597D01*
X140987828Y-125935931D02*
X140892590Y-125888312D01*
X140892590Y-125888312D02*
X140844971Y-125793073D01*
X140844971Y-125793073D02*
X140844971Y-124935931D01*
X141797352Y-125935931D02*
X141797352Y-124935931D01*
X141797352Y-125888312D02*
X141702114Y-125935931D01*
X141702114Y-125935931D02*
X141511638Y-125935931D01*
X141511638Y-125935931D02*
X141416400Y-125888312D01*
X141416400Y-125888312D02*
X141368781Y-125840692D01*
X141368781Y-125840692D02*
X141321162Y-125745454D01*
X141321162Y-125745454D02*
X141321162Y-125459740D01*
X141321162Y-125459740D02*
X141368781Y-125364502D01*
X141368781Y-125364502D02*
X141416400Y-125316883D01*
X141416400Y-125316883D02*
X141511638Y-125269264D01*
X141511638Y-125269264D02*
X141702114Y-125269264D01*
X141702114Y-125269264D02*
X141797352Y-125316883D01*
X129368779Y-127545875D02*
X129368779Y-126545875D01*
X129368779Y-126545875D02*
X129940207Y-127545875D01*
X129940207Y-127545875D02*
X129940207Y-126545875D01*
X130416398Y-127450636D02*
X130464017Y-127498256D01*
X130464017Y-127498256D02*
X130416398Y-127545875D01*
X130416398Y-127545875D02*
X130368779Y-127498256D01*
X130368779Y-127498256D02*
X130416398Y-127450636D01*
X130416398Y-127450636D02*
X130416398Y-127545875D01*
X131464016Y-127450636D02*
X131416397Y-127498256D01*
X131416397Y-127498256D02*
X131273540Y-127545875D01*
X131273540Y-127545875D02*
X131178302Y-127545875D01*
X131178302Y-127545875D02*
X131035445Y-127498256D01*
X131035445Y-127498256D02*
X130940207Y-127403017D01*
X130940207Y-127403017D02*
X130892588Y-127307779D01*
X130892588Y-127307779D02*
X130844969Y-127117303D01*
X130844969Y-127117303D02*
X130844969Y-126974446D01*
X130844969Y-126974446D02*
X130892588Y-126783970D01*
X130892588Y-126783970D02*
X130940207Y-126688732D01*
X130940207Y-126688732D02*
X131035445Y-126593494D01*
X131035445Y-126593494D02*
X131178302Y-126545875D01*
X131178302Y-126545875D02*
X131273540Y-126545875D01*
X131273540Y-126545875D02*
X131416397Y-126593494D01*
X131416397Y-126593494D02*
X131464016Y-126641113D01*
X131892588Y-127450636D02*
X131940207Y-127498256D01*
X131940207Y-127498256D02*
X131892588Y-127545875D01*
X131892588Y-127545875D02*
X131844969Y-127498256D01*
X131844969Y-127498256D02*
X131892588Y-127450636D01*
X131892588Y-127450636D02*
X131892588Y-127545875D01*
X129797350Y-128489152D02*
X129797350Y-129155819D01*
X129559255Y-128108200D02*
X129321160Y-128822485D01*
X129321160Y-128822485D02*
X129940207Y-128822485D01*
X131035445Y-128108200D02*
X130178303Y-129393914D01*
X131321160Y-128251057D02*
X131368779Y-128203438D01*
X131368779Y-128203438D02*
X131464017Y-128155819D01*
X131464017Y-128155819D02*
X131702112Y-128155819D01*
X131702112Y-128155819D02*
X131797350Y-128203438D01*
X131797350Y-128203438D02*
X131844969Y-128251057D01*
X131844969Y-128251057D02*
X131892588Y-128346295D01*
X131892588Y-128346295D02*
X131892588Y-128441533D01*
X131892588Y-128441533D02*
X131844969Y-128584390D01*
X131844969Y-128584390D02*
X131273541Y-129155819D01*
X131273541Y-129155819D02*
X131892588Y-129155819D01*
X132511636Y-128155819D02*
X132606874Y-128155819D01*
X132606874Y-128155819D02*
X132702112Y-128203438D01*
X132702112Y-128203438D02*
X132749731Y-128251057D01*
X132749731Y-128251057D02*
X132797350Y-128346295D01*
X132797350Y-128346295D02*
X132844969Y-128536771D01*
X132844969Y-128536771D02*
X132844969Y-128774866D01*
X132844969Y-128774866D02*
X132797350Y-128965342D01*
X132797350Y-128965342D02*
X132749731Y-129060580D01*
X132749731Y-129060580D02*
X132702112Y-129108200D01*
X132702112Y-129108200D02*
X132606874Y-129155819D01*
X132606874Y-129155819D02*
X132511636Y-129155819D01*
X132511636Y-129155819D02*
X132416398Y-129108200D01*
X132416398Y-129108200D02*
X132368779Y-129060580D01*
X132368779Y-129060580D02*
X132321160Y-128965342D01*
X132321160Y-128965342D02*
X132273541Y-128774866D01*
X132273541Y-128774866D02*
X132273541Y-128536771D01*
X132273541Y-128536771D02*
X132321160Y-128346295D01*
X132321160Y-128346295D02*
X132368779Y-128251057D01*
X132368779Y-128251057D02*
X132416398Y-128203438D01*
X132416398Y-128203438D02*
X132511636Y-128155819D01*
X133225922Y-128251057D02*
X133273541Y-128203438D01*
X133273541Y-128203438D02*
X133368779Y-128155819D01*
X133368779Y-128155819D02*
X133606874Y-128155819D01*
X133606874Y-128155819D02*
X133702112Y-128203438D01*
X133702112Y-128203438D02*
X133749731Y-128251057D01*
X133749731Y-128251057D02*
X133797350Y-128346295D01*
X133797350Y-128346295D02*
X133797350Y-128441533D01*
X133797350Y-128441533D02*
X133749731Y-128584390D01*
X133749731Y-128584390D02*
X133178303Y-129155819D01*
X133178303Y-129155819D02*
X133797350Y-129155819D01*
X134654493Y-128155819D02*
X134464017Y-128155819D01*
X134464017Y-128155819D02*
X134368779Y-128203438D01*
X134368779Y-128203438D02*
X134321160Y-128251057D01*
X134321160Y-128251057D02*
X134225922Y-128393914D01*
X134225922Y-128393914D02*
X134178303Y-128584390D01*
X134178303Y-128584390D02*
X134178303Y-128965342D01*
X134178303Y-128965342D02*
X134225922Y-129060580D01*
X134225922Y-129060580D02*
X134273541Y-129108200D01*
X134273541Y-129108200D02*
X134368779Y-129155819D01*
X134368779Y-129155819D02*
X134559255Y-129155819D01*
X134559255Y-129155819D02*
X134654493Y-129108200D01*
X134654493Y-129108200D02*
X134702112Y-129060580D01*
X134702112Y-129060580D02*
X134749731Y-128965342D01*
X134749731Y-128965342D02*
X134749731Y-128727247D01*
X134749731Y-128727247D02*
X134702112Y-128632009D01*
X134702112Y-128632009D02*
X134654493Y-128584390D01*
X134654493Y-128584390D02*
X134559255Y-128536771D01*
X134559255Y-128536771D02*
X134368779Y-128536771D01*
X134368779Y-128536771D02*
X134273541Y-128584390D01*
X134273541Y-128584390D02*
X134225922Y-128632009D01*
X134225922Y-128632009D02*
X134178303Y-128727247D01*
D12*
X121059009Y-92947405D02*
X121833105Y-92947405D01*
X121059009Y-103615405D02*
X121833105Y-103615405D01*
X209959009Y-95487405D02*
X210733105Y-95487405D01*
X210346057Y-95874452D02*
X210346057Y-95100357D01*
X209959009Y-106155405D02*
X210733105Y-106155405D01*
X210346057Y-106542452D02*
X210346057Y-105768357D01*
D13*
X153118285Y-122606003D02*
X152403999Y-122606003D01*
X152403999Y-122606003D02*
X152403999Y-121106003D01*
X163496857Y-122606003D02*
X162996857Y-121891717D01*
X162639714Y-122606003D02*
X162639714Y-121106003D01*
X162639714Y-121106003D02*
X163211143Y-121106003D01*
X163211143Y-121106003D02*
X163354000Y-121177432D01*
X163354000Y-121177432D02*
X163425429Y-121248860D01*
X163425429Y-121248860D02*
X163496857Y-121391717D01*
X163496857Y-121391717D02*
X163496857Y-121606003D01*
X163496857Y-121606003D02*
X163425429Y-121748860D01*
X163425429Y-121748860D02*
X163354000Y-121820289D01*
X163354000Y-121820289D02*
X163211143Y-121891717D01*
X163211143Y-121891717D02*
X162639714Y-121891717D01*
X164711143Y-122534575D02*
X164568286Y-122606003D01*
X164568286Y-122606003D02*
X164282572Y-122606003D01*
X164282572Y-122606003D02*
X164139714Y-122534575D01*
X164139714Y-122534575D02*
X164068286Y-122391717D01*
X164068286Y-122391717D02*
X164068286Y-121820289D01*
X164068286Y-121820289D02*
X164139714Y-121677432D01*
X164139714Y-121677432D02*
X164282572Y-121606003D01*
X164282572Y-121606003D02*
X164568286Y-121606003D01*
X164568286Y-121606003D02*
X164711143Y-121677432D01*
X164711143Y-121677432D02*
X164782572Y-121820289D01*
X164782572Y-121820289D02*
X164782572Y-121963146D01*
X164782572Y-121963146D02*
X164068286Y-122106003D01*
X165354000Y-122534575D02*
X165496857Y-122606003D01*
X165496857Y-122606003D02*
X165782571Y-122606003D01*
X165782571Y-122606003D02*
X165925428Y-122534575D01*
X165925428Y-122534575D02*
X165996857Y-122391717D01*
X165996857Y-122391717D02*
X165996857Y-122320289D01*
X165996857Y-122320289D02*
X165925428Y-122177432D01*
X165925428Y-122177432D02*
X165782571Y-122106003D01*
X165782571Y-122106003D02*
X165568286Y-122106003D01*
X165568286Y-122106003D02*
X165425428Y-122034575D01*
X165425428Y-122034575D02*
X165354000Y-121891717D01*
X165354000Y-121891717D02*
X165354000Y-121820289D01*
X165354000Y-121820289D02*
X165425428Y-121677432D01*
X165425428Y-121677432D02*
X165568286Y-121606003D01*
X165568286Y-121606003D02*
X165782571Y-121606003D01*
X165782571Y-121606003D02*
X165925428Y-121677432D01*
X167211143Y-122534575D02*
X167068286Y-122606003D01*
X167068286Y-122606003D02*
X166782572Y-122606003D01*
X166782572Y-122606003D02*
X166639714Y-122534575D01*
X166639714Y-122534575D02*
X166568286Y-122391717D01*
X166568286Y-122391717D02*
X166568286Y-121820289D01*
X166568286Y-121820289D02*
X166639714Y-121677432D01*
X166639714Y-121677432D02*
X166782572Y-121606003D01*
X166782572Y-121606003D02*
X167068286Y-121606003D01*
X167068286Y-121606003D02*
X167211143Y-121677432D01*
X167211143Y-121677432D02*
X167282572Y-121820289D01*
X167282572Y-121820289D02*
X167282572Y-121963146D01*
X167282572Y-121963146D02*
X166568286Y-122106003D01*
X167711143Y-121606003D02*
X168282571Y-121606003D01*
X167925428Y-121106003D02*
X167925428Y-122391717D01*
X167925428Y-122391717D02*
X167996857Y-122534575D01*
X167996857Y-122534575D02*
X168139714Y-122606003D01*
X168139714Y-122606003D02*
X168282571Y-122606003D01*
X178518285Y-122606003D02*
X178018285Y-121891717D01*
X177661142Y-122606003D02*
X177661142Y-121106003D01*
X177661142Y-121106003D02*
X178232571Y-121106003D01*
X178232571Y-121106003D02*
X178375428Y-121177432D01*
X178375428Y-121177432D02*
X178446857Y-121248860D01*
X178446857Y-121248860D02*
X178518285Y-121391717D01*
X178518285Y-121391717D02*
X178518285Y-121606003D01*
X178518285Y-121606003D02*
X178446857Y-121748860D01*
X178446857Y-121748860D02*
X178375428Y-121820289D01*
X178375428Y-121820289D02*
X178232571Y-121891717D01*
X178232571Y-121891717D02*
X177661142Y-121891717D01*
D11*
X151895895Y-129502819D02*
X151895895Y-130312342D01*
X151895895Y-130312342D02*
X151943514Y-130407580D01*
X151943514Y-130407580D02*
X151991133Y-130455200D01*
X151991133Y-130455200D02*
X152086371Y-130502819D01*
X152086371Y-130502819D02*
X152276847Y-130502819D01*
X152276847Y-130502819D02*
X152372085Y-130455200D01*
X152372085Y-130455200D02*
X152419704Y-130407580D01*
X152419704Y-130407580D02*
X152467323Y-130312342D01*
X152467323Y-130312342D02*
X152467323Y-129502819D01*
X153467323Y-130502819D02*
X152895895Y-130502819D01*
X153181609Y-130502819D02*
X153181609Y-129502819D01*
X153181609Y-129502819D02*
X153086371Y-129645676D01*
X153086371Y-129645676D02*
X152991133Y-129740914D01*
X152991133Y-129740914D02*
X152895895Y-129788533D01*
X166457333Y-117453580D02*
X166409714Y-117501200D01*
X166409714Y-117501200D02*
X166266857Y-117548819D01*
X166266857Y-117548819D02*
X166171619Y-117548819D01*
X166171619Y-117548819D02*
X166028762Y-117501200D01*
X166028762Y-117501200D02*
X165933524Y-117405961D01*
X165933524Y-117405961D02*
X165885905Y-117310723D01*
X165885905Y-117310723D02*
X165838286Y-117120247D01*
X165838286Y-117120247D02*
X165838286Y-116977390D01*
X165838286Y-116977390D02*
X165885905Y-116786914D01*
X165885905Y-116786914D02*
X165933524Y-116691676D01*
X165933524Y-116691676D02*
X166028762Y-116596438D01*
X166028762Y-116596438D02*
X166171619Y-116548819D01*
X166171619Y-116548819D02*
X166266857Y-116548819D01*
X166266857Y-116548819D02*
X166409714Y-116596438D01*
X166409714Y-116596438D02*
X166457333Y-116644057D01*
X167314476Y-116882152D02*
X167314476Y-117548819D01*
X167076381Y-116501200D02*
X166838286Y-117215485D01*
X166838286Y-117215485D02*
X167457333Y-117215485D01*
X197445333Y-69288819D02*
X197112000Y-68812628D01*
X196873905Y-69288819D02*
X196873905Y-68288819D01*
X196873905Y-68288819D02*
X197254857Y-68288819D01*
X197254857Y-68288819D02*
X197350095Y-68336438D01*
X197350095Y-68336438D02*
X197397714Y-68384057D01*
X197397714Y-68384057D02*
X197445333Y-68479295D01*
X197445333Y-68479295D02*
X197445333Y-68622152D01*
X197445333Y-68622152D02*
X197397714Y-68717390D01*
X197397714Y-68717390D02*
X197350095Y-68765009D01*
X197350095Y-68765009D02*
X197254857Y-68812628D01*
X197254857Y-68812628D02*
X196873905Y-68812628D01*
X198397714Y-69288819D02*
X197826286Y-69288819D01*
X198112000Y-69288819D02*
X198112000Y-68288819D01*
X198112000Y-68288819D02*
X198016762Y-68431676D01*
X198016762Y-68431676D02*
X197921524Y-68526914D01*
X197921524Y-68526914D02*
X197826286Y-68574533D01*
X192365333Y-120850819D02*
X192032000Y-120374628D01*
X191793905Y-120850819D02*
X191793905Y-119850819D01*
X191793905Y-119850819D02*
X192174857Y-119850819D01*
X192174857Y-119850819D02*
X192270095Y-119898438D01*
X192270095Y-119898438D02*
X192317714Y-119946057D01*
X192317714Y-119946057D02*
X192365333Y-120041295D01*
X192365333Y-120041295D02*
X192365333Y-120184152D01*
X192365333Y-120184152D02*
X192317714Y-120279390D01*
X192317714Y-120279390D02*
X192270095Y-120327009D01*
X192270095Y-120327009D02*
X192174857Y-120374628D01*
X192174857Y-120374628D02*
X191793905Y-120374628D01*
X192936762Y-120279390D02*
X192841524Y-120231771D01*
X192841524Y-120231771D02*
X192793905Y-120184152D01*
X192793905Y-120184152D02*
X192746286Y-120088914D01*
X192746286Y-120088914D02*
X192746286Y-120041295D01*
X192746286Y-120041295D02*
X192793905Y-119946057D01*
X192793905Y-119946057D02*
X192841524Y-119898438D01*
X192841524Y-119898438D02*
X192936762Y-119850819D01*
X192936762Y-119850819D02*
X193127238Y-119850819D01*
X193127238Y-119850819D02*
X193222476Y-119898438D01*
X193222476Y-119898438D02*
X193270095Y-119946057D01*
X193270095Y-119946057D02*
X193317714Y-120041295D01*
X193317714Y-120041295D02*
X193317714Y-120088914D01*
X193317714Y-120088914D02*
X193270095Y-120184152D01*
X193270095Y-120184152D02*
X193222476Y-120231771D01*
X193222476Y-120231771D02*
X193127238Y-120279390D01*
X193127238Y-120279390D02*
X192936762Y-120279390D01*
X192936762Y-120279390D02*
X192841524Y-120327009D01*
X192841524Y-120327009D02*
X192793905Y-120374628D01*
X192793905Y-120374628D02*
X192746286Y-120469866D01*
X192746286Y-120469866D02*
X192746286Y-120660342D01*
X192746286Y-120660342D02*
X192793905Y-120755580D01*
X192793905Y-120755580D02*
X192841524Y-120803200D01*
X192841524Y-120803200D02*
X192936762Y-120850819D01*
X192936762Y-120850819D02*
X193127238Y-120850819D01*
X193127238Y-120850819D02*
X193222476Y-120803200D01*
X193222476Y-120803200D02*
X193270095Y-120755580D01*
X193270095Y-120755580D02*
X193317714Y-120660342D01*
X193317714Y-120660342D02*
X193317714Y-120469866D01*
X193317714Y-120469866D02*
X193270095Y-120374628D01*
X193270095Y-120374628D02*
X193222476Y-120327009D01*
X193222476Y-120327009D02*
X193127238Y-120279390D01*
X136739333Y-112214819D02*
X136406000Y-111738628D01*
X136167905Y-112214819D02*
X136167905Y-111214819D01*
X136167905Y-111214819D02*
X136548857Y-111214819D01*
X136548857Y-111214819D02*
X136644095Y-111262438D01*
X136644095Y-111262438D02*
X136691714Y-111310057D01*
X136691714Y-111310057D02*
X136739333Y-111405295D01*
X136739333Y-111405295D02*
X136739333Y-111548152D01*
X136739333Y-111548152D02*
X136691714Y-111643390D01*
X136691714Y-111643390D02*
X136644095Y-111691009D01*
X136644095Y-111691009D02*
X136548857Y-111738628D01*
X136548857Y-111738628D02*
X136167905Y-111738628D01*
X137120286Y-111310057D02*
X137167905Y-111262438D01*
X137167905Y-111262438D02*
X137263143Y-111214819D01*
X137263143Y-111214819D02*
X137501238Y-111214819D01*
X137501238Y-111214819D02*
X137596476Y-111262438D01*
X137596476Y-111262438D02*
X137644095Y-111310057D01*
X137644095Y-111310057D02*
X137691714Y-111405295D01*
X137691714Y-111405295D02*
X137691714Y-111500533D01*
X137691714Y-111500533D02*
X137644095Y-111643390D01*
X137644095Y-111643390D02*
X137072667Y-112214819D01*
X137072667Y-112214819D02*
X137691714Y-112214819D01*
X183800761Y-116374057D02*
X183705523Y-116326438D01*
X183705523Y-116326438D02*
X183610285Y-116231200D01*
X183610285Y-116231200D02*
X183467428Y-116088342D01*
X183467428Y-116088342D02*
X183372190Y-116040723D01*
X183372190Y-116040723D02*
X183276952Y-116040723D01*
X183324571Y-116278819D02*
X183229333Y-116231200D01*
X183229333Y-116231200D02*
X183134095Y-116135961D01*
X183134095Y-116135961D02*
X183086476Y-115945485D01*
X183086476Y-115945485D02*
X183086476Y-115612152D01*
X183086476Y-115612152D02*
X183134095Y-115421676D01*
X183134095Y-115421676D02*
X183229333Y-115326438D01*
X183229333Y-115326438D02*
X183324571Y-115278819D01*
X183324571Y-115278819D02*
X183515047Y-115278819D01*
X183515047Y-115278819D02*
X183610285Y-115326438D01*
X183610285Y-115326438D02*
X183705523Y-115421676D01*
X183705523Y-115421676D02*
X183753142Y-115612152D01*
X183753142Y-115612152D02*
X183753142Y-115945485D01*
X183753142Y-115945485D02*
X183705523Y-116135961D01*
X183705523Y-116135961D02*
X183610285Y-116231200D01*
X183610285Y-116231200D02*
X183515047Y-116278819D01*
X183515047Y-116278819D02*
X183324571Y-116278819D01*
X184086476Y-115278819D02*
X184705523Y-115278819D01*
X184705523Y-115278819D02*
X184372190Y-115659771D01*
X184372190Y-115659771D02*
X184515047Y-115659771D01*
X184515047Y-115659771D02*
X184610285Y-115707390D01*
X184610285Y-115707390D02*
X184657904Y-115755009D01*
X184657904Y-115755009D02*
X184705523Y-115850247D01*
X184705523Y-115850247D02*
X184705523Y-116088342D01*
X184705523Y-116088342D02*
X184657904Y-116183580D01*
X184657904Y-116183580D02*
X184610285Y-116231200D01*
X184610285Y-116231200D02*
X184515047Y-116278819D01*
X184515047Y-116278819D02*
X184229333Y-116278819D01*
X184229333Y-116278819D02*
X184134095Y-116231200D01*
X184134095Y-116231200D02*
X184086476Y-116183580D01*
X192365333Y-117548819D02*
X192032000Y-117072628D01*
X191793905Y-117548819D02*
X191793905Y-116548819D01*
X191793905Y-116548819D02*
X192174857Y-116548819D01*
X192174857Y-116548819D02*
X192270095Y-116596438D01*
X192270095Y-116596438D02*
X192317714Y-116644057D01*
X192317714Y-116644057D02*
X192365333Y-116739295D01*
X192365333Y-116739295D02*
X192365333Y-116882152D01*
X192365333Y-116882152D02*
X192317714Y-116977390D01*
X192317714Y-116977390D02*
X192270095Y-117025009D01*
X192270095Y-117025009D02*
X192174857Y-117072628D01*
X192174857Y-117072628D02*
X191793905Y-117072628D01*
X192698667Y-116548819D02*
X193365333Y-116548819D01*
X193365333Y-116548819D02*
X192936762Y-117548819D01*
X136739333Y-118818819D02*
X136406000Y-118342628D01*
X136167905Y-118818819D02*
X136167905Y-117818819D01*
X136167905Y-117818819D02*
X136548857Y-117818819D01*
X136548857Y-117818819D02*
X136644095Y-117866438D01*
X136644095Y-117866438D02*
X136691714Y-117914057D01*
X136691714Y-117914057D02*
X136739333Y-118009295D01*
X136739333Y-118009295D02*
X136739333Y-118152152D01*
X136739333Y-118152152D02*
X136691714Y-118247390D01*
X136691714Y-118247390D02*
X136644095Y-118295009D01*
X136644095Y-118295009D02*
X136548857Y-118342628D01*
X136548857Y-118342628D02*
X136167905Y-118342628D01*
X137072667Y-117818819D02*
X137691714Y-117818819D01*
X137691714Y-117818819D02*
X137358381Y-118199771D01*
X137358381Y-118199771D02*
X137501238Y-118199771D01*
X137501238Y-118199771D02*
X137596476Y-118247390D01*
X137596476Y-118247390D02*
X137644095Y-118295009D01*
X137644095Y-118295009D02*
X137691714Y-118390247D01*
X137691714Y-118390247D02*
X137691714Y-118628342D01*
X137691714Y-118628342D02*
X137644095Y-118723580D01*
X137644095Y-118723580D02*
X137596476Y-118771200D01*
X137596476Y-118771200D02*
X137501238Y-118818819D01*
X137501238Y-118818819D02*
X137215524Y-118818819D01*
X137215524Y-118818819D02*
X137120286Y-118771200D01*
X137120286Y-118771200D02*
X137072667Y-118723580D01*
X123110666Y-90038819D02*
X123110666Y-90753104D01*
X123110666Y-90753104D02*
X123063047Y-90895961D01*
X123063047Y-90895961D02*
X122967809Y-90991200D01*
X122967809Y-90991200D02*
X122824952Y-91038819D01*
X122824952Y-91038819D02*
X122729714Y-91038819D01*
X124063047Y-90038819D02*
X123586857Y-90038819D01*
X123586857Y-90038819D02*
X123539238Y-90515009D01*
X123539238Y-90515009D02*
X123586857Y-90467390D01*
X123586857Y-90467390D02*
X123682095Y-90419771D01*
X123682095Y-90419771D02*
X123920190Y-90419771D01*
X123920190Y-90419771D02*
X124015428Y-90467390D01*
X124015428Y-90467390D02*
X124063047Y-90515009D01*
X124063047Y-90515009D02*
X124110666Y-90610247D01*
X124110666Y-90610247D02*
X124110666Y-90848342D01*
X124110666Y-90848342D02*
X124063047Y-90943580D01*
X124063047Y-90943580D02*
X124015428Y-90991200D01*
X124015428Y-90991200D02*
X123920190Y-91038819D01*
X123920190Y-91038819D02*
X123682095Y-91038819D01*
X123682095Y-91038819D02*
X123586857Y-90991200D01*
X123586857Y-90991200D02*
X123539238Y-90943580D01*
X136350819Y-69175238D02*
X135874628Y-69508571D01*
X136350819Y-69746666D02*
X135350819Y-69746666D01*
X135350819Y-69746666D02*
X135350819Y-69365714D01*
X135350819Y-69365714D02*
X135398438Y-69270476D01*
X135398438Y-69270476D02*
X135446057Y-69222857D01*
X135446057Y-69222857D02*
X135541295Y-69175238D01*
X135541295Y-69175238D02*
X135684152Y-69175238D01*
X135684152Y-69175238D02*
X135779390Y-69222857D01*
X135779390Y-69222857D02*
X135827009Y-69270476D01*
X135827009Y-69270476D02*
X135874628Y-69365714D01*
X135874628Y-69365714D02*
X135874628Y-69746666D01*
X135350819Y-68889523D02*
X136350819Y-68556190D01*
X136350819Y-68556190D02*
X135350819Y-68222857D01*
X136350819Y-67365714D02*
X136350819Y-67937142D01*
X136350819Y-67651428D02*
X135350819Y-67651428D01*
X135350819Y-67651428D02*
X135493676Y-67746666D01*
X135493676Y-67746666D02*
X135588914Y-67841904D01*
X135588914Y-67841904D02*
X135636533Y-67937142D01*
X139279333Y-69447580D02*
X139231714Y-69495200D01*
X139231714Y-69495200D02*
X139088857Y-69542819D01*
X139088857Y-69542819D02*
X138993619Y-69542819D01*
X138993619Y-69542819D02*
X138850762Y-69495200D01*
X138850762Y-69495200D02*
X138755524Y-69399961D01*
X138755524Y-69399961D02*
X138707905Y-69304723D01*
X138707905Y-69304723D02*
X138660286Y-69114247D01*
X138660286Y-69114247D02*
X138660286Y-68971390D01*
X138660286Y-68971390D02*
X138707905Y-68780914D01*
X138707905Y-68780914D02*
X138755524Y-68685676D01*
X138755524Y-68685676D02*
X138850762Y-68590438D01*
X138850762Y-68590438D02*
X138993619Y-68542819D01*
X138993619Y-68542819D02*
X139088857Y-68542819D01*
X139088857Y-68542819D02*
X139231714Y-68590438D01*
X139231714Y-68590438D02*
X139279333Y-68638057D01*
X140231714Y-69542819D02*
X139660286Y-69542819D01*
X139946000Y-69542819D02*
X139946000Y-68542819D01*
X139946000Y-68542819D02*
X139850762Y-68685676D01*
X139850762Y-68685676D02*
X139755524Y-68780914D01*
X139755524Y-68780914D02*
X139660286Y-68828533D01*
X210417580Y-119760666D02*
X210465200Y-119808285D01*
X210465200Y-119808285D02*
X210512819Y-119951142D01*
X210512819Y-119951142D02*
X210512819Y-120046380D01*
X210512819Y-120046380D02*
X210465200Y-120189237D01*
X210465200Y-120189237D02*
X210369961Y-120284475D01*
X210369961Y-120284475D02*
X210274723Y-120332094D01*
X210274723Y-120332094D02*
X210084247Y-120379713D01*
X210084247Y-120379713D02*
X209941390Y-120379713D01*
X209941390Y-120379713D02*
X209750914Y-120332094D01*
X209750914Y-120332094D02*
X209655676Y-120284475D01*
X209655676Y-120284475D02*
X209560438Y-120189237D01*
X209560438Y-120189237D02*
X209512819Y-120046380D01*
X209512819Y-120046380D02*
X209512819Y-119951142D01*
X209512819Y-119951142D02*
X209560438Y-119808285D01*
X209560438Y-119808285D02*
X209608057Y-119760666D01*
X209512819Y-118855904D02*
X209512819Y-119332094D01*
X209512819Y-119332094D02*
X209989009Y-119379713D01*
X209989009Y-119379713D02*
X209941390Y-119332094D01*
X209941390Y-119332094D02*
X209893771Y-119236856D01*
X209893771Y-119236856D02*
X209893771Y-118998761D01*
X209893771Y-118998761D02*
X209941390Y-118903523D01*
X209941390Y-118903523D02*
X209989009Y-118855904D01*
X209989009Y-118855904D02*
X210084247Y-118808285D01*
X210084247Y-118808285D02*
X210322342Y-118808285D01*
X210322342Y-118808285D02*
X210417580Y-118855904D01*
X210417580Y-118855904D02*
X210465200Y-118903523D01*
X210465200Y-118903523D02*
X210512819Y-118998761D01*
X210512819Y-118998761D02*
X210512819Y-119236856D01*
X210512819Y-119236856D02*
X210465200Y-119332094D01*
X210465200Y-119332094D02*
X210417580Y-119379713D01*
X210709657Y-112871238D02*
X210662038Y-112966476D01*
X210662038Y-112966476D02*
X210566800Y-113061714D01*
X210566800Y-113061714D02*
X210423942Y-113204571D01*
X210423942Y-113204571D02*
X210376323Y-113299809D01*
X210376323Y-113299809D02*
X210376323Y-113395047D01*
X210614419Y-113347428D02*
X210566800Y-113442666D01*
X210566800Y-113442666D02*
X210471561Y-113537904D01*
X210471561Y-113537904D02*
X210281085Y-113585523D01*
X210281085Y-113585523D02*
X209947752Y-113585523D01*
X209947752Y-113585523D02*
X209757276Y-113537904D01*
X209757276Y-113537904D02*
X209662038Y-113442666D01*
X209662038Y-113442666D02*
X209614419Y-113347428D01*
X209614419Y-113347428D02*
X209614419Y-113156952D01*
X209614419Y-113156952D02*
X209662038Y-113061714D01*
X209662038Y-113061714D02*
X209757276Y-112966476D01*
X209757276Y-112966476D02*
X209947752Y-112918857D01*
X209947752Y-112918857D02*
X210281085Y-112918857D01*
X210281085Y-112918857D02*
X210471561Y-112966476D01*
X210471561Y-112966476D02*
X210566800Y-113061714D01*
X210566800Y-113061714D02*
X210614419Y-113156952D01*
X210614419Y-113156952D02*
X210614419Y-113347428D01*
X209947752Y-112061714D02*
X210614419Y-112061714D01*
X209566800Y-112299809D02*
X210281085Y-112537904D01*
X210281085Y-112537904D02*
X210281085Y-111918857D01*
X123110666Y-100706819D02*
X123110666Y-101421104D01*
X123110666Y-101421104D02*
X123063047Y-101563961D01*
X123063047Y-101563961D02*
X122967809Y-101659200D01*
X122967809Y-101659200D02*
X122824952Y-101706819D01*
X122824952Y-101706819D02*
X122729714Y-101706819D01*
X124015428Y-100706819D02*
X123824952Y-100706819D01*
X123824952Y-100706819D02*
X123729714Y-100754438D01*
X123729714Y-100754438D02*
X123682095Y-100802057D01*
X123682095Y-100802057D02*
X123586857Y-100944914D01*
X123586857Y-100944914D02*
X123539238Y-101135390D01*
X123539238Y-101135390D02*
X123539238Y-101516342D01*
X123539238Y-101516342D02*
X123586857Y-101611580D01*
X123586857Y-101611580D02*
X123634476Y-101659200D01*
X123634476Y-101659200D02*
X123729714Y-101706819D01*
X123729714Y-101706819D02*
X123920190Y-101706819D01*
X123920190Y-101706819D02*
X124015428Y-101659200D01*
X124015428Y-101659200D02*
X124063047Y-101611580D01*
X124063047Y-101611580D02*
X124110666Y-101516342D01*
X124110666Y-101516342D02*
X124110666Y-101278247D01*
X124110666Y-101278247D02*
X124063047Y-101183009D01*
X124063047Y-101183009D02*
X124015428Y-101135390D01*
X124015428Y-101135390D02*
X123920190Y-101087771D01*
X123920190Y-101087771D02*
X123729714Y-101087771D01*
X123729714Y-101087771D02*
X123634476Y-101135390D01*
X123634476Y-101135390D02*
X123586857Y-101183009D01*
X123586857Y-101183009D02*
X123539238Y-101278247D01*
X160615333Y-114500819D02*
X160282000Y-114024628D01*
X160043905Y-114500819D02*
X160043905Y-113500819D01*
X160043905Y-113500819D02*
X160424857Y-113500819D01*
X160424857Y-113500819D02*
X160520095Y-113548438D01*
X160520095Y-113548438D02*
X160567714Y-113596057D01*
X160567714Y-113596057D02*
X160615333Y-113691295D01*
X160615333Y-113691295D02*
X160615333Y-113834152D01*
X160615333Y-113834152D02*
X160567714Y-113929390D01*
X160567714Y-113929390D02*
X160520095Y-113977009D01*
X160520095Y-113977009D02*
X160424857Y-114024628D01*
X160424857Y-114024628D02*
X160043905Y-114024628D01*
X161472476Y-113834152D02*
X161472476Y-114500819D01*
X161234381Y-113453200D02*
X160996286Y-114167485D01*
X160996286Y-114167485D02*
X161615333Y-114167485D01*
X147701333Y-115421580D02*
X147653714Y-115469200D01*
X147653714Y-115469200D02*
X147510857Y-115516819D01*
X147510857Y-115516819D02*
X147415619Y-115516819D01*
X147415619Y-115516819D02*
X147272762Y-115469200D01*
X147272762Y-115469200D02*
X147177524Y-115373961D01*
X147177524Y-115373961D02*
X147129905Y-115278723D01*
X147129905Y-115278723D02*
X147082286Y-115088247D01*
X147082286Y-115088247D02*
X147082286Y-114945390D01*
X147082286Y-114945390D02*
X147129905Y-114754914D01*
X147129905Y-114754914D02*
X147177524Y-114659676D01*
X147177524Y-114659676D02*
X147272762Y-114564438D01*
X147272762Y-114564438D02*
X147415619Y-114516819D01*
X147415619Y-114516819D02*
X147510857Y-114516819D01*
X147510857Y-114516819D02*
X147653714Y-114564438D01*
X147653714Y-114564438D02*
X147701333Y-114612057D01*
X148082286Y-114612057D02*
X148129905Y-114564438D01*
X148129905Y-114564438D02*
X148225143Y-114516819D01*
X148225143Y-114516819D02*
X148463238Y-114516819D01*
X148463238Y-114516819D02*
X148558476Y-114564438D01*
X148558476Y-114564438D02*
X148606095Y-114612057D01*
X148606095Y-114612057D02*
X148653714Y-114707295D01*
X148653714Y-114707295D02*
X148653714Y-114802533D01*
X148653714Y-114802533D02*
X148606095Y-114945390D01*
X148606095Y-114945390D02*
X148034667Y-115516819D01*
X148034667Y-115516819D02*
X148653714Y-115516819D01*
X147955333Y-122025580D02*
X147907714Y-122073200D01*
X147907714Y-122073200D02*
X147764857Y-122120819D01*
X147764857Y-122120819D02*
X147669619Y-122120819D01*
X147669619Y-122120819D02*
X147526762Y-122073200D01*
X147526762Y-122073200D02*
X147431524Y-121977961D01*
X147431524Y-121977961D02*
X147383905Y-121882723D01*
X147383905Y-121882723D02*
X147336286Y-121692247D01*
X147336286Y-121692247D02*
X147336286Y-121549390D01*
X147336286Y-121549390D02*
X147383905Y-121358914D01*
X147383905Y-121358914D02*
X147431524Y-121263676D01*
X147431524Y-121263676D02*
X147526762Y-121168438D01*
X147526762Y-121168438D02*
X147669619Y-121120819D01*
X147669619Y-121120819D02*
X147764857Y-121120819D01*
X147764857Y-121120819D02*
X147907714Y-121168438D01*
X147907714Y-121168438D02*
X147955333Y-121216057D01*
X148288667Y-121120819D02*
X148907714Y-121120819D01*
X148907714Y-121120819D02*
X148574381Y-121501771D01*
X148574381Y-121501771D02*
X148717238Y-121501771D01*
X148717238Y-121501771D02*
X148812476Y-121549390D01*
X148812476Y-121549390D02*
X148860095Y-121597009D01*
X148860095Y-121597009D02*
X148907714Y-121692247D01*
X148907714Y-121692247D02*
X148907714Y-121930342D01*
X148907714Y-121930342D02*
X148860095Y-122025580D01*
X148860095Y-122025580D02*
X148812476Y-122073200D01*
X148812476Y-122073200D02*
X148717238Y-122120819D01*
X148717238Y-122120819D02*
X148431524Y-122120819D01*
X148431524Y-122120819D02*
X148336286Y-122073200D01*
X148336286Y-122073200D02*
X148288667Y-122025580D01*
X207946666Y-100706819D02*
X207946666Y-101421104D01*
X207946666Y-101421104D02*
X207899047Y-101563961D01*
X207899047Y-101563961D02*
X207803809Y-101659200D01*
X207803809Y-101659200D02*
X207660952Y-101706819D01*
X207660952Y-101706819D02*
X207565714Y-101706819D01*
X208565714Y-101135390D02*
X208470476Y-101087771D01*
X208470476Y-101087771D02*
X208422857Y-101040152D01*
X208422857Y-101040152D02*
X208375238Y-100944914D01*
X208375238Y-100944914D02*
X208375238Y-100897295D01*
X208375238Y-100897295D02*
X208422857Y-100802057D01*
X208422857Y-100802057D02*
X208470476Y-100754438D01*
X208470476Y-100754438D02*
X208565714Y-100706819D01*
X208565714Y-100706819D02*
X208756190Y-100706819D01*
X208756190Y-100706819D02*
X208851428Y-100754438D01*
X208851428Y-100754438D02*
X208899047Y-100802057D01*
X208899047Y-100802057D02*
X208946666Y-100897295D01*
X208946666Y-100897295D02*
X208946666Y-100944914D01*
X208946666Y-100944914D02*
X208899047Y-101040152D01*
X208899047Y-101040152D02*
X208851428Y-101087771D01*
X208851428Y-101087771D02*
X208756190Y-101135390D01*
X208756190Y-101135390D02*
X208565714Y-101135390D01*
X208565714Y-101135390D02*
X208470476Y-101183009D01*
X208470476Y-101183009D02*
X208422857Y-101230628D01*
X208422857Y-101230628D02*
X208375238Y-101325866D01*
X208375238Y-101325866D02*
X208375238Y-101516342D01*
X208375238Y-101516342D02*
X208422857Y-101611580D01*
X208422857Y-101611580D02*
X208470476Y-101659200D01*
X208470476Y-101659200D02*
X208565714Y-101706819D01*
X208565714Y-101706819D02*
X208756190Y-101706819D01*
X208756190Y-101706819D02*
X208851428Y-101659200D01*
X208851428Y-101659200D02*
X208899047Y-101611580D01*
X208899047Y-101611580D02*
X208946666Y-101516342D01*
X208946666Y-101516342D02*
X208946666Y-101325866D01*
X208946666Y-101325866D02*
X208899047Y-101230628D01*
X208899047Y-101230628D02*
X208851428Y-101183009D01*
X208851428Y-101183009D02*
X208756190Y-101135390D01*
X164592095Y-129400819D02*
X164592095Y-130210342D01*
X164592095Y-130210342D02*
X164639714Y-130305580D01*
X164639714Y-130305580D02*
X164687333Y-130353200D01*
X164687333Y-130353200D02*
X164782571Y-130400819D01*
X164782571Y-130400819D02*
X164973047Y-130400819D01*
X164973047Y-130400819D02*
X165068285Y-130353200D01*
X165068285Y-130353200D02*
X165115904Y-130305580D01*
X165115904Y-130305580D02*
X165163523Y-130210342D01*
X165163523Y-130210342D02*
X165163523Y-129400819D01*
X165544476Y-129400819D02*
X166163523Y-129400819D01*
X166163523Y-129400819D02*
X165830190Y-129781771D01*
X165830190Y-129781771D02*
X165973047Y-129781771D01*
X165973047Y-129781771D02*
X166068285Y-129829390D01*
X166068285Y-129829390D02*
X166115904Y-129877009D01*
X166115904Y-129877009D02*
X166163523Y-129972247D01*
X166163523Y-129972247D02*
X166163523Y-130210342D01*
X166163523Y-130210342D02*
X166115904Y-130305580D01*
X166115904Y-130305580D02*
X166068285Y-130353200D01*
X166068285Y-130353200D02*
X165973047Y-130400819D01*
X165973047Y-130400819D02*
X165687333Y-130400819D01*
X165687333Y-130400819D02*
X165592095Y-130353200D01*
X165592095Y-130353200D02*
X165544476Y-130305580D01*
X177295895Y-129502819D02*
X177295895Y-130312342D01*
X177295895Y-130312342D02*
X177343514Y-130407580D01*
X177343514Y-130407580D02*
X177391133Y-130455200D01*
X177391133Y-130455200D02*
X177486371Y-130502819D01*
X177486371Y-130502819D02*
X177676847Y-130502819D01*
X177676847Y-130502819D02*
X177772085Y-130455200D01*
X177772085Y-130455200D02*
X177819704Y-130407580D01*
X177819704Y-130407580D02*
X177867323Y-130312342D01*
X177867323Y-130312342D02*
X177867323Y-129502819D01*
X178295895Y-129598057D02*
X178343514Y-129550438D01*
X178343514Y-129550438D02*
X178438752Y-129502819D01*
X178438752Y-129502819D02*
X178676847Y-129502819D01*
X178676847Y-129502819D02*
X178772085Y-129550438D01*
X178772085Y-129550438D02*
X178819704Y-129598057D01*
X178819704Y-129598057D02*
X178867323Y-129693295D01*
X178867323Y-129693295D02*
X178867323Y-129788533D01*
X178867323Y-129788533D02*
X178819704Y-129931390D01*
X178819704Y-129931390D02*
X178248276Y-130502819D01*
X178248276Y-130502819D02*
X178867323Y-130502819D01*
X173315333Y-114500819D02*
X172982000Y-114024628D01*
X172743905Y-114500819D02*
X172743905Y-113500819D01*
X172743905Y-113500819D02*
X173124857Y-113500819D01*
X173124857Y-113500819D02*
X173220095Y-113548438D01*
X173220095Y-113548438D02*
X173267714Y-113596057D01*
X173267714Y-113596057D02*
X173315333Y-113691295D01*
X173315333Y-113691295D02*
X173315333Y-113834152D01*
X173315333Y-113834152D02*
X173267714Y-113929390D01*
X173267714Y-113929390D02*
X173220095Y-113977009D01*
X173220095Y-113977009D02*
X173124857Y-114024628D01*
X173124857Y-114024628D02*
X172743905Y-114024628D01*
X174220095Y-113500819D02*
X173743905Y-113500819D01*
X173743905Y-113500819D02*
X173696286Y-113977009D01*
X173696286Y-113977009D02*
X173743905Y-113929390D01*
X173743905Y-113929390D02*
X173839143Y-113881771D01*
X173839143Y-113881771D02*
X174077238Y-113881771D01*
X174077238Y-113881771D02*
X174172476Y-113929390D01*
X174172476Y-113929390D02*
X174220095Y-113977009D01*
X174220095Y-113977009D02*
X174267714Y-114072247D01*
X174267714Y-114072247D02*
X174267714Y-114310342D01*
X174267714Y-114310342D02*
X174220095Y-114405580D01*
X174220095Y-114405580D02*
X174172476Y-114453200D01*
X174172476Y-114453200D02*
X174077238Y-114500819D01*
X174077238Y-114500819D02*
X173839143Y-114500819D01*
X173839143Y-114500819D02*
X173743905Y-114453200D01*
X173743905Y-114453200D02*
X173696286Y-114405580D01*
X207946666Y-90033819D02*
X207946666Y-90748104D01*
X207946666Y-90748104D02*
X207899047Y-90890961D01*
X207899047Y-90890961D02*
X207803809Y-90986200D01*
X207803809Y-90986200D02*
X207660952Y-91033819D01*
X207660952Y-91033819D02*
X207565714Y-91033819D01*
X208327619Y-90033819D02*
X208994285Y-90033819D01*
X208994285Y-90033819D02*
X208565714Y-91033819D01*
X122991714Y-76146819D02*
X122991714Y-75146819D01*
X122991714Y-75146819D02*
X123229809Y-75146819D01*
X123229809Y-75146819D02*
X123372666Y-75194438D01*
X123372666Y-75194438D02*
X123467904Y-75289676D01*
X123467904Y-75289676D02*
X123515523Y-75384914D01*
X123515523Y-75384914D02*
X123563142Y-75575390D01*
X123563142Y-75575390D02*
X123563142Y-75718247D01*
X123563142Y-75718247D02*
X123515523Y-75908723D01*
X123515523Y-75908723D02*
X123467904Y-76003961D01*
X123467904Y-76003961D02*
X123372666Y-76099200D01*
X123372666Y-76099200D02*
X123229809Y-76146819D01*
X123229809Y-76146819D02*
X122991714Y-76146819D01*
X123944095Y-76099200D02*
X124086952Y-76146819D01*
X124086952Y-76146819D02*
X124325047Y-76146819D01*
X124325047Y-76146819D02*
X124420285Y-76099200D01*
X124420285Y-76099200D02*
X124467904Y-76051580D01*
X124467904Y-76051580D02*
X124515523Y-75956342D01*
X124515523Y-75956342D02*
X124515523Y-75861104D01*
X124515523Y-75861104D02*
X124467904Y-75765866D01*
X124467904Y-75765866D02*
X124420285Y-75718247D01*
X124420285Y-75718247D02*
X124325047Y-75670628D01*
X124325047Y-75670628D02*
X124134571Y-75623009D01*
X124134571Y-75623009D02*
X124039333Y-75575390D01*
X124039333Y-75575390D02*
X123991714Y-75527771D01*
X123991714Y-75527771D02*
X123944095Y-75432533D01*
X123944095Y-75432533D02*
X123944095Y-75337295D01*
X123944095Y-75337295D02*
X123991714Y-75242057D01*
X123991714Y-75242057D02*
X124039333Y-75194438D01*
X124039333Y-75194438D02*
X124134571Y-75146819D01*
X124134571Y-75146819D02*
X124372666Y-75146819D01*
X124372666Y-75146819D02*
X124515523Y-75194438D01*
X125467904Y-76146819D02*
X124896476Y-76146819D01*
X125182190Y-76146819D02*
X125182190Y-75146819D01*
X125182190Y-75146819D02*
X125086952Y-75289676D01*
X125086952Y-75289676D02*
X124991714Y-75384914D01*
X124991714Y-75384914D02*
X124896476Y-75432533D01*
X192365333Y-124152819D02*
X192032000Y-123676628D01*
X191793905Y-124152819D02*
X191793905Y-123152819D01*
X191793905Y-123152819D02*
X192174857Y-123152819D01*
X192174857Y-123152819D02*
X192270095Y-123200438D01*
X192270095Y-123200438D02*
X192317714Y-123248057D01*
X192317714Y-123248057D02*
X192365333Y-123343295D01*
X192365333Y-123343295D02*
X192365333Y-123486152D01*
X192365333Y-123486152D02*
X192317714Y-123581390D01*
X192317714Y-123581390D02*
X192270095Y-123629009D01*
X192270095Y-123629009D02*
X192174857Y-123676628D01*
X192174857Y-123676628D02*
X191793905Y-123676628D01*
X192841524Y-124152819D02*
X193032000Y-124152819D01*
X193032000Y-124152819D02*
X193127238Y-124105200D01*
X193127238Y-124105200D02*
X193174857Y-124057580D01*
X193174857Y-124057580D02*
X193270095Y-123914723D01*
X193270095Y-123914723D02*
X193317714Y-123724247D01*
X193317714Y-123724247D02*
X193317714Y-123343295D01*
X193317714Y-123343295D02*
X193270095Y-123248057D01*
X193270095Y-123248057D02*
X193222476Y-123200438D01*
X193222476Y-123200438D02*
X193127238Y-123152819D01*
X193127238Y-123152819D02*
X192936762Y-123152819D01*
X192936762Y-123152819D02*
X192841524Y-123200438D01*
X192841524Y-123200438D02*
X192793905Y-123248057D01*
X192793905Y-123248057D02*
X192746286Y-123343295D01*
X192746286Y-123343295D02*
X192746286Y-123581390D01*
X192746286Y-123581390D02*
X192793905Y-123676628D01*
X192793905Y-123676628D02*
X192841524Y-123724247D01*
X192841524Y-123724247D02*
X192936762Y-123771866D01*
X192936762Y-123771866D02*
X193127238Y-123771866D01*
X193127238Y-123771866D02*
X193222476Y-123724247D01*
X193222476Y-123724247D02*
X193270095Y-123676628D01*
X193270095Y-123676628D02*
X193317714Y-123581390D01*
X194905333Y-114500819D02*
X194572000Y-114024628D01*
X194333905Y-114500819D02*
X194333905Y-113500819D01*
X194333905Y-113500819D02*
X194714857Y-113500819D01*
X194714857Y-113500819D02*
X194810095Y-113548438D01*
X194810095Y-113548438D02*
X194857714Y-113596057D01*
X194857714Y-113596057D02*
X194905333Y-113691295D01*
X194905333Y-113691295D02*
X194905333Y-113834152D01*
X194905333Y-113834152D02*
X194857714Y-113929390D01*
X194857714Y-113929390D02*
X194810095Y-113977009D01*
X194810095Y-113977009D02*
X194714857Y-114024628D01*
X194714857Y-114024628D02*
X194333905Y-114024628D01*
X195762476Y-113500819D02*
X195572000Y-113500819D01*
X195572000Y-113500819D02*
X195476762Y-113548438D01*
X195476762Y-113548438D02*
X195429143Y-113596057D01*
X195429143Y-113596057D02*
X195333905Y-113738914D01*
X195333905Y-113738914D02*
X195286286Y-113929390D01*
X195286286Y-113929390D02*
X195286286Y-114310342D01*
X195286286Y-114310342D02*
X195333905Y-114405580D01*
X195333905Y-114405580D02*
X195381524Y-114453200D01*
X195381524Y-114453200D02*
X195476762Y-114500819D01*
X195476762Y-114500819D02*
X195667238Y-114500819D01*
X195667238Y-114500819D02*
X195762476Y-114453200D01*
X195762476Y-114453200D02*
X195810095Y-114405580D01*
X195810095Y-114405580D02*
X195857714Y-114310342D01*
X195857714Y-114310342D02*
X195857714Y-114072247D01*
X195857714Y-114072247D02*
X195810095Y-113977009D01*
X195810095Y-113977009D02*
X195762476Y-113929390D01*
X195762476Y-113929390D02*
X195667238Y-113881771D01*
X195667238Y-113881771D02*
X195476762Y-113881771D01*
X195476762Y-113881771D02*
X195381524Y-113929390D01*
X195381524Y-113929390D02*
X195333905Y-113977009D01*
X195333905Y-113977009D02*
X195286286Y-114072247D01*
%TO.C,U1*%
D14*
X149657800Y-126984000D02*
X149657800Y-124984000D01*
X150657800Y-122984000D02*
X154657800Y-122984000D01*
D10*
X151157800Y-123484000D02*
X154157800Y-123484000D01*
X151157800Y-128484000D02*
X154157800Y-128484000D01*
D14*
X154657800Y-128984000D02*
X150657800Y-128984000D01*
X155657800Y-124984000D02*
X155657800Y-126984000D01*
X154457800Y-125984000D02*
G75*
G02*
X150857800Y-125984000I-1800000J0D01*
G01*
X150857800Y-125984000D02*
G75*
G02*
X154457800Y-125984000I1800000J0D01*
G01*
%TO.C,C4*%
D15*
X163004000Y-113438000D02*
X170244000Y-113438000D01*
X163004000Y-116178000D02*
X163004000Y-113438000D01*
X170244000Y-113438000D02*
X170244000Y-116178000D01*
X170244000Y-116178000D02*
X163004000Y-116178000D01*
%TO.C,R1*%
X193572000Y-71069200D02*
X194342000Y-71069200D01*
X201652000Y-71069200D02*
X200882000Y-71069200D01*
X194342000Y-69699200D02*
X200882000Y-69699200D01*
X200882000Y-72439200D01*
X194342000Y-72439200D01*
X194342000Y-69699200D01*
%TO.C,R8*%
X195858000Y-120396000D02*
X196628000Y-120396000D01*
X203938000Y-120396000D02*
X203168000Y-120396000D01*
X196628000Y-119026000D02*
X203168000Y-119026000D01*
X203168000Y-121766000D01*
X196628000Y-121766000D01*
X196628000Y-119026000D01*
%TO.C,R2*%
X140232000Y-111760000D02*
X141002000Y-111760000D01*
X148312000Y-111760000D02*
X147542000Y-111760000D01*
X141002000Y-110390000D02*
X147542000Y-110390000D01*
X147542000Y-113130000D01*
X141002000Y-113130000D01*
X141002000Y-110390000D01*
%TO.C,Q3*%
X185696000Y-110312000D02*
X182096000Y-110312000D01*
X183896000Y-114762000D02*
G75*
G02*
X182057522Y-110323522I0J2600000D01*
G01*
X185734478Y-110323522D02*
G75*
G02*
X183896000Y-114762001I-1838478J-1838478D01*
G01*
%TO.C,R7*%
X195858000Y-117094000D02*
X196628000Y-117094000D01*
X203938000Y-117094000D02*
X203168000Y-117094000D01*
X196628000Y-115724000D02*
X203168000Y-115724000D01*
X203168000Y-118464000D01*
X196628000Y-118464000D01*
X196628000Y-115724000D01*
%TO.C,R3*%
X140232000Y-118364000D02*
X141002000Y-118364000D01*
X148312000Y-118364000D02*
X147542000Y-118364000D01*
X141002000Y-116994000D02*
X147542000Y-116994000D01*
X147542000Y-119734000D01*
X141002000Y-119734000D01*
X141002000Y-116994000D01*
%TO.C,J5*%
X122064000Y-91584000D02*
X123444000Y-91584000D01*
X122064000Y-92964000D02*
X122064000Y-91584000D01*
X122064000Y-94234000D02*
X122064000Y-96884000D01*
X122064000Y-94234000D02*
X124824000Y-94234000D01*
X122064000Y-96884000D02*
X124824000Y-96884000D01*
X124824000Y-94234000D02*
X124824000Y-96884000D01*
%TO.C,RV1*%
D10*
X126619000Y-64135000D02*
X134874000Y-64135000D01*
X134874000Y-64135000D02*
X134874000Y-73025000D01*
X134874000Y-73025000D02*
X126619000Y-73025000D01*
X122174000Y-68580000D02*
G75*
G02*
X126619000Y-64135000I4444999J1D01*
G01*
X126619000Y-73025000D02*
G75*
G02*
X122174000Y-68580000I-1J4444999D01*
G01*
%TO.C,C1*%
D15*
X135572000Y-70258000D02*
X142812000Y-70258000D01*
X135572000Y-72998000D02*
X135572000Y-70258000D01*
X142812000Y-70258000D02*
X142812000Y-72998000D01*
X142812000Y-72998000D02*
X135572000Y-72998000D01*
%TO.C,C5*%
X206402000Y-115974000D02*
X209142000Y-115974000D01*
X206402000Y-123214000D02*
X206402000Y-115974000D01*
X209142000Y-115974000D02*
X209142000Y-123214000D01*
X209142000Y-123214000D02*
X206402000Y-123214000D01*
%TO.C,Q4*%
X209368000Y-114576000D02*
X209368000Y-110976000D01*
X204918000Y-112776000D02*
G75*
G02*
X209356478Y-110937522I2600000J0D01*
G01*
X209356478Y-114614478D02*
G75*
G02*
X204917999Y-112776000I-1838478J1838478D01*
G01*
%TO.C,J6*%
X122064000Y-102252000D02*
X123444000Y-102252000D01*
X122064000Y-103632000D02*
X122064000Y-102252000D01*
X122064000Y-104902000D02*
X122064000Y-107552000D01*
X122064000Y-104902000D02*
X124824000Y-104902000D01*
X122064000Y-107552000D02*
X124824000Y-107552000D01*
X124824000Y-104902000D02*
X124824000Y-107552000D01*
%TO.C,R4*%
X156742000Y-111760000D02*
X157512000Y-111760000D01*
X164822000Y-111760000D02*
X164052000Y-111760000D01*
X157512000Y-110390000D02*
X164052000Y-110390000D01*
X164052000Y-113130000D01*
X157512000Y-113130000D01*
X157512000Y-110390000D01*
%TO.C,C2*%
X139422000Y-113692000D02*
X146662000Y-113692000D01*
X139422000Y-116432000D02*
X139422000Y-113692000D01*
X146662000Y-113692000D02*
X146662000Y-116432000D01*
X146662000Y-116432000D02*
X139422000Y-116432000D01*
%TO.C,C3*%
X139422000Y-120296000D02*
X146662000Y-120296000D01*
X139422000Y-123036000D02*
X139422000Y-120296000D01*
X146662000Y-120296000D02*
X146662000Y-123036000D01*
X146662000Y-123036000D02*
X139422000Y-123036000D01*
%TO.C,J8*%
X206900000Y-102252000D02*
X208280000Y-102252000D01*
X206900000Y-103632000D02*
X206900000Y-102252000D01*
X206900000Y-104902000D02*
X206900000Y-107552000D01*
X206900000Y-104902000D02*
X209660000Y-104902000D01*
X206900000Y-107552000D02*
X209660000Y-107552000D01*
X209660000Y-104902000D02*
X209660000Y-107552000D01*
%TO.C,U3*%
D14*
X162354000Y-126984000D02*
X162354000Y-124984000D01*
X163354000Y-122984000D02*
X167354000Y-122984000D01*
D10*
X163854000Y-123484000D02*
X166854000Y-123484000D01*
X163854000Y-128484000D02*
X166854000Y-128484000D01*
D14*
X167354000Y-128984000D02*
X163354000Y-128984000D01*
X168354000Y-124984000D02*
X168354000Y-126984000D01*
X167154000Y-125984000D02*
G75*
G02*
X163554000Y-125984000I-1800000J0D01*
G01*
X163554000Y-125984000D02*
G75*
G02*
X167154000Y-125984000I1800000J0D01*
G01*
%TO.C,U2*%
X175057800Y-126984000D02*
X175057800Y-124984000D01*
X176057800Y-122984000D02*
X180057800Y-122984000D01*
D10*
X176557800Y-123484000D02*
X179557800Y-123484000D01*
X176557800Y-128484000D02*
X179557800Y-128484000D01*
D14*
X180057800Y-128984000D02*
X176057800Y-128984000D01*
X181057800Y-124984000D02*
X181057800Y-126984000D01*
X179857800Y-125984000D02*
G75*
G02*
X176257800Y-125984000I-1800000J0D01*
G01*
X176257800Y-125984000D02*
G75*
G02*
X179857800Y-125984000I1800000J0D01*
G01*
%TO.C,R5*%
D15*
X169442000Y-111760000D02*
X170212000Y-111760000D01*
X177522000Y-111760000D02*
X176752000Y-111760000D01*
X170212000Y-110390000D02*
X176752000Y-110390000D01*
X176752000Y-113130000D01*
X170212000Y-113130000D01*
X170212000Y-110390000D01*
%TO.C,J7*%
X206900000Y-91579000D02*
X208280000Y-91579000D01*
X206900000Y-92959000D02*
X206900000Y-91579000D01*
X206900000Y-94229000D02*
X206900000Y-96879000D01*
X206900000Y-94229000D02*
X209660000Y-94229000D01*
X206900000Y-96879000D02*
X209660000Y-96879000D01*
X209660000Y-94229000D02*
X209660000Y-96879000D01*
%TO.C,DS1*%
X125718000Y-73560000D02*
X125718000Y-109840000D01*
X125718000Y-109840000D02*
X205998000Y-109840000D01*
X125728000Y-73560000D02*
X126518000Y-73560000D01*
X128858000Y-79200000D02*
X201858000Y-79200000D01*
X128858000Y-104200000D02*
X128858000Y-79200000D01*
X132358000Y-73200000D02*
X135358000Y-73200000D01*
X133558280Y-98699320D02*
X133558280Y-84700000D01*
X134058000Y-84200000D02*
X197558000Y-84200000D01*
X197558660Y-99200000D02*
X134058000Y-99200000D01*
X198058000Y-84700000D02*
X198058000Y-98700000D01*
X201858000Y-79200000D02*
X201858000Y-104200000D01*
X201858000Y-104200000D02*
X128858000Y-104200000D01*
X205998000Y-73560000D02*
X126518000Y-73560000D01*
X205998000Y-109840000D02*
X205998000Y-73560000D01*
X133558280Y-84698840D02*
G75*
G02*
X134058660Y-84198460I500380J0D01*
G01*
X134058660Y-99199700D02*
G75*
G02*
X133558280Y-98699320I0J500380D01*
G01*
X197558000Y-84200000D02*
G75*
G02*
X198058000Y-84700000I0J-500000D01*
G01*
X198059040Y-98699320D02*
G75*
G02*
X197558660Y-99199640I-500340J20D01*
G01*
%TO.C,R9*%
X195858000Y-123698000D02*
X196628000Y-123698000D01*
X203938000Y-123698000D02*
X203168000Y-123698000D01*
X196628000Y-122328000D02*
X203168000Y-122328000D01*
X203168000Y-125068000D01*
X196628000Y-125068000D01*
X196628000Y-122328000D01*
%TO.C,R6*%
X191032000Y-111760000D02*
X191802000Y-111760000D01*
X199112000Y-111760000D02*
X198342000Y-111760000D01*
X191802000Y-110390000D02*
X198342000Y-110390000D01*
X198342000Y-113130000D01*
X191802000Y-113130000D01*
X191802000Y-110390000D01*
%TD*%
%LPC*%
D16*
%TO.C,U1*%
X149407800Y-123734000D03*
X155907800Y-123734000D03*
X149407800Y-128234000D03*
X155907800Y-128234000D03*
%TD*%
D17*
%TO.C,C4*%
X164124000Y-114808000D03*
X169124000Y-114808000D03*
%TD*%
%TO.C,R1*%
X202692000Y-71069200D03*
X192532000Y-71069200D03*
%TD*%
%TO.C,R8*%
X204978000Y-120396000D03*
X194818000Y-120396000D03*
%TD*%
D18*
%TO.C,REF\u002A\u002A*%
X173228000Y-66548000D03*
D19*
X173228000Y-66548000D03*
%TD*%
D17*
%TO.C,R2*%
X149352000Y-111760000D03*
X139192000Y-111760000D03*
%TD*%
D20*
%TO.C,Q3*%
X185166000Y-112162000D03*
D21*
X183896000Y-112162000D03*
X182626000Y-112162000D03*
%TD*%
D17*
%TO.C,R7*%
X204978000Y-117094000D03*
X194818000Y-117094000D03*
%TD*%
%TO.C,R3*%
X149352000Y-118364000D03*
X139192000Y-118364000D03*
%TD*%
D22*
%TO.C,J5*%
X123444000Y-92964000D03*
D23*
X123444000Y-95504000D03*
%TD*%
D24*
%TO.C,RV1*%
X133604000Y-66040000D03*
X123444000Y-68580000D03*
X133604000Y-71120000D03*
%TD*%
D17*
%TO.C,C1*%
X136692000Y-71628000D03*
X141692000Y-71628000D03*
%TD*%
%TO.C,C5*%
X207772000Y-117094000D03*
X207772000Y-122094000D03*
%TD*%
D25*
%TO.C,Q4*%
X207518000Y-114046000D03*
D26*
X207518000Y-112776000D03*
X207518000Y-111506000D03*
%TD*%
D22*
%TO.C,J6*%
X123444000Y-103632000D03*
D23*
X123444000Y-106172000D03*
%TD*%
D18*
%TO.C,REF\u002A\u002A*%
X125222000Y-126238000D03*
D19*
X125222000Y-126238000D03*
%TD*%
D17*
%TO.C,R4*%
X155702000Y-111760000D03*
X165862000Y-111760000D03*
%TD*%
%TO.C,C2*%
X145542000Y-115062000D03*
X140542000Y-115062000D03*
%TD*%
%TO.C,C3*%
X145542000Y-121666000D03*
X140542000Y-121666000D03*
%TD*%
D22*
%TO.C,J8*%
X208280000Y-103632000D03*
D23*
X208280000Y-106172000D03*
%TD*%
D16*
%TO.C,U3*%
X162104000Y-123734000D03*
X168604000Y-123734000D03*
X162104000Y-128234000D03*
X168604000Y-128234000D03*
%TD*%
%TO.C,U2*%
X174807800Y-123734000D03*
X181307800Y-123734000D03*
X174807800Y-128234000D03*
X181307800Y-128234000D03*
%TD*%
D18*
%TO.C,REF\u002A\u002A*%
X187960000Y-126238000D03*
D19*
X187960000Y-126238000D03*
%TD*%
D17*
%TO.C,R5*%
X168402000Y-111760000D03*
X178562000Y-111760000D03*
%TD*%
D22*
%TO.C,J7*%
X208280000Y-92959000D03*
D23*
X208280000Y-95499000D03*
%TD*%
D27*
%TO.C,DS1*%
X128358900Y-76200000D03*
X128358900Y-107200700D03*
X203357480Y-107200700D03*
X203358000Y-76200000D03*
D28*
X133858000Y-76200000D03*
D29*
X136398000Y-76200000D03*
X138938000Y-76200000D03*
X141478000Y-76200000D03*
X144018000Y-76200000D03*
X146558000Y-76200000D03*
X149098000Y-76200000D03*
X151638000Y-76200000D03*
X154178000Y-76200000D03*
X156718000Y-76200000D03*
X159258000Y-76200000D03*
X161798000Y-76200000D03*
X164338000Y-76200000D03*
X166878000Y-76200000D03*
X169418000Y-76200000D03*
X171958000Y-76200000D03*
%TD*%
D17*
%TO.C,R9*%
X204978000Y-123698000D03*
X194818000Y-123698000D03*
%TD*%
%TO.C,R6*%
X189992000Y-111760000D03*
X200152000Y-111760000D03*
%TD*%
D22*
%TO.C,J1*%
X189738000Y-71120000D03*
D23*
X187198000Y-71120000D03*
X184658000Y-71120000D03*
X182118000Y-71120000D03*
X179578000Y-71120000D03*
X177038000Y-71120000D03*
X174498000Y-71120000D03*
X171958000Y-71120000D03*
%TD*%
D22*
%TO.C,J3*%
X154178000Y-119380000D03*
D23*
X156718000Y-119380000D03*
X159258000Y-119380000D03*
X161798000Y-119380000D03*
X164338000Y-119380000D03*
X166878000Y-119380000D03*
X169418000Y-119380000D03*
X171958000Y-119380000D03*
%TD*%
D22*
%TO.C,J4*%
X177038000Y-119380000D03*
D23*
X179578000Y-119380000D03*
X182118000Y-119380000D03*
X184658000Y-119380000D03*
X187198000Y-119380000D03*
X189738000Y-119380000D03*
%TD*%
D22*
%TO.C,J2*%
X167894000Y-71120000D03*
D23*
X165354000Y-71120000D03*
X162814000Y-71120000D03*
X160274000Y-71120000D03*
X157734000Y-71120000D03*
X155194000Y-71120000D03*
X152654000Y-71120000D03*
X150114000Y-71120000D03*
X147574000Y-71120000D03*
X145034000Y-71120000D03*
%TD*%
%LPD*%
M02*
