%TF.GenerationSoftware,KiCad,Pcbnew,10.0.1*%
%TF.CreationDate,2026-04-23T22:56:11-07:00*%
%TF.ProjectId,Photogate,50686f74-6f67-4617-9465-2e6b69636164,rev?*%
%TF.SameCoordinates,Original*%
%TF.FileFunction,Drillmap*%
%TF.FilePolarity,Positive*%
%FSLAX45Y45*%
G04 Gerber Fmt 4.5, Leading zero omitted, Abs format (unit mm)*
G04 Created by KiCad (PCBNEW 10.0.1) date 2026-04-23 22:56:11*
%MOMM*%
%LPD*%
G01*
G04 APERTURE LIST*
%ADD10C,0.050000*%
%ADD11C,0.200000*%
G04 APERTURE END LIST*
D10*
X12039600Y-6832600D02*
G75*
G02*
X12547600Y-6324600I508000J0D01*
G01*
X12547600Y-13106400D02*
G75*
G02*
X12039600Y-12598400I0J508000D01*
G01*
X20726400Y-6324600D02*
G75*
G02*
X21234400Y-6832600I0J-508000D01*
G01*
X21234400Y-12598400D02*
G75*
G02*
X20726400Y-13106400I-508000J0D01*
G01*
X12547600Y-6324600D02*
X20726400Y-6324600D01*
X12039600Y-12598400D02*
X12039600Y-6832600D01*
X21234400Y-6832600D02*
X21234400Y-12598400D01*
X20726400Y-13106400D02*
X12547600Y-13106400D01*
D11*
X12297877Y-13420384D02*
X12297877Y-13220384D01*
X12297877Y-13220384D02*
X12345496Y-13220384D01*
X12345496Y-13220384D02*
X12374067Y-13229908D01*
X12374067Y-13229908D02*
X12393115Y-13248955D01*
X12393115Y-13248955D02*
X12402639Y-13268003D01*
X12402639Y-13268003D02*
X12412162Y-13306098D01*
X12412162Y-13306098D02*
X12412162Y-13334669D01*
X12412162Y-13334669D02*
X12402639Y-13372765D01*
X12402639Y-13372765D02*
X12393115Y-13391812D01*
X12393115Y-13391812D02*
X12374067Y-13410860D01*
X12374067Y-13410860D02*
X12345496Y-13420384D01*
X12345496Y-13420384D02*
X12297877Y-13420384D01*
X12497877Y-13420384D02*
X12497877Y-13287050D01*
X12497877Y-13325146D02*
X12507401Y-13306098D01*
X12507401Y-13306098D02*
X12516924Y-13296574D01*
X12516924Y-13296574D02*
X12535972Y-13287050D01*
X12535972Y-13287050D02*
X12555020Y-13287050D01*
X12621686Y-13420384D02*
X12621686Y-13287050D01*
X12621686Y-13220384D02*
X12612162Y-13229908D01*
X12612162Y-13229908D02*
X12621686Y-13239431D01*
X12621686Y-13239431D02*
X12631210Y-13229908D01*
X12631210Y-13229908D02*
X12621686Y-13220384D01*
X12621686Y-13220384D02*
X12621686Y-13239431D01*
X12745496Y-13420384D02*
X12726448Y-13410860D01*
X12726448Y-13410860D02*
X12716924Y-13391812D01*
X12716924Y-13391812D02*
X12716924Y-13220384D01*
X12850258Y-13420384D02*
X12831210Y-13410860D01*
X12831210Y-13410860D02*
X12821686Y-13391812D01*
X12821686Y-13391812D02*
X12821686Y-13220384D01*
X13078829Y-13420384D02*
X13078829Y-13220384D01*
X13078829Y-13220384D02*
X13145496Y-13363241D01*
X13145496Y-13363241D02*
X13212162Y-13220384D01*
X13212162Y-13220384D02*
X13212162Y-13420384D01*
X13393115Y-13420384D02*
X13393115Y-13315622D01*
X13393115Y-13315622D02*
X13383591Y-13296574D01*
X13383591Y-13296574D02*
X13364543Y-13287050D01*
X13364543Y-13287050D02*
X13326448Y-13287050D01*
X13326448Y-13287050D02*
X13307401Y-13296574D01*
X13393115Y-13410860D02*
X13374067Y-13420384D01*
X13374067Y-13420384D02*
X13326448Y-13420384D01*
X13326448Y-13420384D02*
X13307401Y-13410860D01*
X13307401Y-13410860D02*
X13297877Y-13391812D01*
X13297877Y-13391812D02*
X13297877Y-13372765D01*
X13297877Y-13372765D02*
X13307401Y-13353717D01*
X13307401Y-13353717D02*
X13326448Y-13344193D01*
X13326448Y-13344193D02*
X13374067Y-13344193D01*
X13374067Y-13344193D02*
X13393115Y-13334669D01*
X13488353Y-13287050D02*
X13488353Y-13487050D01*
X13488353Y-13296574D02*
X13507401Y-13287050D01*
X13507401Y-13287050D02*
X13545496Y-13287050D01*
X13545496Y-13287050D02*
X13564543Y-13296574D01*
X13564543Y-13296574D02*
X13574067Y-13306098D01*
X13574067Y-13306098D02*
X13583591Y-13325146D01*
X13583591Y-13325146D02*
X13583591Y-13382288D01*
X13583591Y-13382288D02*
X13574067Y-13401336D01*
X13574067Y-13401336D02*
X13564543Y-13410860D01*
X13564543Y-13410860D02*
X13545496Y-13420384D01*
X13545496Y-13420384D02*
X13507401Y-13420384D01*
X13507401Y-13420384D02*
X13488353Y-13410860D01*
X13669305Y-13401336D02*
X13678829Y-13410860D01*
X13678829Y-13410860D02*
X13669305Y-13420384D01*
X13669305Y-13420384D02*
X13659782Y-13410860D01*
X13659782Y-13410860D02*
X13669305Y-13401336D01*
X13669305Y-13401336D02*
X13669305Y-13420384D01*
X13669305Y-13296574D02*
X13678829Y-13306098D01*
X13678829Y-13306098D02*
X13669305Y-13315622D01*
X13669305Y-13315622D02*
X13659782Y-13306098D01*
X13659782Y-13306098D02*
X13669305Y-13296574D01*
X13669305Y-13296574D02*
X13669305Y-13315622D01*
M02*
