%TF.GenerationSoftware,KiCad,Pcbnew,10.0.1*%
%TF.CreationDate,2026-04-23T22:56:06-07:00*%
%TF.ProjectId,Photogate,50686f74-6f67-4617-9465-2e6b69636164,rev?*%
%TF.SameCoordinates,Original*%
%TF.FileFunction,Copper,L1,Top*%
%TF.FilePolarity,Positive*%
%FSLAX46Y46*%
G04 Gerber Fmt 4.6, Leading zero omitted, Abs format (unit mm)*
G04 Created by KiCad (PCBNEW 10.0.1) date 2026-04-23 22:56:06*
%MOMM*%
%LPD*%
G01*
G04 APERTURE LIST*
%TA.AperFunction,ComponentPad*%
%ADD10C,1.800000*%
%TD*%
%TA.AperFunction,ComponentPad*%
%ADD11C,1.600000*%
%TD*%
%TA.AperFunction,ComponentPad*%
%ADD12C,3.600000*%
%TD*%
%TA.AperFunction,ConnectorPad*%
%ADD13C,5.600000*%
%TD*%
%TA.AperFunction,ComponentPad*%
%ADD14R,1.050000X1.500000*%
%TD*%
%TA.AperFunction,ComponentPad*%
%ADD15O,1.050000X1.500000*%
%TD*%
%TA.AperFunction,ComponentPad*%
%ADD16R,1.700000X1.700000*%
%TD*%
%TA.AperFunction,ComponentPad*%
%ADD17C,1.700000*%
%TD*%
%TA.AperFunction,ComponentPad*%
%ADD18C,1.524000*%
%TD*%
%TA.AperFunction,ComponentPad*%
%ADD19R,1.500000X1.050000*%
%TD*%
%TA.AperFunction,ComponentPad*%
%ADD20O,1.500000X1.050000*%
%TD*%
%TA.AperFunction,ComponentPad*%
%ADD21C,3.000000*%
%TD*%
%TA.AperFunction,ComponentPad*%
%ADD22R,1.800000X2.600000*%
%TD*%
%TA.AperFunction,ComponentPad*%
%ADD23O,1.800000X2.600000*%
%TD*%
%TA.AperFunction,Conductor*%
%ADD24C,0.200000*%
%TD*%
%TA.AperFunction,Conductor*%
%ADD25C,0.508000*%
%TD*%
G04 APERTURE END LIST*
D10*
%TO.P,U1,1*%
%TO.N,Net-(J1-Pin_8)*%
X149407800Y-123734000D03*
%TO.P,U1,2*%
X155907800Y-123734000D03*
%TO.P,U1,3*%
%TO.N,GND*%
X149407800Y-128234000D03*
%TO.P,U1,4*%
X155907800Y-128234000D03*
%TD*%
D11*
%TO.P,C4,1*%
%TO.N,+5V*%
X164124000Y-114808000D03*
%TO.P,C4,2*%
%TO.N,GND*%
X169124000Y-114808000D03*
%TD*%
%TO.P,R1,1*%
%TO.N,+5V*%
X202692000Y-71069200D03*
%TO.P,R1,2*%
%TO.N,Net-(DS1-LED(+))*%
X192532000Y-71069200D03*
%TD*%
%TO.P,R8,1*%
%TO.N,Net-(Q4-B)*%
X204978000Y-120396000D03*
%TO.P,R8,2*%
%TO.N,GND*%
X194818000Y-120396000D03*
%TD*%
D12*
%TO.P,REF\u002A\u002A,1*%
%TO.N,N/C*%
X173228000Y-66548000D03*
D13*
X173228000Y-66548000D03*
%TD*%
D11*
%TO.P,R2,1*%
%TO.N,+5V*%
X149352000Y-111760000D03*
%TO.P,R2,2*%
%TO.N,/Phototransistor1/GATE_OUT_1*%
X139192000Y-111760000D03*
%TD*%
D14*
%TO.P,Q3,1,E_1*%
%TO.N,Net-(Q3-E)*%
X185166000Y-112162000D03*
D15*
%TO.P,Q3,2,B_2*%
%TO.N,Net-(Q3-B)*%
X183896000Y-112162000D03*
%TO.P,Q3,3,C_3*%
%TO.N,Net-(J7-Pin_1)*%
X182626000Y-112162000D03*
%TD*%
D11*
%TO.P,R7,1*%
%TO.N,+5V*%
X204978000Y-117094000D03*
%TO.P,R7,2*%
%TO.N,Net-(Q4-B)*%
X194818000Y-117094000D03*
%TD*%
%TO.P,R3,1*%
%TO.N,+5V*%
X149352000Y-118364000D03*
%TO.P,R3,2*%
%TO.N,/Phototransistor2/GATE_OUT_1*%
X139192000Y-118364000D03*
%TD*%
D16*
%TO.P,J5,1,Pin_1_1*%
%TO.N,GND*%
X123444000Y-92964000D03*
D17*
%TO.P,J5,2,Pin_2_2*%
%TO.N,/Phototransistor1/GATE_OUT_1*%
X123444000Y-95504000D03*
%TD*%
D18*
%TO.P,RV1,1,1_1*%
%TO.N,GND*%
X133604000Y-66040000D03*
%TO.P,RV1,2,2_2*%
%TO.N,Net-(DS1-VO)*%
X123444000Y-68580000D03*
%TO.P,RV1,3,3_3*%
%TO.N,+5V*%
X133604000Y-71120000D03*
%TD*%
D11*
%TO.P,C1,1*%
%TO.N,+5V*%
X136692000Y-71628000D03*
%TO.P,C1,2*%
%TO.N,GND*%
X141692000Y-71628000D03*
%TD*%
%TO.P,C5,1*%
%TO.N,+5V*%
X207772000Y-117094000D03*
%TO.P,C5,2*%
%TO.N,GND*%
X207772000Y-122094000D03*
%TD*%
D19*
%TO.P,Q4,1,E_1*%
%TO.N,Net-(Q4-E)*%
X207518000Y-114046000D03*
D20*
%TO.P,Q4,2,B_2*%
%TO.N,Net-(Q4-B)*%
X207518000Y-112776000D03*
%TO.P,Q4,3,C_3*%
%TO.N,Net-(J8-Pin_1)*%
X207518000Y-111506000D03*
%TD*%
D16*
%TO.P,J6,1,Pin_1_1*%
%TO.N,GND*%
X123444000Y-103632000D03*
D17*
%TO.P,J6,2,Pin_2_2*%
%TO.N,/Phototransistor2/GATE_OUT_1*%
X123444000Y-106172000D03*
%TD*%
D12*
%TO.P,REF\u002A\u002A,1*%
%TO.N,N/C*%
X125222000Y-126238000D03*
D13*
X125222000Y-126238000D03*
%TD*%
D11*
%TO.P,R4,1*%
%TO.N,+5V*%
X155702000Y-111760000D03*
%TO.P,R4,2*%
%TO.N,Net-(Q3-B)*%
X165862000Y-111760000D03*
%TD*%
%TO.P,C2,1*%
%TO.N,+5V*%
X145542000Y-115062000D03*
%TO.P,C2,2*%
%TO.N,GND*%
X140542000Y-115062000D03*
%TD*%
%TO.P,C3,1*%
%TO.N,+5V*%
X145542000Y-121666000D03*
%TO.P,C3,2*%
%TO.N,GND*%
X140542000Y-121666000D03*
%TD*%
D16*
%TO.P,J8,1,Pin_1_1*%
%TO.N,Net-(J8-Pin_1)*%
X208280000Y-103632000D03*
D17*
%TO.P,J8,2,Pin_2_2*%
%TO.N,+5V*%
X208280000Y-106172000D03*
%TD*%
D10*
%TO.P,U3,1*%
%TO.N,Net-(J3-Pin_3)*%
X162104000Y-123734000D03*
%TO.P,U3,2*%
X168604000Y-123734000D03*
%TO.P,U3,3*%
%TO.N,GND*%
X162104000Y-128234000D03*
%TO.P,U3,4*%
X168604000Y-128234000D03*
%TD*%
%TO.P,U2,1*%
%TO.N,Net-(J1-Pin_7)*%
X174807800Y-123734000D03*
%TO.P,U2,2*%
X181307800Y-123734000D03*
%TO.P,U2,3*%
%TO.N,GND*%
X174807800Y-128234000D03*
%TO.P,U2,4*%
X181307800Y-128234000D03*
%TD*%
D12*
%TO.P,REF\u002A\u002A,1*%
%TO.N,N/C*%
X187960000Y-126238000D03*
D13*
X187960000Y-126238000D03*
%TD*%
D11*
%TO.P,R5,1*%
%TO.N,Net-(Q3-B)*%
X168402000Y-111760000D03*
%TO.P,R5,2*%
%TO.N,GND*%
X178562000Y-111760000D03*
%TD*%
D16*
%TO.P,J7,1,Pin_1_1*%
%TO.N,Net-(J7-Pin_1)*%
X208280000Y-92959000D03*
D17*
%TO.P,J7,2,Pin_2_2*%
%TO.N,+5V*%
X208280000Y-95499000D03*
%TD*%
D21*
%TO.P,DS1,*%
%TO.N,*%
X128358900Y-76200000D03*
X128358900Y-107200700D03*
X203357480Y-107200700D03*
X203358000Y-76200000D03*
D22*
%TO.P,DS1,1,VSS_1*%
%TO.N,GND*%
X133858000Y-76200000D03*
D23*
%TO.P,DS1,2,VDD_2*%
%TO.N,+5V*%
X136398000Y-76200000D03*
%TO.P,DS1,3,VO_3*%
%TO.N,Net-(DS1-VO)*%
X138938000Y-76200000D03*
%TO.P,DS1,4,RS_4*%
%TO.N,/LCD/RS*%
X141478000Y-76200000D03*
%TO.P,DS1,5,R/W_5*%
%TO.N,GND*%
X144018000Y-76200000D03*
%TO.P,DS1,6,E_6*%
%TO.N,/LCD/E*%
X146558000Y-76200000D03*
%TO.P,DS1,7,D0_7*%
%TO.N,/LCD/D0*%
X149098000Y-76200000D03*
%TO.P,DS1,8,D1_8*%
%TO.N,/LCD/D1*%
X151638000Y-76200000D03*
%TO.P,DS1,9,D2_9*%
%TO.N,/LCD/D2*%
X154178000Y-76200000D03*
%TO.P,DS1,10,D3_10*%
%TO.N,/LCD/D3*%
X156718000Y-76200000D03*
%TO.P,DS1,11,D4_11*%
%TO.N,/LCD/D4*%
X159258000Y-76200000D03*
%TO.P,DS1,12,D5_12*%
%TO.N,/LCD/D5*%
X161798000Y-76200000D03*
%TO.P,DS1,13,D6_13*%
%TO.N,/LCD/D6*%
X164338000Y-76200000D03*
%TO.P,DS1,14,D7_14*%
%TO.N,/LCD/D7*%
X166878000Y-76200000D03*
%TO.P,DS1,15,LED(+)_15*%
%TO.N,Net-(DS1-LED(+))*%
X169418000Y-76200000D03*
%TO.P,DS1,16,LED(-)_16*%
%TO.N,GND*%
X171958000Y-76200000D03*
%TD*%
D11*
%TO.P,R9,1*%
%TO.N,Net-(Q4-E)*%
X204978000Y-123698000D03*
%TO.P,R9,2*%
%TO.N,GND*%
X194818000Y-123698000D03*
%TD*%
%TO.P,R6,1*%
%TO.N,Net-(Q3-E)*%
X189992000Y-111760000D03*
%TO.P,R6,2*%
%TO.N,GND*%
X200152000Y-111760000D03*
%TD*%
D16*
%TO.P,J1,1,Pin_1_1*%
%TO.N,Net-(J1-Pin_1)*%
X189738000Y-71120000D03*
D17*
%TO.P,J1,2,Pin_2_2*%
%TO.N,Net-(J1-Pin_2)*%
X187198000Y-71120000D03*
%TO.P,J1,3,Pin_3_3*%
%TO.N,/LCD/D7*%
X184658000Y-71120000D03*
%TO.P,J1,4,Pin_4_4*%
%TO.N,/LCD/D6*%
X182118000Y-71120000D03*
%TO.P,J1,5,Pin_5_5*%
%TO.N,/LCD/D5*%
X179578000Y-71120000D03*
%TO.P,J1,6,Pin_6_6*%
%TO.N,/LCD/D4*%
X177038000Y-71120000D03*
%TO.P,J1,7,Pin_7_7*%
%TO.N,Net-(J1-Pin_7)*%
X174498000Y-71120000D03*
%TO.P,J1,8,Pin_8_8*%
%TO.N,Net-(J1-Pin_8)*%
X171958000Y-71120000D03*
%TD*%
D16*
%TO.P,J3,1,Pin_1_1*%
%TO.N,unconnected-(J3-Pin_1-Pad1)*%
X154178000Y-119380000D03*
D17*
%TO.P,J3,2,Pin_2_2*%
%TO.N,Net-(J3-Pin_2)*%
X156718000Y-119380000D03*
%TO.P,J3,3,Pin_3_3*%
%TO.N,Net-(J3-Pin_3)*%
X159258000Y-119380000D03*
%TO.P,J3,4,Pin_4_4*%
%TO.N,Net-(J3-Pin_4)*%
X161798000Y-119380000D03*
%TO.P,J3,5,Pin_5_5*%
%TO.N,+5V*%
X164338000Y-119380000D03*
%TO.P,J3,6,Pin_6_6*%
%TO.N,GND*%
X166878000Y-119380000D03*
%TO.P,J3,7,Pin_7_7*%
X169418000Y-119380000D03*
%TO.P,J3,8,Pin_8_8*%
%TO.N,Net-(J3-Pin_8)*%
X171958000Y-119380000D03*
%TD*%
D16*
%TO.P,J4,1,Pin_1_1*%
%TO.N,/Phototransistor1/GATE_OUT_1*%
X177038000Y-119380000D03*
D17*
%TO.P,J4,2,Pin_2_2*%
%TO.N,/Phototransistor2/GATE_OUT_1*%
X179578000Y-119380000D03*
%TO.P,J4,3,Pin_3_3*%
%TO.N,Net-(J4-Pin_3)*%
X182118000Y-119380000D03*
%TO.P,J4,4,Pin_4_4*%
%TO.N,Net-(J4-Pin_4)*%
X184658000Y-119380000D03*
%TO.P,J4,5,Pin_5_5*%
%TO.N,Net-(J4-Pin_5)*%
X187198000Y-119380000D03*
%TO.P,J4,6,Pin_6_6*%
%TO.N,Net-(J4-Pin_6)*%
X189738000Y-119380000D03*
%TD*%
D16*
%TO.P,J2,1,Pin_1_1*%
%TO.N,Net-(J2-Pin_1)*%
X167894000Y-71120000D03*
D17*
%TO.P,J2,2,Pin_2_2*%
%TO.N,Net-(J2-Pin_2)*%
X165354000Y-71120000D03*
%TO.P,J2,3,Pin_3_3*%
%TO.N,Net-(J2-Pin_3)*%
X162814000Y-71120000D03*
%TO.P,J2,4,Pin_4_4*%
%TO.N,/LCD/E*%
X160274000Y-71120000D03*
%TO.P,J2,5,Pin_5_5*%
%TO.N,/LCD/RS*%
X157734000Y-71120000D03*
%TO.P,J2,6,Pin_6_6*%
%TO.N,Net-(J2-Pin_6)*%
X155194000Y-71120000D03*
%TO.P,J2,7,Pin_7_7*%
%TO.N,GND*%
X152654000Y-71120000D03*
%TO.P,J2,8,Pin_8_8*%
%TO.N,Net-(J2-Pin_8)*%
X150114000Y-71120000D03*
%TO.P,J2,9,Pin_9_9*%
%TO.N,Net-(J2-Pin_9)*%
X147574000Y-71120000D03*
%TO.P,J2,10,Pin_10_10*%
%TO.N,Net-(J2-Pin_10)*%
X145034000Y-71120000D03*
%TD*%
%TO.N,Net-(Q3-B)*%
D24*
X168402000Y-111760000D02*
X165862000Y-111760000D01*
%TO.N,Net-(J1-Pin_8)*%
X143256000Y-123444000D02*
X143256000Y-110236000D01*
X144526000Y-124714000D02*
X143256000Y-123444000D01*
X165354000Y-64516000D02*
X171958000Y-71120000D01*
X149407800Y-123734000D02*
X148427800Y-124714000D01*
X121412000Y-88392000D02*
X121412000Y-68580000D01*
X148427800Y-124714000D02*
X144526000Y-124714000D01*
X143256000Y-110236000D02*
X121412000Y-88392000D01*
X121412000Y-68580000D02*
X125476000Y-64516000D01*
X125476000Y-64516000D02*
X165354000Y-64516000D01*
X149407800Y-123734000D02*
X155907800Y-123734000D01*
%TO.N,+5V*%
X136398000Y-76200000D02*
X136398000Y-75692000D01*
X164338000Y-119380000D02*
X163576000Y-119380000D01*
%TO.N,Net-(DS1-LED(+))*%
D25*
X170230800Y-78587600D02*
X185013600Y-78587600D01*
X169418000Y-77774800D02*
X170230800Y-78587600D01*
X169418000Y-76200000D02*
X169418000Y-77774800D01*
X185013600Y-78587600D02*
X192532000Y-71069200D01*
%TO.N,Net-(Q4-B)*%
D24*
X200406000Y-120396000D02*
X204978000Y-120396000D01*
X206248000Y-113284000D02*
X206756000Y-112776000D01*
X194818000Y-117094000D02*
X197104000Y-117094000D01*
X197104000Y-117094000D02*
X200406000Y-120396000D01*
X208788000Y-115062000D02*
X206756000Y-115062000D01*
X206756000Y-112776000D02*
X207518000Y-112776000D01*
X204978000Y-120396000D02*
X207772000Y-120396000D01*
X209550000Y-118618000D02*
X209550000Y-115824000D01*
X209550000Y-115824000D02*
X208788000Y-115062000D01*
X206248000Y-114554000D02*
X206248000Y-113284000D01*
X207772000Y-120396000D02*
X209550000Y-118618000D01*
X206756000Y-115062000D02*
X206248000Y-114554000D01*
%TO.N,/Phototransistor1/GATE_OUT_1*%
X176022000Y-119380000D02*
X177038000Y-119380000D01*
X169926000Y-125476000D02*
X176022000Y-119380000D01*
X144272000Y-125476000D02*
X169926000Y-125476000D01*
X142240000Y-123444000D02*
X144272000Y-125476000D01*
X139192000Y-111760000D02*
X142240000Y-114808000D01*
X122936000Y-95504000D02*
X139192000Y-111760000D01*
X142240000Y-114808000D02*
X142240000Y-123444000D01*
%TO.N,Net-(Q3-E)*%
X185166000Y-112162000D02*
X186542000Y-112162000D01*
X186944000Y-111760000D02*
X189992000Y-111760000D01*
X186542000Y-112162000D02*
X186944000Y-111760000D01*
%TO.N,Net-(Q3-B)*%
X182372000Y-113284000D02*
X183388000Y-113284000D01*
X182300000Y-113212000D02*
X182372000Y-113284000D01*
X182284274Y-113212000D02*
X182300000Y-113212000D01*
X183388000Y-113284000D02*
X183896000Y-112776000D01*
X181801000Y-112713000D02*
X181801000Y-112728726D01*
X181801000Y-112728726D02*
X182284274Y-113212000D01*
X168402000Y-112014000D02*
X170180000Y-110236000D01*
X170180000Y-110236000D02*
X179324000Y-110236000D01*
X183896000Y-112776000D02*
X183896000Y-112162000D01*
X179324000Y-110236000D02*
X181801000Y-112713000D01*
%TO.N,Net-(J7-Pin_1)*%
X182626000Y-112162000D02*
X182626000Y-108712000D01*
X182626000Y-108712000D02*
X198379000Y-92959000D01*
X208021000Y-92969000D02*
X208652000Y-92969000D01*
X198379000Y-92959000D02*
X208280000Y-92959000D01*
%TO.N,/Phototransistor2/GATE_OUT_1*%
X139192000Y-124206000D02*
X141478000Y-126492000D01*
X123190000Y-106172000D02*
X135382000Y-118364000D01*
X170180000Y-126492000D02*
X175514000Y-121158000D01*
X135382000Y-118364000D02*
X139192000Y-118364000D01*
X175514000Y-121158000D02*
X177800000Y-121158000D01*
X177800000Y-121158000D02*
X179578000Y-119380000D01*
X139192000Y-118364000D02*
X139192000Y-124206000D01*
X141478000Y-126492000D02*
X170180000Y-126492000D01*
%TO.N,Net-(DS1-VO)*%
X138176000Y-68580000D02*
X138938000Y-69342000D01*
X123444000Y-68580000D02*
X138176000Y-68580000D01*
X138938000Y-69342000D02*
X138938000Y-76200000D01*
%TO.N,Net-(Q4-E)*%
D25*
X207518000Y-114046000D02*
X209042000Y-114046000D01*
X210312000Y-121920000D02*
X208534000Y-123698000D01*
X209042000Y-114046000D02*
X210312000Y-115316000D01*
X210312000Y-115316000D02*
X210312000Y-121920000D01*
X208534000Y-123698000D02*
X204978000Y-123698000D01*
%TO.N,Net-(J8-Pin_1)*%
X210058000Y-104648000D02*
X209042000Y-103632000D01*
X210058000Y-108966000D02*
X210058000Y-104648000D01*
X209042000Y-103632000D02*
X208280000Y-103632000D01*
X207518000Y-111506000D02*
X210058000Y-108966000D01*
%TO.N,Net-(J3-Pin_3)*%
D24*
X159258000Y-120904000D02*
X159274000Y-120904000D01*
X159258000Y-120904000D02*
X159258000Y-119380000D01*
X159274000Y-120904000D02*
X162104000Y-123734000D01*
X168604000Y-123734000D02*
X162104000Y-123734000D01*
%TO.N,Net-(J1-Pin_7)*%
X204724000Y-67056000D02*
X178562000Y-67056000D01*
X203962000Y-130048000D02*
X211328000Y-122682000D01*
X178562000Y-67056000D02*
X174498000Y-71120000D01*
X181307800Y-123734000D02*
X174807800Y-123734000D01*
X211328000Y-122682000D02*
X211328000Y-73660000D01*
X186436000Y-130048000D02*
X203962000Y-130048000D01*
X181307800Y-123734000D02*
X181307800Y-124919800D01*
X211328000Y-73660000D02*
X204724000Y-67056000D01*
X181307800Y-124919800D02*
X186436000Y-130048000D01*
%TO.N,/LCD/RS*%
X157734000Y-71120000D02*
X155956000Y-72898000D01*
X155956000Y-72898000D02*
X144018000Y-72898000D01*
X141478000Y-75438000D02*
X141478000Y-76200000D01*
X144018000Y-72898000D02*
X141478000Y-75438000D01*
%TO.N,/LCD/E*%
X146558000Y-75184000D02*
X146558000Y-76200000D01*
X160274000Y-71120000D02*
X157734000Y-73660000D01*
X148082000Y-73660000D02*
X146558000Y-75184000D01*
X157734000Y-73660000D02*
X148082000Y-73660000D01*
%TO.N,/LCD/D4*%
X163068000Y-72390000D02*
X175768000Y-72390000D01*
X159258000Y-76200000D02*
X163068000Y-72390000D01*
X175768000Y-72390000D02*
X177038000Y-71120000D01*
%TO.N,/LCD/D5*%
X164846000Y-73152000D02*
X177546000Y-73152000D01*
X177546000Y-73152000D02*
X179578000Y-71120000D01*
X161798000Y-76200000D02*
X164846000Y-73152000D01*
%TO.N,/LCD/D6*%
X164338000Y-76200000D02*
X166878000Y-73660000D01*
X179578000Y-73660000D02*
X182118000Y-71120000D01*
X166878000Y-73660000D02*
X179578000Y-73660000D01*
%TO.N,/LCD/D7*%
X181356000Y-74422000D02*
X184658000Y-71120000D01*
X168656000Y-74422000D02*
X181356000Y-74422000D01*
X166878000Y-76200000D02*
X168656000Y-74422000D01*
%TD*%
%TA.AperFunction,Conductor*%
%TO.N,+5V*%
G36*
X204917031Y-68102344D02*
G01*
X204937870Y-68119105D01*
X210579961Y-73761196D01*
X210613446Y-73822519D01*
X210616275Y-73847747D01*
X210727495Y-86056095D01*
X210727500Y-86057225D01*
X210727500Y-103951112D01*
X210707815Y-104018151D01*
X210655011Y-104063906D01*
X210585853Y-104073850D01*
X210522297Y-104044825D01*
X210515819Y-104038793D01*
X209666818Y-103189792D01*
X209633333Y-103128469D01*
X209630499Y-103102111D01*
X209630499Y-102734129D01*
X209630498Y-102734123D01*
X209630497Y-102734116D01*
X209624091Y-102674517D01*
X209604173Y-102621115D01*
X209573797Y-102539671D01*
X209573793Y-102539664D01*
X209487547Y-102424455D01*
X209487544Y-102424452D01*
X209372335Y-102338206D01*
X209372328Y-102338202D01*
X209237482Y-102287908D01*
X209237483Y-102287908D01*
X209177883Y-102281501D01*
X209177881Y-102281500D01*
X209177873Y-102281500D01*
X209177864Y-102281500D01*
X207382129Y-102281500D01*
X207382123Y-102281501D01*
X207322516Y-102287908D01*
X207187671Y-102338202D01*
X207187664Y-102338206D01*
X207072455Y-102424452D01*
X207072452Y-102424455D01*
X206986206Y-102539664D01*
X206986202Y-102539671D01*
X206935908Y-102674517D01*
X206929501Y-102734116D01*
X206929501Y-102734123D01*
X206929500Y-102734135D01*
X206929500Y-104529870D01*
X206929501Y-104529876D01*
X206935908Y-104589483D01*
X206986202Y-104724328D01*
X206986206Y-104724335D01*
X207072452Y-104839544D01*
X207072455Y-104839547D01*
X207187664Y-104925793D01*
X207187671Y-104925797D01*
X207232618Y-104942561D01*
X207322517Y-104976091D01*
X207382127Y-104982500D01*
X207392685Y-104982499D01*
X207459723Y-105002179D01*
X207480372Y-105018818D01*
X208150591Y-105689037D01*
X208087007Y-105706075D01*
X207972993Y-105771901D01*
X207879901Y-105864993D01*
X207814075Y-105979007D01*
X207797037Y-106042591D01*
X207164728Y-105410282D01*
X207164727Y-105410282D01*
X207125380Y-105464439D01*
X207028904Y-105653782D01*
X206963242Y-105855869D01*
X206963242Y-105855872D01*
X206930000Y-106065753D01*
X206930000Y-106278246D01*
X206963242Y-106488127D01*
X206963242Y-106488130D01*
X207028904Y-106690217D01*
X207125375Y-106879550D01*
X207164728Y-106933716D01*
X207797037Y-106301408D01*
X207814075Y-106364993D01*
X207879901Y-106479007D01*
X207972993Y-106572099D01*
X208087007Y-106637925D01*
X208150589Y-106654962D01*
X207518282Y-107287269D01*
X207518282Y-107287270D01*
X207572449Y-107326624D01*
X207761782Y-107423095D01*
X207963870Y-107488757D01*
X208173754Y-107522000D01*
X208386246Y-107522000D01*
X208596127Y-107488757D01*
X208596130Y-107488757D01*
X208798217Y-107423095D01*
X208987557Y-107326620D01*
X209106615Y-107240121D01*
X209172421Y-107216641D01*
X209240475Y-107232467D01*
X209289170Y-107282572D01*
X209303500Y-107340439D01*
X209303500Y-108602113D01*
X209283815Y-108669152D01*
X209267181Y-108689794D01*
X207512794Y-110444181D01*
X207451471Y-110477666D01*
X207425113Y-110480500D01*
X207191992Y-110480500D01*
X206993880Y-110519907D01*
X206993872Y-110519909D01*
X206807247Y-110597212D01*
X206807237Y-110597217D01*
X206639281Y-110709441D01*
X206496441Y-110852281D01*
X206384217Y-111020237D01*
X206384212Y-111020247D01*
X206306909Y-111206872D01*
X206306907Y-111206880D01*
X206267500Y-111404992D01*
X206267500Y-111607007D01*
X206306907Y-111805119D01*
X206306909Y-111805127D01*
X206384213Y-111991755D01*
X206384214Y-111991756D01*
X206437904Y-112072109D01*
X206443751Y-112090781D01*
X206454150Y-112107355D01*
X206453975Y-112123436D01*
X206458782Y-112138785D01*
X206453605Y-112157654D01*
X206453394Y-112177220D01*
X206441159Y-112203024D01*
X206440298Y-112206165D01*
X206438385Y-112209164D01*
X206438087Y-112209616D01*
X206384214Y-112290244D01*
X206382829Y-112293585D01*
X206377572Y-112301575D01*
X206373731Y-112304830D01*
X206361671Y-112321090D01*
X206275480Y-112407283D01*
X206275478Y-112407286D01*
X205767481Y-112915282D01*
X205767479Y-112915284D01*
X205741742Y-112959864D01*
X205729992Y-112980216D01*
X205688423Y-113052215D01*
X205647499Y-113204943D01*
X205647499Y-113204945D01*
X205647499Y-113373046D01*
X205647500Y-113373059D01*
X205647500Y-114467330D01*
X205647499Y-114467348D01*
X205647499Y-114633054D01*
X205647498Y-114633054D01*
X205688423Y-114785786D01*
X205692196Y-114792320D01*
X205696242Y-114799327D01*
X205696244Y-114799336D01*
X205696247Y-114799335D01*
X205760341Y-114910351D01*
X205767479Y-114922714D01*
X205767481Y-114922717D01*
X205886349Y-115041585D01*
X205886355Y-115041590D01*
X206271139Y-115426374D01*
X206271149Y-115426385D01*
X206275479Y-115430715D01*
X206275480Y-115430716D01*
X206387284Y-115542520D01*
X206387286Y-115542521D01*
X206387290Y-115542524D01*
X206524209Y-115621573D01*
X206524216Y-115621577D01*
X206636019Y-115651534D01*
X206676942Y-115662500D01*
X206676943Y-115662500D01*
X207201483Y-115662500D01*
X207268522Y-115682185D01*
X207314277Y-115734989D01*
X207324221Y-115804147D01*
X207295196Y-115867703D01*
X207257778Y-115896985D01*
X207090644Y-115982143D01*
X207046077Y-116014523D01*
X207046077Y-116014524D01*
X207725554Y-116694000D01*
X207719339Y-116694000D01*
X207617606Y-116721259D01*
X207526394Y-116773920D01*
X207451920Y-116848394D01*
X207399259Y-116939606D01*
X207372000Y-117041339D01*
X207372000Y-117047553D01*
X206692524Y-116368077D01*
X206692523Y-116368077D01*
X206660143Y-116412644D01*
X206567244Y-116594968D01*
X206504009Y-116789582D01*
X206497473Y-116830854D01*
X206467544Y-116893989D01*
X206408232Y-116930920D01*
X206338369Y-116929922D01*
X206280137Y-116891312D01*
X206252527Y-116830854D01*
X206245990Y-116789582D01*
X206182755Y-116594968D01*
X206089859Y-116412650D01*
X206057474Y-116368077D01*
X206057474Y-116368076D01*
X205378000Y-117047551D01*
X205378000Y-117041339D01*
X205350741Y-116939606D01*
X205298080Y-116848394D01*
X205223606Y-116773920D01*
X205132394Y-116721259D01*
X205030661Y-116694000D01*
X205024446Y-116694000D01*
X205703922Y-116014524D01*
X205703921Y-116014523D01*
X205659359Y-115982147D01*
X205659350Y-115982141D01*
X205477031Y-115889244D01*
X205282417Y-115826009D01*
X205080317Y-115794000D01*
X204875683Y-115794000D01*
X204673582Y-115826009D01*
X204478968Y-115889244D01*
X204296644Y-115982143D01*
X204252077Y-116014523D01*
X204252077Y-116014524D01*
X204931554Y-116694000D01*
X204925339Y-116694000D01*
X204823606Y-116721259D01*
X204732394Y-116773920D01*
X204657920Y-116848394D01*
X204605259Y-116939606D01*
X204578000Y-117041339D01*
X204578000Y-117047553D01*
X203898524Y-116368077D01*
X203898523Y-116368077D01*
X203866143Y-116412644D01*
X203773244Y-116594968D01*
X203710009Y-116789582D01*
X203678000Y-116991682D01*
X203678000Y-117196317D01*
X203710009Y-117398417D01*
X203773244Y-117593031D01*
X203866141Y-117775350D01*
X203866147Y-117775359D01*
X203898523Y-117819921D01*
X203898524Y-117819922D01*
X204578000Y-117140446D01*
X204578000Y-117146661D01*
X204605259Y-117248394D01*
X204657920Y-117339606D01*
X204732394Y-117414080D01*
X204823606Y-117466741D01*
X204925339Y-117494000D01*
X204931553Y-117494000D01*
X204252076Y-118173474D01*
X204296650Y-118205859D01*
X204478968Y-118298755D01*
X204673582Y-118361990D01*
X204875683Y-118394000D01*
X205080317Y-118394000D01*
X205282417Y-118361990D01*
X205477031Y-118298755D01*
X205659349Y-118205859D01*
X205703922Y-118173474D01*
X205024447Y-117494000D01*
X205030661Y-117494000D01*
X205132394Y-117466741D01*
X205223606Y-117414080D01*
X205298080Y-117339606D01*
X205350741Y-117248394D01*
X205378000Y-117146661D01*
X205378000Y-117140447D01*
X206057474Y-117819921D01*
X206089859Y-117775349D01*
X206182755Y-117593031D01*
X206245990Y-117398417D01*
X206252527Y-117357145D01*
X206282456Y-117294010D01*
X206341768Y-117257079D01*
X206411630Y-117258077D01*
X206469863Y-117296687D01*
X206497473Y-117357145D01*
X206504009Y-117398417D01*
X206567244Y-117593031D01*
X206660141Y-117775350D01*
X206660147Y-117775359D01*
X206692523Y-117819921D01*
X206692524Y-117819922D01*
X207372000Y-117140446D01*
X207372000Y-117146661D01*
X207399259Y-117248394D01*
X207451920Y-117339606D01*
X207526394Y-117414080D01*
X207617606Y-117466741D01*
X207719339Y-117494000D01*
X207725553Y-117494000D01*
X207046076Y-118173474D01*
X207090650Y-118205859D01*
X207272968Y-118298755D01*
X207467582Y-118361990D01*
X207669683Y-118394000D01*
X207874317Y-118394000D01*
X208076417Y-118361990D01*
X208271031Y-118298755D01*
X208453349Y-118205859D01*
X208497921Y-118173474D01*
X207818447Y-117494000D01*
X207824661Y-117494000D01*
X207926394Y-117466741D01*
X208017606Y-117414080D01*
X208092080Y-117339606D01*
X208144741Y-117248394D01*
X208172000Y-117146661D01*
X208172000Y-117140447D01*
X208864524Y-117832972D01*
X208884144Y-117837093D01*
X208933903Y-117886142D01*
X208949500Y-117946349D01*
X208949500Y-118317902D01*
X208929815Y-118384941D01*
X208913181Y-118405583D01*
X207559584Y-119759181D01*
X207498261Y-119792666D01*
X207471903Y-119795500D01*
X206207602Y-119795500D01*
X206140563Y-119775815D01*
X206097117Y-119727795D01*
X206090284Y-119714385D01*
X205969971Y-119548786D01*
X205825213Y-119404028D01*
X205659613Y-119283715D01*
X205659612Y-119283714D01*
X205659610Y-119283713D01*
X205602653Y-119254691D01*
X205477223Y-119190781D01*
X205282534Y-119127522D01*
X205107995Y-119099878D01*
X205080352Y-119095500D01*
X204875648Y-119095500D01*
X204851329Y-119099351D01*
X204673465Y-119127522D01*
X204478776Y-119190781D01*
X204296386Y-119283715D01*
X204130786Y-119404028D01*
X203986028Y-119548786D01*
X203865715Y-119714385D01*
X203858883Y-119727795D01*
X203810909Y-119778591D01*
X203748398Y-119795500D01*
X200706097Y-119795500D01*
X200639058Y-119775815D01*
X200618416Y-119759181D01*
X197591590Y-116732355D01*
X197591588Y-116732352D01*
X197472717Y-116613481D01*
X197472716Y-116613480D01*
X197385904Y-116563360D01*
X197385904Y-116563359D01*
X197385900Y-116563358D01*
X197335785Y-116534423D01*
X197183057Y-116493499D01*
X197024943Y-116493499D01*
X197017347Y-116493499D01*
X197017331Y-116493500D01*
X196047602Y-116493500D01*
X195980563Y-116473815D01*
X195937117Y-116425795D01*
X195930284Y-116412385D01*
X195809971Y-116246786D01*
X195665213Y-116102028D01*
X195499613Y-115981715D01*
X195499612Y-115981714D01*
X195499610Y-115981713D01*
X195442653Y-115952691D01*
X195317223Y-115888781D01*
X195122534Y-115825522D01*
X194947995Y-115797878D01*
X194920352Y-115793500D01*
X194715648Y-115793500D01*
X194691329Y-115797351D01*
X194513465Y-115825522D01*
X194318776Y-115888781D01*
X194136386Y-115981715D01*
X193970786Y-116102028D01*
X193826028Y-116246786D01*
X193705715Y-116412386D01*
X193612781Y-116594776D01*
X193549522Y-116789465D01*
X193517500Y-116991648D01*
X193517500Y-117196351D01*
X193549522Y-117398534D01*
X193612781Y-117593223D01*
X193635636Y-117638077D01*
X193705585Y-117775359D01*
X193705715Y-117775613D01*
X193826028Y-117941213D01*
X193970786Y-118085971D01*
X194091226Y-118173474D01*
X194136390Y-118206287D01*
X194245042Y-118261648D01*
X194318776Y-118299218D01*
X194318778Y-118299218D01*
X194318781Y-118299220D01*
X194513466Y-118362477D01*
X194713399Y-118394143D01*
X194776533Y-118424072D01*
X194813464Y-118483384D01*
X194818000Y-118516616D01*
X194818000Y-118973383D01*
X194798315Y-119040422D01*
X194745511Y-119086177D01*
X194713398Y-119095856D01*
X194513465Y-119127522D01*
X194318776Y-119190781D01*
X194136390Y-119283712D01*
X193972643Y-119402681D01*
X193906836Y-119426160D01*
X193838783Y-119410334D01*
X193812077Y-119390044D01*
X193802316Y-119380282D01*
X193802314Y-119380281D01*
X193802315Y-119380281D01*
X191211275Y-119380238D01*
X191144236Y-119360552D01*
X191098482Y-119307748D01*
X191088804Y-119275636D01*
X191088500Y-119273716D01*
X191088500Y-119273713D01*
X191055246Y-119063757D01*
X190989557Y-118861588D01*
X190893051Y-118672184D01*
X190893049Y-118672181D01*
X190893048Y-118672179D01*
X190768109Y-118500213D01*
X190617786Y-118349890D01*
X190445820Y-118224951D01*
X190256414Y-118128444D01*
X190256413Y-118128443D01*
X190256412Y-118128443D01*
X190054243Y-118062754D01*
X190054241Y-118062753D01*
X190054240Y-118062753D01*
X189892957Y-118037208D01*
X189844287Y-118029500D01*
X189631713Y-118029500D01*
X189583042Y-118037208D01*
X189421760Y-118062753D01*
X189320672Y-118095598D01*
X189250516Y-118118394D01*
X189219585Y-118128444D01*
X189030179Y-118224951D01*
X188858213Y-118349890D01*
X188707890Y-118500213D01*
X188582949Y-118672182D01*
X188578484Y-118680946D01*
X188530509Y-118731742D01*
X188462688Y-118748536D01*
X188396553Y-118725998D01*
X188357516Y-118680946D01*
X188353050Y-118672182D01*
X188228109Y-118500213D01*
X188077786Y-118349890D01*
X187905820Y-118224951D01*
X187716414Y-118128444D01*
X187716413Y-118128443D01*
X187716412Y-118128443D01*
X187514243Y-118062754D01*
X187514241Y-118062753D01*
X187514240Y-118062753D01*
X187352957Y-118037208D01*
X187304287Y-118029500D01*
X187091713Y-118029500D01*
X187043042Y-118037208D01*
X186881760Y-118062753D01*
X186780672Y-118095598D01*
X186710516Y-118118394D01*
X186679585Y-118128444D01*
X186490179Y-118224951D01*
X186318213Y-118349890D01*
X186167890Y-118500213D01*
X186042949Y-118672182D01*
X186038484Y-118680946D01*
X185990509Y-118731742D01*
X185922688Y-118748536D01*
X185856553Y-118725998D01*
X185817516Y-118680946D01*
X185813050Y-118672182D01*
X185688109Y-118500213D01*
X185537786Y-118349890D01*
X185365820Y-118224951D01*
X185176414Y-118128444D01*
X185176413Y-118128443D01*
X185176412Y-118128443D01*
X184974243Y-118062754D01*
X184974241Y-118062753D01*
X184974240Y-118062753D01*
X184812957Y-118037208D01*
X184764287Y-118029500D01*
X184551713Y-118029500D01*
X184503042Y-118037208D01*
X184341760Y-118062753D01*
X184240672Y-118095598D01*
X184170516Y-118118394D01*
X184139585Y-118128444D01*
X183950179Y-118224951D01*
X183778213Y-118349890D01*
X183627890Y-118500213D01*
X183502949Y-118672182D01*
X183498484Y-118680946D01*
X183450509Y-118731742D01*
X183382688Y-118748536D01*
X183316553Y-118725998D01*
X183277516Y-118680946D01*
X183273050Y-118672182D01*
X183148109Y-118500213D01*
X182997786Y-118349890D01*
X182825820Y-118224951D01*
X182636414Y-118128444D01*
X182636413Y-118128443D01*
X182636412Y-118128443D01*
X182434243Y-118062754D01*
X182434241Y-118062753D01*
X182434240Y-118062753D01*
X182272957Y-118037208D01*
X182224287Y-118029500D01*
X182011713Y-118029500D01*
X181963042Y-118037208D01*
X181801760Y-118062753D01*
X181700672Y-118095598D01*
X181630516Y-118118394D01*
X181599585Y-118128444D01*
X181410179Y-118224951D01*
X181238213Y-118349890D01*
X181087890Y-118500213D01*
X180962949Y-118672182D01*
X180958484Y-118680946D01*
X180910509Y-118731742D01*
X180842688Y-118748536D01*
X180776553Y-118725998D01*
X180737516Y-118680946D01*
X180733050Y-118672182D01*
X180608109Y-118500213D01*
X180457786Y-118349890D01*
X180285820Y-118224951D01*
X180096414Y-118128444D01*
X180096413Y-118128443D01*
X180096412Y-118128443D01*
X179894243Y-118062754D01*
X179894241Y-118062753D01*
X179894240Y-118062753D01*
X179732957Y-118037208D01*
X179684287Y-118029500D01*
X179471713Y-118029500D01*
X179423042Y-118037208D01*
X179261760Y-118062753D01*
X179160672Y-118095598D01*
X179090516Y-118118394D01*
X179059585Y-118128444D01*
X178870179Y-118224951D01*
X178698215Y-118349889D01*
X178584673Y-118463431D01*
X178523350Y-118496915D01*
X178453658Y-118491931D01*
X178397725Y-118450059D01*
X178380810Y-118419082D01*
X178331797Y-118287671D01*
X178331793Y-118287664D01*
X178245547Y-118172455D01*
X178245544Y-118172452D01*
X178130335Y-118086206D01*
X178130328Y-118086202D01*
X177995482Y-118035908D01*
X177995483Y-118035908D01*
X177935883Y-118029501D01*
X177935881Y-118029500D01*
X177935873Y-118029500D01*
X177935864Y-118029500D01*
X176140129Y-118029500D01*
X176140123Y-118029501D01*
X176080516Y-118035908D01*
X175945671Y-118086202D01*
X175945664Y-118086206D01*
X175830455Y-118172452D01*
X175830452Y-118172455D01*
X175744206Y-118287664D01*
X175744202Y-118287671D01*
X175693908Y-118422517D01*
X175687501Y-118482116D01*
X175687500Y-118482135D01*
X175687500Y-118813902D01*
X175678855Y-118843342D01*
X175672332Y-118873329D01*
X175668577Y-118878344D01*
X175667815Y-118880941D01*
X175651181Y-118901583D01*
X175541478Y-119011286D01*
X172121710Y-122431053D01*
X172060387Y-122464538D01*
X172034642Y-122467370D01*
X169260260Y-122481079D01*
X169203352Y-122467566D01*
X169141606Y-122436105D01*
X169141603Y-122436103D01*
X168931952Y-122367985D01*
X168801661Y-122347349D01*
X168714222Y-122333500D01*
X168493778Y-122333500D01*
X168421201Y-122344995D01*
X168276047Y-122367985D01*
X168066396Y-122436103D01*
X168066388Y-122436107D01*
X167991803Y-122474110D01*
X167936122Y-122487623D01*
X164645608Y-122503884D01*
X164578472Y-122484531D01*
X164555206Y-122465408D01*
X162720171Y-120538819D01*
X162716722Y-120532120D01*
X162710693Y-120527607D01*
X162700951Y-120501489D01*
X162688188Y-120476699D01*
X162688908Y-120469199D01*
X162686276Y-120462143D01*
X162692201Y-120434903D01*
X162692585Y-120430904D01*
X162692508Y-120430364D01*
X162692672Y-120430004D01*
X162694867Y-120407149D01*
X162699897Y-120399527D01*
X162701128Y-120393870D01*
X162722276Y-120365619D01*
X162828104Y-120259792D01*
X162829971Y-120257223D01*
X162913890Y-120141717D01*
X162953051Y-120087816D01*
X162957793Y-120078508D01*
X163005763Y-120027711D01*
X163073583Y-120010911D01*
X163139719Y-120033445D01*
X163178763Y-120078500D01*
X163183373Y-120087547D01*
X163222728Y-120141716D01*
X163855037Y-119509408D01*
X163872075Y-119572993D01*
X163937901Y-119687007D01*
X164030993Y-119780099D01*
X164145007Y-119845925D01*
X164208590Y-119862962D01*
X163576282Y-120495269D01*
X163576282Y-120495270D01*
X163630449Y-120534624D01*
X163819782Y-120631095D01*
X164021870Y-120696757D01*
X164231754Y-120730000D01*
X164444246Y-120730000D01*
X164654127Y-120696757D01*
X164654130Y-120696757D01*
X164856217Y-120631095D01*
X165045554Y-120534622D01*
X165099716Y-120495270D01*
X165099717Y-120495270D01*
X164467408Y-119862962D01*
X164530993Y-119845925D01*
X164645007Y-119780099D01*
X164738099Y-119687007D01*
X164803925Y-119572993D01*
X164820962Y-119509408D01*
X165453270Y-120141717D01*
X165453270Y-120141716D01*
X165492622Y-120087555D01*
X165497232Y-120078507D01*
X165545205Y-120027709D01*
X165613025Y-120010912D01*
X165679161Y-120033447D01*
X165718204Y-120078504D01*
X165722949Y-120087817D01*
X165847890Y-120259786D01*
X165998213Y-120410109D01*
X166170179Y-120535048D01*
X166170181Y-120535049D01*
X166170184Y-120535051D01*
X166359588Y-120631557D01*
X166561757Y-120697246D01*
X166771713Y-120730500D01*
X166771714Y-120730500D01*
X166984286Y-120730500D01*
X166984287Y-120730500D01*
X167194243Y-120697246D01*
X167396412Y-120631557D01*
X167585816Y-120535051D01*
X167621211Y-120509335D01*
X167757786Y-120410109D01*
X167757788Y-120410106D01*
X167757792Y-120410104D01*
X167908104Y-120259792D01*
X167908106Y-120259788D01*
X167908109Y-120259786D01*
X168033048Y-120087820D01*
X168033047Y-120087820D01*
X168033051Y-120087816D01*
X168037514Y-120079054D01*
X168085488Y-120028259D01*
X168153308Y-120011463D01*
X168219444Y-120033999D01*
X168258486Y-120079056D01*
X168262951Y-120087820D01*
X168387890Y-120259786D01*
X168538213Y-120410109D01*
X168710179Y-120535048D01*
X168710181Y-120535049D01*
X168710184Y-120535051D01*
X168899588Y-120631557D01*
X169101757Y-120697246D01*
X169311713Y-120730500D01*
X169311714Y-120730500D01*
X169524286Y-120730500D01*
X169524287Y-120730500D01*
X169734243Y-120697246D01*
X169936412Y-120631557D01*
X170125816Y-120535051D01*
X170161211Y-120509335D01*
X170297786Y-120410109D01*
X170297788Y-120410106D01*
X170297792Y-120410104D01*
X170448104Y-120259792D01*
X170448106Y-120259788D01*
X170448109Y-120259786D01*
X170573048Y-120087820D01*
X170573047Y-120087820D01*
X170573051Y-120087816D01*
X170577514Y-120079054D01*
X170625488Y-120028259D01*
X170693308Y-120011463D01*
X170759444Y-120033999D01*
X170798486Y-120079056D01*
X170802951Y-120087820D01*
X170927890Y-120259786D01*
X171078213Y-120410109D01*
X171250179Y-120535048D01*
X171250181Y-120535049D01*
X171250184Y-120535051D01*
X171439588Y-120631557D01*
X171641757Y-120697246D01*
X171851713Y-120730500D01*
X171851714Y-120730500D01*
X172064286Y-120730500D01*
X172064287Y-120730500D01*
X172274243Y-120697246D01*
X172476412Y-120631557D01*
X172665816Y-120535051D01*
X172701211Y-120509335D01*
X172837786Y-120410109D01*
X172837788Y-120410106D01*
X172837792Y-120410104D01*
X172988104Y-120259792D01*
X172988106Y-120259788D01*
X172988109Y-120259786D01*
X173113048Y-120087820D01*
X173113047Y-120087820D01*
X173113051Y-120087816D01*
X173209557Y-119898412D01*
X173275246Y-119696243D01*
X173308500Y-119486287D01*
X173308500Y-119273713D01*
X173275246Y-119063757D01*
X173209557Y-118861588D01*
X173113051Y-118672184D01*
X173113049Y-118672181D01*
X173113048Y-118672179D01*
X172988109Y-118500213D01*
X172837786Y-118349890D01*
X172665820Y-118224951D01*
X172476414Y-118128444D01*
X172476413Y-118128443D01*
X172476412Y-118128443D01*
X172274243Y-118062754D01*
X172274241Y-118062753D01*
X172274240Y-118062753D01*
X172112957Y-118037208D01*
X172064287Y-118029500D01*
X171851713Y-118029500D01*
X171803042Y-118037208D01*
X171641760Y-118062753D01*
X171540672Y-118095598D01*
X171470516Y-118118394D01*
X171439585Y-118128444D01*
X171250179Y-118224951D01*
X171078213Y-118349890D01*
X170927890Y-118500213D01*
X170802949Y-118672182D01*
X170798484Y-118680946D01*
X170750509Y-118731742D01*
X170682688Y-118748536D01*
X170616553Y-118725998D01*
X170577516Y-118680946D01*
X170573050Y-118672182D01*
X170448109Y-118500213D01*
X170297786Y-118349890D01*
X170125820Y-118224951D01*
X169936414Y-118128444D01*
X169936413Y-118128443D01*
X169936412Y-118128443D01*
X169734243Y-118062754D01*
X169734241Y-118062753D01*
X169734240Y-118062753D01*
X169572957Y-118037208D01*
X169524287Y-118029500D01*
X169311713Y-118029500D01*
X169263042Y-118037208D01*
X169101760Y-118062753D01*
X169000672Y-118095598D01*
X168930516Y-118118394D01*
X168899585Y-118128444D01*
X168710179Y-118224951D01*
X168538213Y-118349890D01*
X168387890Y-118500213D01*
X168262949Y-118672182D01*
X168258484Y-118680946D01*
X168210509Y-118731742D01*
X168142688Y-118748536D01*
X168076553Y-118725998D01*
X168037516Y-118680946D01*
X168033050Y-118672182D01*
X167908109Y-118500213D01*
X167757786Y-118349890D01*
X167585820Y-118224951D01*
X167396414Y-118128444D01*
X167396413Y-118128443D01*
X167396412Y-118128443D01*
X167194243Y-118062754D01*
X167194241Y-118062753D01*
X167194240Y-118062753D01*
X167032957Y-118037208D01*
X166984287Y-118029500D01*
X166771713Y-118029500D01*
X166723042Y-118037208D01*
X166561760Y-118062753D01*
X166460672Y-118095598D01*
X166390516Y-118118394D01*
X166359585Y-118128444D01*
X166170179Y-118224951D01*
X165998213Y-118349890D01*
X165847890Y-118500213D01*
X165722949Y-118672182D01*
X165718202Y-118681499D01*
X165670227Y-118732293D01*
X165602405Y-118749087D01*
X165536271Y-118726548D01*
X165497234Y-118681495D01*
X165492626Y-118672452D01*
X165453270Y-118618282D01*
X165453269Y-118618282D01*
X164820962Y-119250590D01*
X164803925Y-119187007D01*
X164738099Y-119072993D01*
X164645007Y-118979901D01*
X164530993Y-118914075D01*
X164467409Y-118897037D01*
X165099716Y-118264728D01*
X165045550Y-118225375D01*
X164856217Y-118128904D01*
X164654129Y-118063242D01*
X164444246Y-118030000D01*
X164231754Y-118030000D01*
X164021872Y-118063242D01*
X164021869Y-118063242D01*
X163819782Y-118128904D01*
X163630439Y-118225380D01*
X163576282Y-118264727D01*
X163576282Y-118264728D01*
X164208591Y-118897037D01*
X164145007Y-118914075D01*
X164030993Y-118979901D01*
X163937901Y-119072993D01*
X163872075Y-119187007D01*
X163855037Y-119250591D01*
X163222728Y-118618282D01*
X163222727Y-118618282D01*
X163183380Y-118672440D01*
X163183376Y-118672446D01*
X163178760Y-118681505D01*
X163130781Y-118732297D01*
X163062959Y-118749087D01*
X162996826Y-118726543D01*
X162957794Y-118681493D01*
X162953051Y-118672184D01*
X162953049Y-118672181D01*
X162953048Y-118672179D01*
X162828109Y-118500213D01*
X162677786Y-118349890D01*
X162505820Y-118224951D01*
X162316414Y-118128444D01*
X162316413Y-118128443D01*
X162316412Y-118128443D01*
X162114243Y-118062754D01*
X162114241Y-118062753D01*
X162114240Y-118062753D01*
X161952957Y-118037208D01*
X161904287Y-118029500D01*
X161691713Y-118029500D01*
X161643042Y-118037208D01*
X161481760Y-118062753D01*
X161380672Y-118095598D01*
X161310516Y-118118394D01*
X161279585Y-118128444D01*
X161090179Y-118224951D01*
X160918213Y-118349890D01*
X160767890Y-118500213D01*
X160642949Y-118672182D01*
X160638484Y-118680946D01*
X160590509Y-118731742D01*
X160522688Y-118748536D01*
X160456553Y-118725998D01*
X160417516Y-118680946D01*
X160413050Y-118672182D01*
X160288109Y-118500213D01*
X160137786Y-118349890D01*
X159965820Y-118224951D01*
X159776414Y-118128444D01*
X159776413Y-118128443D01*
X159776412Y-118128443D01*
X159574243Y-118062754D01*
X159574241Y-118062753D01*
X159574240Y-118062753D01*
X159412957Y-118037208D01*
X159364287Y-118029500D01*
X159151713Y-118029500D01*
X159103042Y-118037208D01*
X158941760Y-118062753D01*
X158840672Y-118095598D01*
X158770516Y-118118394D01*
X158739585Y-118128444D01*
X158550179Y-118224951D01*
X158378213Y-118349890D01*
X158227890Y-118500213D01*
X158102949Y-118672182D01*
X158098484Y-118680946D01*
X158050509Y-118731742D01*
X157982688Y-118748536D01*
X157916553Y-118725998D01*
X157877516Y-118680946D01*
X157873050Y-118672182D01*
X157748109Y-118500213D01*
X157597786Y-118349890D01*
X157425820Y-118224951D01*
X157236414Y-118128444D01*
X157236413Y-118128443D01*
X157236412Y-118128443D01*
X157034243Y-118062754D01*
X157034241Y-118062753D01*
X157034240Y-118062753D01*
X156872957Y-118037208D01*
X156824287Y-118029500D01*
X156611713Y-118029500D01*
X156563042Y-118037208D01*
X156401760Y-118062753D01*
X156300672Y-118095598D01*
X156230516Y-118118394D01*
X156199585Y-118128444D01*
X156010179Y-118224951D01*
X155838215Y-118349889D01*
X155724673Y-118463431D01*
X155663350Y-118496915D01*
X155593658Y-118491931D01*
X155537725Y-118450059D01*
X155520810Y-118419082D01*
X155471797Y-118287671D01*
X155471793Y-118287664D01*
X155385547Y-118172455D01*
X155385544Y-118172452D01*
X155270335Y-118086206D01*
X155270328Y-118086202D01*
X155135482Y-118035908D01*
X155135483Y-118035908D01*
X155075883Y-118029501D01*
X155075881Y-118029500D01*
X155075873Y-118029500D01*
X155075864Y-118029500D01*
X153280129Y-118029500D01*
X153280123Y-118029501D01*
X153220516Y-118035908D01*
X153085671Y-118086202D01*
X153085664Y-118086206D01*
X152970455Y-118172452D01*
X152970452Y-118172455D01*
X152884206Y-118287664D01*
X152884202Y-118287671D01*
X152833908Y-118422517D01*
X152827501Y-118482116D01*
X152827500Y-118482135D01*
X152827500Y-120277870D01*
X152827501Y-120277876D01*
X152833908Y-120337483D01*
X152872879Y-120441968D01*
X152877863Y-120511660D01*
X152844378Y-120572983D01*
X152839380Y-120577711D01*
X150495188Y-122675146D01*
X150432101Y-122705178D01*
X150362794Y-122696335D01*
X150324824Y-122670417D01*
X150320163Y-122665756D01*
X150320158Y-122665752D01*
X150141825Y-122536187D01*
X150141824Y-122536186D01*
X150141822Y-122536185D01*
X150046515Y-122487623D01*
X149945406Y-122436104D01*
X149945403Y-122436103D01*
X149735752Y-122367985D01*
X149605461Y-122347349D01*
X149518022Y-122333500D01*
X149297578Y-122333500D01*
X149225001Y-122344995D01*
X149079847Y-122367985D01*
X148870196Y-122436103D01*
X148870193Y-122436104D01*
X148673774Y-122536187D01*
X148495441Y-122665752D01*
X148495436Y-122665756D01*
X148339556Y-122821636D01*
X148339552Y-122821641D01*
X148209987Y-122999974D01*
X148109904Y-123196393D01*
X148109903Y-123196396D01*
X148041785Y-123406047D01*
X148012112Y-123593398D01*
X147982183Y-123656532D01*
X147922872Y-123693464D01*
X147889639Y-123698000D01*
X144410597Y-123698000D01*
X144343558Y-123678315D01*
X144322916Y-123661681D01*
X143892819Y-123231584D01*
X143859334Y-123170261D01*
X143856500Y-123143903D01*
X143856500Y-121563682D01*
X144242000Y-121563682D01*
X144242000Y-121768317D01*
X144274009Y-121970417D01*
X144337244Y-122165031D01*
X144430141Y-122347350D01*
X144430147Y-122347359D01*
X144462523Y-122391921D01*
X144462524Y-122391922D01*
X145142000Y-121712446D01*
X145142000Y-121718661D01*
X145169259Y-121820394D01*
X145221920Y-121911606D01*
X145296394Y-121986080D01*
X145387606Y-122038741D01*
X145489339Y-122066000D01*
X145495553Y-122066000D01*
X144816076Y-122745474D01*
X144860650Y-122777859D01*
X145042968Y-122870755D01*
X145237582Y-122933990D01*
X145439683Y-122966000D01*
X145644317Y-122966000D01*
X145846417Y-122933990D01*
X146041031Y-122870755D01*
X146223349Y-122777859D01*
X146267921Y-122745474D01*
X145588447Y-122066000D01*
X145594661Y-122066000D01*
X145696394Y-122038741D01*
X145787606Y-121986080D01*
X145862080Y-121911606D01*
X145914741Y-121820394D01*
X145942000Y-121718661D01*
X145942000Y-121712448D01*
X146621474Y-122391922D01*
X146621474Y-122391921D01*
X146653859Y-122347349D01*
X146746755Y-122165031D01*
X146809990Y-121970417D01*
X146842000Y-121768317D01*
X146842000Y-121563682D01*
X146809990Y-121361582D01*
X146746755Y-121166968D01*
X146653859Y-120984650D01*
X146621474Y-120940077D01*
X146621474Y-120940076D01*
X145942000Y-121619551D01*
X145942000Y-121613339D01*
X145914741Y-121511606D01*
X145862080Y-121420394D01*
X145787606Y-121345920D01*
X145696394Y-121293259D01*
X145594661Y-121266000D01*
X145588446Y-121266000D01*
X146267922Y-120586524D01*
X146267921Y-120586523D01*
X146223359Y-120554147D01*
X146223350Y-120554141D01*
X146041031Y-120461244D01*
X145846417Y-120398009D01*
X145644317Y-120366000D01*
X145439683Y-120366000D01*
X145237582Y-120398009D01*
X145042968Y-120461244D01*
X144860644Y-120554143D01*
X144816077Y-120586523D01*
X144816077Y-120586524D01*
X145495554Y-121266000D01*
X145489339Y-121266000D01*
X145387606Y-121293259D01*
X145296394Y-121345920D01*
X145221920Y-121420394D01*
X145169259Y-121511606D01*
X145142000Y-121613339D01*
X145142000Y-121619553D01*
X144462524Y-120940077D01*
X144462523Y-120940077D01*
X144430143Y-120984644D01*
X144337244Y-121166968D01*
X144274009Y-121361582D01*
X144242000Y-121563682D01*
X143856500Y-121563682D01*
X143856500Y-118261682D01*
X148052000Y-118261682D01*
X148052000Y-118466317D01*
X148084009Y-118668417D01*
X148147244Y-118863031D01*
X148240141Y-119045350D01*
X148240147Y-119045359D01*
X148272523Y-119089921D01*
X148272524Y-119089922D01*
X148952000Y-118410446D01*
X148952000Y-118416661D01*
X148979259Y-118518394D01*
X149031920Y-118609606D01*
X149106394Y-118684080D01*
X149197606Y-118736741D01*
X149299339Y-118764000D01*
X149305553Y-118764000D01*
X148626076Y-119443474D01*
X148670650Y-119475859D01*
X148852968Y-119568755D01*
X149047582Y-119631990D01*
X149249683Y-119664000D01*
X149454317Y-119664000D01*
X149656417Y-119631990D01*
X149851031Y-119568755D01*
X150033349Y-119475859D01*
X150077921Y-119443474D01*
X149398447Y-118764000D01*
X149404661Y-118764000D01*
X149506394Y-118736741D01*
X149597606Y-118684080D01*
X149672080Y-118609606D01*
X149724741Y-118518394D01*
X149752000Y-118416661D01*
X149752000Y-118410447D01*
X150431474Y-119089921D01*
X150463859Y-119045349D01*
X150556755Y-118863031D01*
X150619990Y-118668417D01*
X150652000Y-118466317D01*
X150652000Y-118261682D01*
X150619990Y-118059582D01*
X150556755Y-117864968D01*
X150463859Y-117682650D01*
X150431474Y-117638077D01*
X150431474Y-117638076D01*
X149752000Y-118317551D01*
X149752000Y-118311339D01*
X149724741Y-118209606D01*
X149672080Y-118118394D01*
X149597606Y-118043920D01*
X149506394Y-117991259D01*
X149404661Y-117964000D01*
X149398446Y-117964000D01*
X150077922Y-117284524D01*
X150077921Y-117284523D01*
X150033359Y-117252147D01*
X150033350Y-117252141D01*
X149851031Y-117159244D01*
X149656417Y-117096009D01*
X149454317Y-117064000D01*
X149249683Y-117064000D01*
X149047582Y-117096009D01*
X148852968Y-117159244D01*
X148670644Y-117252143D01*
X148626077Y-117284523D01*
X148626077Y-117284524D01*
X149305554Y-117964000D01*
X149299339Y-117964000D01*
X149197606Y-117991259D01*
X149106394Y-118043920D01*
X149031920Y-118118394D01*
X148979259Y-118209606D01*
X148952000Y-118311339D01*
X148952000Y-118317553D01*
X148272524Y-117638077D01*
X148272523Y-117638077D01*
X148240143Y-117682644D01*
X148147244Y-117864968D01*
X148084009Y-118059582D01*
X148052000Y-118261682D01*
X143856500Y-118261682D01*
X143856500Y-114959682D01*
X144242000Y-114959682D01*
X144242000Y-115164317D01*
X144274009Y-115366417D01*
X144337244Y-115561031D01*
X144430141Y-115743350D01*
X144430147Y-115743359D01*
X144462523Y-115787921D01*
X144462524Y-115787922D01*
X145142000Y-115108446D01*
X145142000Y-115114661D01*
X145169259Y-115216394D01*
X145221920Y-115307606D01*
X145296394Y-115382080D01*
X145387606Y-115434741D01*
X145489339Y-115462000D01*
X145495553Y-115462000D01*
X144816076Y-116141474D01*
X144860650Y-116173859D01*
X145042968Y-116266755D01*
X145237582Y-116329990D01*
X145439683Y-116362000D01*
X145644317Y-116362000D01*
X145846417Y-116329990D01*
X146041031Y-116266755D01*
X146223349Y-116173859D01*
X146267921Y-116141474D01*
X145588447Y-115462000D01*
X145594661Y-115462000D01*
X145696394Y-115434741D01*
X145787606Y-115382080D01*
X145862080Y-115307606D01*
X145914741Y-115216394D01*
X145942000Y-115114661D01*
X145942000Y-115108448D01*
X146621474Y-115787922D01*
X146621475Y-115787921D01*
X146636438Y-115767328D01*
X146653860Y-115743348D01*
X146746755Y-115561031D01*
X146809990Y-115366417D01*
X146842000Y-115164317D01*
X146842000Y-114959682D01*
X146809990Y-114757582D01*
X146803996Y-114739135D01*
X146793126Y-114705682D01*
X162824000Y-114705682D01*
X162824000Y-114910317D01*
X162856009Y-115112417D01*
X162919244Y-115307031D01*
X163012141Y-115489350D01*
X163012147Y-115489359D01*
X163044523Y-115533921D01*
X163044524Y-115533922D01*
X163724000Y-114854446D01*
X163724000Y-114860661D01*
X163751259Y-114962394D01*
X163803920Y-115053606D01*
X163878394Y-115128080D01*
X163969606Y-115180741D01*
X164071339Y-115208000D01*
X164077553Y-115208000D01*
X163398076Y-115887474D01*
X163442650Y-115919859D01*
X163624968Y-116012755D01*
X163819582Y-116075990D01*
X164021683Y-116108000D01*
X164226317Y-116108000D01*
X164428417Y-116075990D01*
X164623031Y-116012755D01*
X164805349Y-115919859D01*
X164849921Y-115887474D01*
X164170447Y-115208000D01*
X164176661Y-115208000D01*
X164278394Y-115180741D01*
X164369606Y-115128080D01*
X164444080Y-115053606D01*
X164496741Y-114962394D01*
X164524000Y-114860661D01*
X164524000Y-114854447D01*
X165203474Y-115533921D01*
X165235859Y-115489349D01*
X165328755Y-115307031D01*
X165391990Y-115112417D01*
X165424000Y-114910317D01*
X165424000Y-114705682D01*
X165423995Y-114705648D01*
X167823500Y-114705648D01*
X167823500Y-114910352D01*
X167827878Y-114937995D01*
X167855522Y-115112534D01*
X167918781Y-115307223D01*
X167973979Y-115415553D01*
X168011585Y-115489359D01*
X168011715Y-115489613D01*
X168132028Y-115655213D01*
X168276786Y-115799971D01*
X168410317Y-115896985D01*
X168442390Y-115920287D01*
X168558607Y-115979503D01*
X168624776Y-116013218D01*
X168624778Y-116013218D01*
X168624781Y-116013220D01*
X168696171Y-116036416D01*
X168819465Y-116076477D01*
X168920557Y-116092488D01*
X169021648Y-116108500D01*
X169021649Y-116108500D01*
X169226351Y-116108500D01*
X169226352Y-116108500D01*
X169428534Y-116076477D01*
X169623219Y-116013220D01*
X169805610Y-115920287D01*
X169936044Y-115825522D01*
X169971213Y-115799971D01*
X169971215Y-115799968D01*
X169971219Y-115799966D01*
X170115966Y-115655219D01*
X170115968Y-115655215D01*
X170115971Y-115655213D01*
X170168732Y-115582590D01*
X170236287Y-115489610D01*
X170329220Y-115307219D01*
X170392477Y-115112534D01*
X170424500Y-114910352D01*
X170424500Y-114705648D01*
X170401871Y-114562776D01*
X170392477Y-114503465D01*
X170338089Y-114336077D01*
X170329220Y-114308781D01*
X170329218Y-114308778D01*
X170329218Y-114308776D01*
X170281327Y-114214786D01*
X170236287Y-114126390D01*
X170204092Y-114082077D01*
X170115971Y-113960786D01*
X169971213Y-113816028D01*
X169805613Y-113695715D01*
X169805612Y-113695714D01*
X169805610Y-113695713D01*
X169721218Y-113652713D01*
X169623223Y-113602781D01*
X169428534Y-113539522D01*
X169253995Y-113511878D01*
X169226352Y-113507500D01*
X169021648Y-113507500D01*
X168997329Y-113511351D01*
X168819465Y-113539522D01*
X168624776Y-113602781D01*
X168442386Y-113695715D01*
X168276786Y-113816028D01*
X168132028Y-113960786D01*
X168011715Y-114126386D01*
X167918781Y-114308776D01*
X167855522Y-114503465D01*
X167830413Y-114662000D01*
X167823500Y-114705648D01*
X165423995Y-114705648D01*
X165391990Y-114503582D01*
X165328755Y-114308968D01*
X165235859Y-114126650D01*
X165203474Y-114082077D01*
X165203474Y-114082076D01*
X164524000Y-114761551D01*
X164524000Y-114755339D01*
X164496741Y-114653606D01*
X164444080Y-114562394D01*
X164369606Y-114487920D01*
X164278394Y-114435259D01*
X164176661Y-114408000D01*
X164170446Y-114408000D01*
X164849922Y-113728524D01*
X164849921Y-113728523D01*
X164805359Y-113696147D01*
X164805350Y-113696141D01*
X164623031Y-113603244D01*
X164428417Y-113540009D01*
X164226317Y-113508000D01*
X164021683Y-113508000D01*
X163819582Y-113540009D01*
X163624968Y-113603244D01*
X163442644Y-113696143D01*
X163398077Y-113728523D01*
X163398077Y-113728524D01*
X164077554Y-114408000D01*
X164071339Y-114408000D01*
X163969606Y-114435259D01*
X163878394Y-114487920D01*
X163803920Y-114562394D01*
X163751259Y-114653606D01*
X163724000Y-114755339D01*
X163724000Y-114761553D01*
X163044524Y-114082077D01*
X163044523Y-114082077D01*
X163012143Y-114126644D01*
X162919244Y-114308968D01*
X162856009Y-114503582D01*
X162824000Y-114705682D01*
X146793126Y-114705682D01*
X146746755Y-114562968D01*
X146653859Y-114380650D01*
X146621474Y-114336077D01*
X146621474Y-114336076D01*
X145942000Y-115015551D01*
X145942000Y-115009339D01*
X145914741Y-114907606D01*
X145862080Y-114816394D01*
X145787606Y-114741920D01*
X145696394Y-114689259D01*
X145594661Y-114662000D01*
X145588446Y-114662000D01*
X146267922Y-113982524D01*
X146267921Y-113982523D01*
X146223359Y-113950147D01*
X146223350Y-113950141D01*
X146097992Y-113886268D01*
X146041031Y-113857244D01*
X145846417Y-113794009D01*
X145644317Y-113762000D01*
X145439683Y-113762000D01*
X145237582Y-113794009D01*
X145042968Y-113857244D01*
X144860644Y-113950143D01*
X144816077Y-113982523D01*
X144816077Y-113982524D01*
X145495554Y-114662000D01*
X145489339Y-114662000D01*
X145387606Y-114689259D01*
X145296394Y-114741920D01*
X145221920Y-114816394D01*
X145169259Y-114907606D01*
X145142000Y-115009339D01*
X145142000Y-115015553D01*
X144462524Y-114336077D01*
X144462523Y-114336077D01*
X144430143Y-114380644D01*
X144337244Y-114562968D01*
X144274009Y-114757582D01*
X144242000Y-114959682D01*
X143856500Y-114959682D01*
X143856500Y-111657682D01*
X148052000Y-111657682D01*
X148052000Y-111862317D01*
X148084009Y-112064417D01*
X148147244Y-112259031D01*
X148240141Y-112441350D01*
X148240147Y-112441359D01*
X148272523Y-112485921D01*
X148272524Y-112485922D01*
X148952000Y-111806446D01*
X148952000Y-111812661D01*
X148979259Y-111914394D01*
X149031920Y-112005606D01*
X149106394Y-112080080D01*
X149197606Y-112132741D01*
X149299339Y-112160000D01*
X149305553Y-112160000D01*
X148626076Y-112839474D01*
X148670650Y-112871859D01*
X148852968Y-112964755D01*
X149047582Y-113027990D01*
X149249683Y-113060000D01*
X149454317Y-113060000D01*
X149656417Y-113027990D01*
X149851031Y-112964755D01*
X150033349Y-112871859D01*
X150077921Y-112839474D01*
X149398447Y-112160000D01*
X149404661Y-112160000D01*
X149506394Y-112132741D01*
X149597606Y-112080080D01*
X149672080Y-112005606D01*
X149724741Y-111914394D01*
X149752000Y-111812661D01*
X149752000Y-111806447D01*
X150431474Y-112485921D01*
X150463859Y-112441349D01*
X150556755Y-112259031D01*
X150619990Y-112064417D01*
X150652000Y-111862317D01*
X150652000Y-111657682D01*
X154402000Y-111657682D01*
X154402000Y-111862317D01*
X154434009Y-112064417D01*
X154497244Y-112259031D01*
X154590141Y-112441350D01*
X154590147Y-112441359D01*
X154622523Y-112485921D01*
X154622524Y-112485922D01*
X155302000Y-111806446D01*
X155302000Y-111812661D01*
X155329259Y-111914394D01*
X155381920Y-112005606D01*
X155456394Y-112080080D01*
X155547606Y-112132741D01*
X155649339Y-112160000D01*
X155655553Y-112160000D01*
X154976076Y-112839474D01*
X155020650Y-112871859D01*
X155202968Y-112964755D01*
X155397582Y-113027990D01*
X155599683Y-113060000D01*
X155804317Y-113060000D01*
X156006417Y-113027990D01*
X156201031Y-112964755D01*
X156383349Y-112871859D01*
X156427921Y-112839474D01*
X155748447Y-112160000D01*
X155754661Y-112160000D01*
X155856394Y-112132741D01*
X155947606Y-112080080D01*
X156022080Y-112005606D01*
X156074741Y-111914394D01*
X156102000Y-111812661D01*
X156102000Y-111806448D01*
X156781474Y-112485922D01*
X156781474Y-112485921D01*
X156813859Y-112441349D01*
X156906755Y-112259031D01*
X156969990Y-112064417D01*
X157002000Y-111862317D01*
X157002000Y-111657682D01*
X157001995Y-111657648D01*
X164561500Y-111657648D01*
X164561500Y-111862351D01*
X164593522Y-112064534D01*
X164656781Y-112259223D01*
X164708385Y-112360500D01*
X164749585Y-112441359D01*
X164749715Y-112441613D01*
X164870028Y-112607213D01*
X165014786Y-112751971D01*
X165169749Y-112864556D01*
X165180390Y-112872287D01*
X165296607Y-112931503D01*
X165362776Y-112965218D01*
X165362778Y-112965218D01*
X165362781Y-112965220D01*
X165467137Y-112999127D01*
X165557465Y-113028477D01*
X165658557Y-113044488D01*
X165759648Y-113060500D01*
X165759649Y-113060500D01*
X165964351Y-113060500D01*
X165964352Y-113060500D01*
X166166534Y-113028477D01*
X166361219Y-112965220D01*
X166543610Y-112872287D01*
X166636590Y-112804732D01*
X166709213Y-112751971D01*
X166709215Y-112751968D01*
X166709219Y-112751966D01*
X166853966Y-112607219D01*
X166853968Y-112607215D01*
X166853971Y-112607213D01*
X166974284Y-112441614D01*
X166974285Y-112441613D01*
X166974287Y-112441610D01*
X166981117Y-112428204D01*
X166991566Y-112417140D01*
X166997889Y-112403297D01*
X167015068Y-112392256D01*
X167029091Y-112377409D01*
X167044772Y-112373167D01*
X167056667Y-112365523D01*
X167091602Y-112360500D01*
X167172398Y-112360500D01*
X167239437Y-112380185D01*
X167282883Y-112428205D01*
X167289715Y-112441614D01*
X167410028Y-112607213D01*
X167554786Y-112751971D01*
X167709749Y-112864556D01*
X167720390Y-112872287D01*
X167836607Y-112931503D01*
X167902776Y-112965218D01*
X167902778Y-112965218D01*
X167902781Y-112965220D01*
X168007137Y-112999127D01*
X168097465Y-113028477D01*
X168198557Y-113044488D01*
X168299648Y-113060500D01*
X168299649Y-113060500D01*
X168504351Y-113060500D01*
X168504352Y-113060500D01*
X168706534Y-113028477D01*
X168901219Y-112965220D01*
X169083610Y-112872287D01*
X169176590Y-112804732D01*
X169249213Y-112751971D01*
X169249215Y-112751968D01*
X169249219Y-112751966D01*
X169393966Y-112607219D01*
X169393968Y-112607215D01*
X169393971Y-112607213D01*
X169456960Y-112520515D01*
X169514287Y-112441610D01*
X169607220Y-112259219D01*
X169670477Y-112064534D01*
X169702500Y-111862352D01*
X169702500Y-111657648D01*
X169699406Y-111638114D01*
X169708360Y-111568821D01*
X169734195Y-111531038D01*
X170392417Y-110872819D01*
X170453740Y-110839334D01*
X170480098Y-110836500D01*
X177382092Y-110836500D01*
X177449131Y-110856185D01*
X177494886Y-110908989D01*
X177504830Y-110978147D01*
X177482410Y-111033385D01*
X177449715Y-111078386D01*
X177356781Y-111260776D01*
X177293522Y-111455465D01*
X177261500Y-111657648D01*
X177261500Y-111862351D01*
X177293522Y-112064534D01*
X177356781Y-112259223D01*
X177408385Y-112360500D01*
X177449585Y-112441359D01*
X177449715Y-112441613D01*
X177570028Y-112607213D01*
X177714786Y-112751971D01*
X177869749Y-112864556D01*
X177880390Y-112872287D01*
X177996607Y-112931503D01*
X178062776Y-112965218D01*
X178062778Y-112965218D01*
X178062781Y-112965220D01*
X178167137Y-112999127D01*
X178257465Y-113028477D01*
X178358557Y-113044488D01*
X178459648Y-113060500D01*
X178459649Y-113060500D01*
X178664351Y-113060500D01*
X178664352Y-113060500D01*
X178866534Y-113028477D01*
X179061219Y-112965220D01*
X179243610Y-112872287D01*
X179336590Y-112804732D01*
X179409213Y-112751971D01*
X179409215Y-112751968D01*
X179409219Y-112751966D01*
X179553966Y-112607219D01*
X179553968Y-112607215D01*
X179553971Y-112607213D01*
X179616960Y-112520515D01*
X179674287Y-112441610D01*
X179767220Y-112259219D01*
X179830477Y-112064534D01*
X179857055Y-111896725D01*
X179886984Y-111833592D01*
X179946296Y-111796661D01*
X180016158Y-111797659D01*
X180067209Y-111828444D01*
X181287452Y-113048687D01*
X181307156Y-113074364D01*
X181320480Y-113097442D01*
X181320482Y-113097444D01*
X181915558Y-113692520D01*
X181938628Y-113705839D01*
X181964310Y-113725546D01*
X182003284Y-113764520D01*
X182003286Y-113764521D01*
X182003290Y-113764524D01*
X182102857Y-113822008D01*
X182140216Y-113843577D01*
X182252019Y-113873534D01*
X182292942Y-113884500D01*
X182292943Y-113884500D01*
X183301331Y-113884500D01*
X183301347Y-113884501D01*
X183308943Y-113884501D01*
X183467054Y-113884501D01*
X183467057Y-113884501D01*
X183619785Y-113843577D01*
X183692664Y-113801500D01*
X183756716Y-113764520D01*
X183868520Y-113652716D01*
X183868520Y-113652714D01*
X183878724Y-113642511D01*
X183878728Y-113642506D01*
X184109881Y-113411352D01*
X184155928Y-113382233D01*
X184164469Y-113379188D01*
X184195127Y-113373091D01*
X184278687Y-113338478D01*
X184281620Y-113337433D01*
X184313507Y-113335620D01*
X184345267Y-113332205D01*
X184348537Y-113333628D01*
X184351378Y-113333467D01*
X184362140Y-113339549D01*
X184390658Y-113351962D01*
X184390886Y-113351546D01*
X184395540Y-113354087D01*
X184397562Y-113354967D01*
X184398669Y-113355796D01*
X184398670Y-113355796D01*
X184398671Y-113355797D01*
X184533517Y-113406091D01*
X184533516Y-113406091D01*
X184540444Y-113406835D01*
X184593127Y-113412500D01*
X185738872Y-113412499D01*
X185798483Y-113406091D01*
X185933331Y-113355796D01*
X186048546Y-113269546D01*
X186134796Y-113154331D01*
X186185091Y-113019483D01*
X186191500Y-112959873D01*
X186191500Y-112886500D01*
X186194050Y-112877814D01*
X186192762Y-112868853D01*
X186203740Y-112844812D01*
X186211185Y-112819461D01*
X186218025Y-112813533D01*
X186221787Y-112805297D01*
X186244021Y-112791007D01*
X186263989Y-112773706D01*
X186274503Y-112771418D01*
X186280565Y-112767523D01*
X186315500Y-112762500D01*
X186455331Y-112762500D01*
X186455347Y-112762501D01*
X186462943Y-112762501D01*
X186621054Y-112762501D01*
X186621057Y-112762501D01*
X186773785Y-112721577D01*
X186839736Y-112683500D01*
X186910716Y-112642520D01*
X187022520Y-112530716D01*
X187022520Y-112530714D01*
X187032720Y-112520515D01*
X187032723Y-112520510D01*
X187156417Y-112396817D01*
X187217740Y-112363334D01*
X187244097Y-112360500D01*
X188762398Y-112360500D01*
X188829437Y-112380185D01*
X188872883Y-112428205D01*
X188879715Y-112441614D01*
X189000028Y-112607213D01*
X189144786Y-112751971D01*
X189299749Y-112864556D01*
X189310390Y-112872287D01*
X189426607Y-112931503D01*
X189492776Y-112965218D01*
X189492778Y-112965218D01*
X189492781Y-112965220D01*
X189597137Y-112999127D01*
X189687465Y-113028477D01*
X189788557Y-113044488D01*
X189889648Y-113060500D01*
X189889649Y-113060500D01*
X190094351Y-113060500D01*
X190094352Y-113060500D01*
X190296534Y-113028477D01*
X190491219Y-112965220D01*
X190673610Y-112872287D01*
X190766590Y-112804732D01*
X190839213Y-112751971D01*
X190839215Y-112751968D01*
X190839219Y-112751966D01*
X190983966Y-112607219D01*
X190983968Y-112607215D01*
X190983971Y-112607213D01*
X191046960Y-112520515D01*
X191104287Y-112441610D01*
X191197220Y-112259219D01*
X191260477Y-112064534D01*
X191292500Y-111862352D01*
X191292500Y-111657648D01*
X198851500Y-111657648D01*
X198851500Y-111862351D01*
X198883522Y-112064534D01*
X198946781Y-112259223D01*
X198998385Y-112360500D01*
X199039585Y-112441359D01*
X199039715Y-112441613D01*
X199160028Y-112607213D01*
X199304786Y-112751971D01*
X199459749Y-112864556D01*
X199470390Y-112872287D01*
X199586607Y-112931503D01*
X199652776Y-112965218D01*
X199652778Y-112965218D01*
X199652781Y-112965220D01*
X199757137Y-112999127D01*
X199847465Y-113028477D01*
X199948557Y-113044488D01*
X200049648Y-113060500D01*
X200049649Y-113060500D01*
X200254351Y-113060500D01*
X200254352Y-113060500D01*
X200456534Y-113028477D01*
X200651219Y-112965220D01*
X200833610Y-112872287D01*
X200926590Y-112804732D01*
X200999213Y-112751971D01*
X200999215Y-112751968D01*
X200999219Y-112751966D01*
X201143966Y-112607219D01*
X201143968Y-112607215D01*
X201143971Y-112607213D01*
X201206960Y-112520515D01*
X201264287Y-112441610D01*
X201357220Y-112259219D01*
X201420477Y-112064534D01*
X201452500Y-111862352D01*
X201452500Y-111657648D01*
X201444479Y-111607004D01*
X201420477Y-111455465D01*
X201381727Y-111336207D01*
X201357220Y-111260781D01*
X201357218Y-111260778D01*
X201357218Y-111260776D01*
X201310793Y-111169664D01*
X201264287Y-111078390D01*
X201238680Y-111043145D01*
X201143971Y-110912786D01*
X200999213Y-110768028D01*
X200833613Y-110647715D01*
X200833612Y-110647714D01*
X200833610Y-110647713D01*
X200776653Y-110618691D01*
X200651223Y-110554781D01*
X200456534Y-110491522D01*
X200281995Y-110463878D01*
X200254352Y-110459500D01*
X200049648Y-110459500D01*
X200025329Y-110463351D01*
X199847465Y-110491522D01*
X199652776Y-110554781D01*
X199470386Y-110647715D01*
X199304786Y-110768028D01*
X199160028Y-110912786D01*
X199039715Y-111078386D01*
X198946781Y-111260776D01*
X198883522Y-111455465D01*
X198851500Y-111657648D01*
X191292500Y-111657648D01*
X191284479Y-111607004D01*
X191260477Y-111455465D01*
X191221727Y-111336207D01*
X191197220Y-111260781D01*
X191197218Y-111260778D01*
X191197218Y-111260776D01*
X191150793Y-111169664D01*
X191104287Y-111078390D01*
X191078680Y-111043145D01*
X190983971Y-110912786D01*
X190839213Y-110768028D01*
X190673613Y-110647715D01*
X190673612Y-110647714D01*
X190673610Y-110647713D01*
X190616653Y-110618691D01*
X190491223Y-110554781D01*
X190296534Y-110491522D01*
X190121995Y-110463878D01*
X190094352Y-110459500D01*
X189889648Y-110459500D01*
X189865329Y-110463351D01*
X189687465Y-110491522D01*
X189492776Y-110554781D01*
X189310386Y-110647715D01*
X189144786Y-110768028D01*
X189000028Y-110912786D01*
X188879715Y-111078385D01*
X188872883Y-111091795D01*
X188824909Y-111142591D01*
X188762398Y-111159500D01*
X187030669Y-111159500D01*
X187030653Y-111159499D01*
X187023057Y-111159499D01*
X186864943Y-111159499D01*
X186757587Y-111188265D01*
X186712210Y-111200424D01*
X186712209Y-111200425D01*
X186662096Y-111229359D01*
X186662095Y-111229360D01*
X186618689Y-111254420D01*
X186575285Y-111279479D01*
X186575282Y-111279481D01*
X186403180Y-111451584D01*
X186341857Y-111485069D01*
X186272165Y-111480085D01*
X186216232Y-111438213D01*
X186191815Y-111372749D01*
X186191523Y-111364583D01*
X186191499Y-111364141D01*
X186191499Y-111364128D01*
X186185091Y-111304517D01*
X186179430Y-111289340D01*
X186134797Y-111169671D01*
X186134793Y-111169664D01*
X186048547Y-111054455D01*
X186048544Y-111054452D01*
X185933335Y-110968206D01*
X185933328Y-110968202D01*
X185798482Y-110917908D01*
X185798483Y-110917908D01*
X185738883Y-110911501D01*
X185738881Y-110911500D01*
X185738873Y-110911500D01*
X185738864Y-110911500D01*
X184593129Y-110911500D01*
X184593123Y-110911501D01*
X184533516Y-110917908D01*
X184398672Y-110968202D01*
X184398665Y-110968206D01*
X184397556Y-110969037D01*
X184396258Y-110969520D01*
X184390887Y-110972454D01*
X184390465Y-110971681D01*
X184332090Y-110993449D01*
X184275800Y-110984325D01*
X184195127Y-110950909D01*
X184195119Y-110950907D01*
X183997007Y-110911500D01*
X183997003Y-110911500D01*
X183794997Y-110911500D01*
X183794992Y-110911500D01*
X183596880Y-110950907D01*
X183596872Y-110950909D01*
X183410235Y-111028217D01*
X183408947Y-111028906D01*
X183408194Y-111029062D01*
X183404616Y-111030545D01*
X183404334Y-111029866D01*
X183340544Y-111043145D01*
X183275301Y-111018141D01*
X183233934Y-110961834D01*
X183226500Y-110919545D01*
X183226500Y-109012097D01*
X183246185Y-108945058D01*
X183262819Y-108924416D01*
X185117663Y-107069572D01*
X201356980Y-107069572D01*
X201356980Y-107331827D01*
X201377706Y-107489246D01*
X201391210Y-107591816D01*
X201459082Y-107845118D01*
X201459085Y-107845128D01*
X201559433Y-108087390D01*
X201559438Y-108087400D01*
X201690555Y-108314503D01*
X201850198Y-108522551D01*
X201850206Y-108522560D01*
X202035620Y-108707974D01*
X202035628Y-108707981D01*
X202243676Y-108867624D01*
X202470779Y-108998741D01*
X202470789Y-108998746D01*
X202713051Y-109099094D01*
X202713061Y-109099098D01*
X202966364Y-109166970D01*
X203226360Y-109201200D01*
X203226367Y-109201200D01*
X203488593Y-109201200D01*
X203488600Y-109201200D01*
X203748596Y-109166970D01*
X204001899Y-109099098D01*
X204244177Y-108998743D01*
X204471283Y-108867624D01*
X204679331Y-108707982D01*
X204679335Y-108707977D01*
X204679340Y-108707974D01*
X204864754Y-108522560D01*
X204864757Y-108522555D01*
X204864762Y-108522551D01*
X205024404Y-108314503D01*
X205155523Y-108087397D01*
X205255878Y-107845119D01*
X205323750Y-107591816D01*
X205357980Y-107331820D01*
X205357980Y-107069580D01*
X205323750Y-106809584D01*
X205255878Y-106556281D01*
X205223870Y-106479007D01*
X205155526Y-106314009D01*
X205155517Y-106313992D01*
X205045181Y-106122882D01*
X205045180Y-106122881D01*
X205024404Y-106086896D01*
X204864761Y-105878848D01*
X204864754Y-105878840D01*
X204679340Y-105693426D01*
X204679331Y-105693418D01*
X204471283Y-105533775D01*
X204244180Y-105402658D01*
X204244170Y-105402653D01*
X204001908Y-105302305D01*
X204001901Y-105302303D01*
X204001899Y-105302302D01*
X203748596Y-105234430D01*
X203690819Y-105226823D01*
X203488607Y-105200200D01*
X203488600Y-105200200D01*
X203226360Y-105200200D01*
X203226352Y-105200200D01*
X202995252Y-105230626D01*
X202966364Y-105234430D01*
X202713061Y-105302302D01*
X202713051Y-105302305D01*
X202470789Y-105402653D01*
X202470779Y-105402658D01*
X202243676Y-105533775D01*
X202035628Y-105693418D01*
X201850198Y-105878848D01*
X201690555Y-106086896D01*
X201559438Y-106313999D01*
X201559433Y-106314009D01*
X201459085Y-106556271D01*
X201459082Y-106556281D01*
X201398025Y-106784152D01*
X201391210Y-106809585D01*
X201356980Y-107069572D01*
X185117663Y-107069572D01*
X188896319Y-103290916D01*
X188957642Y-103257431D01*
X189027334Y-103262415D01*
X189083267Y-103304287D01*
X189107684Y-103369751D01*
X189108000Y-103378597D01*
X189108000Y-106560000D01*
X200108000Y-106560000D01*
X200108000Y-99060000D01*
X193426597Y-99060000D01*
X193359558Y-99040315D01*
X193313803Y-98987511D01*
X193303859Y-98918353D01*
X193332884Y-98854797D01*
X193338916Y-98848319D01*
X198591416Y-93595819D01*
X198652739Y-93562334D01*
X198679097Y-93559500D01*
X206805501Y-93559500D01*
X206872540Y-93579185D01*
X206918295Y-93631989D01*
X206929501Y-93683500D01*
X206929501Y-93856876D01*
X206935908Y-93916483D01*
X206986202Y-94051328D01*
X206986206Y-94051335D01*
X207072452Y-94166544D01*
X207072455Y-94166547D01*
X207187664Y-94252793D01*
X207187671Y-94252797D01*
X207201077Y-94257797D01*
X207322517Y-94303091D01*
X207382127Y-94309500D01*
X207392685Y-94309499D01*
X207459723Y-94329179D01*
X207480372Y-94345818D01*
X208150591Y-95016037D01*
X208087007Y-95033075D01*
X207972993Y-95098901D01*
X207879901Y-95191993D01*
X207814075Y-95306007D01*
X207797037Y-95369591D01*
X207164728Y-94737282D01*
X207164727Y-94737282D01*
X207125380Y-94791439D01*
X207028904Y-94980782D01*
X206963242Y-95182869D01*
X206963242Y-95182872D01*
X206930000Y-95392753D01*
X206930000Y-95605246D01*
X206963242Y-95815127D01*
X206963242Y-95815130D01*
X207028904Y-96017217D01*
X207125375Y-96206550D01*
X207164728Y-96260716D01*
X207797037Y-95628408D01*
X207814075Y-95691993D01*
X207879901Y-95806007D01*
X207972993Y-95899099D01*
X208087007Y-95964925D01*
X208150590Y-95981962D01*
X207518282Y-96614269D01*
X207518282Y-96614270D01*
X207572449Y-96653624D01*
X207761782Y-96750095D01*
X207963870Y-96815757D01*
X208173754Y-96849000D01*
X208386246Y-96849000D01*
X208596127Y-96815757D01*
X208596130Y-96815757D01*
X208798217Y-96750095D01*
X208987554Y-96653622D01*
X209041716Y-96614270D01*
X209041717Y-96614270D01*
X208409408Y-95981962D01*
X208472993Y-95964925D01*
X208587007Y-95899099D01*
X208680099Y-95806007D01*
X208745925Y-95691993D01*
X208762962Y-95628408D01*
X209395270Y-96260717D01*
X209395270Y-96260716D01*
X209434622Y-96206554D01*
X209531095Y-96017217D01*
X209596757Y-95815130D01*
X209596757Y-95815127D01*
X209630000Y-95605246D01*
X209630000Y-95392753D01*
X209596757Y-95182872D01*
X209596757Y-95182869D01*
X209531095Y-94980782D01*
X209434624Y-94791449D01*
X209395270Y-94737282D01*
X209395269Y-94737282D01*
X208762962Y-95369590D01*
X208745925Y-95306007D01*
X208680099Y-95191993D01*
X208587007Y-95098901D01*
X208472993Y-95033075D01*
X208409409Y-95016037D01*
X209079627Y-94345818D01*
X209140950Y-94312333D01*
X209167307Y-94309499D01*
X209177872Y-94309499D01*
X209237483Y-94303091D01*
X209372331Y-94252796D01*
X209487546Y-94166546D01*
X209573796Y-94051331D01*
X209624091Y-93916483D01*
X209630500Y-93856873D01*
X209630499Y-92061128D01*
X209625299Y-92012757D01*
X209624091Y-92001516D01*
X209573797Y-91866671D01*
X209573793Y-91866664D01*
X209487547Y-91751455D01*
X209487544Y-91751452D01*
X209372335Y-91665206D01*
X209372328Y-91665202D01*
X209237482Y-91614908D01*
X209237483Y-91614908D01*
X209177883Y-91608501D01*
X209177881Y-91608500D01*
X209177873Y-91608500D01*
X209177864Y-91608500D01*
X207382129Y-91608500D01*
X207382123Y-91608501D01*
X207322516Y-91614908D01*
X207187671Y-91665202D01*
X207187664Y-91665206D01*
X207072455Y-91751452D01*
X207072452Y-91751455D01*
X206986206Y-91866664D01*
X206986202Y-91866671D01*
X206935908Y-92001517D01*
X206929501Y-92061116D01*
X206929501Y-92061123D01*
X206929500Y-92061135D01*
X206929500Y-92234500D01*
X206909815Y-92301539D01*
X206857011Y-92347294D01*
X206805500Y-92358500D01*
X198299942Y-92358500D01*
X198147214Y-92399423D01*
X198129897Y-92409422D01*
X198129894Y-92409423D01*
X198010290Y-92478475D01*
X198010282Y-92478481D01*
X191465083Y-99023681D01*
X191403760Y-99057166D01*
X191377402Y-99060000D01*
X189108000Y-99060000D01*
X189108000Y-101329402D01*
X189088315Y-101396441D01*
X189071681Y-101417083D01*
X182145481Y-108343282D01*
X182145477Y-108343287D01*
X182124317Y-108379940D01*
X182124316Y-108379942D01*
X182066423Y-108480215D01*
X182025499Y-108632943D01*
X182025499Y-108632945D01*
X182025499Y-108801046D01*
X182025500Y-108801059D01*
X182025500Y-111038603D01*
X182005815Y-111105642D01*
X181976279Y-111135711D01*
X181976990Y-111136578D01*
X181972278Y-111140444D01*
X181829441Y-111283281D01*
X181717217Y-111451237D01*
X181717214Y-111451243D01*
X181691947Y-111512243D01*
X181648105Y-111566646D01*
X181581811Y-111588710D01*
X181514112Y-111571430D01*
X181489705Y-111552470D01*
X179811590Y-109874355D01*
X179811588Y-109874352D01*
X179692717Y-109755481D01*
X179692716Y-109755480D01*
X179605904Y-109705360D01*
X179605904Y-109705359D01*
X179605900Y-109705358D01*
X179555785Y-109676423D01*
X179403057Y-109635499D01*
X179244943Y-109635499D01*
X179237347Y-109635499D01*
X179237331Y-109635500D01*
X170266670Y-109635500D01*
X170266654Y-109635499D01*
X170259058Y-109635499D01*
X170100943Y-109635499D01*
X170024579Y-109655961D01*
X169948214Y-109676423D01*
X169948209Y-109676426D01*
X169811290Y-109755475D01*
X169811282Y-109755481D01*
X169038127Y-110528635D01*
X168976804Y-110562120D01*
X168907112Y-110557136D01*
X168902987Y-110555513D01*
X168901224Y-110554782D01*
X168901219Y-110554780D01*
X168901212Y-110554777D01*
X168901208Y-110554776D01*
X168706536Y-110491523D01*
X168544892Y-110465921D01*
X168504352Y-110459500D01*
X168299648Y-110459500D01*
X168275329Y-110463351D01*
X168097465Y-110491522D01*
X167902776Y-110554781D01*
X167720386Y-110647715D01*
X167554786Y-110768028D01*
X167410028Y-110912786D01*
X167289715Y-111078385D01*
X167282883Y-111091795D01*
X167272433Y-111102859D01*
X167266111Y-111116703D01*
X167248931Y-111127743D01*
X167234909Y-111142591D01*
X167219227Y-111146832D01*
X167207333Y-111154477D01*
X167172398Y-111159500D01*
X167091602Y-111159500D01*
X167024563Y-111139815D01*
X166981117Y-111091795D01*
X166974284Y-111078385D01*
X166853971Y-110912786D01*
X166709213Y-110768028D01*
X166543613Y-110647715D01*
X166543612Y-110647714D01*
X166543610Y-110647713D01*
X166486653Y-110618691D01*
X166361223Y-110554781D01*
X166166534Y-110491522D01*
X165991995Y-110463878D01*
X165964352Y-110459500D01*
X165759648Y-110459500D01*
X165735329Y-110463351D01*
X165557465Y-110491522D01*
X165362776Y-110554781D01*
X165180386Y-110647715D01*
X165014786Y-110768028D01*
X164870028Y-110912786D01*
X164749715Y-111078386D01*
X164656781Y-111260776D01*
X164593522Y-111455465D01*
X164561500Y-111657648D01*
X157001995Y-111657648D01*
X156969990Y-111455582D01*
X156906755Y-111260968D01*
X156813859Y-111078650D01*
X156781474Y-111034077D01*
X156781474Y-111034076D01*
X156102000Y-111713551D01*
X156102000Y-111707339D01*
X156074741Y-111605606D01*
X156022080Y-111514394D01*
X155947606Y-111439920D01*
X155856394Y-111387259D01*
X155754661Y-111360000D01*
X155748446Y-111360000D01*
X156427922Y-110680524D01*
X156427921Y-110680523D01*
X156383359Y-110648147D01*
X156383350Y-110648141D01*
X156201031Y-110555244D01*
X156006417Y-110492009D01*
X155804317Y-110460000D01*
X155599683Y-110460000D01*
X155397582Y-110492009D01*
X155202968Y-110555244D01*
X155020644Y-110648143D01*
X154976077Y-110680523D01*
X154976077Y-110680524D01*
X155655554Y-111360000D01*
X155649339Y-111360000D01*
X155547606Y-111387259D01*
X155456394Y-111439920D01*
X155381920Y-111514394D01*
X155329259Y-111605606D01*
X155302000Y-111707339D01*
X155302000Y-111713553D01*
X154622524Y-111034077D01*
X154622523Y-111034077D01*
X154590143Y-111078644D01*
X154497244Y-111260968D01*
X154434009Y-111455582D01*
X154402000Y-111657682D01*
X150652000Y-111657682D01*
X150619990Y-111455582D01*
X150556755Y-111260968D01*
X150463859Y-111078650D01*
X150431474Y-111034077D01*
X150431474Y-111034076D01*
X149752000Y-111713551D01*
X149752000Y-111707339D01*
X149724741Y-111605606D01*
X149672080Y-111514394D01*
X149597606Y-111439920D01*
X149506394Y-111387259D01*
X149404661Y-111360000D01*
X149398446Y-111360000D01*
X150077922Y-110680524D01*
X150077921Y-110680523D01*
X150033359Y-110648147D01*
X150033350Y-110648141D01*
X149851031Y-110555244D01*
X149656417Y-110492009D01*
X149454317Y-110460000D01*
X149249683Y-110460000D01*
X149047582Y-110492009D01*
X148852968Y-110555244D01*
X148670644Y-110648143D01*
X148626077Y-110680523D01*
X148626077Y-110680524D01*
X149305554Y-111360000D01*
X149299339Y-111360000D01*
X149197606Y-111387259D01*
X149106394Y-111439920D01*
X149031920Y-111514394D01*
X148979259Y-111605606D01*
X148952000Y-111707339D01*
X148952000Y-111713553D01*
X148272524Y-111034077D01*
X148272523Y-111034077D01*
X148240143Y-111078644D01*
X148147244Y-111260968D01*
X148084009Y-111455582D01*
X148052000Y-111657682D01*
X143856500Y-111657682D01*
X143856500Y-110156945D01*
X143856500Y-110156943D01*
X143815577Y-110004216D01*
X143815577Y-110004215D01*
X143815577Y-110004214D01*
X143786639Y-109954095D01*
X143786637Y-109954092D01*
X143740602Y-109874355D01*
X143736520Y-109867284D01*
X143624716Y-109755480D01*
X143624715Y-109755479D01*
X143620385Y-109751149D01*
X143620374Y-109751139D01*
X140640916Y-106771681D01*
X140607431Y-106710358D01*
X140612415Y-106640666D01*
X140654287Y-106584733D01*
X140719751Y-106560316D01*
X140728597Y-106560000D01*
X142108000Y-106560000D01*
X160108000Y-106560000D01*
X171108000Y-106560000D01*
X171108000Y-99060000D01*
X160108000Y-99060000D01*
X160108000Y-106560000D01*
X142108000Y-106560000D01*
X142108000Y-99060000D01*
X132980597Y-99060000D01*
X132913558Y-99040315D01*
X132892916Y-99023681D01*
X122048819Y-88179584D01*
X122015334Y-88118261D01*
X122012500Y-88091903D01*
X122012500Y-76068872D01*
X126358400Y-76068872D01*
X126358400Y-76331127D01*
X126385023Y-76533339D01*
X126392630Y-76591116D01*
X126437644Y-76759111D01*
X126460502Y-76844418D01*
X126460505Y-76844428D01*
X126560853Y-77086690D01*
X126560858Y-77086700D01*
X126691975Y-77313803D01*
X126851618Y-77521851D01*
X126851626Y-77521860D01*
X127037040Y-77707274D01*
X127037048Y-77707281D01*
X127245096Y-77866924D01*
X127472199Y-77998041D01*
X127472209Y-77998046D01*
X127714471Y-78098394D01*
X127714481Y-78098398D01*
X127967784Y-78166270D01*
X128227780Y-78200500D01*
X128227787Y-78200500D01*
X128490013Y-78200500D01*
X128490020Y-78200500D01*
X128750016Y-78166270D01*
X129003319Y-78098398D01*
X129222896Y-78007446D01*
X129245590Y-77998046D01*
X129245591Y-77998045D01*
X129245597Y-77998043D01*
X129472703Y-77866924D01*
X129680751Y-77707282D01*
X129680755Y-77707277D01*
X129680760Y-77707274D01*
X129866174Y-77521860D01*
X129866177Y-77521855D01*
X129866182Y-77521851D01*
X130025824Y-77313803D01*
X130156943Y-77086697D01*
X130257298Y-76844419D01*
X130325170Y-76591116D01*
X130359400Y-76331120D01*
X130359400Y-76068880D01*
X130325170Y-75808884D01*
X130257298Y-75555581D01*
X130222697Y-75472047D01*
X130156946Y-75313309D01*
X130156941Y-75313299D01*
X130025824Y-75086196D01*
X129873709Y-74887958D01*
X129866182Y-74878149D01*
X129866181Y-74878148D01*
X129866174Y-74878140D01*
X129680760Y-74692726D01*
X129680751Y-74692718D01*
X129472703Y-74533075D01*
X129245600Y-74401958D01*
X129245590Y-74401953D01*
X129003328Y-74301605D01*
X129003321Y-74301603D01*
X129003319Y-74301602D01*
X128750016Y-74233730D01*
X128692239Y-74226123D01*
X128490027Y-74199500D01*
X128490020Y-74199500D01*
X128227780Y-74199500D01*
X128227772Y-74199500D01*
X127996672Y-74229926D01*
X127967784Y-74233730D01*
X127718008Y-74300657D01*
X127714481Y-74301602D01*
X127714471Y-74301605D01*
X127472209Y-74401953D01*
X127472199Y-74401958D01*
X127245096Y-74533075D01*
X127037048Y-74692718D01*
X126851618Y-74878148D01*
X126691975Y-75086196D01*
X126560858Y-75313299D01*
X126560853Y-75313309D01*
X126460505Y-75555571D01*
X126460502Y-75555581D01*
X126392630Y-75808885D01*
X126358400Y-76068872D01*
X122012500Y-76068872D01*
X122012500Y-71020678D01*
X132342000Y-71020678D01*
X132342000Y-71219321D01*
X132373075Y-71415520D01*
X132373075Y-71415523D01*
X132434457Y-71604437D01*
X132524641Y-71781432D01*
X132551730Y-71818715D01*
X132551731Y-71818716D01*
X133204000Y-71166447D01*
X133204000Y-71172661D01*
X133231259Y-71274394D01*
X133283920Y-71365606D01*
X133358394Y-71440080D01*
X133449606Y-71492741D01*
X133551339Y-71520000D01*
X133557553Y-71520000D01*
X132905283Y-72172268D01*
X132905283Y-72172269D01*
X132942567Y-72199358D01*
X133119562Y-72289542D01*
X133308477Y-72350924D01*
X133504679Y-72382000D01*
X133703321Y-72382000D01*
X133899520Y-72350924D01*
X133899523Y-72350924D01*
X134088437Y-72289542D01*
X134265425Y-72199362D01*
X134302716Y-72172268D01*
X133650448Y-71520000D01*
X133656661Y-71520000D01*
X133758394Y-71492741D01*
X133849606Y-71440080D01*
X133924080Y-71365606D01*
X133976741Y-71274394D01*
X134004000Y-71172661D01*
X134004000Y-71166447D01*
X134656268Y-71818715D01*
X134683362Y-71781425D01*
X134773542Y-71604437D01*
X134799131Y-71525682D01*
X135392000Y-71525682D01*
X135392000Y-71730317D01*
X135424009Y-71932417D01*
X135487244Y-72127031D01*
X135580141Y-72309350D01*
X135580147Y-72309359D01*
X135612523Y-72353921D01*
X135612524Y-72353922D01*
X136292000Y-71674446D01*
X136292000Y-71680661D01*
X136319259Y-71782394D01*
X136371920Y-71873606D01*
X136446394Y-71948080D01*
X136537606Y-72000741D01*
X136639339Y-72028000D01*
X136645553Y-72028000D01*
X135966076Y-72707474D01*
X136010650Y-72739859D01*
X136192968Y-72832755D01*
X136387582Y-72895990D01*
X136589683Y-72928000D01*
X136794317Y-72928000D01*
X136996417Y-72895990D01*
X137191031Y-72832755D01*
X137373349Y-72739859D01*
X137417921Y-72707474D01*
X136738447Y-72028000D01*
X136744661Y-72028000D01*
X136846394Y-72000741D01*
X136937606Y-71948080D01*
X137012080Y-71873606D01*
X137064741Y-71782394D01*
X137092000Y-71680661D01*
X137092000Y-71674448D01*
X137771474Y-72353922D01*
X137771474Y-72353921D01*
X137803859Y-72309349D01*
X137896755Y-72127031D01*
X137959990Y-71932417D01*
X137992000Y-71730317D01*
X137992000Y-71525682D01*
X137959990Y-71323582D01*
X137896755Y-71128968D01*
X137803859Y-70946650D01*
X137771474Y-70902077D01*
X137771474Y-70902076D01*
X137092000Y-71581551D01*
X137092000Y-71575339D01*
X137064741Y-71473606D01*
X137012080Y-71382394D01*
X136937606Y-71307920D01*
X136846394Y-71255259D01*
X136744661Y-71228000D01*
X136738446Y-71228000D01*
X137417922Y-70548524D01*
X137417921Y-70548523D01*
X137373359Y-70516147D01*
X137373350Y-70516141D01*
X137191031Y-70423244D01*
X136996417Y-70360009D01*
X136794317Y-70328000D01*
X136589683Y-70328000D01*
X136387582Y-70360009D01*
X136192968Y-70423244D01*
X136010644Y-70516143D01*
X135966077Y-70548523D01*
X135966077Y-70548524D01*
X136645554Y-71228000D01*
X136639339Y-71228000D01*
X136537606Y-71255259D01*
X136446394Y-71307920D01*
X136371920Y-71382394D01*
X136319259Y-71473606D01*
X136292000Y-71575339D01*
X136292000Y-71581553D01*
X135612524Y-70902077D01*
X135612523Y-70902077D01*
X135580143Y-70946644D01*
X135487244Y-71128968D01*
X135424009Y-71323582D01*
X135392000Y-71525682D01*
X134799131Y-71525682D01*
X134813163Y-71482498D01*
X134834924Y-71415523D01*
X134834924Y-71415520D01*
X134866000Y-71219321D01*
X134866000Y-71020678D01*
X134834924Y-70824479D01*
X134834924Y-70824476D01*
X134773543Y-70635564D01*
X134683358Y-70458567D01*
X134656268Y-70421283D01*
X134004000Y-71073551D01*
X134004000Y-71067339D01*
X133976741Y-70965606D01*
X133924080Y-70874394D01*
X133849606Y-70799920D01*
X133758394Y-70747259D01*
X133656661Y-70720000D01*
X133650447Y-70720000D01*
X134302716Y-70067731D01*
X134302715Y-70067730D01*
X134265432Y-70040641D01*
X134088437Y-69950457D01*
X133899522Y-69889075D01*
X133703321Y-69858000D01*
X133504679Y-69858000D01*
X133308479Y-69889075D01*
X133308476Y-69889075D01*
X133119562Y-69950457D01*
X132942564Y-70040643D01*
X132905283Y-70067729D01*
X132905282Y-70067730D01*
X133557554Y-70720000D01*
X133551339Y-70720000D01*
X133449606Y-70747259D01*
X133358394Y-70799920D01*
X133283920Y-70874394D01*
X133231259Y-70965606D01*
X133204000Y-71067339D01*
X133204000Y-71073552D01*
X132551730Y-70421282D01*
X132551729Y-70421283D01*
X132524643Y-70458564D01*
X132434457Y-70635562D01*
X132373075Y-70824476D01*
X132373075Y-70824479D01*
X132342000Y-71020678D01*
X122012500Y-71020678D01*
X122012500Y-69042739D01*
X122032185Y-68975700D01*
X122084989Y-68929945D01*
X122154147Y-68920001D01*
X122217703Y-68949026D01*
X122254431Y-69004421D01*
X122273993Y-69064629D01*
X122273994Y-69064632D01*
X122297220Y-69110214D01*
X122364213Y-69241694D01*
X122481019Y-69402464D01*
X122621536Y-69542981D01*
X122782306Y-69659787D01*
X122869149Y-69704035D01*
X122959367Y-69750005D01*
X122959370Y-69750006D01*
X123019368Y-69769500D01*
X123148364Y-69811413D01*
X123344639Y-69842500D01*
X123344640Y-69842500D01*
X123543360Y-69842500D01*
X123543361Y-69842500D01*
X123739636Y-69811413D01*
X123928632Y-69750005D01*
X124105694Y-69659787D01*
X124266464Y-69542981D01*
X124406981Y-69402464D01*
X124523787Y-69241694D01*
X124523789Y-69241689D01*
X124525000Y-69239715D01*
X124525656Y-69239121D01*
X124526651Y-69237752D01*
X124526938Y-69237960D01*
X124576810Y-69192837D01*
X124630730Y-69180500D01*
X137875903Y-69180500D01*
X137942942Y-69200185D01*
X137963584Y-69216819D01*
X138301181Y-69554416D01*
X138334666Y-69615739D01*
X138337500Y-69642097D01*
X138337500Y-74458164D01*
X138317815Y-74525203D01*
X138269796Y-74568648D01*
X138203976Y-74602185D01*
X138025641Y-74731752D01*
X138025636Y-74731756D01*
X137869756Y-74887636D01*
X137768008Y-75027681D01*
X137712678Y-75070346D01*
X137643065Y-75076325D01*
X137581270Y-75043719D01*
X137567372Y-75027680D01*
X137465862Y-74887964D01*
X137465857Y-74887958D01*
X137310041Y-74732142D01*
X137131758Y-74602611D01*
X136998000Y-74534457D01*
X136998000Y-76076000D01*
X136991694Y-76097475D01*
X136957111Y-75968409D01*
X136878119Y-75831592D01*
X136766408Y-75719881D01*
X136629591Y-75640889D01*
X136476991Y-75600000D01*
X136319009Y-75600000D01*
X136166409Y-75640889D01*
X136029592Y-75719881D01*
X135917881Y-75831592D01*
X135838889Y-75968409D01*
X135803404Y-76100840D01*
X135798000Y-76076000D01*
X135798000Y-74534458D01*
X135797999Y-74534457D01*
X135664241Y-74602611D01*
X135485958Y-74732142D01*
X135435655Y-74782445D01*
X135374332Y-74815929D01*
X135304640Y-74810944D01*
X135248707Y-74769073D01*
X135231793Y-74738095D01*
X135201798Y-74657673D01*
X135201793Y-74657664D01*
X135115547Y-74542455D01*
X135115544Y-74542452D01*
X135000335Y-74456206D01*
X135000328Y-74456202D01*
X134865482Y-74405908D01*
X134865483Y-74405908D01*
X134805883Y-74399501D01*
X134805881Y-74399500D01*
X134805873Y-74399500D01*
X134805864Y-74399500D01*
X132910129Y-74399500D01*
X132910123Y-74399501D01*
X132850516Y-74405908D01*
X132715671Y-74456202D01*
X132715664Y-74456206D01*
X132600455Y-74542452D01*
X132600452Y-74542455D01*
X132514206Y-74657664D01*
X132514202Y-74657671D01*
X132463908Y-74792517D01*
X132457501Y-74852116D01*
X132457500Y-74852135D01*
X132457500Y-77547870D01*
X132457501Y-77547876D01*
X132463908Y-77607483D01*
X132514202Y-77742328D01*
X132514206Y-77742335D01*
X132603555Y-77861689D01*
X132627973Y-77927153D01*
X132613122Y-77995426D01*
X132563717Y-78044832D01*
X132504289Y-78060000D01*
X131108000Y-78060000D01*
X131108000Y-85560000D01*
X142108000Y-85560000D01*
X142108000Y-78060000D01*
X142090107Y-78042107D01*
X142056622Y-77980784D01*
X142061606Y-77911092D01*
X142103478Y-77855159D01*
X142121486Y-77843945D01*
X142212022Y-77797815D01*
X142390365Y-77668242D01*
X142546242Y-77512365D01*
X142556804Y-77497826D01*
X142647682Y-77372745D01*
X142703011Y-77330079D01*
X142772625Y-77324100D01*
X142834420Y-77356705D01*
X142848318Y-77372745D01*
X142949752Y-77512358D01*
X142949756Y-77512363D01*
X143105636Y-77668243D01*
X143105641Y-77668247D01*
X143232771Y-77760611D01*
X143283978Y-77797815D01*
X143412375Y-77863237D01*
X143480393Y-77897895D01*
X143480396Y-77897896D01*
X143570442Y-77927153D01*
X143690049Y-77966015D01*
X143907778Y-78000500D01*
X143907779Y-78000500D01*
X144128221Y-78000500D01*
X144128222Y-78000500D01*
X144345951Y-77966015D01*
X144555606Y-77897895D01*
X144752022Y-77797815D01*
X144930365Y-77668242D01*
X145086242Y-77512365D01*
X145096804Y-77497826D01*
X145187682Y-77372745D01*
X145243011Y-77330079D01*
X145312625Y-77324100D01*
X145374420Y-77356705D01*
X145388318Y-77372745D01*
X145489752Y-77512358D01*
X145489756Y-77512363D01*
X145645636Y-77668243D01*
X145645641Y-77668247D01*
X145772771Y-77760611D01*
X145823978Y-77797815D01*
X145952375Y-77863237D01*
X146020393Y-77897895D01*
X146020396Y-77897896D01*
X146110442Y-77927153D01*
X146230049Y-77966015D01*
X146447778Y-78000500D01*
X146447779Y-78000500D01*
X146668221Y-78000500D01*
X146668222Y-78000500D01*
X146885951Y-77966015D01*
X147095606Y-77897895D01*
X147292022Y-77797815D01*
X147470365Y-77668242D01*
X147626242Y-77512365D01*
X147636804Y-77497826D01*
X147727682Y-77372745D01*
X147783011Y-77330079D01*
X147852625Y-77324100D01*
X147914420Y-77356705D01*
X147928318Y-77372745D01*
X148029752Y-77512358D01*
X148029756Y-77512363D01*
X148185636Y-77668243D01*
X148185641Y-77668247D01*
X148312771Y-77760611D01*
X148363978Y-77797815D01*
X148492375Y-77863237D01*
X148560393Y-77897895D01*
X148560396Y-77897896D01*
X148650442Y-77927153D01*
X148770049Y-77966015D01*
X148987778Y-78000500D01*
X148987779Y-78000500D01*
X149208221Y-78000500D01*
X149208222Y-78000500D01*
X149425951Y-77966015D01*
X149635606Y-77897895D01*
X149832022Y-77797815D01*
X150010365Y-77668242D01*
X150166242Y-77512365D01*
X150176804Y-77497826D01*
X150267682Y-77372745D01*
X150323011Y-77330079D01*
X150392625Y-77324100D01*
X150454420Y-77356705D01*
X150468318Y-77372745D01*
X150569752Y-77512358D01*
X150569756Y-77512363D01*
X150725636Y-77668243D01*
X150725641Y-77668247D01*
X150852771Y-77760611D01*
X150903978Y-77797815D01*
X151032375Y-77863237D01*
X151100393Y-77897895D01*
X151100396Y-77897896D01*
X151190442Y-77927153D01*
X151310049Y-77966015D01*
X151527778Y-78000500D01*
X151527779Y-78000500D01*
X151748221Y-78000500D01*
X151748222Y-78000500D01*
X151965951Y-77966015D01*
X152175606Y-77897895D01*
X152372022Y-77797815D01*
X152550365Y-77668242D01*
X152706242Y-77512365D01*
X152716804Y-77497826D01*
X152807682Y-77372745D01*
X152863011Y-77330079D01*
X152932625Y-77324100D01*
X152994420Y-77356705D01*
X153008318Y-77372745D01*
X153109752Y-77512358D01*
X153109756Y-77512363D01*
X153265636Y-77668243D01*
X153265641Y-77668247D01*
X153392771Y-77760611D01*
X153443978Y-77797815D01*
X153572375Y-77863237D01*
X153640393Y-77897895D01*
X153640396Y-77897896D01*
X153730442Y-77927153D01*
X153850049Y-77966015D01*
X154067778Y-78000500D01*
X154067779Y-78000500D01*
X154288221Y-78000500D01*
X154288222Y-78000500D01*
X154505951Y-77966015D01*
X154715606Y-77897895D01*
X154912022Y-77797815D01*
X155090365Y-77668242D01*
X155246242Y-77512365D01*
X155256804Y-77497826D01*
X155347682Y-77372745D01*
X155403011Y-77330079D01*
X155472625Y-77324100D01*
X155534420Y-77356705D01*
X155548318Y-77372745D01*
X155649752Y-77512358D01*
X155649756Y-77512363D01*
X155805636Y-77668243D01*
X155805641Y-77668247D01*
X155932771Y-77760611D01*
X155983978Y-77797815D01*
X156112375Y-77863237D01*
X156180393Y-77897895D01*
X156180396Y-77897896D01*
X156270442Y-77927153D01*
X156390049Y-77966015D01*
X156607778Y-78000500D01*
X156607779Y-78000500D01*
X156828221Y-78000500D01*
X156828222Y-78000500D01*
X157045951Y-77966015D01*
X157255606Y-77897895D01*
X157452022Y-77797815D01*
X157630365Y-77668242D01*
X157786242Y-77512365D01*
X157796804Y-77497826D01*
X157887682Y-77372745D01*
X157943011Y-77330079D01*
X158012625Y-77324100D01*
X158074420Y-77356705D01*
X158088318Y-77372745D01*
X158189752Y-77512358D01*
X158189756Y-77512363D01*
X158345636Y-77668243D01*
X158345641Y-77668247D01*
X158472771Y-77760611D01*
X158523978Y-77797815D01*
X158652375Y-77863237D01*
X158720393Y-77897895D01*
X158720396Y-77897896D01*
X158810442Y-77927153D01*
X158930049Y-77966015D01*
X159147778Y-78000500D01*
X159147779Y-78000500D01*
X159368221Y-78000500D01*
X159368222Y-78000500D01*
X159585951Y-77966015D01*
X159795606Y-77897895D01*
X159992022Y-77797815D01*
X160170365Y-77668242D01*
X160326242Y-77512365D01*
X160336804Y-77497826D01*
X160427682Y-77372745D01*
X160483011Y-77330079D01*
X160552625Y-77324100D01*
X160614420Y-77356705D01*
X160628318Y-77372745D01*
X160729752Y-77512358D01*
X160729756Y-77512363D01*
X160885636Y-77668243D01*
X160885641Y-77668247D01*
X161012771Y-77760611D01*
X161063978Y-77797815D01*
X161108849Y-77820678D01*
X161118342Y-77825515D01*
X161169138Y-77873490D01*
X161185933Y-77941311D01*
X161163395Y-78007446D01*
X161108680Y-78050897D01*
X161062047Y-78060000D01*
X160108000Y-78060000D01*
X160108000Y-85560000D01*
X171108000Y-85560000D01*
X189108000Y-85560000D01*
X200108000Y-85560000D01*
X200108000Y-78060000D01*
X189108000Y-78060000D01*
X189108000Y-85560000D01*
X171108000Y-85560000D01*
X171108000Y-79466100D01*
X171127685Y-79399061D01*
X171180489Y-79353306D01*
X171232000Y-79342100D01*
X184933154Y-79342100D01*
X184933174Y-79342101D01*
X184939288Y-79342101D01*
X185087914Y-79342101D01*
X185124609Y-79334800D01*
X185209494Y-79317915D01*
X185233680Y-79313105D01*
X185290555Y-79289546D01*
X185370989Y-79256230D01*
X185494566Y-79173659D01*
X187295480Y-77372745D01*
X188599352Y-76068872D01*
X201357500Y-76068872D01*
X201357500Y-76331127D01*
X201384123Y-76533339D01*
X201391730Y-76591116D01*
X201436744Y-76759111D01*
X201459602Y-76844418D01*
X201459605Y-76844428D01*
X201559953Y-77086690D01*
X201559958Y-77086700D01*
X201691075Y-77313803D01*
X201850718Y-77521851D01*
X201850726Y-77521860D01*
X202036140Y-77707274D01*
X202036148Y-77707281D01*
X202244196Y-77866924D01*
X202471299Y-77998041D01*
X202471309Y-77998046D01*
X202713571Y-78098394D01*
X202713581Y-78098398D01*
X202966884Y-78166270D01*
X203226880Y-78200500D01*
X203226887Y-78200500D01*
X203489113Y-78200500D01*
X203489120Y-78200500D01*
X203749116Y-78166270D01*
X204002419Y-78098398D01*
X204221996Y-78007446D01*
X204244690Y-77998046D01*
X204244691Y-77998045D01*
X204244697Y-77998043D01*
X204471803Y-77866924D01*
X204679851Y-77707282D01*
X204679855Y-77707277D01*
X204679860Y-77707274D01*
X204865274Y-77521860D01*
X204865277Y-77521855D01*
X204865282Y-77521851D01*
X205024924Y-77313803D01*
X205156043Y-77086697D01*
X205256398Y-76844419D01*
X205324270Y-76591116D01*
X205358500Y-76331120D01*
X205358500Y-76068880D01*
X205324270Y-75808884D01*
X205256398Y-75555581D01*
X205221797Y-75472047D01*
X205156046Y-75313309D01*
X205156041Y-75313299D01*
X205024924Y-75086196D01*
X204872809Y-74887958D01*
X204865282Y-74878149D01*
X204865281Y-74878148D01*
X204865274Y-74878140D01*
X204679860Y-74692726D01*
X204679851Y-74692718D01*
X204471803Y-74533075D01*
X204244700Y-74401958D01*
X204244690Y-74401953D01*
X204002428Y-74301605D01*
X204002421Y-74301603D01*
X204002419Y-74301602D01*
X203749116Y-74233730D01*
X203691339Y-74226123D01*
X203489127Y-74199500D01*
X203489120Y-74199500D01*
X203226880Y-74199500D01*
X203226872Y-74199500D01*
X202995772Y-74229926D01*
X202966884Y-74233730D01*
X202717108Y-74300657D01*
X202713581Y-74301602D01*
X202713571Y-74301605D01*
X202471309Y-74401953D01*
X202471299Y-74401958D01*
X202244196Y-74533075D01*
X202036148Y-74692718D01*
X201850718Y-74878148D01*
X201691075Y-75086196D01*
X201559958Y-75313299D01*
X201559953Y-75313309D01*
X201459605Y-75555571D01*
X201459602Y-75555581D01*
X201391730Y-75808885D01*
X201357500Y-76068872D01*
X188599352Y-76068872D01*
X188691084Y-75977140D01*
X189582028Y-75086196D01*
X192271778Y-72396444D01*
X192333099Y-72362961D01*
X192378850Y-72361654D01*
X192429648Y-72369700D01*
X192429651Y-72369700D01*
X192634351Y-72369700D01*
X192634352Y-72369700D01*
X192836534Y-72337677D01*
X193031219Y-72274420D01*
X193213610Y-72181487D01*
X193352034Y-72080917D01*
X193379213Y-72061171D01*
X193379215Y-72061168D01*
X193379219Y-72061166D01*
X193523966Y-71916419D01*
X193523968Y-71916415D01*
X193523971Y-71916413D01*
X193594951Y-71818716D01*
X193644287Y-71750810D01*
X193737220Y-71568419D01*
X193800477Y-71373734D01*
X193832500Y-71171552D01*
X193832500Y-70966882D01*
X201392000Y-70966882D01*
X201392000Y-71171517D01*
X201424009Y-71373617D01*
X201487244Y-71568231D01*
X201580141Y-71750550D01*
X201580147Y-71750559D01*
X201612523Y-71795121D01*
X201612524Y-71795122D01*
X202292000Y-71115646D01*
X202292000Y-71121861D01*
X202319259Y-71223594D01*
X202371920Y-71314806D01*
X202446394Y-71389280D01*
X202537606Y-71441941D01*
X202639339Y-71469200D01*
X202645553Y-71469200D01*
X201966076Y-72148674D01*
X202010650Y-72181059D01*
X202192968Y-72273955D01*
X202387582Y-72337190D01*
X202589683Y-72369200D01*
X202794317Y-72369200D01*
X202996417Y-72337190D01*
X203191031Y-72273955D01*
X203373349Y-72181059D01*
X203417921Y-72148674D01*
X202738447Y-71469200D01*
X202744661Y-71469200D01*
X202846394Y-71441941D01*
X202937606Y-71389280D01*
X203012080Y-71314806D01*
X203064741Y-71223594D01*
X203092000Y-71121861D01*
X203092000Y-71115647D01*
X203771474Y-71795121D01*
X203803859Y-71750549D01*
X203896755Y-71568231D01*
X203959990Y-71373617D01*
X203992000Y-71171517D01*
X203992000Y-70966882D01*
X203959990Y-70764782D01*
X203896755Y-70570168D01*
X203803859Y-70387850D01*
X203771474Y-70343277D01*
X203771474Y-70343276D01*
X203092000Y-71022751D01*
X203092000Y-71016539D01*
X203064741Y-70914806D01*
X203012080Y-70823594D01*
X202937606Y-70749120D01*
X202846394Y-70696459D01*
X202744661Y-70669200D01*
X202738446Y-70669200D01*
X203417922Y-69989724D01*
X203417921Y-69989723D01*
X203373359Y-69957347D01*
X203373350Y-69957341D01*
X203191031Y-69864444D01*
X202996417Y-69801209D01*
X202794317Y-69769200D01*
X202589683Y-69769200D01*
X202387582Y-69801209D01*
X202192968Y-69864444D01*
X202010644Y-69957343D01*
X201966077Y-69989723D01*
X201966077Y-69989724D01*
X202645554Y-70669200D01*
X202639339Y-70669200D01*
X202537606Y-70696459D01*
X202446394Y-70749120D01*
X202371920Y-70823594D01*
X202319259Y-70914806D01*
X202292000Y-71016539D01*
X202292000Y-71022753D01*
X201612524Y-70343277D01*
X201612523Y-70343277D01*
X201580143Y-70387844D01*
X201487244Y-70570168D01*
X201424009Y-70764782D01*
X201392000Y-70966882D01*
X193832500Y-70966882D01*
X193832500Y-70966848D01*
X193822241Y-70902076D01*
X193800477Y-70764665D01*
X193769458Y-70669200D01*
X193737220Y-70569981D01*
X193737218Y-70569978D01*
X193737218Y-70569976D01*
X193691267Y-70479794D01*
X193644287Y-70387590D01*
X193636556Y-70376949D01*
X193523971Y-70221986D01*
X193515506Y-70213521D01*
X193512598Y-70208196D01*
X193507574Y-70204796D01*
X193496049Y-70177888D01*
X193482021Y-70152198D01*
X193482453Y-70146147D01*
X193480065Y-70140570D01*
X193484916Y-70111706D01*
X193487005Y-70082506D01*
X193490898Y-70076117D01*
X193491647Y-70071667D01*
X193511416Y-70042451D01*
X195239386Y-68141350D01*
X195299041Y-68104983D01*
X195330903Y-68100756D01*
X204849956Y-68082786D01*
X204917031Y-68102344D01*
G37*
%TD.AperFunction*%
%TA.AperFunction,Conductor*%
G36*
X208554942Y-115682185D02*
G01*
X208575584Y-115698819D01*
X208913181Y-116036416D01*
X208946666Y-116097739D01*
X208949500Y-116124097D01*
X208949500Y-116241649D01*
X208929815Y-116308688D01*
X208877011Y-116354443D01*
X208862552Y-116356998D01*
X208172000Y-117047551D01*
X208172000Y-117041339D01*
X208144741Y-116939606D01*
X208092080Y-116848394D01*
X208017606Y-116773920D01*
X207926394Y-116721259D01*
X207824661Y-116694000D01*
X207818446Y-116694000D01*
X208497922Y-116014524D01*
X208497921Y-116014523D01*
X208453359Y-115982147D01*
X208453350Y-115982141D01*
X208286222Y-115896985D01*
X208235426Y-115849010D01*
X208218631Y-115781189D01*
X208241168Y-115715054D01*
X208295884Y-115671603D01*
X208342517Y-115662500D01*
X208487903Y-115662500D01*
X208554942Y-115682185D01*
G37*
%TD.AperFunction*%
%TD*%
M02*
