%TF.GenerationSoftware,KiCad,Pcbnew,10.0.1*%
%TF.CreationDate,2026-04-23T22:56:11-07:00*%
%TF.ProjectId,Photogate,50686f74-6f67-4617-9465-2e6b69636164,rev?*%
%TF.SameCoordinates,Original*%
%TF.FileFunction,Drillmap*%
%TF.FilePolarity,Positive*%
%FSLAX45Y45*%
G04 Gerber Fmt 4.5, Leading zero omitted, Abs format (unit mm)*
G04 Created by KiCad (PCBNEW 10.0.1) date 2026-04-23 22:56:11*
%MOMM*%
%LPD*%
G01*
G04 APERTURE LIST*
%ADD10C,0.050000*%
%ADD11C,0.200000*%
%ADD12C,0.100000*%
%ADD13C,0.119999*%
%ADD14C,0.120000*%
%ADD15C,0.250000*%
%ADD16C,0.320000*%
G04 APERTURE END LIST*
D10*
X12039600Y-6832600D02*
G75*
G02*
X12547600Y-6324600I508000J0D01*
G01*
X12547600Y-13106400D02*
G75*
G02*
X12039600Y-12598400I0J508000D01*
G01*
X20726400Y-6324600D02*
G75*
G02*
X21234400Y-6832600I0J-508000D01*
G01*
X21234400Y-12598400D02*
G75*
G02*
X20726400Y-13106400I-508000J0D01*
G01*
X12547600Y-6324600D02*
X20726400Y-6324600D01*
X12039600Y-12598400D02*
X12039600Y-6832600D01*
X21234400Y-6832600D02*
X21234400Y-12598400D01*
X20726400Y-13106400D02*
X12547600Y-13106400D01*
D11*
D12*
X18225100Y-11178700D02*
X18300100Y-11253700D01*
X18300100Y-11178700D02*
X18225100Y-11253700D01*
X18352100Y-11178700D02*
X18427100Y-11253700D01*
X18427100Y-11178700D02*
X18352100Y-11253700D01*
X18479100Y-11178700D02*
X18554100Y-11253700D01*
X18554100Y-11178700D02*
X18479100Y-11253700D01*
X20714300Y-11113100D02*
X20789300Y-11188100D01*
X20789300Y-11113100D02*
X20714300Y-11188100D01*
X20714300Y-11240100D02*
X20789300Y-11315100D01*
X20789300Y-11240100D02*
X20714300Y-11315100D01*
X20714300Y-11367100D02*
X20789300Y-11442100D01*
X20789300Y-11367100D02*
X20714300Y-11442100D01*
X12384400Y-6858000D02*
G75*
G02*
X12304400Y-6858000I-40000J0D01*
G01*
X12304400Y-6858000D02*
G75*
G02*
X12384400Y-6858000I40000J0D01*
G01*
X13400400Y-6604000D02*
G75*
G02*
X13320400Y-6604000I-40000J0D01*
G01*
X13320400Y-6604000D02*
G75*
G02*
X13400400Y-6604000I40000J0D01*
G01*
X13400400Y-7112000D02*
G75*
G02*
X13320400Y-7112000I-40000J0D01*
G01*
X13320400Y-7112000D02*
G75*
G02*
X13400400Y-7112000I40000J0D01*
G01*
X13709200Y-7162800D02*
G75*
G02*
X13629200Y-7162800I-40000J0D01*
G01*
X13629200Y-7162800D02*
G75*
G02*
X13709200Y-7162800I40000J0D01*
G01*
X13959200Y-11176000D02*
G75*
G02*
X13879200Y-11176000I-40000J0D01*
G01*
X13879200Y-11176000D02*
G75*
G02*
X13959200Y-11176000I40000J0D01*
G01*
X13959200Y-11836400D02*
G75*
G02*
X13879200Y-11836400I-40000J0D01*
G01*
X13879200Y-11836400D02*
G75*
G02*
X13959200Y-11836400I40000J0D01*
G01*
X14094200Y-11506200D02*
G75*
G02*
X14014200Y-11506200I-40000J0D01*
G01*
X14014200Y-11506200D02*
G75*
G02*
X14094200Y-11506200I40000J0D01*
G01*
X14094200Y-12166600D02*
G75*
G02*
X14014200Y-12166600I-40000J0D01*
G01*
X14014200Y-12166600D02*
G75*
G02*
X14094200Y-12166600I40000J0D01*
G01*
X14209200Y-7162800D02*
G75*
G02*
X14129200Y-7162800I-40000J0D01*
G01*
X14129200Y-7162800D02*
G75*
G02*
X14209200Y-7162800I40000J0D01*
G01*
X14594200Y-11506200D02*
G75*
G02*
X14514200Y-11506200I-40000J0D01*
G01*
X14514200Y-11506200D02*
G75*
G02*
X14594200Y-11506200I40000J0D01*
G01*
X14594200Y-12166600D02*
G75*
G02*
X14514200Y-12166600I-40000J0D01*
G01*
X14514200Y-12166600D02*
G75*
G02*
X14594200Y-12166600I40000J0D01*
G01*
X14975200Y-11176000D02*
G75*
G02*
X14895200Y-11176000I-40000J0D01*
G01*
X14895200Y-11176000D02*
G75*
G02*
X14975200Y-11176000I40000J0D01*
G01*
X14975200Y-11836400D02*
G75*
G02*
X14895200Y-11836400I-40000J0D01*
G01*
X14895200Y-11836400D02*
G75*
G02*
X14975200Y-11836400I40000J0D01*
G01*
X15610200Y-11176000D02*
G75*
G02*
X15530200Y-11176000I-40000J0D01*
G01*
X15530200Y-11176000D02*
G75*
G02*
X15610200Y-11176000I40000J0D01*
G01*
X16452400Y-11480800D02*
G75*
G02*
X16372400Y-11480800I-40000J0D01*
G01*
X16372400Y-11480800D02*
G75*
G02*
X16452400Y-11480800I40000J0D01*
G01*
X16626200Y-11176000D02*
G75*
G02*
X16546200Y-11176000I-40000J0D01*
G01*
X16546200Y-11176000D02*
G75*
G02*
X16626200Y-11176000I40000J0D01*
G01*
X16880200Y-11176000D02*
G75*
G02*
X16800200Y-11176000I-40000J0D01*
G01*
X16800200Y-11176000D02*
G75*
G02*
X16880200Y-11176000I40000J0D01*
G01*
X16952400Y-11480800D02*
G75*
G02*
X16872400Y-11480800I-40000J0D01*
G01*
X16872400Y-11480800D02*
G75*
G02*
X16952400Y-11480800I40000J0D01*
G01*
X17896200Y-11176000D02*
G75*
G02*
X17816200Y-11176000I-40000J0D01*
G01*
X17816200Y-11176000D02*
G75*
G02*
X17896200Y-11176000I40000J0D01*
G01*
X19039200Y-11176000D02*
G75*
G02*
X18959200Y-11176000I-40000J0D01*
G01*
X18959200Y-11176000D02*
G75*
G02*
X19039200Y-11176000I40000J0D01*
G01*
X19293200Y-7106920D02*
G75*
G02*
X19213200Y-7106920I-40000J0D01*
G01*
X19213200Y-7106920D02*
G75*
G02*
X19293200Y-7106920I40000J0D01*
G01*
X19521800Y-11709400D02*
G75*
G02*
X19441800Y-11709400I-40000J0D01*
G01*
X19441800Y-11709400D02*
G75*
G02*
X19521800Y-11709400I40000J0D01*
G01*
X19521800Y-12039600D02*
G75*
G02*
X19441800Y-12039600I-40000J0D01*
G01*
X19441800Y-12039600D02*
G75*
G02*
X19521800Y-12039600I40000J0D01*
G01*
X19521800Y-12369800D02*
G75*
G02*
X19441800Y-12369800I-40000J0D01*
G01*
X19441800Y-12369800D02*
G75*
G02*
X19521800Y-12369800I40000J0D01*
G01*
X20055200Y-11176000D02*
G75*
G02*
X19975200Y-11176000I-40000J0D01*
G01*
X19975200Y-11176000D02*
G75*
G02*
X20055200Y-11176000I40000J0D01*
G01*
X20309200Y-7106920D02*
G75*
G02*
X20229200Y-7106920I-40000J0D01*
G01*
X20229200Y-7106920D02*
G75*
G02*
X20309200Y-7106920I40000J0D01*
G01*
X20537800Y-11709400D02*
G75*
G02*
X20457800Y-11709400I-40000J0D01*
G01*
X20457800Y-11709400D02*
G75*
G02*
X20537800Y-11709400I40000J0D01*
G01*
X20537800Y-12039600D02*
G75*
G02*
X20457800Y-12039600I-40000J0D01*
G01*
X20457800Y-12039600D02*
G75*
G02*
X20537800Y-12039600I40000J0D01*
G01*
X20537800Y-12369800D02*
G75*
G02*
X20457800Y-12369800I-40000J0D01*
G01*
X20457800Y-12369800D02*
G75*
G02*
X20537800Y-12369800I40000J0D01*
G01*
X20817200Y-11709400D02*
G75*
G02*
X20737200Y-11709400I-40000J0D01*
G01*
X20737200Y-11709400D02*
G75*
G02*
X20817200Y-11709400I40000J0D01*
G01*
X20817200Y-12209400D02*
G75*
G02*
X20737200Y-12209400I-40000J0D01*
G01*
X20737200Y-12209400D02*
G75*
G02*
X20817200Y-12209400I40000J0D01*
G01*
X12344400Y-9246400D02*
X12344400Y-9346400D01*
X12294400Y-9296400D02*
X12394400Y-9296400D01*
X12344400Y-9500400D02*
X12344400Y-9600400D01*
X12294400Y-9550400D02*
X12394400Y-9550400D01*
X12344400Y-10313200D02*
X12344400Y-10413200D01*
X12294400Y-10363200D02*
X12394400Y-10363200D01*
X12344400Y-10567200D02*
X12344400Y-10667200D01*
X12294400Y-10617200D02*
X12394400Y-10617200D01*
X14503400Y-7062000D02*
X14503400Y-7162000D01*
X14453400Y-7112000D02*
X14553400Y-7112000D01*
X14757400Y-7062000D02*
X14757400Y-7162000D01*
X14707400Y-7112000D02*
X14807400Y-7112000D01*
X15011400Y-7062000D02*
X15011400Y-7162000D01*
X14961400Y-7112000D02*
X15061400Y-7112000D01*
X15265400Y-7062000D02*
X15265400Y-7162000D01*
X15215400Y-7112000D02*
X15315400Y-7112000D01*
X15417800Y-11888000D02*
X15417800Y-11988000D01*
X15367800Y-11938000D02*
X15467800Y-11938000D01*
X15519400Y-7062000D02*
X15519400Y-7162000D01*
X15469400Y-7112000D02*
X15569400Y-7112000D01*
X15671800Y-11888000D02*
X15671800Y-11988000D01*
X15621800Y-11938000D02*
X15721800Y-11938000D01*
X15773400Y-7062000D02*
X15773400Y-7162000D01*
X15723400Y-7112000D02*
X15823400Y-7112000D01*
X15925800Y-11888000D02*
X15925800Y-11988000D01*
X15875800Y-11938000D02*
X15975800Y-11938000D01*
X16027400Y-7062000D02*
X16027400Y-7162000D01*
X15977400Y-7112000D02*
X16077400Y-7112000D01*
X16179800Y-11888000D02*
X16179800Y-11988000D01*
X16129800Y-11938000D02*
X16229800Y-11938000D01*
X16281400Y-7062000D02*
X16281400Y-7162000D01*
X16231400Y-7112000D02*
X16331400Y-7112000D01*
X16433800Y-11888000D02*
X16433800Y-11988000D01*
X16383800Y-11938000D02*
X16483800Y-11938000D01*
X16535400Y-7062000D02*
X16535400Y-7162000D01*
X16485400Y-7112000D02*
X16585400Y-7112000D01*
X16687800Y-11888000D02*
X16687800Y-11988000D01*
X16637800Y-11938000D02*
X16737800Y-11938000D01*
X16789400Y-7062000D02*
X16789400Y-7162000D01*
X16739400Y-7112000D02*
X16839400Y-7112000D01*
X16941800Y-11888000D02*
X16941800Y-11988000D01*
X16891800Y-11938000D02*
X16991800Y-11938000D01*
X17195800Y-7062000D02*
X17195800Y-7162000D01*
X17145800Y-7112000D02*
X17245800Y-7112000D01*
X17195800Y-11888000D02*
X17195800Y-11988000D01*
X17145800Y-11938000D02*
X17245800Y-11938000D01*
X17449800Y-7062000D02*
X17449800Y-7162000D01*
X17399800Y-7112000D02*
X17499800Y-7112000D01*
X17703800Y-7062000D02*
X17703800Y-7162000D01*
X17653800Y-7112000D02*
X17753800Y-7112000D01*
X17703800Y-11888000D02*
X17703800Y-11988000D01*
X17653800Y-11938000D02*
X17753800Y-11938000D01*
X17957800Y-7062000D02*
X17957800Y-7162000D01*
X17907800Y-7112000D02*
X18007800Y-7112000D01*
X17957800Y-11888000D02*
X17957800Y-11988000D01*
X17907800Y-11938000D02*
X18007800Y-11938000D01*
X18211800Y-7062000D02*
X18211800Y-7162000D01*
X18161800Y-7112000D02*
X18261800Y-7112000D01*
X18211800Y-11888000D02*
X18211800Y-11988000D01*
X18161800Y-11938000D02*
X18261800Y-11938000D01*
X18465800Y-7062000D02*
X18465800Y-7162000D01*
X18415800Y-7112000D02*
X18515800Y-7112000D01*
X18465800Y-11888000D02*
X18465800Y-11988000D01*
X18415800Y-11938000D02*
X18515800Y-11938000D01*
X18719800Y-7062000D02*
X18719800Y-7162000D01*
X18669800Y-7112000D02*
X18769800Y-7112000D01*
X18719800Y-11888000D02*
X18719800Y-11988000D01*
X18669800Y-11938000D02*
X18769800Y-11938000D01*
X18973800Y-7062000D02*
X18973800Y-7162000D01*
X18923800Y-7112000D02*
X19023800Y-7112000D01*
X18973800Y-11888000D02*
X18973800Y-11988000D01*
X18923800Y-11938000D02*
X19023800Y-11938000D01*
X20828000Y-9245900D02*
X20828000Y-9345900D01*
X20778000Y-9295900D02*
X20878000Y-9295900D01*
X20828000Y-9499900D02*
X20828000Y-9599900D01*
X20778000Y-9549900D02*
X20878000Y-9549900D01*
X20828000Y-10313200D02*
X20828000Y-10413200D01*
X20778000Y-10363200D02*
X20878000Y-10363200D01*
X20828000Y-10567200D02*
X20828000Y-10667200D01*
X20778000Y-10617200D02*
X20878000Y-10617200D01*
D13*
X14983207Y-12415827D02*
X14983207Y-12330973D01*
X14898353Y-12330973D01*
X14898353Y-12415827D01*
X14983207Y-12415827D01*
X14983207Y-12865827D02*
X14983207Y-12780973D01*
X14898353Y-12780973D01*
X14898353Y-12865827D01*
X14983207Y-12865827D01*
X15633207Y-12415827D02*
X15633207Y-12330973D01*
X15548353Y-12330973D01*
X15548353Y-12415827D01*
X15633207Y-12415827D01*
X15633207Y-12865827D02*
X15633207Y-12780973D01*
X15548353Y-12780973D01*
X15548353Y-12865827D01*
X15633207Y-12865827D01*
X16252827Y-12415827D02*
X16252827Y-12330973D01*
X16167973Y-12330973D01*
X16167973Y-12415827D01*
X16252827Y-12415827D01*
X16252827Y-12865827D02*
X16252827Y-12780973D01*
X16167973Y-12780973D01*
X16167973Y-12865827D01*
X16252827Y-12865827D01*
X16902827Y-12415827D02*
X16902827Y-12330973D01*
X16817973Y-12330973D01*
X16817973Y-12415827D01*
X16902827Y-12415827D01*
X16902827Y-12865827D02*
X16902827Y-12780973D01*
X16817973Y-12780973D01*
X16817973Y-12865827D01*
X16902827Y-12865827D01*
X17523207Y-12415827D02*
X17523207Y-12330973D01*
X17438353Y-12330973D01*
X17438353Y-12415827D01*
X17523207Y-12415827D01*
X17523207Y-12865827D02*
X17523207Y-12780973D01*
X17438353Y-12780973D01*
X17438353Y-12865827D01*
X17523207Y-12865827D01*
X18173207Y-12415827D02*
X18173207Y-12330973D01*
X18088353Y-12330973D01*
X18088353Y-12415827D01*
X18173207Y-12415827D01*
X18173207Y-12865827D02*
X18173207Y-12780973D01*
X18088353Y-12780973D01*
X18088353Y-12865827D01*
X18173207Y-12865827D01*
D14*
X13385800Y-7680000D02*
X13445800Y-7620000D01*
X13385800Y-7560000D01*
X13325800Y-7620000D01*
X13385800Y-7680000D01*
X13639800Y-7680000D02*
X13699800Y-7620000D01*
X13639800Y-7560000D01*
X13579800Y-7620000D01*
X13639800Y-7680000D01*
X13893800Y-7680000D02*
X13953800Y-7620000D01*
X13893800Y-7560000D01*
X13833800Y-7620000D01*
X13893800Y-7680000D01*
X14147800Y-7680000D02*
X14207800Y-7620000D01*
X14147800Y-7560000D01*
X14087800Y-7620000D01*
X14147800Y-7680000D01*
X14401800Y-7680000D02*
X14461800Y-7620000D01*
X14401800Y-7560000D01*
X14341800Y-7620000D01*
X14401800Y-7680000D01*
X14655800Y-7680000D02*
X14715800Y-7620000D01*
X14655800Y-7560000D01*
X14595800Y-7620000D01*
X14655800Y-7680000D01*
X14909800Y-7680000D02*
X14969800Y-7620000D01*
X14909800Y-7560000D01*
X14849800Y-7620000D01*
X14909800Y-7680000D01*
X15163800Y-7680000D02*
X15223800Y-7620000D01*
X15163800Y-7560000D01*
X15103800Y-7620000D01*
X15163800Y-7680000D01*
X15417800Y-7680000D02*
X15477800Y-7620000D01*
X15417800Y-7560000D01*
X15357800Y-7620000D01*
X15417800Y-7680000D01*
X15671800Y-7680000D02*
X15731800Y-7620000D01*
X15671800Y-7560000D01*
X15611800Y-7620000D01*
X15671800Y-7680000D01*
X15925800Y-7680000D02*
X15985800Y-7620000D01*
X15925800Y-7560000D01*
X15865800Y-7620000D01*
X15925800Y-7680000D01*
X16179800Y-7680000D02*
X16239800Y-7620000D01*
X16179800Y-7560000D01*
X16119800Y-7620000D01*
X16179800Y-7680000D01*
X16433800Y-7680000D02*
X16493800Y-7620000D01*
X16433800Y-7560000D01*
X16373800Y-7620000D01*
X16433800Y-7680000D01*
X16687800Y-7680000D02*
X16747800Y-7620000D01*
X16687800Y-7560000D01*
X16627800Y-7620000D01*
X16687800Y-7680000D01*
X16941800Y-7680000D02*
X17001800Y-7620000D01*
X16941800Y-7560000D01*
X16881800Y-7620000D01*
X16941800Y-7680000D01*
X17195800Y-7680000D02*
X17255800Y-7620000D01*
X17195800Y-7560000D01*
X17135800Y-7620000D01*
X17195800Y-7680000D01*
D15*
X12710890Y-7495000D02*
X12960890Y-7745000D01*
X12960890Y-7495000D02*
X12710890Y-7745000D01*
X12960890Y-7620000D02*
G75*
G02*
X12710890Y-7620000I-125000J0D01*
G01*
X12710890Y-7620000D02*
G75*
G02*
X12960890Y-7620000I125000J0D01*
G01*
X12710890Y-10595070D02*
X12960890Y-10845070D01*
X12960890Y-10595070D02*
X12710890Y-10845070D01*
X12960890Y-10720070D02*
G75*
G02*
X12710890Y-10720070I-125000J0D01*
G01*
X12710890Y-10720070D02*
G75*
G02*
X12960890Y-10720070I125000J0D01*
G01*
X20210748Y-10595070D02*
X20460748Y-10845070D01*
X20460748Y-10595070D02*
X20210748Y-10845070D01*
X20460748Y-10720070D02*
G75*
G02*
X20210748Y-10720070I-125000J0D01*
G01*
X20210748Y-10720070D02*
G75*
G02*
X20460748Y-10720070I125000J0D01*
G01*
X20210800Y-7495000D02*
X20460800Y-7745000D01*
X20460800Y-7495000D02*
X20210800Y-7745000D01*
X20460800Y-7620000D02*
G75*
G02*
X20210800Y-7620000I-125000J0D01*
G01*
X20210800Y-7620000D02*
G75*
G02*
X20460800Y-7620000I125000J0D01*
G01*
D16*
X12362200Y-12463800D02*
X12682200Y-12783800D01*
X12682200Y-12463800D02*
X12362200Y-12783800D01*
X12522200Y-12463800D02*
X12522200Y-12783800D01*
X12362200Y-12623800D02*
X12682200Y-12623800D01*
X17162800Y-6494800D02*
X17482800Y-6814800D01*
X17482800Y-6494800D02*
X17162800Y-6814800D01*
X17322800Y-6494800D02*
X17322800Y-6814800D01*
X17162800Y-6654800D02*
X17482800Y-6654800D01*
X18636000Y-12463800D02*
X18956000Y-12783800D01*
X18956000Y-12463800D02*
X18636000Y-12783800D01*
X18796000Y-12463800D02*
X18796000Y-12783800D01*
X18636000Y-12623800D02*
X18956000Y-12623800D01*
D11*
X12297877Y-13420384D02*
X12297877Y-13220384D01*
X12297877Y-13220384D02*
X12345496Y-13220384D01*
X12345496Y-13220384D02*
X12374067Y-13229908D01*
X12374067Y-13229908D02*
X12393115Y-13248955D01*
X12393115Y-13248955D02*
X12402639Y-13268003D01*
X12402639Y-13268003D02*
X12412162Y-13306098D01*
X12412162Y-13306098D02*
X12412162Y-13334669D01*
X12412162Y-13334669D02*
X12402639Y-13372765D01*
X12402639Y-13372765D02*
X12393115Y-13391812D01*
X12393115Y-13391812D02*
X12374067Y-13410860D01*
X12374067Y-13410860D02*
X12345496Y-13420384D01*
X12345496Y-13420384D02*
X12297877Y-13420384D01*
X12497877Y-13420384D02*
X12497877Y-13287050D01*
X12497877Y-13325146D02*
X12507401Y-13306098D01*
X12507401Y-13306098D02*
X12516924Y-13296574D01*
X12516924Y-13296574D02*
X12535972Y-13287050D01*
X12535972Y-13287050D02*
X12555020Y-13287050D01*
X12621686Y-13420384D02*
X12621686Y-13287050D01*
X12621686Y-13220384D02*
X12612162Y-13229908D01*
X12612162Y-13229908D02*
X12621686Y-13239431D01*
X12621686Y-13239431D02*
X12631210Y-13229908D01*
X12631210Y-13229908D02*
X12621686Y-13220384D01*
X12621686Y-13220384D02*
X12621686Y-13239431D01*
X12745496Y-13420384D02*
X12726448Y-13410860D01*
X12726448Y-13410860D02*
X12716924Y-13391812D01*
X12716924Y-13391812D02*
X12716924Y-13220384D01*
X12850258Y-13420384D02*
X12831210Y-13410860D01*
X12831210Y-13410860D02*
X12821686Y-13391812D01*
X12821686Y-13391812D02*
X12821686Y-13220384D01*
X13078829Y-13420384D02*
X13078829Y-13220384D01*
X13078829Y-13220384D02*
X13145496Y-13363241D01*
X13145496Y-13363241D02*
X13212162Y-13220384D01*
X13212162Y-13220384D02*
X13212162Y-13420384D01*
X13393115Y-13420384D02*
X13393115Y-13315622D01*
X13393115Y-13315622D02*
X13383591Y-13296574D01*
X13383591Y-13296574D02*
X13364543Y-13287050D01*
X13364543Y-13287050D02*
X13326448Y-13287050D01*
X13326448Y-13287050D02*
X13307401Y-13296574D01*
X13393115Y-13410860D02*
X13374067Y-13420384D01*
X13374067Y-13420384D02*
X13326448Y-13420384D01*
X13326448Y-13420384D02*
X13307401Y-13410860D01*
X13307401Y-13410860D02*
X13297877Y-13391812D01*
X13297877Y-13391812D02*
X13297877Y-13372765D01*
X13297877Y-13372765D02*
X13307401Y-13353717D01*
X13307401Y-13353717D02*
X13326448Y-13344193D01*
X13326448Y-13344193D02*
X13374067Y-13344193D01*
X13374067Y-13344193D02*
X13393115Y-13334669D01*
X13488353Y-13287050D02*
X13488353Y-13487050D01*
X13488353Y-13296574D02*
X13507401Y-13287050D01*
X13507401Y-13287050D02*
X13545496Y-13287050D01*
X13545496Y-13287050D02*
X13564543Y-13296574D01*
X13564543Y-13296574D02*
X13574067Y-13306098D01*
X13574067Y-13306098D02*
X13583591Y-13325146D01*
X13583591Y-13325146D02*
X13583591Y-13382288D01*
X13583591Y-13382288D02*
X13574067Y-13401336D01*
X13574067Y-13401336D02*
X13564543Y-13410860D01*
X13564543Y-13410860D02*
X13545496Y-13420384D01*
X13545496Y-13420384D02*
X13507401Y-13420384D01*
X13507401Y-13420384D02*
X13488353Y-13410860D01*
X13669305Y-13401336D02*
X13678829Y-13410860D01*
X13678829Y-13410860D02*
X13669305Y-13420384D01*
X13669305Y-13420384D02*
X13659782Y-13410860D01*
X13659782Y-13410860D02*
X13669305Y-13401336D01*
X13669305Y-13401336D02*
X13669305Y-13420384D01*
X13669305Y-13296574D02*
X13678829Y-13306098D01*
X13678829Y-13306098D02*
X13669305Y-13315622D01*
X13669305Y-13315622D02*
X13659782Y-13306098D01*
X13659782Y-13306098D02*
X13669305Y-13296574D01*
X13669305Y-13296574D02*
X13669305Y-13315622D01*
D12*
X11962100Y-13711400D02*
X12037100Y-13786400D01*
X12037100Y-13711400D02*
X11962100Y-13786400D01*
D11*
X12335972Y-13640384D02*
X12355020Y-13640384D01*
X12355020Y-13640384D02*
X12374067Y-13649908D01*
X12374067Y-13649908D02*
X12383591Y-13659431D01*
X12383591Y-13659431D02*
X12393115Y-13678479D01*
X12393115Y-13678479D02*
X12402639Y-13716574D01*
X12402639Y-13716574D02*
X12402639Y-13764193D01*
X12402639Y-13764193D02*
X12393115Y-13802288D01*
X12393115Y-13802288D02*
X12383591Y-13821336D01*
X12383591Y-13821336D02*
X12374067Y-13830860D01*
X12374067Y-13830860D02*
X12355020Y-13840384D01*
X12355020Y-13840384D02*
X12335972Y-13840384D01*
X12335972Y-13840384D02*
X12316924Y-13830860D01*
X12316924Y-13830860D02*
X12307401Y-13821336D01*
X12307401Y-13821336D02*
X12297877Y-13802288D01*
X12297877Y-13802288D02*
X12288353Y-13764193D01*
X12288353Y-13764193D02*
X12288353Y-13716574D01*
X12288353Y-13716574D02*
X12297877Y-13678479D01*
X12297877Y-13678479D02*
X12307401Y-13659431D01*
X12307401Y-13659431D02*
X12316924Y-13649908D01*
X12316924Y-13649908D02*
X12335972Y-13640384D01*
X12488353Y-13821336D02*
X12497877Y-13830860D01*
X12497877Y-13830860D02*
X12488353Y-13840384D01*
X12488353Y-13840384D02*
X12478829Y-13830860D01*
X12478829Y-13830860D02*
X12488353Y-13821336D01*
X12488353Y-13821336D02*
X12488353Y-13840384D01*
X12564543Y-13640384D02*
X12697877Y-13640384D01*
X12697877Y-13640384D02*
X12612162Y-13840384D01*
X12869305Y-13640384D02*
X12774067Y-13640384D01*
X12774067Y-13640384D02*
X12764543Y-13735622D01*
X12764543Y-13735622D02*
X12774067Y-13726098D01*
X12774067Y-13726098D02*
X12793115Y-13716574D01*
X12793115Y-13716574D02*
X12840734Y-13716574D01*
X12840734Y-13716574D02*
X12859782Y-13726098D01*
X12859782Y-13726098D02*
X12869305Y-13735622D01*
X12869305Y-13735622D02*
X12878829Y-13754669D01*
X12878829Y-13754669D02*
X12878829Y-13802288D01*
X12878829Y-13802288D02*
X12869305Y-13821336D01*
X12869305Y-13821336D02*
X12859782Y-13830860D01*
X12859782Y-13830860D02*
X12840734Y-13840384D01*
X12840734Y-13840384D02*
X12793115Y-13840384D01*
X12793115Y-13840384D02*
X12774067Y-13830860D01*
X12774067Y-13830860D02*
X12764543Y-13821336D01*
X13002639Y-13640384D02*
X13021686Y-13640384D01*
X13021686Y-13640384D02*
X13040734Y-13649908D01*
X13040734Y-13649908D02*
X13050258Y-13659431D01*
X13050258Y-13659431D02*
X13059782Y-13678479D01*
X13059782Y-13678479D02*
X13069305Y-13716574D01*
X13069305Y-13716574D02*
X13069305Y-13764193D01*
X13069305Y-13764193D02*
X13059782Y-13802288D01*
X13059782Y-13802288D02*
X13050258Y-13821336D01*
X13050258Y-13821336D02*
X13040734Y-13830860D01*
X13040734Y-13830860D02*
X13021686Y-13840384D01*
X13021686Y-13840384D02*
X13002639Y-13840384D01*
X13002639Y-13840384D02*
X12983591Y-13830860D01*
X12983591Y-13830860D02*
X12974067Y-13821336D01*
X12974067Y-13821336D02*
X12964543Y-13802288D01*
X12964543Y-13802288D02*
X12955020Y-13764193D01*
X12955020Y-13764193D02*
X12955020Y-13716574D01*
X12955020Y-13716574D02*
X12964543Y-13678479D01*
X12964543Y-13678479D02*
X12974067Y-13659431D01*
X12974067Y-13659431D02*
X12983591Y-13649908D01*
X12983591Y-13649908D02*
X13002639Y-13640384D01*
X13155020Y-13840384D02*
X13155020Y-13707050D01*
X13155020Y-13726098D02*
X13164543Y-13716574D01*
X13164543Y-13716574D02*
X13183591Y-13707050D01*
X13183591Y-13707050D02*
X13212163Y-13707050D01*
X13212163Y-13707050D02*
X13231210Y-13716574D01*
X13231210Y-13716574D02*
X13240734Y-13735622D01*
X13240734Y-13735622D02*
X13240734Y-13840384D01*
X13240734Y-13735622D02*
X13250258Y-13716574D01*
X13250258Y-13716574D02*
X13269305Y-13707050D01*
X13269305Y-13707050D02*
X13297877Y-13707050D01*
X13297877Y-13707050D02*
X13316924Y-13716574D01*
X13316924Y-13716574D02*
X13326448Y-13735622D01*
X13326448Y-13735622D02*
X13326448Y-13840384D01*
X13421686Y-13840384D02*
X13421686Y-13707050D01*
X13421686Y-13726098D02*
X13431210Y-13716574D01*
X13431210Y-13716574D02*
X13450258Y-13707050D01*
X13450258Y-13707050D02*
X13478829Y-13707050D01*
X13478829Y-13707050D02*
X13497877Y-13716574D01*
X13497877Y-13716574D02*
X13507401Y-13735622D01*
X13507401Y-13735622D02*
X13507401Y-13840384D01*
X13507401Y-13735622D02*
X13516924Y-13716574D01*
X13516924Y-13716574D02*
X13535972Y-13707050D01*
X13535972Y-13707050D02*
X13564543Y-13707050D01*
X13564543Y-13707050D02*
X13583591Y-13716574D01*
X13583591Y-13716574D02*
X13593115Y-13735622D01*
X13593115Y-13735622D02*
X13593115Y-13840384D01*
X13983591Y-13630860D02*
X13812163Y-13888003D01*
X14240734Y-13640384D02*
X14259782Y-13640384D01*
X14259782Y-13640384D02*
X14278829Y-13649908D01*
X14278829Y-13649908D02*
X14288353Y-13659431D01*
X14288353Y-13659431D02*
X14297877Y-13678479D01*
X14297877Y-13678479D02*
X14307401Y-13716574D01*
X14307401Y-13716574D02*
X14307401Y-13764193D01*
X14307401Y-13764193D02*
X14297877Y-13802288D01*
X14297877Y-13802288D02*
X14288353Y-13821336D01*
X14288353Y-13821336D02*
X14278829Y-13830860D01*
X14278829Y-13830860D02*
X14259782Y-13840384D01*
X14259782Y-13840384D02*
X14240734Y-13840384D01*
X14240734Y-13840384D02*
X14221686Y-13830860D01*
X14221686Y-13830860D02*
X14212163Y-13821336D01*
X14212163Y-13821336D02*
X14202639Y-13802288D01*
X14202639Y-13802288D02*
X14193115Y-13764193D01*
X14193115Y-13764193D02*
X14193115Y-13716574D01*
X14193115Y-13716574D02*
X14202639Y-13678479D01*
X14202639Y-13678479D02*
X14212163Y-13659431D01*
X14212163Y-13659431D02*
X14221686Y-13649908D01*
X14221686Y-13649908D02*
X14240734Y-13640384D01*
X14393115Y-13821336D02*
X14402639Y-13830860D01*
X14402639Y-13830860D02*
X14393115Y-13840384D01*
X14393115Y-13840384D02*
X14383591Y-13830860D01*
X14383591Y-13830860D02*
X14393115Y-13821336D01*
X14393115Y-13821336D02*
X14393115Y-13840384D01*
X14526448Y-13640384D02*
X14545496Y-13640384D01*
X14545496Y-13640384D02*
X14564544Y-13649908D01*
X14564544Y-13649908D02*
X14574067Y-13659431D01*
X14574067Y-13659431D02*
X14583591Y-13678479D01*
X14583591Y-13678479D02*
X14593115Y-13716574D01*
X14593115Y-13716574D02*
X14593115Y-13764193D01*
X14593115Y-13764193D02*
X14583591Y-13802288D01*
X14583591Y-13802288D02*
X14574067Y-13821336D01*
X14574067Y-13821336D02*
X14564544Y-13830860D01*
X14564544Y-13830860D02*
X14545496Y-13840384D01*
X14545496Y-13840384D02*
X14526448Y-13840384D01*
X14526448Y-13840384D02*
X14507401Y-13830860D01*
X14507401Y-13830860D02*
X14497877Y-13821336D01*
X14497877Y-13821336D02*
X14488353Y-13802288D01*
X14488353Y-13802288D02*
X14478829Y-13764193D01*
X14478829Y-13764193D02*
X14478829Y-13716574D01*
X14478829Y-13716574D02*
X14488353Y-13678479D01*
X14488353Y-13678479D02*
X14497877Y-13659431D01*
X14497877Y-13659431D02*
X14507401Y-13649908D01*
X14507401Y-13649908D02*
X14526448Y-13640384D01*
X14669306Y-13659431D02*
X14678829Y-13649908D01*
X14678829Y-13649908D02*
X14697877Y-13640384D01*
X14697877Y-13640384D02*
X14745496Y-13640384D01*
X14745496Y-13640384D02*
X14764544Y-13649908D01*
X14764544Y-13649908D02*
X14774067Y-13659431D01*
X14774067Y-13659431D02*
X14783591Y-13678479D01*
X14783591Y-13678479D02*
X14783591Y-13697527D01*
X14783591Y-13697527D02*
X14774067Y-13726098D01*
X14774067Y-13726098D02*
X14659782Y-13840384D01*
X14659782Y-13840384D02*
X14783591Y-13840384D01*
X14878829Y-13840384D02*
X14916925Y-13840384D01*
X14916925Y-13840384D02*
X14935972Y-13830860D01*
X14935972Y-13830860D02*
X14945496Y-13821336D01*
X14945496Y-13821336D02*
X14964544Y-13792765D01*
X14964544Y-13792765D02*
X14974067Y-13754669D01*
X14974067Y-13754669D02*
X14974067Y-13678479D01*
X14974067Y-13678479D02*
X14964544Y-13659431D01*
X14964544Y-13659431D02*
X14955020Y-13649908D01*
X14955020Y-13649908D02*
X14935972Y-13640384D01*
X14935972Y-13640384D02*
X14897877Y-13640384D01*
X14897877Y-13640384D02*
X14878829Y-13649908D01*
X14878829Y-13649908D02*
X14869306Y-13659431D01*
X14869306Y-13659431D02*
X14859782Y-13678479D01*
X14859782Y-13678479D02*
X14859782Y-13726098D01*
X14859782Y-13726098D02*
X14869306Y-13745146D01*
X14869306Y-13745146D02*
X14878829Y-13754669D01*
X14878829Y-13754669D02*
X14897877Y-13764193D01*
X14897877Y-13764193D02*
X14935972Y-13764193D01*
X14935972Y-13764193D02*
X14955020Y-13754669D01*
X14955020Y-13754669D02*
X14964544Y-13745146D01*
X14964544Y-13745146D02*
X14974067Y-13726098D01*
X15155020Y-13640384D02*
X15059782Y-13640384D01*
X15059782Y-13640384D02*
X15050258Y-13735622D01*
X15050258Y-13735622D02*
X15059782Y-13726098D01*
X15059782Y-13726098D02*
X15078829Y-13716574D01*
X15078829Y-13716574D02*
X15126448Y-13716574D01*
X15126448Y-13716574D02*
X15145496Y-13726098D01*
X15145496Y-13726098D02*
X15155020Y-13735622D01*
X15155020Y-13735622D02*
X15164544Y-13754669D01*
X15164544Y-13754669D02*
X15164544Y-13802288D01*
X15164544Y-13802288D02*
X15155020Y-13821336D01*
X15155020Y-13821336D02*
X15145496Y-13830860D01*
X15145496Y-13830860D02*
X15126448Y-13840384D01*
X15126448Y-13840384D02*
X15078829Y-13840384D01*
X15078829Y-13840384D02*
X15059782Y-13830860D01*
X15059782Y-13830860D02*
X15050258Y-13821336D01*
X15240734Y-13640384D02*
X15240734Y-13678479D01*
X15316925Y-13640384D02*
X15316925Y-13678479D01*
X15612163Y-13916574D02*
X15602639Y-13907050D01*
X15602639Y-13907050D02*
X15583591Y-13878479D01*
X15583591Y-13878479D02*
X15574068Y-13859431D01*
X15574068Y-13859431D02*
X15564544Y-13830860D01*
X15564544Y-13830860D02*
X15555020Y-13783241D01*
X15555020Y-13783241D02*
X15555020Y-13745146D01*
X15555020Y-13745146D02*
X15564544Y-13697527D01*
X15564544Y-13697527D02*
X15574068Y-13668955D01*
X15574068Y-13668955D02*
X15583591Y-13649908D01*
X15583591Y-13649908D02*
X15602639Y-13621336D01*
X15602639Y-13621336D02*
X15612163Y-13611812D01*
X15774068Y-13640384D02*
X15735972Y-13640384D01*
X15735972Y-13640384D02*
X15716925Y-13649908D01*
X15716925Y-13649908D02*
X15707401Y-13659431D01*
X15707401Y-13659431D02*
X15688353Y-13688003D01*
X15688353Y-13688003D02*
X15678829Y-13726098D01*
X15678829Y-13726098D02*
X15678829Y-13802288D01*
X15678829Y-13802288D02*
X15688353Y-13821336D01*
X15688353Y-13821336D02*
X15697877Y-13830860D01*
X15697877Y-13830860D02*
X15716925Y-13840384D01*
X15716925Y-13840384D02*
X15755020Y-13840384D01*
X15755020Y-13840384D02*
X15774068Y-13830860D01*
X15774068Y-13830860D02*
X15783591Y-13821336D01*
X15783591Y-13821336D02*
X15793115Y-13802288D01*
X15793115Y-13802288D02*
X15793115Y-13754669D01*
X15793115Y-13754669D02*
X15783591Y-13735622D01*
X15783591Y-13735622D02*
X15774068Y-13726098D01*
X15774068Y-13726098D02*
X15755020Y-13716574D01*
X15755020Y-13716574D02*
X15716925Y-13716574D01*
X15716925Y-13716574D02*
X15697877Y-13726098D01*
X15697877Y-13726098D02*
X15688353Y-13735622D01*
X15688353Y-13735622D02*
X15678829Y-13754669D01*
X16031210Y-13840384D02*
X16031210Y-13640384D01*
X16116925Y-13840384D02*
X16116925Y-13735622D01*
X16116925Y-13735622D02*
X16107401Y-13716574D01*
X16107401Y-13716574D02*
X16088353Y-13707050D01*
X16088353Y-13707050D02*
X16059782Y-13707050D01*
X16059782Y-13707050D02*
X16040734Y-13716574D01*
X16040734Y-13716574D02*
X16031210Y-13726098D01*
X16240734Y-13840384D02*
X16221687Y-13830860D01*
X16221687Y-13830860D02*
X16212163Y-13821336D01*
X16212163Y-13821336D02*
X16202639Y-13802288D01*
X16202639Y-13802288D02*
X16202639Y-13745146D01*
X16202639Y-13745146D02*
X16212163Y-13726098D01*
X16212163Y-13726098D02*
X16221687Y-13716574D01*
X16221687Y-13716574D02*
X16240734Y-13707050D01*
X16240734Y-13707050D02*
X16269306Y-13707050D01*
X16269306Y-13707050D02*
X16288353Y-13716574D01*
X16288353Y-13716574D02*
X16297877Y-13726098D01*
X16297877Y-13726098D02*
X16307401Y-13745146D01*
X16307401Y-13745146D02*
X16307401Y-13802288D01*
X16307401Y-13802288D02*
X16297877Y-13821336D01*
X16297877Y-13821336D02*
X16288353Y-13830860D01*
X16288353Y-13830860D02*
X16269306Y-13840384D01*
X16269306Y-13840384D02*
X16240734Y-13840384D01*
X16421687Y-13840384D02*
X16402639Y-13830860D01*
X16402639Y-13830860D02*
X16393115Y-13811812D01*
X16393115Y-13811812D02*
X16393115Y-13640384D01*
X16574068Y-13830860D02*
X16555020Y-13840384D01*
X16555020Y-13840384D02*
X16516925Y-13840384D01*
X16516925Y-13840384D02*
X16497877Y-13830860D01*
X16497877Y-13830860D02*
X16488353Y-13811812D01*
X16488353Y-13811812D02*
X16488353Y-13735622D01*
X16488353Y-13735622D02*
X16497877Y-13716574D01*
X16497877Y-13716574D02*
X16516925Y-13707050D01*
X16516925Y-13707050D02*
X16555020Y-13707050D01*
X16555020Y-13707050D02*
X16574068Y-13716574D01*
X16574068Y-13716574D02*
X16583591Y-13735622D01*
X16583591Y-13735622D02*
X16583591Y-13754669D01*
X16583591Y-13754669D02*
X16488353Y-13773717D01*
X16659782Y-13830860D02*
X16678830Y-13840384D01*
X16678830Y-13840384D02*
X16716925Y-13840384D01*
X16716925Y-13840384D02*
X16735972Y-13830860D01*
X16735972Y-13830860D02*
X16745496Y-13811812D01*
X16745496Y-13811812D02*
X16745496Y-13802288D01*
X16745496Y-13802288D02*
X16735972Y-13783241D01*
X16735972Y-13783241D02*
X16716925Y-13773717D01*
X16716925Y-13773717D02*
X16688353Y-13773717D01*
X16688353Y-13773717D02*
X16669306Y-13764193D01*
X16669306Y-13764193D02*
X16659782Y-13745146D01*
X16659782Y-13745146D02*
X16659782Y-13735622D01*
X16659782Y-13735622D02*
X16669306Y-13716574D01*
X16669306Y-13716574D02*
X16688353Y-13707050D01*
X16688353Y-13707050D02*
X16716925Y-13707050D01*
X16716925Y-13707050D02*
X16735972Y-13716574D01*
X16812163Y-13916574D02*
X16821687Y-13907050D01*
X16821687Y-13907050D02*
X16840734Y-13878479D01*
X16840734Y-13878479D02*
X16850258Y-13859431D01*
X16850258Y-13859431D02*
X16859782Y-13830860D01*
X16859782Y-13830860D02*
X16869306Y-13783241D01*
X16869306Y-13783241D02*
X16869306Y-13745146D01*
X16869306Y-13745146D02*
X16859782Y-13697527D01*
X16859782Y-13697527D02*
X16850258Y-13668955D01*
X16850258Y-13668955D02*
X16840734Y-13649908D01*
X16840734Y-13649908D02*
X16821687Y-13621336D01*
X16821687Y-13621336D02*
X16812163Y-13611812D01*
D12*
X12037100Y-14012900D02*
G75*
G02*
X11957100Y-14012900I-40000J0D01*
G01*
X11957100Y-14012900D02*
G75*
G02*
X12037100Y-14012900I40000J0D01*
G01*
D11*
X12335972Y-13904384D02*
X12355020Y-13904384D01*
X12355020Y-13904384D02*
X12374067Y-13913908D01*
X12374067Y-13913908D02*
X12383591Y-13923431D01*
X12383591Y-13923431D02*
X12393115Y-13942479D01*
X12393115Y-13942479D02*
X12402639Y-13980574D01*
X12402639Y-13980574D02*
X12402639Y-14028193D01*
X12402639Y-14028193D02*
X12393115Y-14066288D01*
X12393115Y-14066288D02*
X12383591Y-14085336D01*
X12383591Y-14085336D02*
X12374067Y-14094860D01*
X12374067Y-14094860D02*
X12355020Y-14104384D01*
X12355020Y-14104384D02*
X12335972Y-14104384D01*
X12335972Y-14104384D02*
X12316924Y-14094860D01*
X12316924Y-14094860D02*
X12307401Y-14085336D01*
X12307401Y-14085336D02*
X12297877Y-14066288D01*
X12297877Y-14066288D02*
X12288353Y-14028193D01*
X12288353Y-14028193D02*
X12288353Y-13980574D01*
X12288353Y-13980574D02*
X12297877Y-13942479D01*
X12297877Y-13942479D02*
X12307401Y-13923431D01*
X12307401Y-13923431D02*
X12316924Y-13913908D01*
X12316924Y-13913908D02*
X12335972Y-13904384D01*
X12488353Y-14085336D02*
X12497877Y-14094860D01*
X12497877Y-14094860D02*
X12488353Y-14104384D01*
X12488353Y-14104384D02*
X12478829Y-14094860D01*
X12478829Y-14094860D02*
X12488353Y-14085336D01*
X12488353Y-14085336D02*
X12488353Y-14104384D01*
X12612162Y-13990098D02*
X12593115Y-13980574D01*
X12593115Y-13980574D02*
X12583591Y-13971050D01*
X12583591Y-13971050D02*
X12574067Y-13952003D01*
X12574067Y-13952003D02*
X12574067Y-13942479D01*
X12574067Y-13942479D02*
X12583591Y-13923431D01*
X12583591Y-13923431D02*
X12593115Y-13913908D01*
X12593115Y-13913908D02*
X12612162Y-13904384D01*
X12612162Y-13904384D02*
X12650258Y-13904384D01*
X12650258Y-13904384D02*
X12669305Y-13913908D01*
X12669305Y-13913908D02*
X12678829Y-13923431D01*
X12678829Y-13923431D02*
X12688353Y-13942479D01*
X12688353Y-13942479D02*
X12688353Y-13952003D01*
X12688353Y-13952003D02*
X12678829Y-13971050D01*
X12678829Y-13971050D02*
X12669305Y-13980574D01*
X12669305Y-13980574D02*
X12650258Y-13990098D01*
X12650258Y-13990098D02*
X12612162Y-13990098D01*
X12612162Y-13990098D02*
X12593115Y-13999622D01*
X12593115Y-13999622D02*
X12583591Y-14009146D01*
X12583591Y-14009146D02*
X12574067Y-14028193D01*
X12574067Y-14028193D02*
X12574067Y-14066288D01*
X12574067Y-14066288D02*
X12583591Y-14085336D01*
X12583591Y-14085336D02*
X12593115Y-14094860D01*
X12593115Y-14094860D02*
X12612162Y-14104384D01*
X12612162Y-14104384D02*
X12650258Y-14104384D01*
X12650258Y-14104384D02*
X12669305Y-14094860D01*
X12669305Y-14094860D02*
X12678829Y-14085336D01*
X12678829Y-14085336D02*
X12688353Y-14066288D01*
X12688353Y-14066288D02*
X12688353Y-14028193D01*
X12688353Y-14028193D02*
X12678829Y-14009146D01*
X12678829Y-14009146D02*
X12669305Y-13999622D01*
X12669305Y-13999622D02*
X12650258Y-13990098D01*
X12812162Y-13904384D02*
X12831210Y-13904384D01*
X12831210Y-13904384D02*
X12850258Y-13913908D01*
X12850258Y-13913908D02*
X12859782Y-13923431D01*
X12859782Y-13923431D02*
X12869305Y-13942479D01*
X12869305Y-13942479D02*
X12878829Y-13980574D01*
X12878829Y-13980574D02*
X12878829Y-14028193D01*
X12878829Y-14028193D02*
X12869305Y-14066288D01*
X12869305Y-14066288D02*
X12859782Y-14085336D01*
X12859782Y-14085336D02*
X12850258Y-14094860D01*
X12850258Y-14094860D02*
X12831210Y-14104384D01*
X12831210Y-14104384D02*
X12812162Y-14104384D01*
X12812162Y-14104384D02*
X12793115Y-14094860D01*
X12793115Y-14094860D02*
X12783591Y-14085336D01*
X12783591Y-14085336D02*
X12774067Y-14066288D01*
X12774067Y-14066288D02*
X12764543Y-14028193D01*
X12764543Y-14028193D02*
X12764543Y-13980574D01*
X12764543Y-13980574D02*
X12774067Y-13942479D01*
X12774067Y-13942479D02*
X12783591Y-13923431D01*
X12783591Y-13923431D02*
X12793115Y-13913908D01*
X12793115Y-13913908D02*
X12812162Y-13904384D01*
X13002639Y-13904384D02*
X13021686Y-13904384D01*
X13021686Y-13904384D02*
X13040734Y-13913908D01*
X13040734Y-13913908D02*
X13050258Y-13923431D01*
X13050258Y-13923431D02*
X13059782Y-13942479D01*
X13059782Y-13942479D02*
X13069305Y-13980574D01*
X13069305Y-13980574D02*
X13069305Y-14028193D01*
X13069305Y-14028193D02*
X13059782Y-14066288D01*
X13059782Y-14066288D02*
X13050258Y-14085336D01*
X13050258Y-14085336D02*
X13040734Y-14094860D01*
X13040734Y-14094860D02*
X13021686Y-14104384D01*
X13021686Y-14104384D02*
X13002639Y-14104384D01*
X13002639Y-14104384D02*
X12983591Y-14094860D01*
X12983591Y-14094860D02*
X12974067Y-14085336D01*
X12974067Y-14085336D02*
X12964543Y-14066288D01*
X12964543Y-14066288D02*
X12955020Y-14028193D01*
X12955020Y-14028193D02*
X12955020Y-13980574D01*
X12955020Y-13980574D02*
X12964543Y-13942479D01*
X12964543Y-13942479D02*
X12974067Y-13923431D01*
X12974067Y-13923431D02*
X12983591Y-13913908D01*
X12983591Y-13913908D02*
X13002639Y-13904384D01*
X13155020Y-14104384D02*
X13155020Y-13971050D01*
X13155020Y-13990098D02*
X13164543Y-13980574D01*
X13164543Y-13980574D02*
X13183591Y-13971050D01*
X13183591Y-13971050D02*
X13212163Y-13971050D01*
X13212163Y-13971050D02*
X13231210Y-13980574D01*
X13231210Y-13980574D02*
X13240734Y-13999622D01*
X13240734Y-13999622D02*
X13240734Y-14104384D01*
X13240734Y-13999622D02*
X13250258Y-13980574D01*
X13250258Y-13980574D02*
X13269305Y-13971050D01*
X13269305Y-13971050D02*
X13297877Y-13971050D01*
X13297877Y-13971050D02*
X13316924Y-13980574D01*
X13316924Y-13980574D02*
X13326448Y-13999622D01*
X13326448Y-13999622D02*
X13326448Y-14104384D01*
X13421686Y-14104384D02*
X13421686Y-13971050D01*
X13421686Y-13990098D02*
X13431210Y-13980574D01*
X13431210Y-13980574D02*
X13450258Y-13971050D01*
X13450258Y-13971050D02*
X13478829Y-13971050D01*
X13478829Y-13971050D02*
X13497877Y-13980574D01*
X13497877Y-13980574D02*
X13507401Y-13999622D01*
X13507401Y-13999622D02*
X13507401Y-14104384D01*
X13507401Y-13999622D02*
X13516924Y-13980574D01*
X13516924Y-13980574D02*
X13535972Y-13971050D01*
X13535972Y-13971050D02*
X13564543Y-13971050D01*
X13564543Y-13971050D02*
X13583591Y-13980574D01*
X13583591Y-13980574D02*
X13593115Y-13999622D01*
X13593115Y-13999622D02*
X13593115Y-14104384D01*
X13983591Y-13894860D02*
X13812163Y-14152003D01*
X14240734Y-13904384D02*
X14259782Y-13904384D01*
X14259782Y-13904384D02*
X14278829Y-13913908D01*
X14278829Y-13913908D02*
X14288353Y-13923431D01*
X14288353Y-13923431D02*
X14297877Y-13942479D01*
X14297877Y-13942479D02*
X14307401Y-13980574D01*
X14307401Y-13980574D02*
X14307401Y-14028193D01*
X14307401Y-14028193D02*
X14297877Y-14066288D01*
X14297877Y-14066288D02*
X14288353Y-14085336D01*
X14288353Y-14085336D02*
X14278829Y-14094860D01*
X14278829Y-14094860D02*
X14259782Y-14104384D01*
X14259782Y-14104384D02*
X14240734Y-14104384D01*
X14240734Y-14104384D02*
X14221686Y-14094860D01*
X14221686Y-14094860D02*
X14212163Y-14085336D01*
X14212163Y-14085336D02*
X14202639Y-14066288D01*
X14202639Y-14066288D02*
X14193115Y-14028193D01*
X14193115Y-14028193D02*
X14193115Y-13980574D01*
X14193115Y-13980574D02*
X14202639Y-13942479D01*
X14202639Y-13942479D02*
X14212163Y-13923431D01*
X14212163Y-13923431D02*
X14221686Y-13913908D01*
X14221686Y-13913908D02*
X14240734Y-13904384D01*
X14393115Y-14085336D02*
X14402639Y-14094860D01*
X14402639Y-14094860D02*
X14393115Y-14104384D01*
X14393115Y-14104384D02*
X14383591Y-14094860D01*
X14383591Y-14094860D02*
X14393115Y-14085336D01*
X14393115Y-14085336D02*
X14393115Y-14104384D01*
X14526448Y-13904384D02*
X14545496Y-13904384D01*
X14545496Y-13904384D02*
X14564544Y-13913908D01*
X14564544Y-13913908D02*
X14574067Y-13923431D01*
X14574067Y-13923431D02*
X14583591Y-13942479D01*
X14583591Y-13942479D02*
X14593115Y-13980574D01*
X14593115Y-13980574D02*
X14593115Y-14028193D01*
X14593115Y-14028193D02*
X14583591Y-14066288D01*
X14583591Y-14066288D02*
X14574067Y-14085336D01*
X14574067Y-14085336D02*
X14564544Y-14094860D01*
X14564544Y-14094860D02*
X14545496Y-14104384D01*
X14545496Y-14104384D02*
X14526448Y-14104384D01*
X14526448Y-14104384D02*
X14507401Y-14094860D01*
X14507401Y-14094860D02*
X14497877Y-14085336D01*
X14497877Y-14085336D02*
X14488353Y-14066288D01*
X14488353Y-14066288D02*
X14478829Y-14028193D01*
X14478829Y-14028193D02*
X14478829Y-13980574D01*
X14478829Y-13980574D02*
X14488353Y-13942479D01*
X14488353Y-13942479D02*
X14497877Y-13923431D01*
X14497877Y-13923431D02*
X14507401Y-13913908D01*
X14507401Y-13913908D02*
X14526448Y-13904384D01*
X14659782Y-13904384D02*
X14783591Y-13904384D01*
X14783591Y-13904384D02*
X14716925Y-13980574D01*
X14716925Y-13980574D02*
X14745496Y-13980574D01*
X14745496Y-13980574D02*
X14764544Y-13990098D01*
X14764544Y-13990098D02*
X14774067Y-13999622D01*
X14774067Y-13999622D02*
X14783591Y-14018669D01*
X14783591Y-14018669D02*
X14783591Y-14066288D01*
X14783591Y-14066288D02*
X14774067Y-14085336D01*
X14774067Y-14085336D02*
X14764544Y-14094860D01*
X14764544Y-14094860D02*
X14745496Y-14104384D01*
X14745496Y-14104384D02*
X14688353Y-14104384D01*
X14688353Y-14104384D02*
X14669306Y-14094860D01*
X14669306Y-14094860D02*
X14659782Y-14085336D01*
X14974067Y-14104384D02*
X14859782Y-14104384D01*
X14916925Y-14104384D02*
X14916925Y-13904384D01*
X14916925Y-13904384D02*
X14897877Y-13932955D01*
X14897877Y-13932955D02*
X14878829Y-13952003D01*
X14878829Y-13952003D02*
X14859782Y-13961527D01*
X15155020Y-13904384D02*
X15059782Y-13904384D01*
X15059782Y-13904384D02*
X15050258Y-13999622D01*
X15050258Y-13999622D02*
X15059782Y-13990098D01*
X15059782Y-13990098D02*
X15078829Y-13980574D01*
X15078829Y-13980574D02*
X15126448Y-13980574D01*
X15126448Y-13980574D02*
X15145496Y-13990098D01*
X15145496Y-13990098D02*
X15155020Y-13999622D01*
X15155020Y-13999622D02*
X15164544Y-14018669D01*
X15164544Y-14018669D02*
X15164544Y-14066288D01*
X15164544Y-14066288D02*
X15155020Y-14085336D01*
X15155020Y-14085336D02*
X15145496Y-14094860D01*
X15145496Y-14094860D02*
X15126448Y-14104384D01*
X15126448Y-14104384D02*
X15078829Y-14104384D01*
X15078829Y-14104384D02*
X15059782Y-14094860D01*
X15059782Y-14094860D02*
X15050258Y-14085336D01*
X15240734Y-13904384D02*
X15240734Y-13942479D01*
X15316925Y-13904384D02*
X15316925Y-13942479D01*
X15612163Y-14180574D02*
X15602639Y-14171050D01*
X15602639Y-14171050D02*
X15583591Y-14142479D01*
X15583591Y-14142479D02*
X15574068Y-14123431D01*
X15574068Y-14123431D02*
X15564544Y-14094860D01*
X15564544Y-14094860D02*
X15555020Y-14047241D01*
X15555020Y-14047241D02*
X15555020Y-14009146D01*
X15555020Y-14009146D02*
X15564544Y-13961527D01*
X15564544Y-13961527D02*
X15574068Y-13932955D01*
X15574068Y-13932955D02*
X15583591Y-13913908D01*
X15583591Y-13913908D02*
X15602639Y-13885336D01*
X15602639Y-13885336D02*
X15612163Y-13875812D01*
X15669306Y-13904384D02*
X15793115Y-13904384D01*
X15793115Y-13904384D02*
X15726448Y-13980574D01*
X15726448Y-13980574D02*
X15755020Y-13980574D01*
X15755020Y-13980574D02*
X15774068Y-13990098D01*
X15774068Y-13990098D02*
X15783591Y-13999622D01*
X15783591Y-13999622D02*
X15793115Y-14018669D01*
X15793115Y-14018669D02*
X15793115Y-14066288D01*
X15793115Y-14066288D02*
X15783591Y-14085336D01*
X15783591Y-14085336D02*
X15774068Y-14094860D01*
X15774068Y-14094860D02*
X15755020Y-14104384D01*
X15755020Y-14104384D02*
X15697877Y-14104384D01*
X15697877Y-14104384D02*
X15678829Y-14094860D01*
X15678829Y-14094860D02*
X15669306Y-14085336D01*
X15983591Y-14104384D02*
X15869306Y-14104384D01*
X15926448Y-14104384D02*
X15926448Y-13904384D01*
X15926448Y-13904384D02*
X15907401Y-13932955D01*
X15907401Y-13932955D02*
X15888353Y-13952003D01*
X15888353Y-13952003D02*
X15869306Y-13961527D01*
X16221687Y-14104384D02*
X16221687Y-13904384D01*
X16307401Y-14104384D02*
X16307401Y-13999622D01*
X16307401Y-13999622D02*
X16297877Y-13980574D01*
X16297877Y-13980574D02*
X16278830Y-13971050D01*
X16278830Y-13971050D02*
X16250258Y-13971050D01*
X16250258Y-13971050D02*
X16231210Y-13980574D01*
X16231210Y-13980574D02*
X16221687Y-13990098D01*
X16431210Y-14104384D02*
X16412163Y-14094860D01*
X16412163Y-14094860D02*
X16402639Y-14085336D01*
X16402639Y-14085336D02*
X16393115Y-14066288D01*
X16393115Y-14066288D02*
X16393115Y-14009146D01*
X16393115Y-14009146D02*
X16402639Y-13990098D01*
X16402639Y-13990098D02*
X16412163Y-13980574D01*
X16412163Y-13980574D02*
X16431210Y-13971050D01*
X16431210Y-13971050D02*
X16459782Y-13971050D01*
X16459782Y-13971050D02*
X16478830Y-13980574D01*
X16478830Y-13980574D02*
X16488353Y-13990098D01*
X16488353Y-13990098D02*
X16497877Y-14009146D01*
X16497877Y-14009146D02*
X16497877Y-14066288D01*
X16497877Y-14066288D02*
X16488353Y-14085336D01*
X16488353Y-14085336D02*
X16478830Y-14094860D01*
X16478830Y-14094860D02*
X16459782Y-14104384D01*
X16459782Y-14104384D02*
X16431210Y-14104384D01*
X16612163Y-14104384D02*
X16593115Y-14094860D01*
X16593115Y-14094860D02*
X16583591Y-14075812D01*
X16583591Y-14075812D02*
X16583591Y-13904384D01*
X16764544Y-14094860D02*
X16745496Y-14104384D01*
X16745496Y-14104384D02*
X16707401Y-14104384D01*
X16707401Y-14104384D02*
X16688353Y-14094860D01*
X16688353Y-14094860D02*
X16678830Y-14075812D01*
X16678830Y-14075812D02*
X16678830Y-13999622D01*
X16678830Y-13999622D02*
X16688353Y-13980574D01*
X16688353Y-13980574D02*
X16707401Y-13971050D01*
X16707401Y-13971050D02*
X16745496Y-13971050D01*
X16745496Y-13971050D02*
X16764544Y-13980574D01*
X16764544Y-13980574D02*
X16774068Y-13999622D01*
X16774068Y-13999622D02*
X16774068Y-14018669D01*
X16774068Y-14018669D02*
X16678830Y-14037717D01*
X16850258Y-14094860D02*
X16869306Y-14104384D01*
X16869306Y-14104384D02*
X16907401Y-14104384D01*
X16907401Y-14104384D02*
X16926449Y-14094860D01*
X16926449Y-14094860D02*
X16935973Y-14075812D01*
X16935973Y-14075812D02*
X16935973Y-14066288D01*
X16935973Y-14066288D02*
X16926449Y-14047241D01*
X16926449Y-14047241D02*
X16907401Y-14037717D01*
X16907401Y-14037717D02*
X16878830Y-14037717D01*
X16878830Y-14037717D02*
X16859782Y-14028193D01*
X16859782Y-14028193D02*
X16850258Y-14009146D01*
X16850258Y-14009146D02*
X16850258Y-13999622D01*
X16850258Y-13999622D02*
X16859782Y-13980574D01*
X16859782Y-13980574D02*
X16878830Y-13971050D01*
X16878830Y-13971050D02*
X16907401Y-13971050D01*
X16907401Y-13971050D02*
X16926449Y-13980574D01*
X17002639Y-14180574D02*
X17012163Y-14171050D01*
X17012163Y-14171050D02*
X17031211Y-14142479D01*
X17031211Y-14142479D02*
X17040734Y-14123431D01*
X17040734Y-14123431D02*
X17050258Y-14094860D01*
X17050258Y-14094860D02*
X17059782Y-14047241D01*
X17059782Y-14047241D02*
X17059782Y-14009146D01*
X17059782Y-14009146D02*
X17050258Y-13961527D01*
X17050258Y-13961527D02*
X17040734Y-13932955D01*
X17040734Y-13932955D02*
X17031211Y-13913908D01*
X17031211Y-13913908D02*
X17012163Y-13885336D01*
X17012163Y-13885336D02*
X17002639Y-13875812D01*
D12*
X11987100Y-14226900D02*
X11987100Y-14326900D01*
X11937100Y-14276900D02*
X12037100Y-14276900D01*
D11*
X12402639Y-14368384D02*
X12288353Y-14368384D01*
X12345496Y-14368384D02*
X12345496Y-14168384D01*
X12345496Y-14168384D02*
X12326448Y-14196955D01*
X12326448Y-14196955D02*
X12307401Y-14216003D01*
X12307401Y-14216003D02*
X12288353Y-14225527D01*
X12488353Y-14349336D02*
X12497877Y-14358860D01*
X12497877Y-14358860D02*
X12488353Y-14368384D01*
X12488353Y-14368384D02*
X12478829Y-14358860D01*
X12478829Y-14358860D02*
X12488353Y-14349336D01*
X12488353Y-14349336D02*
X12488353Y-14368384D01*
X12621686Y-14168384D02*
X12640734Y-14168384D01*
X12640734Y-14168384D02*
X12659782Y-14177908D01*
X12659782Y-14177908D02*
X12669305Y-14187431D01*
X12669305Y-14187431D02*
X12678829Y-14206479D01*
X12678829Y-14206479D02*
X12688353Y-14244574D01*
X12688353Y-14244574D02*
X12688353Y-14292193D01*
X12688353Y-14292193D02*
X12678829Y-14330288D01*
X12678829Y-14330288D02*
X12669305Y-14349336D01*
X12669305Y-14349336D02*
X12659782Y-14358860D01*
X12659782Y-14358860D02*
X12640734Y-14368384D01*
X12640734Y-14368384D02*
X12621686Y-14368384D01*
X12621686Y-14368384D02*
X12602639Y-14358860D01*
X12602639Y-14358860D02*
X12593115Y-14349336D01*
X12593115Y-14349336D02*
X12583591Y-14330288D01*
X12583591Y-14330288D02*
X12574067Y-14292193D01*
X12574067Y-14292193D02*
X12574067Y-14244574D01*
X12574067Y-14244574D02*
X12583591Y-14206479D01*
X12583591Y-14206479D02*
X12593115Y-14187431D01*
X12593115Y-14187431D02*
X12602639Y-14177908D01*
X12602639Y-14177908D02*
X12621686Y-14168384D01*
X12812162Y-14168384D02*
X12831210Y-14168384D01*
X12831210Y-14168384D02*
X12850258Y-14177908D01*
X12850258Y-14177908D02*
X12859782Y-14187431D01*
X12859782Y-14187431D02*
X12869305Y-14206479D01*
X12869305Y-14206479D02*
X12878829Y-14244574D01*
X12878829Y-14244574D02*
X12878829Y-14292193D01*
X12878829Y-14292193D02*
X12869305Y-14330288D01*
X12869305Y-14330288D02*
X12859782Y-14349336D01*
X12859782Y-14349336D02*
X12850258Y-14358860D01*
X12850258Y-14358860D02*
X12831210Y-14368384D01*
X12831210Y-14368384D02*
X12812162Y-14368384D01*
X12812162Y-14368384D02*
X12793115Y-14358860D01*
X12793115Y-14358860D02*
X12783591Y-14349336D01*
X12783591Y-14349336D02*
X12774067Y-14330288D01*
X12774067Y-14330288D02*
X12764543Y-14292193D01*
X12764543Y-14292193D02*
X12764543Y-14244574D01*
X12764543Y-14244574D02*
X12774067Y-14206479D01*
X12774067Y-14206479D02*
X12783591Y-14187431D01*
X12783591Y-14187431D02*
X12793115Y-14177908D01*
X12793115Y-14177908D02*
X12812162Y-14168384D01*
X13002639Y-14168384D02*
X13021686Y-14168384D01*
X13021686Y-14168384D02*
X13040734Y-14177908D01*
X13040734Y-14177908D02*
X13050258Y-14187431D01*
X13050258Y-14187431D02*
X13059782Y-14206479D01*
X13059782Y-14206479D02*
X13069305Y-14244574D01*
X13069305Y-14244574D02*
X13069305Y-14292193D01*
X13069305Y-14292193D02*
X13059782Y-14330288D01*
X13059782Y-14330288D02*
X13050258Y-14349336D01*
X13050258Y-14349336D02*
X13040734Y-14358860D01*
X13040734Y-14358860D02*
X13021686Y-14368384D01*
X13021686Y-14368384D02*
X13002639Y-14368384D01*
X13002639Y-14368384D02*
X12983591Y-14358860D01*
X12983591Y-14358860D02*
X12974067Y-14349336D01*
X12974067Y-14349336D02*
X12964543Y-14330288D01*
X12964543Y-14330288D02*
X12955020Y-14292193D01*
X12955020Y-14292193D02*
X12955020Y-14244574D01*
X12955020Y-14244574D02*
X12964543Y-14206479D01*
X12964543Y-14206479D02*
X12974067Y-14187431D01*
X12974067Y-14187431D02*
X12983591Y-14177908D01*
X12983591Y-14177908D02*
X13002639Y-14168384D01*
X13155020Y-14368384D02*
X13155020Y-14235050D01*
X13155020Y-14254098D02*
X13164543Y-14244574D01*
X13164543Y-14244574D02*
X13183591Y-14235050D01*
X13183591Y-14235050D02*
X13212163Y-14235050D01*
X13212163Y-14235050D02*
X13231210Y-14244574D01*
X13231210Y-14244574D02*
X13240734Y-14263622D01*
X13240734Y-14263622D02*
X13240734Y-14368384D01*
X13240734Y-14263622D02*
X13250258Y-14244574D01*
X13250258Y-14244574D02*
X13269305Y-14235050D01*
X13269305Y-14235050D02*
X13297877Y-14235050D01*
X13297877Y-14235050D02*
X13316924Y-14244574D01*
X13316924Y-14244574D02*
X13326448Y-14263622D01*
X13326448Y-14263622D02*
X13326448Y-14368384D01*
X13421686Y-14368384D02*
X13421686Y-14235050D01*
X13421686Y-14254098D02*
X13431210Y-14244574D01*
X13431210Y-14244574D02*
X13450258Y-14235050D01*
X13450258Y-14235050D02*
X13478829Y-14235050D01*
X13478829Y-14235050D02*
X13497877Y-14244574D01*
X13497877Y-14244574D02*
X13507401Y-14263622D01*
X13507401Y-14263622D02*
X13507401Y-14368384D01*
X13507401Y-14263622D02*
X13516924Y-14244574D01*
X13516924Y-14244574D02*
X13535972Y-14235050D01*
X13535972Y-14235050D02*
X13564543Y-14235050D01*
X13564543Y-14235050D02*
X13583591Y-14244574D01*
X13583591Y-14244574D02*
X13593115Y-14263622D01*
X13593115Y-14263622D02*
X13593115Y-14368384D01*
X13983591Y-14158860D02*
X13812163Y-14416003D01*
X14240734Y-14168384D02*
X14259782Y-14168384D01*
X14259782Y-14168384D02*
X14278829Y-14177908D01*
X14278829Y-14177908D02*
X14288353Y-14187431D01*
X14288353Y-14187431D02*
X14297877Y-14206479D01*
X14297877Y-14206479D02*
X14307401Y-14244574D01*
X14307401Y-14244574D02*
X14307401Y-14292193D01*
X14307401Y-14292193D02*
X14297877Y-14330288D01*
X14297877Y-14330288D02*
X14288353Y-14349336D01*
X14288353Y-14349336D02*
X14278829Y-14358860D01*
X14278829Y-14358860D02*
X14259782Y-14368384D01*
X14259782Y-14368384D02*
X14240734Y-14368384D01*
X14240734Y-14368384D02*
X14221686Y-14358860D01*
X14221686Y-14358860D02*
X14212163Y-14349336D01*
X14212163Y-14349336D02*
X14202639Y-14330288D01*
X14202639Y-14330288D02*
X14193115Y-14292193D01*
X14193115Y-14292193D02*
X14193115Y-14244574D01*
X14193115Y-14244574D02*
X14202639Y-14206479D01*
X14202639Y-14206479D02*
X14212163Y-14187431D01*
X14212163Y-14187431D02*
X14221686Y-14177908D01*
X14221686Y-14177908D02*
X14240734Y-14168384D01*
X14393115Y-14349336D02*
X14402639Y-14358860D01*
X14402639Y-14358860D02*
X14393115Y-14368384D01*
X14393115Y-14368384D02*
X14383591Y-14358860D01*
X14383591Y-14358860D02*
X14393115Y-14349336D01*
X14393115Y-14349336D02*
X14393115Y-14368384D01*
X14526448Y-14168384D02*
X14545496Y-14168384D01*
X14545496Y-14168384D02*
X14564544Y-14177908D01*
X14564544Y-14177908D02*
X14574067Y-14187431D01*
X14574067Y-14187431D02*
X14583591Y-14206479D01*
X14583591Y-14206479D02*
X14593115Y-14244574D01*
X14593115Y-14244574D02*
X14593115Y-14292193D01*
X14593115Y-14292193D02*
X14583591Y-14330288D01*
X14583591Y-14330288D02*
X14574067Y-14349336D01*
X14574067Y-14349336D02*
X14564544Y-14358860D01*
X14564544Y-14358860D02*
X14545496Y-14368384D01*
X14545496Y-14368384D02*
X14526448Y-14368384D01*
X14526448Y-14368384D02*
X14507401Y-14358860D01*
X14507401Y-14358860D02*
X14497877Y-14349336D01*
X14497877Y-14349336D02*
X14488353Y-14330288D01*
X14488353Y-14330288D02*
X14478829Y-14292193D01*
X14478829Y-14292193D02*
X14478829Y-14244574D01*
X14478829Y-14244574D02*
X14488353Y-14206479D01*
X14488353Y-14206479D02*
X14497877Y-14187431D01*
X14497877Y-14187431D02*
X14507401Y-14177908D01*
X14507401Y-14177908D02*
X14526448Y-14168384D01*
X14659782Y-14168384D02*
X14783591Y-14168384D01*
X14783591Y-14168384D02*
X14716925Y-14244574D01*
X14716925Y-14244574D02*
X14745496Y-14244574D01*
X14745496Y-14244574D02*
X14764544Y-14254098D01*
X14764544Y-14254098D02*
X14774067Y-14263622D01*
X14774067Y-14263622D02*
X14783591Y-14282669D01*
X14783591Y-14282669D02*
X14783591Y-14330288D01*
X14783591Y-14330288D02*
X14774067Y-14349336D01*
X14774067Y-14349336D02*
X14764544Y-14358860D01*
X14764544Y-14358860D02*
X14745496Y-14368384D01*
X14745496Y-14368384D02*
X14688353Y-14368384D01*
X14688353Y-14368384D02*
X14669306Y-14358860D01*
X14669306Y-14358860D02*
X14659782Y-14349336D01*
X14878829Y-14368384D02*
X14916925Y-14368384D01*
X14916925Y-14368384D02*
X14935972Y-14358860D01*
X14935972Y-14358860D02*
X14945496Y-14349336D01*
X14945496Y-14349336D02*
X14964544Y-14320765D01*
X14964544Y-14320765D02*
X14974067Y-14282669D01*
X14974067Y-14282669D02*
X14974067Y-14206479D01*
X14974067Y-14206479D02*
X14964544Y-14187431D01*
X14964544Y-14187431D02*
X14955020Y-14177908D01*
X14955020Y-14177908D02*
X14935972Y-14168384D01*
X14935972Y-14168384D02*
X14897877Y-14168384D01*
X14897877Y-14168384D02*
X14878829Y-14177908D01*
X14878829Y-14177908D02*
X14869306Y-14187431D01*
X14869306Y-14187431D02*
X14859782Y-14206479D01*
X14859782Y-14206479D02*
X14859782Y-14254098D01*
X14859782Y-14254098D02*
X14869306Y-14273146D01*
X14869306Y-14273146D02*
X14878829Y-14282669D01*
X14878829Y-14282669D02*
X14897877Y-14292193D01*
X14897877Y-14292193D02*
X14935972Y-14292193D01*
X14935972Y-14292193D02*
X14955020Y-14282669D01*
X14955020Y-14282669D02*
X14964544Y-14273146D01*
X14964544Y-14273146D02*
X14974067Y-14254098D01*
X15145496Y-14235050D02*
X15145496Y-14368384D01*
X15097877Y-14158860D02*
X15050258Y-14301717D01*
X15050258Y-14301717D02*
X15174067Y-14301717D01*
X15240734Y-14168384D02*
X15240734Y-14206479D01*
X15316925Y-14168384D02*
X15316925Y-14206479D01*
X15612163Y-14444574D02*
X15602639Y-14435050D01*
X15602639Y-14435050D02*
X15583591Y-14406479D01*
X15583591Y-14406479D02*
X15574068Y-14387431D01*
X15574068Y-14387431D02*
X15564544Y-14358860D01*
X15564544Y-14358860D02*
X15555020Y-14311241D01*
X15555020Y-14311241D02*
X15555020Y-14273146D01*
X15555020Y-14273146D02*
X15564544Y-14225527D01*
X15564544Y-14225527D02*
X15574068Y-14196955D01*
X15574068Y-14196955D02*
X15583591Y-14177908D01*
X15583591Y-14177908D02*
X15602639Y-14149336D01*
X15602639Y-14149336D02*
X15612163Y-14139812D01*
X15774068Y-14235050D02*
X15774068Y-14368384D01*
X15726448Y-14158860D02*
X15678829Y-14301717D01*
X15678829Y-14301717D02*
X15802639Y-14301717D01*
X15916925Y-14168384D02*
X15935972Y-14168384D01*
X15935972Y-14168384D02*
X15955020Y-14177908D01*
X15955020Y-14177908D02*
X15964544Y-14187431D01*
X15964544Y-14187431D02*
X15974068Y-14206479D01*
X15974068Y-14206479D02*
X15983591Y-14244574D01*
X15983591Y-14244574D02*
X15983591Y-14292193D01*
X15983591Y-14292193D02*
X15974068Y-14330288D01*
X15974068Y-14330288D02*
X15964544Y-14349336D01*
X15964544Y-14349336D02*
X15955020Y-14358860D01*
X15955020Y-14358860D02*
X15935972Y-14368384D01*
X15935972Y-14368384D02*
X15916925Y-14368384D01*
X15916925Y-14368384D02*
X15897877Y-14358860D01*
X15897877Y-14358860D02*
X15888353Y-14349336D01*
X15888353Y-14349336D02*
X15878829Y-14330288D01*
X15878829Y-14330288D02*
X15869306Y-14292193D01*
X15869306Y-14292193D02*
X15869306Y-14244574D01*
X15869306Y-14244574D02*
X15878829Y-14206479D01*
X15878829Y-14206479D02*
X15888353Y-14187431D01*
X15888353Y-14187431D02*
X15897877Y-14177908D01*
X15897877Y-14177908D02*
X15916925Y-14168384D01*
X16221687Y-14368384D02*
X16221687Y-14168384D01*
X16307401Y-14368384D02*
X16307401Y-14263622D01*
X16307401Y-14263622D02*
X16297877Y-14244574D01*
X16297877Y-14244574D02*
X16278830Y-14235050D01*
X16278830Y-14235050D02*
X16250258Y-14235050D01*
X16250258Y-14235050D02*
X16231210Y-14244574D01*
X16231210Y-14244574D02*
X16221687Y-14254098D01*
X16431210Y-14368384D02*
X16412163Y-14358860D01*
X16412163Y-14358860D02*
X16402639Y-14349336D01*
X16402639Y-14349336D02*
X16393115Y-14330288D01*
X16393115Y-14330288D02*
X16393115Y-14273146D01*
X16393115Y-14273146D02*
X16402639Y-14254098D01*
X16402639Y-14254098D02*
X16412163Y-14244574D01*
X16412163Y-14244574D02*
X16431210Y-14235050D01*
X16431210Y-14235050D02*
X16459782Y-14235050D01*
X16459782Y-14235050D02*
X16478830Y-14244574D01*
X16478830Y-14244574D02*
X16488353Y-14254098D01*
X16488353Y-14254098D02*
X16497877Y-14273146D01*
X16497877Y-14273146D02*
X16497877Y-14330288D01*
X16497877Y-14330288D02*
X16488353Y-14349336D01*
X16488353Y-14349336D02*
X16478830Y-14358860D01*
X16478830Y-14358860D02*
X16459782Y-14368384D01*
X16459782Y-14368384D02*
X16431210Y-14368384D01*
X16612163Y-14368384D02*
X16593115Y-14358860D01*
X16593115Y-14358860D02*
X16583591Y-14339812D01*
X16583591Y-14339812D02*
X16583591Y-14168384D01*
X16764544Y-14358860D02*
X16745496Y-14368384D01*
X16745496Y-14368384D02*
X16707401Y-14368384D01*
X16707401Y-14368384D02*
X16688353Y-14358860D01*
X16688353Y-14358860D02*
X16678830Y-14339812D01*
X16678830Y-14339812D02*
X16678830Y-14263622D01*
X16678830Y-14263622D02*
X16688353Y-14244574D01*
X16688353Y-14244574D02*
X16707401Y-14235050D01*
X16707401Y-14235050D02*
X16745496Y-14235050D01*
X16745496Y-14235050D02*
X16764544Y-14244574D01*
X16764544Y-14244574D02*
X16774068Y-14263622D01*
X16774068Y-14263622D02*
X16774068Y-14282669D01*
X16774068Y-14282669D02*
X16678830Y-14301717D01*
X16850258Y-14358860D02*
X16869306Y-14368384D01*
X16869306Y-14368384D02*
X16907401Y-14368384D01*
X16907401Y-14368384D02*
X16926449Y-14358860D01*
X16926449Y-14358860D02*
X16935973Y-14339812D01*
X16935973Y-14339812D02*
X16935973Y-14330288D01*
X16935973Y-14330288D02*
X16926449Y-14311241D01*
X16926449Y-14311241D02*
X16907401Y-14301717D01*
X16907401Y-14301717D02*
X16878830Y-14301717D01*
X16878830Y-14301717D02*
X16859782Y-14292193D01*
X16859782Y-14292193D02*
X16850258Y-14273146D01*
X16850258Y-14273146D02*
X16850258Y-14263622D01*
X16850258Y-14263622D02*
X16859782Y-14244574D01*
X16859782Y-14244574D02*
X16878830Y-14235050D01*
X16878830Y-14235050D02*
X16907401Y-14235050D01*
X16907401Y-14235050D02*
X16926449Y-14244574D01*
X17002639Y-14444574D02*
X17012163Y-14435050D01*
X17012163Y-14435050D02*
X17031211Y-14406479D01*
X17031211Y-14406479D02*
X17040734Y-14387431D01*
X17040734Y-14387431D02*
X17050258Y-14358860D01*
X17050258Y-14358860D02*
X17059782Y-14311241D01*
X17059782Y-14311241D02*
X17059782Y-14273146D01*
X17059782Y-14273146D02*
X17050258Y-14225527D01*
X17050258Y-14225527D02*
X17040734Y-14196955D01*
X17040734Y-14196955D02*
X17031211Y-14177908D01*
X17031211Y-14177908D02*
X17012163Y-14149336D01*
X17012163Y-14149336D02*
X17002639Y-14139812D01*
D13*
X12019527Y-14583327D02*
X12019527Y-14498473D01*
X11934673Y-14498473D01*
X11934673Y-14583327D01*
X12019527Y-14583327D01*
D11*
X12402639Y-14632384D02*
X12288353Y-14632384D01*
X12345496Y-14632384D02*
X12345496Y-14432384D01*
X12345496Y-14432384D02*
X12326448Y-14460955D01*
X12326448Y-14460955D02*
X12307401Y-14480003D01*
X12307401Y-14480003D02*
X12288353Y-14489527D01*
X12488353Y-14613336D02*
X12497877Y-14622860D01*
X12497877Y-14622860D02*
X12488353Y-14632384D01*
X12488353Y-14632384D02*
X12478829Y-14622860D01*
X12478829Y-14622860D02*
X12488353Y-14613336D01*
X12488353Y-14613336D02*
X12488353Y-14632384D01*
X12574067Y-14451431D02*
X12583591Y-14441908D01*
X12583591Y-14441908D02*
X12602639Y-14432384D01*
X12602639Y-14432384D02*
X12650258Y-14432384D01*
X12650258Y-14432384D02*
X12669305Y-14441908D01*
X12669305Y-14441908D02*
X12678829Y-14451431D01*
X12678829Y-14451431D02*
X12688353Y-14470479D01*
X12688353Y-14470479D02*
X12688353Y-14489527D01*
X12688353Y-14489527D02*
X12678829Y-14518098D01*
X12678829Y-14518098D02*
X12564543Y-14632384D01*
X12564543Y-14632384D02*
X12688353Y-14632384D01*
X12812162Y-14432384D02*
X12831210Y-14432384D01*
X12831210Y-14432384D02*
X12850258Y-14441908D01*
X12850258Y-14441908D02*
X12859782Y-14451431D01*
X12859782Y-14451431D02*
X12869305Y-14470479D01*
X12869305Y-14470479D02*
X12878829Y-14508574D01*
X12878829Y-14508574D02*
X12878829Y-14556193D01*
X12878829Y-14556193D02*
X12869305Y-14594288D01*
X12869305Y-14594288D02*
X12859782Y-14613336D01*
X12859782Y-14613336D02*
X12850258Y-14622860D01*
X12850258Y-14622860D02*
X12831210Y-14632384D01*
X12831210Y-14632384D02*
X12812162Y-14632384D01*
X12812162Y-14632384D02*
X12793115Y-14622860D01*
X12793115Y-14622860D02*
X12783591Y-14613336D01*
X12783591Y-14613336D02*
X12774067Y-14594288D01*
X12774067Y-14594288D02*
X12764543Y-14556193D01*
X12764543Y-14556193D02*
X12764543Y-14508574D01*
X12764543Y-14508574D02*
X12774067Y-14470479D01*
X12774067Y-14470479D02*
X12783591Y-14451431D01*
X12783591Y-14451431D02*
X12793115Y-14441908D01*
X12793115Y-14441908D02*
X12812162Y-14432384D01*
X13002639Y-14432384D02*
X13021686Y-14432384D01*
X13021686Y-14432384D02*
X13040734Y-14441908D01*
X13040734Y-14441908D02*
X13050258Y-14451431D01*
X13050258Y-14451431D02*
X13059782Y-14470479D01*
X13059782Y-14470479D02*
X13069305Y-14508574D01*
X13069305Y-14508574D02*
X13069305Y-14556193D01*
X13069305Y-14556193D02*
X13059782Y-14594288D01*
X13059782Y-14594288D02*
X13050258Y-14613336D01*
X13050258Y-14613336D02*
X13040734Y-14622860D01*
X13040734Y-14622860D02*
X13021686Y-14632384D01*
X13021686Y-14632384D02*
X13002639Y-14632384D01*
X13002639Y-14632384D02*
X12983591Y-14622860D01*
X12983591Y-14622860D02*
X12974067Y-14613336D01*
X12974067Y-14613336D02*
X12964543Y-14594288D01*
X12964543Y-14594288D02*
X12955020Y-14556193D01*
X12955020Y-14556193D02*
X12955020Y-14508574D01*
X12955020Y-14508574D02*
X12964543Y-14470479D01*
X12964543Y-14470479D02*
X12974067Y-14451431D01*
X12974067Y-14451431D02*
X12983591Y-14441908D01*
X12983591Y-14441908D02*
X13002639Y-14432384D01*
X13155020Y-14632384D02*
X13155020Y-14499050D01*
X13155020Y-14518098D02*
X13164543Y-14508574D01*
X13164543Y-14508574D02*
X13183591Y-14499050D01*
X13183591Y-14499050D02*
X13212163Y-14499050D01*
X13212163Y-14499050D02*
X13231210Y-14508574D01*
X13231210Y-14508574D02*
X13240734Y-14527622D01*
X13240734Y-14527622D02*
X13240734Y-14632384D01*
X13240734Y-14527622D02*
X13250258Y-14508574D01*
X13250258Y-14508574D02*
X13269305Y-14499050D01*
X13269305Y-14499050D02*
X13297877Y-14499050D01*
X13297877Y-14499050D02*
X13316924Y-14508574D01*
X13316924Y-14508574D02*
X13326448Y-14527622D01*
X13326448Y-14527622D02*
X13326448Y-14632384D01*
X13421686Y-14632384D02*
X13421686Y-14499050D01*
X13421686Y-14518098D02*
X13431210Y-14508574D01*
X13431210Y-14508574D02*
X13450258Y-14499050D01*
X13450258Y-14499050D02*
X13478829Y-14499050D01*
X13478829Y-14499050D02*
X13497877Y-14508574D01*
X13497877Y-14508574D02*
X13507401Y-14527622D01*
X13507401Y-14527622D02*
X13507401Y-14632384D01*
X13507401Y-14527622D02*
X13516924Y-14508574D01*
X13516924Y-14508574D02*
X13535972Y-14499050D01*
X13535972Y-14499050D02*
X13564543Y-14499050D01*
X13564543Y-14499050D02*
X13583591Y-14508574D01*
X13583591Y-14508574D02*
X13593115Y-14527622D01*
X13593115Y-14527622D02*
X13593115Y-14632384D01*
X13983591Y-14422860D02*
X13812163Y-14680003D01*
X14240734Y-14432384D02*
X14259782Y-14432384D01*
X14259782Y-14432384D02*
X14278829Y-14441908D01*
X14278829Y-14441908D02*
X14288353Y-14451431D01*
X14288353Y-14451431D02*
X14297877Y-14470479D01*
X14297877Y-14470479D02*
X14307401Y-14508574D01*
X14307401Y-14508574D02*
X14307401Y-14556193D01*
X14307401Y-14556193D02*
X14297877Y-14594288D01*
X14297877Y-14594288D02*
X14288353Y-14613336D01*
X14288353Y-14613336D02*
X14278829Y-14622860D01*
X14278829Y-14622860D02*
X14259782Y-14632384D01*
X14259782Y-14632384D02*
X14240734Y-14632384D01*
X14240734Y-14632384D02*
X14221686Y-14622860D01*
X14221686Y-14622860D02*
X14212163Y-14613336D01*
X14212163Y-14613336D02*
X14202639Y-14594288D01*
X14202639Y-14594288D02*
X14193115Y-14556193D01*
X14193115Y-14556193D02*
X14193115Y-14508574D01*
X14193115Y-14508574D02*
X14202639Y-14470479D01*
X14202639Y-14470479D02*
X14212163Y-14451431D01*
X14212163Y-14451431D02*
X14221686Y-14441908D01*
X14221686Y-14441908D02*
X14240734Y-14432384D01*
X14393115Y-14613336D02*
X14402639Y-14622860D01*
X14402639Y-14622860D02*
X14393115Y-14632384D01*
X14393115Y-14632384D02*
X14383591Y-14622860D01*
X14383591Y-14622860D02*
X14393115Y-14613336D01*
X14393115Y-14613336D02*
X14393115Y-14632384D01*
X14526448Y-14432384D02*
X14545496Y-14432384D01*
X14545496Y-14432384D02*
X14564544Y-14441908D01*
X14564544Y-14441908D02*
X14574067Y-14451431D01*
X14574067Y-14451431D02*
X14583591Y-14470479D01*
X14583591Y-14470479D02*
X14593115Y-14508574D01*
X14593115Y-14508574D02*
X14593115Y-14556193D01*
X14593115Y-14556193D02*
X14583591Y-14594288D01*
X14583591Y-14594288D02*
X14574067Y-14613336D01*
X14574067Y-14613336D02*
X14564544Y-14622860D01*
X14564544Y-14622860D02*
X14545496Y-14632384D01*
X14545496Y-14632384D02*
X14526448Y-14632384D01*
X14526448Y-14632384D02*
X14507401Y-14622860D01*
X14507401Y-14622860D02*
X14497877Y-14613336D01*
X14497877Y-14613336D02*
X14488353Y-14594288D01*
X14488353Y-14594288D02*
X14478829Y-14556193D01*
X14478829Y-14556193D02*
X14478829Y-14508574D01*
X14478829Y-14508574D02*
X14488353Y-14470479D01*
X14488353Y-14470479D02*
X14497877Y-14451431D01*
X14497877Y-14451431D02*
X14507401Y-14441908D01*
X14507401Y-14441908D02*
X14526448Y-14432384D01*
X14764544Y-14499050D02*
X14764544Y-14632384D01*
X14716925Y-14422860D02*
X14669306Y-14565717D01*
X14669306Y-14565717D02*
X14793115Y-14565717D01*
X14850258Y-14432384D02*
X14983591Y-14432384D01*
X14983591Y-14432384D02*
X14897877Y-14632384D01*
X15050258Y-14451431D02*
X15059782Y-14441908D01*
X15059782Y-14441908D02*
X15078829Y-14432384D01*
X15078829Y-14432384D02*
X15126448Y-14432384D01*
X15126448Y-14432384D02*
X15145496Y-14441908D01*
X15145496Y-14441908D02*
X15155020Y-14451431D01*
X15155020Y-14451431D02*
X15164544Y-14470479D01*
X15164544Y-14470479D02*
X15164544Y-14489527D01*
X15164544Y-14489527D02*
X15155020Y-14518098D01*
X15155020Y-14518098D02*
X15040734Y-14632384D01*
X15040734Y-14632384D02*
X15164544Y-14632384D01*
X15240734Y-14432384D02*
X15240734Y-14470479D01*
X15316925Y-14432384D02*
X15316925Y-14470479D01*
X15612163Y-14708574D02*
X15602639Y-14699050D01*
X15602639Y-14699050D02*
X15583591Y-14670479D01*
X15583591Y-14670479D02*
X15574068Y-14651431D01*
X15574068Y-14651431D02*
X15564544Y-14622860D01*
X15564544Y-14622860D02*
X15555020Y-14575241D01*
X15555020Y-14575241D02*
X15555020Y-14537146D01*
X15555020Y-14537146D02*
X15564544Y-14489527D01*
X15564544Y-14489527D02*
X15574068Y-14460955D01*
X15574068Y-14460955D02*
X15583591Y-14441908D01*
X15583591Y-14441908D02*
X15602639Y-14413336D01*
X15602639Y-14413336D02*
X15612163Y-14403812D01*
X15793115Y-14632384D02*
X15678829Y-14632384D01*
X15735972Y-14632384D02*
X15735972Y-14432384D01*
X15735972Y-14432384D02*
X15716925Y-14460955D01*
X15716925Y-14460955D02*
X15697877Y-14480003D01*
X15697877Y-14480003D02*
X15678829Y-14489527D01*
X15869306Y-14451431D02*
X15878829Y-14441908D01*
X15878829Y-14441908D02*
X15897877Y-14432384D01*
X15897877Y-14432384D02*
X15945496Y-14432384D01*
X15945496Y-14432384D02*
X15964544Y-14441908D01*
X15964544Y-14441908D02*
X15974068Y-14451431D01*
X15974068Y-14451431D02*
X15983591Y-14470479D01*
X15983591Y-14470479D02*
X15983591Y-14489527D01*
X15983591Y-14489527D02*
X15974068Y-14518098D01*
X15974068Y-14518098D02*
X15859782Y-14632384D01*
X15859782Y-14632384D02*
X15983591Y-14632384D01*
X16221687Y-14632384D02*
X16221687Y-14432384D01*
X16307401Y-14632384D02*
X16307401Y-14527622D01*
X16307401Y-14527622D02*
X16297877Y-14508574D01*
X16297877Y-14508574D02*
X16278830Y-14499050D01*
X16278830Y-14499050D02*
X16250258Y-14499050D01*
X16250258Y-14499050D02*
X16231210Y-14508574D01*
X16231210Y-14508574D02*
X16221687Y-14518098D01*
X16431210Y-14632384D02*
X16412163Y-14622860D01*
X16412163Y-14622860D02*
X16402639Y-14613336D01*
X16402639Y-14613336D02*
X16393115Y-14594288D01*
X16393115Y-14594288D02*
X16393115Y-14537146D01*
X16393115Y-14537146D02*
X16402639Y-14518098D01*
X16402639Y-14518098D02*
X16412163Y-14508574D01*
X16412163Y-14508574D02*
X16431210Y-14499050D01*
X16431210Y-14499050D02*
X16459782Y-14499050D01*
X16459782Y-14499050D02*
X16478830Y-14508574D01*
X16478830Y-14508574D02*
X16488353Y-14518098D01*
X16488353Y-14518098D02*
X16497877Y-14537146D01*
X16497877Y-14537146D02*
X16497877Y-14594288D01*
X16497877Y-14594288D02*
X16488353Y-14613336D01*
X16488353Y-14613336D02*
X16478830Y-14622860D01*
X16478830Y-14622860D02*
X16459782Y-14632384D01*
X16459782Y-14632384D02*
X16431210Y-14632384D01*
X16612163Y-14632384D02*
X16593115Y-14622860D01*
X16593115Y-14622860D02*
X16583591Y-14603812D01*
X16583591Y-14603812D02*
X16583591Y-14432384D01*
X16764544Y-14622860D02*
X16745496Y-14632384D01*
X16745496Y-14632384D02*
X16707401Y-14632384D01*
X16707401Y-14632384D02*
X16688353Y-14622860D01*
X16688353Y-14622860D02*
X16678830Y-14603812D01*
X16678830Y-14603812D02*
X16678830Y-14527622D01*
X16678830Y-14527622D02*
X16688353Y-14508574D01*
X16688353Y-14508574D02*
X16707401Y-14499050D01*
X16707401Y-14499050D02*
X16745496Y-14499050D01*
X16745496Y-14499050D02*
X16764544Y-14508574D01*
X16764544Y-14508574D02*
X16774068Y-14527622D01*
X16774068Y-14527622D02*
X16774068Y-14546669D01*
X16774068Y-14546669D02*
X16678830Y-14565717D01*
X16850258Y-14622860D02*
X16869306Y-14632384D01*
X16869306Y-14632384D02*
X16907401Y-14632384D01*
X16907401Y-14632384D02*
X16926449Y-14622860D01*
X16926449Y-14622860D02*
X16935973Y-14603812D01*
X16935973Y-14603812D02*
X16935973Y-14594288D01*
X16935973Y-14594288D02*
X16926449Y-14575241D01*
X16926449Y-14575241D02*
X16907401Y-14565717D01*
X16907401Y-14565717D02*
X16878830Y-14565717D01*
X16878830Y-14565717D02*
X16859782Y-14556193D01*
X16859782Y-14556193D02*
X16850258Y-14537146D01*
X16850258Y-14537146D02*
X16850258Y-14527622D01*
X16850258Y-14527622D02*
X16859782Y-14508574D01*
X16859782Y-14508574D02*
X16878830Y-14499050D01*
X16878830Y-14499050D02*
X16907401Y-14499050D01*
X16907401Y-14499050D02*
X16926449Y-14508574D01*
X17002639Y-14708574D02*
X17012163Y-14699050D01*
X17012163Y-14699050D02*
X17031211Y-14670479D01*
X17031211Y-14670479D02*
X17040734Y-14651431D01*
X17040734Y-14651431D02*
X17050258Y-14622860D01*
X17050258Y-14622860D02*
X17059782Y-14575241D01*
X17059782Y-14575241D02*
X17059782Y-14537146D01*
X17059782Y-14537146D02*
X17050258Y-14489527D01*
X17050258Y-14489527D02*
X17040734Y-14460955D01*
X17040734Y-14460955D02*
X17031211Y-14441908D01*
X17031211Y-14441908D02*
X17012163Y-14413336D01*
X17012163Y-14413336D02*
X17002639Y-14403812D01*
D14*
X11977100Y-14864900D02*
X12037100Y-14804900D01*
X11977100Y-14744900D01*
X11917100Y-14804900D01*
X11977100Y-14864900D01*
D11*
X12402639Y-14896384D02*
X12288353Y-14896384D01*
X12345496Y-14896384D02*
X12345496Y-14696384D01*
X12345496Y-14696384D02*
X12326448Y-14724955D01*
X12326448Y-14724955D02*
X12307401Y-14744003D01*
X12307401Y-14744003D02*
X12288353Y-14753527D01*
X12488353Y-14877336D02*
X12497877Y-14886860D01*
X12497877Y-14886860D02*
X12488353Y-14896384D01*
X12488353Y-14896384D02*
X12478829Y-14886860D01*
X12478829Y-14886860D02*
X12488353Y-14877336D01*
X12488353Y-14877336D02*
X12488353Y-14896384D01*
X12574067Y-14715431D02*
X12583591Y-14705908D01*
X12583591Y-14705908D02*
X12602639Y-14696384D01*
X12602639Y-14696384D02*
X12650258Y-14696384D01*
X12650258Y-14696384D02*
X12669305Y-14705908D01*
X12669305Y-14705908D02*
X12678829Y-14715431D01*
X12678829Y-14715431D02*
X12688353Y-14734479D01*
X12688353Y-14734479D02*
X12688353Y-14753527D01*
X12688353Y-14753527D02*
X12678829Y-14782098D01*
X12678829Y-14782098D02*
X12564543Y-14896384D01*
X12564543Y-14896384D02*
X12688353Y-14896384D01*
X12812162Y-14696384D02*
X12831210Y-14696384D01*
X12831210Y-14696384D02*
X12850258Y-14705908D01*
X12850258Y-14705908D02*
X12859782Y-14715431D01*
X12859782Y-14715431D02*
X12869305Y-14734479D01*
X12869305Y-14734479D02*
X12878829Y-14772574D01*
X12878829Y-14772574D02*
X12878829Y-14820193D01*
X12878829Y-14820193D02*
X12869305Y-14858288D01*
X12869305Y-14858288D02*
X12859782Y-14877336D01*
X12859782Y-14877336D02*
X12850258Y-14886860D01*
X12850258Y-14886860D02*
X12831210Y-14896384D01*
X12831210Y-14896384D02*
X12812162Y-14896384D01*
X12812162Y-14896384D02*
X12793115Y-14886860D01*
X12793115Y-14886860D02*
X12783591Y-14877336D01*
X12783591Y-14877336D02*
X12774067Y-14858288D01*
X12774067Y-14858288D02*
X12764543Y-14820193D01*
X12764543Y-14820193D02*
X12764543Y-14772574D01*
X12764543Y-14772574D02*
X12774067Y-14734479D01*
X12774067Y-14734479D02*
X12783591Y-14715431D01*
X12783591Y-14715431D02*
X12793115Y-14705908D01*
X12793115Y-14705908D02*
X12812162Y-14696384D01*
X13002639Y-14696384D02*
X13021686Y-14696384D01*
X13021686Y-14696384D02*
X13040734Y-14705908D01*
X13040734Y-14705908D02*
X13050258Y-14715431D01*
X13050258Y-14715431D02*
X13059782Y-14734479D01*
X13059782Y-14734479D02*
X13069305Y-14772574D01*
X13069305Y-14772574D02*
X13069305Y-14820193D01*
X13069305Y-14820193D02*
X13059782Y-14858288D01*
X13059782Y-14858288D02*
X13050258Y-14877336D01*
X13050258Y-14877336D02*
X13040734Y-14886860D01*
X13040734Y-14886860D02*
X13021686Y-14896384D01*
X13021686Y-14896384D02*
X13002639Y-14896384D01*
X13002639Y-14896384D02*
X12983591Y-14886860D01*
X12983591Y-14886860D02*
X12974067Y-14877336D01*
X12974067Y-14877336D02*
X12964543Y-14858288D01*
X12964543Y-14858288D02*
X12955020Y-14820193D01*
X12955020Y-14820193D02*
X12955020Y-14772574D01*
X12955020Y-14772574D02*
X12964543Y-14734479D01*
X12964543Y-14734479D02*
X12974067Y-14715431D01*
X12974067Y-14715431D02*
X12983591Y-14705908D01*
X12983591Y-14705908D02*
X13002639Y-14696384D01*
X13155020Y-14896384D02*
X13155020Y-14763050D01*
X13155020Y-14782098D02*
X13164543Y-14772574D01*
X13164543Y-14772574D02*
X13183591Y-14763050D01*
X13183591Y-14763050D02*
X13212163Y-14763050D01*
X13212163Y-14763050D02*
X13231210Y-14772574D01*
X13231210Y-14772574D02*
X13240734Y-14791622D01*
X13240734Y-14791622D02*
X13240734Y-14896384D01*
X13240734Y-14791622D02*
X13250258Y-14772574D01*
X13250258Y-14772574D02*
X13269305Y-14763050D01*
X13269305Y-14763050D02*
X13297877Y-14763050D01*
X13297877Y-14763050D02*
X13316924Y-14772574D01*
X13316924Y-14772574D02*
X13326448Y-14791622D01*
X13326448Y-14791622D02*
X13326448Y-14896384D01*
X13421686Y-14896384D02*
X13421686Y-14763050D01*
X13421686Y-14782098D02*
X13431210Y-14772574D01*
X13431210Y-14772574D02*
X13450258Y-14763050D01*
X13450258Y-14763050D02*
X13478829Y-14763050D01*
X13478829Y-14763050D02*
X13497877Y-14772574D01*
X13497877Y-14772574D02*
X13507401Y-14791622D01*
X13507401Y-14791622D02*
X13507401Y-14896384D01*
X13507401Y-14791622D02*
X13516924Y-14772574D01*
X13516924Y-14772574D02*
X13535972Y-14763050D01*
X13535972Y-14763050D02*
X13564543Y-14763050D01*
X13564543Y-14763050D02*
X13583591Y-14772574D01*
X13583591Y-14772574D02*
X13593115Y-14791622D01*
X13593115Y-14791622D02*
X13593115Y-14896384D01*
X13983591Y-14686860D02*
X13812163Y-14944003D01*
X14240734Y-14696384D02*
X14259782Y-14696384D01*
X14259782Y-14696384D02*
X14278829Y-14705908D01*
X14278829Y-14705908D02*
X14288353Y-14715431D01*
X14288353Y-14715431D02*
X14297877Y-14734479D01*
X14297877Y-14734479D02*
X14307401Y-14772574D01*
X14307401Y-14772574D02*
X14307401Y-14820193D01*
X14307401Y-14820193D02*
X14297877Y-14858288D01*
X14297877Y-14858288D02*
X14288353Y-14877336D01*
X14288353Y-14877336D02*
X14278829Y-14886860D01*
X14278829Y-14886860D02*
X14259782Y-14896384D01*
X14259782Y-14896384D02*
X14240734Y-14896384D01*
X14240734Y-14896384D02*
X14221686Y-14886860D01*
X14221686Y-14886860D02*
X14212163Y-14877336D01*
X14212163Y-14877336D02*
X14202639Y-14858288D01*
X14202639Y-14858288D02*
X14193115Y-14820193D01*
X14193115Y-14820193D02*
X14193115Y-14772574D01*
X14193115Y-14772574D02*
X14202639Y-14734479D01*
X14202639Y-14734479D02*
X14212163Y-14715431D01*
X14212163Y-14715431D02*
X14221686Y-14705908D01*
X14221686Y-14705908D02*
X14240734Y-14696384D01*
X14393115Y-14877336D02*
X14402639Y-14886860D01*
X14402639Y-14886860D02*
X14393115Y-14896384D01*
X14393115Y-14896384D02*
X14383591Y-14886860D01*
X14383591Y-14886860D02*
X14393115Y-14877336D01*
X14393115Y-14877336D02*
X14393115Y-14896384D01*
X14526448Y-14696384D02*
X14545496Y-14696384D01*
X14545496Y-14696384D02*
X14564544Y-14705908D01*
X14564544Y-14705908D02*
X14574067Y-14715431D01*
X14574067Y-14715431D02*
X14583591Y-14734479D01*
X14583591Y-14734479D02*
X14593115Y-14772574D01*
X14593115Y-14772574D02*
X14593115Y-14820193D01*
X14593115Y-14820193D02*
X14583591Y-14858288D01*
X14583591Y-14858288D02*
X14574067Y-14877336D01*
X14574067Y-14877336D02*
X14564544Y-14886860D01*
X14564544Y-14886860D02*
X14545496Y-14896384D01*
X14545496Y-14896384D02*
X14526448Y-14896384D01*
X14526448Y-14896384D02*
X14507401Y-14886860D01*
X14507401Y-14886860D02*
X14497877Y-14877336D01*
X14497877Y-14877336D02*
X14488353Y-14858288D01*
X14488353Y-14858288D02*
X14478829Y-14820193D01*
X14478829Y-14820193D02*
X14478829Y-14772574D01*
X14478829Y-14772574D02*
X14488353Y-14734479D01*
X14488353Y-14734479D02*
X14497877Y-14715431D01*
X14497877Y-14715431D02*
X14507401Y-14705908D01*
X14507401Y-14705908D02*
X14526448Y-14696384D01*
X14764544Y-14763050D02*
X14764544Y-14896384D01*
X14716925Y-14686860D02*
X14669306Y-14829717D01*
X14669306Y-14829717D02*
X14793115Y-14829717D01*
X14850258Y-14696384D02*
X14983591Y-14696384D01*
X14983591Y-14696384D02*
X14897877Y-14896384D01*
X15050258Y-14715431D02*
X15059782Y-14705908D01*
X15059782Y-14705908D02*
X15078829Y-14696384D01*
X15078829Y-14696384D02*
X15126448Y-14696384D01*
X15126448Y-14696384D02*
X15145496Y-14705908D01*
X15145496Y-14705908D02*
X15155020Y-14715431D01*
X15155020Y-14715431D02*
X15164544Y-14734479D01*
X15164544Y-14734479D02*
X15164544Y-14753527D01*
X15164544Y-14753527D02*
X15155020Y-14782098D01*
X15155020Y-14782098D02*
X15040734Y-14896384D01*
X15040734Y-14896384D02*
X15164544Y-14896384D01*
X15240734Y-14696384D02*
X15240734Y-14734479D01*
X15316925Y-14696384D02*
X15316925Y-14734479D01*
X15612163Y-14972574D02*
X15602639Y-14963050D01*
X15602639Y-14963050D02*
X15583591Y-14934479D01*
X15583591Y-14934479D02*
X15574068Y-14915431D01*
X15574068Y-14915431D02*
X15564544Y-14886860D01*
X15564544Y-14886860D02*
X15555020Y-14839241D01*
X15555020Y-14839241D02*
X15555020Y-14801146D01*
X15555020Y-14801146D02*
X15564544Y-14753527D01*
X15564544Y-14753527D02*
X15574068Y-14724955D01*
X15574068Y-14724955D02*
X15583591Y-14705908D01*
X15583591Y-14705908D02*
X15602639Y-14677336D01*
X15602639Y-14677336D02*
X15612163Y-14667812D01*
X15793115Y-14896384D02*
X15678829Y-14896384D01*
X15735972Y-14896384D02*
X15735972Y-14696384D01*
X15735972Y-14696384D02*
X15716925Y-14724955D01*
X15716925Y-14724955D02*
X15697877Y-14744003D01*
X15697877Y-14744003D02*
X15678829Y-14753527D01*
X15964544Y-14696384D02*
X15926448Y-14696384D01*
X15926448Y-14696384D02*
X15907401Y-14705908D01*
X15907401Y-14705908D02*
X15897877Y-14715431D01*
X15897877Y-14715431D02*
X15878829Y-14744003D01*
X15878829Y-14744003D02*
X15869306Y-14782098D01*
X15869306Y-14782098D02*
X15869306Y-14858288D01*
X15869306Y-14858288D02*
X15878829Y-14877336D01*
X15878829Y-14877336D02*
X15888353Y-14886860D01*
X15888353Y-14886860D02*
X15907401Y-14896384D01*
X15907401Y-14896384D02*
X15945496Y-14896384D01*
X15945496Y-14896384D02*
X15964544Y-14886860D01*
X15964544Y-14886860D02*
X15974068Y-14877336D01*
X15974068Y-14877336D02*
X15983591Y-14858288D01*
X15983591Y-14858288D02*
X15983591Y-14810669D01*
X15983591Y-14810669D02*
X15974068Y-14791622D01*
X15974068Y-14791622D02*
X15964544Y-14782098D01*
X15964544Y-14782098D02*
X15945496Y-14772574D01*
X15945496Y-14772574D02*
X15907401Y-14772574D01*
X15907401Y-14772574D02*
X15888353Y-14782098D01*
X15888353Y-14782098D02*
X15878829Y-14791622D01*
X15878829Y-14791622D02*
X15869306Y-14810669D01*
X16221687Y-14896384D02*
X16221687Y-14696384D01*
X16307401Y-14896384D02*
X16307401Y-14791622D01*
X16307401Y-14791622D02*
X16297877Y-14772574D01*
X16297877Y-14772574D02*
X16278830Y-14763050D01*
X16278830Y-14763050D02*
X16250258Y-14763050D01*
X16250258Y-14763050D02*
X16231210Y-14772574D01*
X16231210Y-14772574D02*
X16221687Y-14782098D01*
X16431210Y-14896384D02*
X16412163Y-14886860D01*
X16412163Y-14886860D02*
X16402639Y-14877336D01*
X16402639Y-14877336D02*
X16393115Y-14858288D01*
X16393115Y-14858288D02*
X16393115Y-14801146D01*
X16393115Y-14801146D02*
X16402639Y-14782098D01*
X16402639Y-14782098D02*
X16412163Y-14772574D01*
X16412163Y-14772574D02*
X16431210Y-14763050D01*
X16431210Y-14763050D02*
X16459782Y-14763050D01*
X16459782Y-14763050D02*
X16478830Y-14772574D01*
X16478830Y-14772574D02*
X16488353Y-14782098D01*
X16488353Y-14782098D02*
X16497877Y-14801146D01*
X16497877Y-14801146D02*
X16497877Y-14858288D01*
X16497877Y-14858288D02*
X16488353Y-14877336D01*
X16488353Y-14877336D02*
X16478830Y-14886860D01*
X16478830Y-14886860D02*
X16459782Y-14896384D01*
X16459782Y-14896384D02*
X16431210Y-14896384D01*
X16612163Y-14896384D02*
X16593115Y-14886860D01*
X16593115Y-14886860D02*
X16583591Y-14867812D01*
X16583591Y-14867812D02*
X16583591Y-14696384D01*
X16764544Y-14886860D02*
X16745496Y-14896384D01*
X16745496Y-14896384D02*
X16707401Y-14896384D01*
X16707401Y-14896384D02*
X16688353Y-14886860D01*
X16688353Y-14886860D02*
X16678830Y-14867812D01*
X16678830Y-14867812D02*
X16678830Y-14791622D01*
X16678830Y-14791622D02*
X16688353Y-14772574D01*
X16688353Y-14772574D02*
X16707401Y-14763050D01*
X16707401Y-14763050D02*
X16745496Y-14763050D01*
X16745496Y-14763050D02*
X16764544Y-14772574D01*
X16764544Y-14772574D02*
X16774068Y-14791622D01*
X16774068Y-14791622D02*
X16774068Y-14810669D01*
X16774068Y-14810669D02*
X16678830Y-14829717D01*
X16850258Y-14886860D02*
X16869306Y-14896384D01*
X16869306Y-14896384D02*
X16907401Y-14896384D01*
X16907401Y-14896384D02*
X16926449Y-14886860D01*
X16926449Y-14886860D02*
X16935973Y-14867812D01*
X16935973Y-14867812D02*
X16935973Y-14858288D01*
X16935973Y-14858288D02*
X16926449Y-14839241D01*
X16926449Y-14839241D02*
X16907401Y-14829717D01*
X16907401Y-14829717D02*
X16878830Y-14829717D01*
X16878830Y-14829717D02*
X16859782Y-14820193D01*
X16859782Y-14820193D02*
X16850258Y-14801146D01*
X16850258Y-14801146D02*
X16850258Y-14791622D01*
X16850258Y-14791622D02*
X16859782Y-14772574D01*
X16859782Y-14772574D02*
X16878830Y-14763050D01*
X16878830Y-14763050D02*
X16907401Y-14763050D01*
X16907401Y-14763050D02*
X16926449Y-14772574D01*
X17002639Y-14972574D02*
X17012163Y-14963050D01*
X17012163Y-14963050D02*
X17031211Y-14934479D01*
X17031211Y-14934479D02*
X17040734Y-14915431D01*
X17040734Y-14915431D02*
X17050258Y-14886860D01*
X17050258Y-14886860D02*
X17059782Y-14839241D01*
X17059782Y-14839241D02*
X17059782Y-14801146D01*
X17059782Y-14801146D02*
X17050258Y-14753527D01*
X17050258Y-14753527D02*
X17040734Y-14724955D01*
X17040734Y-14724955D02*
X17031211Y-14705908D01*
X17031211Y-14705908D02*
X17012163Y-14677336D01*
X17012163Y-14677336D02*
X17002639Y-14667812D01*
X11837100Y-14968900D02*
X12037100Y-15168900D01*
X12037100Y-14968900D02*
X11837100Y-15168900D01*
X12037100Y-15068900D02*
G75*
G02*
X11837100Y-15068900I-100000J0D01*
G01*
X11837100Y-15068900D02*
G75*
G02*
X12037100Y-15068900I100000J0D01*
G01*
X12288353Y-14979431D02*
X12297877Y-14969908D01*
X12297877Y-14969908D02*
X12316924Y-14960384D01*
X12316924Y-14960384D02*
X12364543Y-14960384D01*
X12364543Y-14960384D02*
X12383591Y-14969908D01*
X12383591Y-14969908D02*
X12393115Y-14979431D01*
X12393115Y-14979431D02*
X12402639Y-14998479D01*
X12402639Y-14998479D02*
X12402639Y-15017527D01*
X12402639Y-15017527D02*
X12393115Y-15046098D01*
X12393115Y-15046098D02*
X12278829Y-15160384D01*
X12278829Y-15160384D02*
X12402639Y-15160384D01*
X12488353Y-15141336D02*
X12497877Y-15150860D01*
X12497877Y-15150860D02*
X12488353Y-15160384D01*
X12488353Y-15160384D02*
X12478829Y-15150860D01*
X12478829Y-15150860D02*
X12488353Y-15141336D01*
X12488353Y-15141336D02*
X12488353Y-15160384D01*
X12678829Y-14960384D02*
X12583591Y-14960384D01*
X12583591Y-14960384D02*
X12574067Y-15055622D01*
X12574067Y-15055622D02*
X12583591Y-15046098D01*
X12583591Y-15046098D02*
X12602639Y-15036574D01*
X12602639Y-15036574D02*
X12650258Y-15036574D01*
X12650258Y-15036574D02*
X12669305Y-15046098D01*
X12669305Y-15046098D02*
X12678829Y-15055622D01*
X12678829Y-15055622D02*
X12688353Y-15074669D01*
X12688353Y-15074669D02*
X12688353Y-15122288D01*
X12688353Y-15122288D02*
X12678829Y-15141336D01*
X12678829Y-15141336D02*
X12669305Y-15150860D01*
X12669305Y-15150860D02*
X12650258Y-15160384D01*
X12650258Y-15160384D02*
X12602639Y-15160384D01*
X12602639Y-15160384D02*
X12583591Y-15150860D01*
X12583591Y-15150860D02*
X12574067Y-15141336D01*
X12812162Y-14960384D02*
X12831210Y-14960384D01*
X12831210Y-14960384D02*
X12850258Y-14969908D01*
X12850258Y-14969908D02*
X12859782Y-14979431D01*
X12859782Y-14979431D02*
X12869305Y-14998479D01*
X12869305Y-14998479D02*
X12878829Y-15036574D01*
X12878829Y-15036574D02*
X12878829Y-15084193D01*
X12878829Y-15084193D02*
X12869305Y-15122288D01*
X12869305Y-15122288D02*
X12859782Y-15141336D01*
X12859782Y-15141336D02*
X12850258Y-15150860D01*
X12850258Y-15150860D02*
X12831210Y-15160384D01*
X12831210Y-15160384D02*
X12812162Y-15160384D01*
X12812162Y-15160384D02*
X12793115Y-15150860D01*
X12793115Y-15150860D02*
X12783591Y-15141336D01*
X12783591Y-15141336D02*
X12774067Y-15122288D01*
X12774067Y-15122288D02*
X12764543Y-15084193D01*
X12764543Y-15084193D02*
X12764543Y-15036574D01*
X12764543Y-15036574D02*
X12774067Y-14998479D01*
X12774067Y-14998479D02*
X12783591Y-14979431D01*
X12783591Y-14979431D02*
X12793115Y-14969908D01*
X12793115Y-14969908D02*
X12812162Y-14960384D01*
X13002639Y-14960384D02*
X13021686Y-14960384D01*
X13021686Y-14960384D02*
X13040734Y-14969908D01*
X13040734Y-14969908D02*
X13050258Y-14979431D01*
X13050258Y-14979431D02*
X13059782Y-14998479D01*
X13059782Y-14998479D02*
X13069305Y-15036574D01*
X13069305Y-15036574D02*
X13069305Y-15084193D01*
X13069305Y-15084193D02*
X13059782Y-15122288D01*
X13059782Y-15122288D02*
X13050258Y-15141336D01*
X13050258Y-15141336D02*
X13040734Y-15150860D01*
X13040734Y-15150860D02*
X13021686Y-15160384D01*
X13021686Y-15160384D02*
X13002639Y-15160384D01*
X13002639Y-15160384D02*
X12983591Y-15150860D01*
X12983591Y-15150860D02*
X12974067Y-15141336D01*
X12974067Y-15141336D02*
X12964543Y-15122288D01*
X12964543Y-15122288D02*
X12955020Y-15084193D01*
X12955020Y-15084193D02*
X12955020Y-15036574D01*
X12955020Y-15036574D02*
X12964543Y-14998479D01*
X12964543Y-14998479D02*
X12974067Y-14979431D01*
X12974067Y-14979431D02*
X12983591Y-14969908D01*
X12983591Y-14969908D02*
X13002639Y-14960384D01*
X13155020Y-15160384D02*
X13155020Y-15027050D01*
X13155020Y-15046098D02*
X13164543Y-15036574D01*
X13164543Y-15036574D02*
X13183591Y-15027050D01*
X13183591Y-15027050D02*
X13212163Y-15027050D01*
X13212163Y-15027050D02*
X13231210Y-15036574D01*
X13231210Y-15036574D02*
X13240734Y-15055622D01*
X13240734Y-15055622D02*
X13240734Y-15160384D01*
X13240734Y-15055622D02*
X13250258Y-15036574D01*
X13250258Y-15036574D02*
X13269305Y-15027050D01*
X13269305Y-15027050D02*
X13297877Y-15027050D01*
X13297877Y-15027050D02*
X13316924Y-15036574D01*
X13316924Y-15036574D02*
X13326448Y-15055622D01*
X13326448Y-15055622D02*
X13326448Y-15160384D01*
X13421686Y-15160384D02*
X13421686Y-15027050D01*
X13421686Y-15046098D02*
X13431210Y-15036574D01*
X13431210Y-15036574D02*
X13450258Y-15027050D01*
X13450258Y-15027050D02*
X13478829Y-15027050D01*
X13478829Y-15027050D02*
X13497877Y-15036574D01*
X13497877Y-15036574D02*
X13507401Y-15055622D01*
X13507401Y-15055622D02*
X13507401Y-15160384D01*
X13507401Y-15055622D02*
X13516924Y-15036574D01*
X13516924Y-15036574D02*
X13535972Y-15027050D01*
X13535972Y-15027050D02*
X13564543Y-15027050D01*
X13564543Y-15027050D02*
X13583591Y-15036574D01*
X13583591Y-15036574D02*
X13593115Y-15055622D01*
X13593115Y-15055622D02*
X13593115Y-15160384D01*
X13983591Y-14950860D02*
X13812163Y-15208003D01*
X14240734Y-14960384D02*
X14259782Y-14960384D01*
X14259782Y-14960384D02*
X14278829Y-14969908D01*
X14278829Y-14969908D02*
X14288353Y-14979431D01*
X14288353Y-14979431D02*
X14297877Y-14998479D01*
X14297877Y-14998479D02*
X14307401Y-15036574D01*
X14307401Y-15036574D02*
X14307401Y-15084193D01*
X14307401Y-15084193D02*
X14297877Y-15122288D01*
X14297877Y-15122288D02*
X14288353Y-15141336D01*
X14288353Y-15141336D02*
X14278829Y-15150860D01*
X14278829Y-15150860D02*
X14259782Y-15160384D01*
X14259782Y-15160384D02*
X14240734Y-15160384D01*
X14240734Y-15160384D02*
X14221686Y-15150860D01*
X14221686Y-15150860D02*
X14212163Y-15141336D01*
X14212163Y-15141336D02*
X14202639Y-15122288D01*
X14202639Y-15122288D02*
X14193115Y-15084193D01*
X14193115Y-15084193D02*
X14193115Y-15036574D01*
X14193115Y-15036574D02*
X14202639Y-14998479D01*
X14202639Y-14998479D02*
X14212163Y-14979431D01*
X14212163Y-14979431D02*
X14221686Y-14969908D01*
X14221686Y-14969908D02*
X14240734Y-14960384D01*
X14393115Y-15141336D02*
X14402639Y-15150860D01*
X14402639Y-15150860D02*
X14393115Y-15160384D01*
X14393115Y-15160384D02*
X14383591Y-15150860D01*
X14383591Y-15150860D02*
X14393115Y-15141336D01*
X14393115Y-15141336D02*
X14393115Y-15160384D01*
X14526448Y-14960384D02*
X14545496Y-14960384D01*
X14545496Y-14960384D02*
X14564544Y-14969908D01*
X14564544Y-14969908D02*
X14574067Y-14979431D01*
X14574067Y-14979431D02*
X14583591Y-14998479D01*
X14583591Y-14998479D02*
X14593115Y-15036574D01*
X14593115Y-15036574D02*
X14593115Y-15084193D01*
X14593115Y-15084193D02*
X14583591Y-15122288D01*
X14583591Y-15122288D02*
X14574067Y-15141336D01*
X14574067Y-15141336D02*
X14564544Y-15150860D01*
X14564544Y-15150860D02*
X14545496Y-15160384D01*
X14545496Y-15160384D02*
X14526448Y-15160384D01*
X14526448Y-15160384D02*
X14507401Y-15150860D01*
X14507401Y-15150860D02*
X14497877Y-15141336D01*
X14497877Y-15141336D02*
X14488353Y-15122288D01*
X14488353Y-15122288D02*
X14478829Y-15084193D01*
X14478829Y-15084193D02*
X14478829Y-15036574D01*
X14478829Y-15036574D02*
X14488353Y-14998479D01*
X14488353Y-14998479D02*
X14497877Y-14979431D01*
X14497877Y-14979431D02*
X14507401Y-14969908D01*
X14507401Y-14969908D02*
X14526448Y-14960384D01*
X14688353Y-15160384D02*
X14726448Y-15160384D01*
X14726448Y-15160384D02*
X14745496Y-15150860D01*
X14745496Y-15150860D02*
X14755020Y-15141336D01*
X14755020Y-15141336D02*
X14774067Y-15112765D01*
X14774067Y-15112765D02*
X14783591Y-15074669D01*
X14783591Y-15074669D02*
X14783591Y-14998479D01*
X14783591Y-14998479D02*
X14774067Y-14979431D01*
X14774067Y-14979431D02*
X14764544Y-14969908D01*
X14764544Y-14969908D02*
X14745496Y-14960384D01*
X14745496Y-14960384D02*
X14707401Y-14960384D01*
X14707401Y-14960384D02*
X14688353Y-14969908D01*
X14688353Y-14969908D02*
X14678829Y-14979431D01*
X14678829Y-14979431D02*
X14669306Y-14998479D01*
X14669306Y-14998479D02*
X14669306Y-15046098D01*
X14669306Y-15046098D02*
X14678829Y-15065146D01*
X14678829Y-15065146D02*
X14688353Y-15074669D01*
X14688353Y-15074669D02*
X14707401Y-15084193D01*
X14707401Y-15084193D02*
X14745496Y-15084193D01*
X14745496Y-15084193D02*
X14764544Y-15074669D01*
X14764544Y-15074669D02*
X14774067Y-15065146D01*
X14774067Y-15065146D02*
X14783591Y-15046098D01*
X14897877Y-15046098D02*
X14878829Y-15036574D01*
X14878829Y-15036574D02*
X14869306Y-15027050D01*
X14869306Y-15027050D02*
X14859782Y-15008003D01*
X14859782Y-15008003D02*
X14859782Y-14998479D01*
X14859782Y-14998479D02*
X14869306Y-14979431D01*
X14869306Y-14979431D02*
X14878829Y-14969908D01*
X14878829Y-14969908D02*
X14897877Y-14960384D01*
X14897877Y-14960384D02*
X14935972Y-14960384D01*
X14935972Y-14960384D02*
X14955020Y-14969908D01*
X14955020Y-14969908D02*
X14964544Y-14979431D01*
X14964544Y-14979431D02*
X14974067Y-14998479D01*
X14974067Y-14998479D02*
X14974067Y-15008003D01*
X14974067Y-15008003D02*
X14964544Y-15027050D01*
X14964544Y-15027050D02*
X14955020Y-15036574D01*
X14955020Y-15036574D02*
X14935972Y-15046098D01*
X14935972Y-15046098D02*
X14897877Y-15046098D01*
X14897877Y-15046098D02*
X14878829Y-15055622D01*
X14878829Y-15055622D02*
X14869306Y-15065146D01*
X14869306Y-15065146D02*
X14859782Y-15084193D01*
X14859782Y-15084193D02*
X14859782Y-15122288D01*
X14859782Y-15122288D02*
X14869306Y-15141336D01*
X14869306Y-15141336D02*
X14878829Y-15150860D01*
X14878829Y-15150860D02*
X14897877Y-15160384D01*
X14897877Y-15160384D02*
X14935972Y-15160384D01*
X14935972Y-15160384D02*
X14955020Y-15150860D01*
X14955020Y-15150860D02*
X14964544Y-15141336D01*
X14964544Y-15141336D02*
X14974067Y-15122288D01*
X14974067Y-15122288D02*
X14974067Y-15084193D01*
X14974067Y-15084193D02*
X14964544Y-15065146D01*
X14964544Y-15065146D02*
X14955020Y-15055622D01*
X14955020Y-15055622D02*
X14935972Y-15046098D01*
X15145496Y-15027050D02*
X15145496Y-15160384D01*
X15097877Y-14950860D02*
X15050258Y-15093717D01*
X15050258Y-15093717D02*
X15174067Y-15093717D01*
X15240734Y-14960384D02*
X15240734Y-14998479D01*
X15316925Y-14960384D02*
X15316925Y-14998479D01*
X15612163Y-15236574D02*
X15602639Y-15227050D01*
X15602639Y-15227050D02*
X15583591Y-15198479D01*
X15583591Y-15198479D02*
X15574068Y-15179431D01*
X15574068Y-15179431D02*
X15564544Y-15150860D01*
X15564544Y-15150860D02*
X15555020Y-15103241D01*
X15555020Y-15103241D02*
X15555020Y-15065146D01*
X15555020Y-15065146D02*
X15564544Y-15017527D01*
X15564544Y-15017527D02*
X15574068Y-14988955D01*
X15574068Y-14988955D02*
X15583591Y-14969908D01*
X15583591Y-14969908D02*
X15602639Y-14941336D01*
X15602639Y-14941336D02*
X15612163Y-14931812D01*
X15774068Y-15027050D02*
X15774068Y-15160384D01*
X15726448Y-14950860D02*
X15678829Y-15093717D01*
X15678829Y-15093717D02*
X15802639Y-15093717D01*
X16031210Y-15160384D02*
X16031210Y-14960384D01*
X16116925Y-15160384D02*
X16116925Y-15055622D01*
X16116925Y-15055622D02*
X16107401Y-15036574D01*
X16107401Y-15036574D02*
X16088353Y-15027050D01*
X16088353Y-15027050D02*
X16059782Y-15027050D01*
X16059782Y-15027050D02*
X16040734Y-15036574D01*
X16040734Y-15036574D02*
X16031210Y-15046098D01*
X16240734Y-15160384D02*
X16221687Y-15150860D01*
X16221687Y-15150860D02*
X16212163Y-15141336D01*
X16212163Y-15141336D02*
X16202639Y-15122288D01*
X16202639Y-15122288D02*
X16202639Y-15065146D01*
X16202639Y-15065146D02*
X16212163Y-15046098D01*
X16212163Y-15046098D02*
X16221687Y-15036574D01*
X16221687Y-15036574D02*
X16240734Y-15027050D01*
X16240734Y-15027050D02*
X16269306Y-15027050D01*
X16269306Y-15027050D02*
X16288353Y-15036574D01*
X16288353Y-15036574D02*
X16297877Y-15046098D01*
X16297877Y-15046098D02*
X16307401Y-15065146D01*
X16307401Y-15065146D02*
X16307401Y-15122288D01*
X16307401Y-15122288D02*
X16297877Y-15141336D01*
X16297877Y-15141336D02*
X16288353Y-15150860D01*
X16288353Y-15150860D02*
X16269306Y-15160384D01*
X16269306Y-15160384D02*
X16240734Y-15160384D01*
X16421687Y-15160384D02*
X16402639Y-15150860D01*
X16402639Y-15150860D02*
X16393115Y-15131812D01*
X16393115Y-15131812D02*
X16393115Y-14960384D01*
X16574068Y-15150860D02*
X16555020Y-15160384D01*
X16555020Y-15160384D02*
X16516925Y-15160384D01*
X16516925Y-15160384D02*
X16497877Y-15150860D01*
X16497877Y-15150860D02*
X16488353Y-15131812D01*
X16488353Y-15131812D02*
X16488353Y-15055622D01*
X16488353Y-15055622D02*
X16497877Y-15036574D01*
X16497877Y-15036574D02*
X16516925Y-15027050D01*
X16516925Y-15027050D02*
X16555020Y-15027050D01*
X16555020Y-15027050D02*
X16574068Y-15036574D01*
X16574068Y-15036574D02*
X16583591Y-15055622D01*
X16583591Y-15055622D02*
X16583591Y-15074669D01*
X16583591Y-15074669D02*
X16488353Y-15093717D01*
X16659782Y-15150860D02*
X16678830Y-15160384D01*
X16678830Y-15160384D02*
X16716925Y-15160384D01*
X16716925Y-15160384D02*
X16735972Y-15150860D01*
X16735972Y-15150860D02*
X16745496Y-15131812D01*
X16745496Y-15131812D02*
X16745496Y-15122288D01*
X16745496Y-15122288D02*
X16735972Y-15103241D01*
X16735972Y-15103241D02*
X16716925Y-15093717D01*
X16716925Y-15093717D02*
X16688353Y-15093717D01*
X16688353Y-15093717D02*
X16669306Y-15084193D01*
X16669306Y-15084193D02*
X16659782Y-15065146D01*
X16659782Y-15065146D02*
X16659782Y-15055622D01*
X16659782Y-15055622D02*
X16669306Y-15036574D01*
X16669306Y-15036574D02*
X16688353Y-15027050D01*
X16688353Y-15027050D02*
X16716925Y-15027050D01*
X16716925Y-15027050D02*
X16735972Y-15036574D01*
X16812163Y-15236574D02*
X16821687Y-15227050D01*
X16821687Y-15227050D02*
X16840734Y-15198479D01*
X16840734Y-15198479D02*
X16850258Y-15179431D01*
X16850258Y-15179431D02*
X16859782Y-15150860D01*
X16859782Y-15150860D02*
X16869306Y-15103241D01*
X16869306Y-15103241D02*
X16869306Y-15065146D01*
X16869306Y-15065146D02*
X16859782Y-15017527D01*
X16859782Y-15017527D02*
X16850258Y-14988955D01*
X16850258Y-14988955D02*
X16840734Y-14969908D01*
X16840734Y-14969908D02*
X16821687Y-14941336D01*
X16821687Y-14941336D02*
X16812163Y-14931812D01*
X11837100Y-15288900D02*
X12037100Y-15488900D01*
X12037100Y-15288900D02*
X11837100Y-15488900D01*
X11937100Y-15288900D02*
X11937100Y-15488900D01*
X11837100Y-15388900D02*
X12037100Y-15388900D01*
X12278829Y-15280384D02*
X12402639Y-15280384D01*
X12402639Y-15280384D02*
X12335972Y-15356574D01*
X12335972Y-15356574D02*
X12364543Y-15356574D01*
X12364543Y-15356574D02*
X12383591Y-15366098D01*
X12383591Y-15366098D02*
X12393115Y-15375622D01*
X12393115Y-15375622D02*
X12402639Y-15394669D01*
X12402639Y-15394669D02*
X12402639Y-15442288D01*
X12402639Y-15442288D02*
X12393115Y-15461336D01*
X12393115Y-15461336D02*
X12383591Y-15470860D01*
X12383591Y-15470860D02*
X12364543Y-15480384D01*
X12364543Y-15480384D02*
X12307401Y-15480384D01*
X12307401Y-15480384D02*
X12288353Y-15470860D01*
X12288353Y-15470860D02*
X12278829Y-15461336D01*
X12488353Y-15461336D02*
X12497877Y-15470860D01*
X12497877Y-15470860D02*
X12488353Y-15480384D01*
X12488353Y-15480384D02*
X12478829Y-15470860D01*
X12478829Y-15470860D02*
X12488353Y-15461336D01*
X12488353Y-15461336D02*
X12488353Y-15480384D01*
X12574067Y-15299431D02*
X12583591Y-15289908D01*
X12583591Y-15289908D02*
X12602639Y-15280384D01*
X12602639Y-15280384D02*
X12650258Y-15280384D01*
X12650258Y-15280384D02*
X12669305Y-15289908D01*
X12669305Y-15289908D02*
X12678829Y-15299431D01*
X12678829Y-15299431D02*
X12688353Y-15318479D01*
X12688353Y-15318479D02*
X12688353Y-15337527D01*
X12688353Y-15337527D02*
X12678829Y-15366098D01*
X12678829Y-15366098D02*
X12564543Y-15480384D01*
X12564543Y-15480384D02*
X12688353Y-15480384D01*
X12812162Y-15280384D02*
X12831210Y-15280384D01*
X12831210Y-15280384D02*
X12850258Y-15289908D01*
X12850258Y-15289908D02*
X12859782Y-15299431D01*
X12859782Y-15299431D02*
X12869305Y-15318479D01*
X12869305Y-15318479D02*
X12878829Y-15356574D01*
X12878829Y-15356574D02*
X12878829Y-15404193D01*
X12878829Y-15404193D02*
X12869305Y-15442288D01*
X12869305Y-15442288D02*
X12859782Y-15461336D01*
X12859782Y-15461336D02*
X12850258Y-15470860D01*
X12850258Y-15470860D02*
X12831210Y-15480384D01*
X12831210Y-15480384D02*
X12812162Y-15480384D01*
X12812162Y-15480384D02*
X12793115Y-15470860D01*
X12793115Y-15470860D02*
X12783591Y-15461336D01*
X12783591Y-15461336D02*
X12774067Y-15442288D01*
X12774067Y-15442288D02*
X12764543Y-15404193D01*
X12764543Y-15404193D02*
X12764543Y-15356574D01*
X12764543Y-15356574D02*
X12774067Y-15318479D01*
X12774067Y-15318479D02*
X12783591Y-15299431D01*
X12783591Y-15299431D02*
X12793115Y-15289908D01*
X12793115Y-15289908D02*
X12812162Y-15280384D01*
X13002639Y-15280384D02*
X13021686Y-15280384D01*
X13021686Y-15280384D02*
X13040734Y-15289908D01*
X13040734Y-15289908D02*
X13050258Y-15299431D01*
X13050258Y-15299431D02*
X13059782Y-15318479D01*
X13059782Y-15318479D02*
X13069305Y-15356574D01*
X13069305Y-15356574D02*
X13069305Y-15404193D01*
X13069305Y-15404193D02*
X13059782Y-15442288D01*
X13059782Y-15442288D02*
X13050258Y-15461336D01*
X13050258Y-15461336D02*
X13040734Y-15470860D01*
X13040734Y-15470860D02*
X13021686Y-15480384D01*
X13021686Y-15480384D02*
X13002639Y-15480384D01*
X13002639Y-15480384D02*
X12983591Y-15470860D01*
X12983591Y-15470860D02*
X12974067Y-15461336D01*
X12974067Y-15461336D02*
X12964543Y-15442288D01*
X12964543Y-15442288D02*
X12955020Y-15404193D01*
X12955020Y-15404193D02*
X12955020Y-15356574D01*
X12955020Y-15356574D02*
X12964543Y-15318479D01*
X12964543Y-15318479D02*
X12974067Y-15299431D01*
X12974067Y-15299431D02*
X12983591Y-15289908D01*
X12983591Y-15289908D02*
X13002639Y-15280384D01*
X13155020Y-15480384D02*
X13155020Y-15347050D01*
X13155020Y-15366098D02*
X13164543Y-15356574D01*
X13164543Y-15356574D02*
X13183591Y-15347050D01*
X13183591Y-15347050D02*
X13212163Y-15347050D01*
X13212163Y-15347050D02*
X13231210Y-15356574D01*
X13231210Y-15356574D02*
X13240734Y-15375622D01*
X13240734Y-15375622D02*
X13240734Y-15480384D01*
X13240734Y-15375622D02*
X13250258Y-15356574D01*
X13250258Y-15356574D02*
X13269305Y-15347050D01*
X13269305Y-15347050D02*
X13297877Y-15347050D01*
X13297877Y-15347050D02*
X13316924Y-15356574D01*
X13316924Y-15356574D02*
X13326448Y-15375622D01*
X13326448Y-15375622D02*
X13326448Y-15480384D01*
X13421686Y-15480384D02*
X13421686Y-15347050D01*
X13421686Y-15366098D02*
X13431210Y-15356574D01*
X13431210Y-15356574D02*
X13450258Y-15347050D01*
X13450258Y-15347050D02*
X13478829Y-15347050D01*
X13478829Y-15347050D02*
X13497877Y-15356574D01*
X13497877Y-15356574D02*
X13507401Y-15375622D01*
X13507401Y-15375622D02*
X13507401Y-15480384D01*
X13507401Y-15375622D02*
X13516924Y-15356574D01*
X13516924Y-15356574D02*
X13535972Y-15347050D01*
X13535972Y-15347050D02*
X13564543Y-15347050D01*
X13564543Y-15347050D02*
X13583591Y-15356574D01*
X13583591Y-15356574D02*
X13593115Y-15375622D01*
X13593115Y-15375622D02*
X13593115Y-15480384D01*
X13983591Y-15270860D02*
X13812163Y-15528003D01*
X14240734Y-15280384D02*
X14259782Y-15280384D01*
X14259782Y-15280384D02*
X14278829Y-15289908D01*
X14278829Y-15289908D02*
X14288353Y-15299431D01*
X14288353Y-15299431D02*
X14297877Y-15318479D01*
X14297877Y-15318479D02*
X14307401Y-15356574D01*
X14307401Y-15356574D02*
X14307401Y-15404193D01*
X14307401Y-15404193D02*
X14297877Y-15442288D01*
X14297877Y-15442288D02*
X14288353Y-15461336D01*
X14288353Y-15461336D02*
X14278829Y-15470860D01*
X14278829Y-15470860D02*
X14259782Y-15480384D01*
X14259782Y-15480384D02*
X14240734Y-15480384D01*
X14240734Y-15480384D02*
X14221686Y-15470860D01*
X14221686Y-15470860D02*
X14212163Y-15461336D01*
X14212163Y-15461336D02*
X14202639Y-15442288D01*
X14202639Y-15442288D02*
X14193115Y-15404193D01*
X14193115Y-15404193D02*
X14193115Y-15356574D01*
X14193115Y-15356574D02*
X14202639Y-15318479D01*
X14202639Y-15318479D02*
X14212163Y-15299431D01*
X14212163Y-15299431D02*
X14221686Y-15289908D01*
X14221686Y-15289908D02*
X14240734Y-15280384D01*
X14393115Y-15461336D02*
X14402639Y-15470860D01*
X14402639Y-15470860D02*
X14393115Y-15480384D01*
X14393115Y-15480384D02*
X14383591Y-15470860D01*
X14383591Y-15470860D02*
X14393115Y-15461336D01*
X14393115Y-15461336D02*
X14393115Y-15480384D01*
X14593115Y-15480384D02*
X14478829Y-15480384D01*
X14535972Y-15480384D02*
X14535972Y-15280384D01*
X14535972Y-15280384D02*
X14516925Y-15308955D01*
X14516925Y-15308955D02*
X14497877Y-15328003D01*
X14497877Y-15328003D02*
X14478829Y-15337527D01*
X14669306Y-15299431D02*
X14678829Y-15289908D01*
X14678829Y-15289908D02*
X14697877Y-15280384D01*
X14697877Y-15280384D02*
X14745496Y-15280384D01*
X14745496Y-15280384D02*
X14764544Y-15289908D01*
X14764544Y-15289908D02*
X14774067Y-15299431D01*
X14774067Y-15299431D02*
X14783591Y-15318479D01*
X14783591Y-15318479D02*
X14783591Y-15337527D01*
X14783591Y-15337527D02*
X14774067Y-15366098D01*
X14774067Y-15366098D02*
X14659782Y-15480384D01*
X14659782Y-15480384D02*
X14783591Y-15480384D01*
X14955020Y-15280384D02*
X14916925Y-15280384D01*
X14916925Y-15280384D02*
X14897877Y-15289908D01*
X14897877Y-15289908D02*
X14888353Y-15299431D01*
X14888353Y-15299431D02*
X14869306Y-15328003D01*
X14869306Y-15328003D02*
X14859782Y-15366098D01*
X14859782Y-15366098D02*
X14859782Y-15442288D01*
X14859782Y-15442288D02*
X14869306Y-15461336D01*
X14869306Y-15461336D02*
X14878829Y-15470860D01*
X14878829Y-15470860D02*
X14897877Y-15480384D01*
X14897877Y-15480384D02*
X14935972Y-15480384D01*
X14935972Y-15480384D02*
X14955020Y-15470860D01*
X14955020Y-15470860D02*
X14964544Y-15461336D01*
X14964544Y-15461336D02*
X14974067Y-15442288D01*
X14974067Y-15442288D02*
X14974067Y-15394669D01*
X14974067Y-15394669D02*
X14964544Y-15375622D01*
X14964544Y-15375622D02*
X14955020Y-15366098D01*
X14955020Y-15366098D02*
X14935972Y-15356574D01*
X14935972Y-15356574D02*
X14897877Y-15356574D01*
X14897877Y-15356574D02*
X14878829Y-15366098D01*
X14878829Y-15366098D02*
X14869306Y-15375622D01*
X14869306Y-15375622D02*
X14859782Y-15394669D01*
X15097877Y-15280384D02*
X15116925Y-15280384D01*
X15116925Y-15280384D02*
X15135972Y-15289908D01*
X15135972Y-15289908D02*
X15145496Y-15299431D01*
X15145496Y-15299431D02*
X15155020Y-15318479D01*
X15155020Y-15318479D02*
X15164544Y-15356574D01*
X15164544Y-15356574D02*
X15164544Y-15404193D01*
X15164544Y-15404193D02*
X15155020Y-15442288D01*
X15155020Y-15442288D02*
X15145496Y-15461336D01*
X15145496Y-15461336D02*
X15135972Y-15470860D01*
X15135972Y-15470860D02*
X15116925Y-15480384D01*
X15116925Y-15480384D02*
X15097877Y-15480384D01*
X15097877Y-15480384D02*
X15078829Y-15470860D01*
X15078829Y-15470860D02*
X15069306Y-15461336D01*
X15069306Y-15461336D02*
X15059782Y-15442288D01*
X15059782Y-15442288D02*
X15050258Y-15404193D01*
X15050258Y-15404193D02*
X15050258Y-15356574D01*
X15050258Y-15356574D02*
X15059782Y-15318479D01*
X15059782Y-15318479D02*
X15069306Y-15299431D01*
X15069306Y-15299431D02*
X15078829Y-15289908D01*
X15078829Y-15289908D02*
X15097877Y-15280384D01*
X15240734Y-15280384D02*
X15240734Y-15318479D01*
X15316925Y-15280384D02*
X15316925Y-15318479D01*
X15612163Y-15556574D02*
X15602639Y-15547050D01*
X15602639Y-15547050D02*
X15583591Y-15518479D01*
X15583591Y-15518479D02*
X15574068Y-15499431D01*
X15574068Y-15499431D02*
X15564544Y-15470860D01*
X15564544Y-15470860D02*
X15555020Y-15423241D01*
X15555020Y-15423241D02*
X15555020Y-15385146D01*
X15555020Y-15385146D02*
X15564544Y-15337527D01*
X15564544Y-15337527D02*
X15574068Y-15308955D01*
X15574068Y-15308955D02*
X15583591Y-15289908D01*
X15583591Y-15289908D02*
X15602639Y-15261336D01*
X15602639Y-15261336D02*
X15612163Y-15251812D01*
X15669306Y-15280384D02*
X15793115Y-15280384D01*
X15793115Y-15280384D02*
X15726448Y-15356574D01*
X15726448Y-15356574D02*
X15755020Y-15356574D01*
X15755020Y-15356574D02*
X15774068Y-15366098D01*
X15774068Y-15366098D02*
X15783591Y-15375622D01*
X15783591Y-15375622D02*
X15793115Y-15394669D01*
X15793115Y-15394669D02*
X15793115Y-15442288D01*
X15793115Y-15442288D02*
X15783591Y-15461336D01*
X15783591Y-15461336D02*
X15774068Y-15470860D01*
X15774068Y-15470860D02*
X15755020Y-15480384D01*
X15755020Y-15480384D02*
X15697877Y-15480384D01*
X15697877Y-15480384D02*
X15678829Y-15470860D01*
X15678829Y-15470860D02*
X15669306Y-15461336D01*
X16031210Y-15480384D02*
X16031210Y-15280384D01*
X16116925Y-15480384D02*
X16116925Y-15375622D01*
X16116925Y-15375622D02*
X16107401Y-15356574D01*
X16107401Y-15356574D02*
X16088353Y-15347050D01*
X16088353Y-15347050D02*
X16059782Y-15347050D01*
X16059782Y-15347050D02*
X16040734Y-15356574D01*
X16040734Y-15356574D02*
X16031210Y-15366098D01*
X16240734Y-15480384D02*
X16221687Y-15470860D01*
X16221687Y-15470860D02*
X16212163Y-15461336D01*
X16212163Y-15461336D02*
X16202639Y-15442288D01*
X16202639Y-15442288D02*
X16202639Y-15385146D01*
X16202639Y-15385146D02*
X16212163Y-15366098D01*
X16212163Y-15366098D02*
X16221687Y-15356574D01*
X16221687Y-15356574D02*
X16240734Y-15347050D01*
X16240734Y-15347050D02*
X16269306Y-15347050D01*
X16269306Y-15347050D02*
X16288353Y-15356574D01*
X16288353Y-15356574D02*
X16297877Y-15366098D01*
X16297877Y-15366098D02*
X16307401Y-15385146D01*
X16307401Y-15385146D02*
X16307401Y-15442288D01*
X16307401Y-15442288D02*
X16297877Y-15461336D01*
X16297877Y-15461336D02*
X16288353Y-15470860D01*
X16288353Y-15470860D02*
X16269306Y-15480384D01*
X16269306Y-15480384D02*
X16240734Y-15480384D01*
X16421687Y-15480384D02*
X16402639Y-15470860D01*
X16402639Y-15470860D02*
X16393115Y-15451812D01*
X16393115Y-15451812D02*
X16393115Y-15280384D01*
X16574068Y-15470860D02*
X16555020Y-15480384D01*
X16555020Y-15480384D02*
X16516925Y-15480384D01*
X16516925Y-15480384D02*
X16497877Y-15470860D01*
X16497877Y-15470860D02*
X16488353Y-15451812D01*
X16488353Y-15451812D02*
X16488353Y-15375622D01*
X16488353Y-15375622D02*
X16497877Y-15356574D01*
X16497877Y-15356574D02*
X16516925Y-15347050D01*
X16516925Y-15347050D02*
X16555020Y-15347050D01*
X16555020Y-15347050D02*
X16574068Y-15356574D01*
X16574068Y-15356574D02*
X16583591Y-15375622D01*
X16583591Y-15375622D02*
X16583591Y-15394669D01*
X16583591Y-15394669D02*
X16488353Y-15413717D01*
X16659782Y-15470860D02*
X16678830Y-15480384D01*
X16678830Y-15480384D02*
X16716925Y-15480384D01*
X16716925Y-15480384D02*
X16735972Y-15470860D01*
X16735972Y-15470860D02*
X16745496Y-15451812D01*
X16745496Y-15451812D02*
X16745496Y-15442288D01*
X16745496Y-15442288D02*
X16735972Y-15423241D01*
X16735972Y-15423241D02*
X16716925Y-15413717D01*
X16716925Y-15413717D02*
X16688353Y-15413717D01*
X16688353Y-15413717D02*
X16669306Y-15404193D01*
X16669306Y-15404193D02*
X16659782Y-15385146D01*
X16659782Y-15385146D02*
X16659782Y-15375622D01*
X16659782Y-15375622D02*
X16669306Y-15356574D01*
X16669306Y-15356574D02*
X16688353Y-15347050D01*
X16688353Y-15347050D02*
X16716925Y-15347050D01*
X16716925Y-15347050D02*
X16735972Y-15356574D01*
X16812163Y-15556574D02*
X16821687Y-15547050D01*
X16821687Y-15547050D02*
X16840734Y-15518479D01*
X16840734Y-15518479D02*
X16850258Y-15499431D01*
X16850258Y-15499431D02*
X16859782Y-15470860D01*
X16859782Y-15470860D02*
X16869306Y-15423241D01*
X16869306Y-15423241D02*
X16869306Y-15385146D01*
X16869306Y-15385146D02*
X16859782Y-15337527D01*
X16859782Y-15337527D02*
X16850258Y-15308955D01*
X16850258Y-15308955D02*
X16840734Y-15289908D01*
X16840734Y-15289908D02*
X16821687Y-15261336D01*
X16821687Y-15261336D02*
X16812163Y-15251812D01*
M02*
