%TF.GenerationSoftware,KiCad,Pcbnew,10.0.1*%
%TF.CreationDate,2026-04-23T22:56:06-07:00*%
%TF.ProjectId,Photogate,50686f74-6f67-4617-9465-2e6b69636164,rev?*%
%TF.SameCoordinates,Original*%
%TF.FileFunction,Soldermask,Top*%
%TF.FilePolarity,Negative*%
%FSLAX46Y46*%
G04 Gerber Fmt 4.6, Leading zero omitted, Abs format (unit mm)*
G04 Created by KiCad (PCBNEW 10.0.1) date 2026-04-23 22:56:06*
%MOMM*%
%LPD*%
G01*
G04 APERTURE LIST*
%ADD10C,1.800000*%
%ADD11C,1.600000*%
%ADD12C,3.600000*%
%ADD13C,5.600000*%
%ADD14R,1.050000X1.500000*%
%ADD15O,1.050000X1.500000*%
%ADD16R,1.700000X1.700000*%
%ADD17C,1.700000*%
%ADD18C,1.524000*%
%ADD19R,1.500000X1.050000*%
%ADD20O,1.500000X1.050000*%
%ADD21C,3.000000*%
%ADD22R,1.800000X2.600000*%
%ADD23O,1.800000X2.600000*%
G04 APERTURE END LIST*
D10*
%TO.C,U1*%
X149407800Y-123734000D03*
X155907800Y-123734000D03*
X149407800Y-128234000D03*
X155907800Y-128234000D03*
%TD*%
D11*
%TO.C,C4*%
X164124000Y-114808000D03*
X169124000Y-114808000D03*
%TD*%
%TO.C,R1*%
X202692000Y-71069200D03*
X192532000Y-71069200D03*
%TD*%
%TO.C,R8*%
X204978000Y-120396000D03*
X194818000Y-120396000D03*
%TD*%
D12*
%TO.C,REF\u002A\u002A*%
X173228000Y-66548000D03*
D13*
X173228000Y-66548000D03*
%TD*%
D11*
%TO.C,R2*%
X149352000Y-111760000D03*
X139192000Y-111760000D03*
%TD*%
D14*
%TO.C,Q3*%
X185166000Y-112162000D03*
D15*
X183896000Y-112162000D03*
X182626000Y-112162000D03*
%TD*%
D11*
%TO.C,R7*%
X204978000Y-117094000D03*
X194818000Y-117094000D03*
%TD*%
%TO.C,R3*%
X149352000Y-118364000D03*
X139192000Y-118364000D03*
%TD*%
D16*
%TO.C,J5*%
X123444000Y-92964000D03*
D17*
X123444000Y-95504000D03*
%TD*%
D18*
%TO.C,RV1*%
X133604000Y-66040000D03*
X123444000Y-68580000D03*
X133604000Y-71120000D03*
%TD*%
D11*
%TO.C,C1*%
X136692000Y-71628000D03*
X141692000Y-71628000D03*
%TD*%
%TO.C,C5*%
X207772000Y-117094000D03*
X207772000Y-122094000D03*
%TD*%
D19*
%TO.C,Q4*%
X207518000Y-114046000D03*
D20*
X207518000Y-112776000D03*
X207518000Y-111506000D03*
%TD*%
D16*
%TO.C,J6*%
X123444000Y-103632000D03*
D17*
X123444000Y-106172000D03*
%TD*%
D12*
%TO.C,REF\u002A\u002A*%
X125222000Y-126238000D03*
D13*
X125222000Y-126238000D03*
%TD*%
D11*
%TO.C,R4*%
X155702000Y-111760000D03*
X165862000Y-111760000D03*
%TD*%
%TO.C,C2*%
X145542000Y-115062000D03*
X140542000Y-115062000D03*
%TD*%
%TO.C,C3*%
X145542000Y-121666000D03*
X140542000Y-121666000D03*
%TD*%
D16*
%TO.C,J8*%
X208280000Y-103632000D03*
D17*
X208280000Y-106172000D03*
%TD*%
D10*
%TO.C,U3*%
X162104000Y-123734000D03*
X168604000Y-123734000D03*
X162104000Y-128234000D03*
X168604000Y-128234000D03*
%TD*%
%TO.C,U2*%
X174807800Y-123734000D03*
X181307800Y-123734000D03*
X174807800Y-128234000D03*
X181307800Y-128234000D03*
%TD*%
D12*
%TO.C,REF\u002A\u002A*%
X187960000Y-126238000D03*
D13*
X187960000Y-126238000D03*
%TD*%
D11*
%TO.C,R5*%
X168402000Y-111760000D03*
X178562000Y-111760000D03*
%TD*%
D16*
%TO.C,J7*%
X208280000Y-92959000D03*
D17*
X208280000Y-95499000D03*
%TD*%
D21*
%TO.C,DS1*%
X128358900Y-76200000D03*
X128358900Y-107200700D03*
X203357480Y-107200700D03*
X203358000Y-76200000D03*
D22*
X133858000Y-76200000D03*
D23*
X136398000Y-76200000D03*
X138938000Y-76200000D03*
X141478000Y-76200000D03*
X144018000Y-76200000D03*
X146558000Y-76200000D03*
X149098000Y-76200000D03*
X151638000Y-76200000D03*
X154178000Y-76200000D03*
X156718000Y-76200000D03*
X159258000Y-76200000D03*
X161798000Y-76200000D03*
X164338000Y-76200000D03*
X166878000Y-76200000D03*
X169418000Y-76200000D03*
X171958000Y-76200000D03*
%TD*%
D11*
%TO.C,R9*%
X204978000Y-123698000D03*
X194818000Y-123698000D03*
%TD*%
%TO.C,R6*%
X189992000Y-111760000D03*
X200152000Y-111760000D03*
%TD*%
D16*
%TO.C,J1*%
X189738000Y-71120000D03*
D17*
X187198000Y-71120000D03*
X184658000Y-71120000D03*
X182118000Y-71120000D03*
X179578000Y-71120000D03*
X177038000Y-71120000D03*
X174498000Y-71120000D03*
X171958000Y-71120000D03*
%TD*%
D16*
%TO.C,J3*%
X154178000Y-119380000D03*
D17*
X156718000Y-119380000D03*
X159258000Y-119380000D03*
X161798000Y-119380000D03*
X164338000Y-119380000D03*
X166878000Y-119380000D03*
X169418000Y-119380000D03*
X171958000Y-119380000D03*
%TD*%
D16*
%TO.C,J4*%
X177038000Y-119380000D03*
D17*
X179578000Y-119380000D03*
X182118000Y-119380000D03*
X184658000Y-119380000D03*
X187198000Y-119380000D03*
X189738000Y-119380000D03*
%TD*%
D16*
%TO.C,J2*%
X167894000Y-71120000D03*
D17*
X165354000Y-71120000D03*
X162814000Y-71120000D03*
X160274000Y-71120000D03*
X157734000Y-71120000D03*
X155194000Y-71120000D03*
X152654000Y-71120000D03*
X150114000Y-71120000D03*
X147574000Y-71120000D03*
X145034000Y-71120000D03*
%TD*%
M02*
