M48
; DRILL file KiCad 10.0.1 date 2026-04-23T22:56:11
; FORMAT={-:-/ absolute / metric / decimal}
; #@! TF.CreationDate,2026-04-23T22:56:11-07:00
; #@! TF.GenerationSoftware,Kicad,Pcbnew,10.0.1
; #@! TF.FileFunction,Plated,1,2,PTH
FMAT,2
METRIC
; #@! TA.AperFunction,Plated,PTH,ComponentDrill
T1C0.750
; #@! TA.AperFunction,Plated,PTH,ComponentDrill
T2C0.800
; #@! TA.AperFunction,Plated,PTH,ComponentDrill
T3C1.000
; #@! TA.AperFunction,Plated,PTH,ComponentDrill
T4C1.200
; #@! TA.AperFunction,Plated,PTH,ComponentDrill
T5C1.200
; #@! TA.AperFunction,Plated,PTH,ComponentDrill
T6C2.500
; #@! TA.AperFunction,Plated,PTH,ComponentDrill
T7C3.200
%
G90
G05
T1
X182.626Y-112.162
X183.896Y-112.162
X185.166Y-112.162
X207.518Y-111.506
X207.518Y-112.776
X207.518Y-114.046
T2
X123.444Y-68.58
X133.604Y-66.04
X133.604Y-71.12
X136.692Y-71.628
X139.192Y-111.76
X139.192Y-118.364
X140.542Y-115.062
X140.542Y-121.666
X141.692Y-71.628
X145.542Y-115.062
X145.542Y-121.666
X149.352Y-111.76
X149.352Y-118.364
X155.702Y-111.76
X164.124Y-114.808
X165.862Y-111.76
X168.402Y-111.76
X169.124Y-114.808
X178.562Y-111.76
X189.992Y-111.76
X192.532Y-71.069
X194.818Y-117.094
X194.818Y-120.396
X194.818Y-123.698
X200.152Y-111.76
X202.692Y-71.069
X204.978Y-117.094
X204.978Y-120.396
X204.978Y-123.698
X207.772Y-117.094
X207.772Y-122.094
T3
X123.444Y-92.964
X123.444Y-95.504
X123.444Y-103.632
X123.444Y-106.172
X145.034Y-71.12
X147.574Y-71.12
X150.114Y-71.12
X152.654Y-71.12
X154.178Y-119.38
X155.194Y-71.12
X156.718Y-119.38
X157.734Y-71.12
X159.258Y-119.38
X160.274Y-71.12
X161.798Y-119.38
X162.814Y-71.12
X164.338Y-119.38
X165.354Y-71.12
X166.878Y-119.38
X167.894Y-71.12
X169.418Y-119.38
X171.958Y-71.12
X171.958Y-119.38
X174.498Y-71.12
X177.038Y-71.12
X177.038Y-119.38
X179.578Y-71.12
X179.578Y-119.38
X182.118Y-71.12
X182.118Y-119.38
X184.658Y-71.12
X184.658Y-119.38
X187.198Y-71.12
X187.198Y-119.38
X189.738Y-71.12
X189.738Y-119.38
X208.28Y-92.959
X208.28Y-95.499
X208.28Y-103.632
X208.28Y-106.172
T4
X149.408Y-123.734
X149.408Y-128.234
X155.908Y-123.734
X155.908Y-128.234
X162.104Y-123.734
X162.104Y-128.234
X168.604Y-123.734
X168.604Y-128.234
X174.808Y-123.734
X174.808Y-128.234
X181.308Y-123.734
X181.308Y-128.234
T5
X133.858Y-76.2
X136.398Y-76.2
X138.938Y-76.2
X141.478Y-76.2
X144.018Y-76.2
X146.558Y-76.2
X149.098Y-76.2
X151.638Y-76.2
X154.178Y-76.2
X156.718Y-76.2
X159.258Y-76.2
X161.798Y-76.2
X164.338Y-76.2
X166.878Y-76.2
X169.418Y-76.2
X171.958Y-76.2
T6
X128.359Y-76.2
X128.359Y-107.201
X203.357Y-107.201
X203.358Y-76.2
T7
X125.222Y-126.238
X173.228Y-66.548
X187.96Y-126.238
M30
